<?xml version="1.0" encoding="UTF-8"?><svg xmlns="http://www.w3.org/2000/svg" xmlns:xlink="http://www.w3.org/1999/xlink" viewBox="0 0 653.1 294.79"><defs><style>.f{fill:#fff;}.g{fill:#602515;}.h{fill:#f8ae19;}.i{fill:#fcc054;}.j{fill:url(#d);}.k{fill:url(#e);}.l{fill:none;}</style><linearGradient id="d" x1="188.24" y1="105.57" x2="400.38" y2="267.16" gradientTransform="matrix(1, 0, 0, 1, 0, 0)" gradientUnits="userSpaceOnUse"><stop offset="0" stop-color="#f8ae19"/><stop offset="1" stop-color="#f46425"/></linearGradient><linearGradient id="e" x1="210.28" y1="-11.4" x2="351.31" y2="81.1" xlink:href="#d"/></defs><g id="a"/><g id="b"><g id="c"><path class="j" d="M454.09,172.87c-.25,1.49-.54,2.98-.84,4.44h0c-.29,1.43-.59,2.82-.93,4.21-.22,.97-.47,1.94-.71,2.9-1.61,6.19-3.59,12.22-5.96,18.05-3.79,9.45-8.54,18.42-14.13,26.76-.01,0-.01,.01-.03,.03-26.45,39.52-71.48,65.53-122.59,65.53s-97.08-26.55-123.39-66.76c.33-.21,.66-.43,1-.68,.3-.22,.63-.47,.92-.71,.7-.54,1.41-1.15,2.12-1.79,.5-.46,1.01-.95,1.53-1.47,.92,.32,1.86,.61,2.82,.86,4.24,1.16,8.64,1.74,13.07,1.74,2.37,0,4.63-.18,6.74-.55,8.29-1.43,17.48-7.68,28.94-19.64,1.13-1.18,2.29-2.44,3.46-3.74,7,6.82,16.19,10.8,26.74,11.55,1.16,.09,2.38,.13,3.73,.13,3.41,0,6.96-.32,10.54-.93,4.02-.68,7.98-1.8,11.78-3.34,9.36-3.75,17.92-10.01,24.93-18.22,5.57-2.12,10.47-5.03,14.88-8.82,.42,.51,.87,1.04,1.37,1.59,.04,.04,.08,.09,.12,.13,4.03,4.36,9.24,7.79,15.48,10.2,.04,.01,1.01,.38,1.01,.38,.42,.16,.84,.3,1.28,.45,.41,.13,.83,.26,1.26,.39,1.76,.54,3.58,.99,5.53,1.36,.07,.01,.13,.03,.2,.03,.43,.08,.87,.16,1.29,.21,0,0,.53,.08,.58,.09,.38,.05,.78,.11,1.15,.14,1.49,.17,2.98,.26,4.41,.26,1.87,0,3.57-.14,5.21-.43,.62-.11,1.25-.24,1.99-.42,.53-.12,1.04-.28,1.55-.45,.32-.09,.79-.25,1.36-.49,2.94-1.16,5.78-2.99,8.7-5.6,.05-.05,.12-.11,.17-.16,.42-.38,.87-.8,1.33-1.25l.07-.07c.09,.04,.18,.07,.26,.09l1.95,.62c.12,.04,.43,.13,.43,.13,.21,.07,.42,.12,.63,.17,1.76,.49,3.49,.87,5.13,1.13,.07,.01,1.4,.21,1.4,.21,1.84,.26,3.65,.39,5.36,.39s3.44-.14,5.03-.41c.45-.08,.99-.17,1.58-.3,3.57-1.96,7.28-3.87,11.1-5.73h.01c.45-.38,.9-.78,1.34-1.18,.53-.47,1.05-.99,1.59-1.51h0c-.93-.32-1.84-.66-2.74-1.01,.67-.63,1.34-1.32,2.03-2.04,.72,.28,1.45,.54,2.2,.78,.11,.03,.33,.11,.51,.16,.12,.04,.22,.07,.25,.08,1.03,.32,2.08,.61,3.15,.86,.26-.13,.54-.25,.8-.37,5.56-2.47,11.28-4.86,17.07-7.11,.74-.29,1.49-.58,2.24-.86Z"/><path class="h" d="M172.93,105.03c-1.72,2.45-3.75,4.54-6.03,6.08-.08,.05-.13,.11-.2,.14-.05,.03-.11,.07-.16,.09-.22,.14-.46,.28-.7,.42,3.01-12.18,7.54-23.76,13.39-34.53,.08,.33,.16,.67,.22,1.01,1.53,7.74-.99,19-6.53,26.78Z"/><path class="k" d="M410.38,40.52c-9.08,2.7-16.06,9.33-19.05,18.26-.05,.14-.09,.28-.13,.42-.46,1.43-.86,2.99-1.28,4.58-.01,.05-.01,.09-.03,.14-.63,2.55-1.26,5.54-2.03,9.41-.86,4.44-1.51,8.37-1.76,9.93-.17,1-.28,2.01-.33,3.03-.9-.32-1.82-.59-2.75-.84-.93-.24-1.9-.45-2.83-.62-2.2-.38-4.38-.58-6.53-.58-1.82,0-3.57,.14-5.29,.42-.49,.09-1.84,.34-3.75,.7-3.76,.68-12.56,2.3-20.54,3.69-7.53,1.29-12.18,1.95-14.2,2.21-.3-.01-.63-.03-.96-.03-1.34,0-2.65,.12-3.88,.33-1.05,.18-2.11,.45-3.24,.8l-.16,.05c-.42,.13-.84,.28-1.28,.46-.3,.12-.66,.26-.99,.41-.11,.05-.21,.11-.33,.16-.38,.17-.75,.36-1.12,.57-.29,.14-.58,.29-.86,.46-.49,.28-.92,.54-1.33,.83-.43,.28-.86,.58-1.26,.9-.29,.22-.59,.45-.87,.68-.25,.22-.51,.45-.78,.68-.04,.04-.08,.08-.13,.12-.32,.3-.63,.61-.9,.88-.16,.16-.49,.47-.86,.91h-.01c-1.72-.5-3.5-.9-5.24-1.17-2.51-.41-5.19-.62-7.91-.62-3.36,0-6.83,.3-10.31,.91-4.53,.78-8.98,2.13-13.14,3.98-2.88,1.26-5.71,2.8-8.44,4.57-2.63-2.24-5.5-4.08-8.53-5.49,3.55-3.8,7.56-10.64,13.26-23.21,2.29-5,1.59-10.64-1.78-14.71-1.71-2.08-3.99-3.58-6.57-4.34-.16-.04-.3-.08-.46-.12-.03-3.45-1.32-6.77-3.75-9.4-1.36-1.47-3.04-2.66-4.95-3.53-2.42-1.12-5.21-1.72-8.14-1.72-1.53,0-2.98,.17-4.29,.5-1.92,.47-3.69,1.32-5.23,2.46-.5-.04-.99-.05-1.5-.05-.29,0-.58,.01-.86,.01-1.69,.07-3.45,.32-5.24,.76-1.11,.28-2.2,.62-3.26,1.04,.53-2.41,1.09-4.88,1.67-7.44l.04-.21c.07-.26,.12-.54,.17-.8,.79-4.52-.63-9.07-3.88-12.31-.13-.13-.28-.26-.42-.38C246.51,10.47,276.48,0,308.89,0c39.34,0,75.07,15.4,101.49,40.52Z"/><path class="h" d="M456.29,147.39c0,1.41-.03,2.82-.07,4.23h0c-.14,5.57-.62,11.03-1.38,16.42h0c-.86,.78-1.65,1.38-2.36,1.86-2.13,1.41-3.59,1.67-4.71,1.87-.9,.14-1.88,.22-2.99,.22-.91,0-1.87-.04-2.87-.14-.55-.05-1.11-.11-1.69-.18-.57-.08-1.15-.17-1.74-.28-.28-.05-.54-.11-.83-.16h-.01c-.91-.18-1.83-.41-2.75-.66-.33-.09-.66-.18-.99-.29-.18-.07-.37-.11-.55-.17-2.37-.76-4.74-1.78-6.92-3.07-.46-.28-.92-.55-1.36-.86-.62,.82-1.2,1.57-1.75,2.28-2.01,2.53-3.73,4.37-5.21,5.71-.38,.36-.75,.67-1.09,.95-.17,.14-.34,.28-.51,.41-.17,.13-.33,.26-.49,.37-.38,.28-.74,.51-1.08,.72-.25,.14-.5,.29-.72,.41-.16,.08-.3,.16-.45,.22-.14,.07-.29,.13-.42,.18-1.04,.42-1.87,.58-2.55,.68-.88,.16-1.84,.24-2.87,.24s-2.2-.08-3.49-.26l-1.16-.17c-.22-.04-.46-.08-.68-.12-.22-.05-.46-.09-.7-.14-.45-.09-.9-.18-1.34-.3-.45-.11-.92-.24-1.38-.37-.01,.01-.01,0-.03,0l-.18-.05-1.95-.62c-2.59-.92-5.23-2.17-7.62-3.83-2.26,3.03-4.2,5.24-5.85,6.89-.4,.38-.78,.74-1.13,1.07-.78,.68-1.47,1.25-2.12,1.7-.26,.2-.53,.36-.76,.5-.2,.13-.4,.25-.58,.34-.5,.28-.95,.49-1.36,.65-.18,.08-.36,.13-.53,.18-.03,.01-.05,.03-.08,.03-.18,.07-.37,.12-.54,.16-.46,.12-.84,.18-1.21,.25-.88,.16-1.82,.22-2.86,.22-.87,0-1.86-.05-2.94-.18-.26-.03-.54-.07-.82-.11-.17-.03-.36-.05-.53-.08-.3-.04-.61-.09-.91-.14-1.33-.25-2.74-.58-4.17-1.03-.32-.09-.63-.18-.93-.29-.25-.08-.49-.16-.72-.25-.32-.12-.63-.24-.95-.36-3.82-1.47-7.64-3.7-10.56-6.86-.47-.53-.93-1.07-1.37-1.63-.22-.3-.45-.61-.65-.92-.07-.09-.12-.18-.18-.29-.13-.21-.26-.42-.4-.63-.18-.32-.37-.65-.53-.97-.16-.3-.3-.59-.43-.91-.03-.04-.04-.07-.05-.11-.03-.05-.05-.09-.07-.14-.12-.26-.22-.55-.33-.83-.04-.11-.08-.2-.11-.3-.12-.28-.21-.57-.29-.86-.11-.34-.2-.68-.29-1.04-.11-.43-.2-.88-.28-1.34-.78-4.5-.46-10.26,1-17.47-.53,.97-1.04,1.94-1.58,2.92-.25,1.24-.71,2.46-1.33,3.65-3.37,6.61-7,12.93-12.61,17.89-.96,.84-1.97,1.66-3.07,2.41-.38,.26-.76,.53-1.16,.78-.32,.21-.65,.41-.97,.61-.33,.21-.67,.41-1.01,.59-.76,.43-1.55,.84-2.38,1.22-.34,.16-.71,.32-1.07,.47-.37,.16-.74,.32-1.12,.46-.38,.14-.78,.29-1.16,.43-.79,.29-1.59,.55-2.44,.8-6.07,7.98-13.63,13.89-22,17.25-2.94,1.18-5.98,2.05-9.08,2.58-2.9,.5-5.71,.75-8.35,.75-.93,0-1.86-.03-2.75-.09-1.03-.08-2.03-.18-3-.34-.49-.08-.97-.16-1.45-.26-.46-.09-.92-.2-1.38-.3-.03-.01-.07-.01-.09-.03-.83-.21-1.63-.45-2.42-.72-.41-.13-.8-.28-1.19-.43-.42-.16-.83-.33-1.22-.51-.41-.18-.8-.37-1.18-.57-.4-.2-.78-.39-1.16-.62-.29-.16-.58-.33-.87-.51-.17-.09-.33-.2-.49-.3-.29-.17-.57-.37-.83-.57-.16-.11-.32-.21-.47-.34-.14-.11-.29-.21-.42-.32-.41-.3-.8-.62-1.18-.96-.32-.26-.62-.54-.92-.83s-.61-.59-.91-.91c-.21-.2-.41-.41-.59-.62-.41-.45-.79-.91-1.17-1.4-2.32-2.92-4.11-6.41-5.31-10.4-2.32,3.12-4.52,5.87-6.37,8.1-.37,.45-.76,.92-1.21,1.43-.57,.67-1.18,1.4-1.86,2.16h0c-.4,.46-.82,.93-1.24,1.41-1.15,1.29-2.41,2.66-3.74,4.05-6.71,7.02-15.3,14.68-21.68,15.78-1.37,.24-2.88,.36-4.49,.36-.42,0-.86-.01-1.28-.03-.26,0-.51-.01-.76-.04-.29-.01-.59-.03-.88-.05-.24-.01-.46-.04-.7-.07-.63-.05-1.26-.13-1.9-.24-.45-.07-.88-.14-1.33-.22-.46-.09-.93-.18-1.4-.29-.46-.11-.92-.22-1.38-.34-3.54-.95-6.9-2.42-9.79-4.41-2.76,3.77-5.02,6.31-6.89,8.02-.47,.43-.92,.82-1.34,1.15-.18,.14-.37,.29-.54,.41-1.01-1.9-1.99-3.83-2.92-5.78-1.26-2.62-2.44-5.28-3.51-7.99-1.36-3.26-2.57-6.6-3.66-9.98-.37-1.11-.71-2.21-1.03-3.33-.3-.97-.58-1.94-.84-2.92-.49-1.76-.93-3.54-1.37-5.32-2.58-10.9-3.94-22.27-3.94-33.97,0-1.65,.03-3.26,.09-4.9h0c.07-2.32,.2-4.61,.38-6.89,.32-.28,.66-.54,1-.79,1.7-1.22,3.63-2.05,5.77-2.41,.93-.17,1.96-.25,3.05-.25,2.4,0,5.25,.41,8,1.38,.82,.29,1.63,.63,2.42,1.03,2.4,1.17,4.57,2.86,6.11,5.16,.76,1.15,1.32,2.37,1.69,3.65,1.03-2.59,2.13-5.25,3.29-8.02,.13-.3,.26-.61,.41-.9,.28-.59,.61-1.15,.93-1.69,.17-.26,.36-.53,.54-.78,.08-.11,.16-.21,.25-.32,.25-.34,.53-.67,.82-.99,.11-.12,.22-.24,.34-.36,.14-.16,.3-.32,.46-.46,.05-.05,.11-.11,.16-.14,.13-.12,.25-.22,.38-.33,.14-.13,.3-.25,.46-.37,.08-.07,.16-.13,.24-.18,.08-.05,.16-.12,.24-.18,.17-.12,.33-.22,.5-.33,.16-.09,.32-.21,.49-.29,0,0,0-.01,.01-.01,.13-.09,.28-.17,.42-.24,.01-.03,.03-.03,.04-.03,.17-.11,.34-.18,.5-.26,.01,0,.03-.01,.04-.01,.13-.07,.26-.12,.41-.18,.04-.03,.08-.05,.12-.05,.18-.09,.37-.17,.57-.24,.25-.11,.51-.2,.79-.28,.01-.01,.05-.03,.07-.03,.29-.09,.59-.17,.9-.25,.3-.07,.59-.13,.91-.18,.93-.16,1.97-.25,3.05-.25,5.31,0,12.81,1.99,16.54,7.57,2.44,3.65,2.83,8.16,1.11,12.41-.07,.16-.13,.33-.21,.53-.04,.08-.07,.17-.09,.26-.38,1.04-.83,2.41-1.33,4.02-.11,.37-.21,.74-.33,1.12-.03,.05-.04,.11-.04,.16-.07,.18-.13,.38-.18,.59-1.07,3.59-2.29,8.02-3.46,12.51h0c-.2,.74-.4,1.47-.58,2.2,.26-.45,.51-.9,.76-1.34,.33-.59,.66-1.18,.97-1.79,.33-.62,.65-1.24,.96-1.87,.18-.37,.38-.74,.55-1.11,1.44-2.91,2.75-6,3.88-9.18,.16-.46,.33-.93,.47-1.42,.21-.58,.38-1.16,.55-1.74,.21-.68,.41-1.38,.61-2.08,.11-.37,.2-.75,.29-1.12,.11-.42,.21-.83,.3-1.25,.09-.41,.18-.83,.26-1.25,.01-.04,.03-.08,.03-.11,2.29-10.43,1.54-14.6,.88-16.15-.08-.24-.17-.46-.25-.7-.95-2.94-.55-6.15,1.07-8.82,1.82-3,4.96-5.08,8.66-5.73,1.22-.21,2.46-.32,3.69-.32,.34,0,.7,.01,1.04,.03,.39,.01,.78,.05,1.17,.09,.21,.03,.43,.05,.65,.08,.18,.03,.37,.05,.57,.09,.86,.13,1.71,.33,2.55,.58,.18,.04,.36,.09,.53,.16,.66,.21,1.32,.45,1.95,.71,.5,.21,.99,.43,1.46,.67,.54,.28,1.08,.57,1.59,.88,.25,.14,.5,.3,.74,.46,.25,.16,.49,.32,.72,.49,.25,.17,.5,.36,.75,.54,.18,.13,.36,.26,.53,.39,.28,.24,.55,.46,.83,.7,.55,.47,1.08,.97,1.59,1.5,1.96,2.01,3.62,4.37,4.84,6.95,2.55-2.67,5.31-5,8.21-6.99,.74-.5,1.47-.97,2.23-1.42,.96-.58,1.92-1.12,2.91-1.61,.32-.17,.63-.33,.96-.47,.45-.22,.9-.43,1.36-.63,3.23-1.43,6.61-2.46,10.07-3.05,2.8-.49,5.52-.72,8.08-.72,2,0,3.94,.14,5.79,.45,.53,.08,1.05,.18,1.57,.29l.2,.04c.34,.08,.7,.16,1.03,.25,.45,.11,.9,.22,1.33,.36,3.94,1.16,7.44,3.04,10.41,5.6-.43-2.53-.04-5.09,1.15-7.37,.13-.25,.28-.5,.43-.75,.03-.05,.07-.13,.12-.18,.13-.22,.28-.43,.43-.63,.17-.22,.34-.43,.51-.63,.11-.13,.21-.24,.33-.36,.2-.2,.39-.39,.59-.58,.14-.13,.29-.26,.43-.38,.11-.09,.22-.18,.36-.28,.16-.13,.34-.26,.53-.38t.04-.03c.21-.14,.43-.28,.67-.41,.07-.04,.14-.09,.22-.12,.01,0,.01-.01,.03-.01,.24-.14,.47-.25,.71-.37,.21-.09,.43-.18,.63-.26,.16-.07,.3-.11,.46-.16,.5-.16,1.04-.3,1.58-.39,.5-.09,1.07-.13,1.58-.13,.43,0,.86,.04,1.21,.08,1.65-.16,7.03-.88,16.19-2.46,7.81-1.34,16.18-2.88,20.68-3.71,1.84-.34,3.13-.58,3.59-.66,.95-.16,1.97-.24,3.07-.24,1.32,0,2.74,.12,4.23,.38,.59,.11,1.2,.24,1.8,.39,.24,.07,.46,.12,.7,.18,.09,.04,.18,.07,.28,.09,.33,.09,.65,.2,.97,.32,.57,.2,1.13,.42,1.69,.67,.25,.11,.5,.22,.75,.36,.16,.07,.3,.14,.45,.22,.3,.16,.61,.33,.9,.5,1.87,1.12,3.53,2.58,4.78,4.44,.76,1.15,1.33,2.37,1.67,3.65,1.03-2.59,2.12-5.27,3.29-8,.14-.36,.29-.68,.46-1.03,.03-.04,.05-.11,.09-.16,.14-.29,.29-.57,.45-.84,.03-.03,.04-.04,.05-.08,.2-.33,.41-.65,.62-.96,.16-.21,.3-.42,.46-.62,.09-.13,.2-.26,.3-.38,.17-.21,.34-.42,.53-.61,.07-.08,.14-.16,.21-.24,.22-.24,.46-.46,.7-.67,.01-.01,.04-.03,.05-.05,.25-.22,.51-.46,.79-.66,.2-.16,.41-.32,.62-.46,.03-.03,.05-.04,.08-.07,.07-.04,.12-.08,.18-.12-1.57-2.49-2.17-5.36-1.67-8.24,.13-.8,.8-4.9,1.71-9.6,.57-2.91,1.21-6.04,1.88-8.78,.33-1.29,.65-2.49,.96-3.53h0c.04-.16,.09-.3,.13-.45,.01-.05,.04-.09,.04-.13,1.84-5.52,6.39-9.27,12.44-10.32,.25-.04,.51-.08,.76-.11,.08-.01,.14-.03,.21-.03h.01c.41-.05,.82-.09,1.22-.12s.82-.04,1.22-.04h.11c.59,0,1.21,.04,1.83,.11,.17,.18,.33,.37,.47,.55,2.32,2.76,4.53,5.62,6.64,8.56,.76,1.07,1.53,2.16,2.26,3.25,2.12,3.13,4.12,6.35,6,9.64,.4,.68,.78,1.38,1.16,2.07,.04,.09,.09,.17,.13,.25,2.11,3.84,4.04,7.79,5.79,11.84,.46,1.04,.9,2.09,1.33,3.15,1.55,3.79,2.95,7.66,4.19,11.62,1.29,4.15,2.41,8.35,3.33,12.64h0c.8,3.67,1.45,7.39,1.96,11.14v.03c.13,.84,.24,1.66,.33,2.5,.4,3.19,.67,6.4,.84,9.64h0c.07,1.16,.11,2.29,.14,3.44,.05,1.54,.08,3.09,.08,4.65Z"/><path class="h" d="M172.93,105.03c-1.72,2.45-3.75,4.54-6.03,6.08,.43-1.78,.92-3.55,1.44-5.32,2.79-9.62,6.54-18.85,11.12-27.54,1.53,7.74-.99,19-6.53,26.78Z"/><path class="h" d="M454.17,147.39c0,1.47-.01,2.95-.07,4.41-.17,6.13-.72,12.16-1.62,18.09-2.13,1.41-3.59,1.67-4.71,1.87-.9,.14-1.88,.22-2.99,.22-.91,0-1.87-.04-2.87-.14-.55-.05-1.11-.11-1.69-.18-.57-.08-1.15-.17-1.74-.28-.28-.05-.54-.11-.83-.16h-.01c-.91-.18-1.83-.41-2.75-.66-.33-.09-.66-.18-.99-.29-.18-.07-.37-.11-.55-.17-2.37-.76-4.74-1.78-6.92-3.07-.46-.28-.92-.55-1.36-.86-.62,.82-1.2,1.57-1.75,2.28-2.01,2.53-3.73,4.37-5.21,5.71-.38,.36-.75,.67-1.09,.95-.17,.14-.34,.28-.51,.41-.17,.13-.33,.26-.49,.37-.38,.28-.74,.51-1.08,.72-.25,.14-.5,.29-.72,.41-.16,.08-.3,.16-.45,.22-.14,.07-.29,.13-.42,.18-1.04,.42-1.87,.58-2.55,.68-.88,.16-1.84,.24-2.87,.24s-2.2-.08-3.49-.26l-1.16-.17-1.36-.3-2.75-.63s-.01,0-.03,0l-.18-.05-1.95-.62c-2.59-.92-5.23-2.17-7.62-3.83-2.26,3.03-4.2,5.24-5.85,6.89-.4,.38-.78,.74-1.13,1.07-.78,.68-1.47,1.25-2.12,1.7-.26,.2-.53,.36-.76,.5-.2,.13-.4,.25-.58,.34-.5,.28-.95,.49-1.36,.65-.18,.08-.36,.13-.53,.18-.03,.01-.05,.03-.08,.03-.18,.07-.37,.12-.54,.16-.46,.12-.84,.18-1.21,.25-.88,.16-1.82,.22-2.86,.22-.87,0-1.86-.05-2.94-.18-.26-.03-.54-.07-.82-.11-.17-.03-.36-.05-.53-.08-.3-.04-.61-.09-.91-.14-1.33-.25-2.74-.58-4.17-1.03-.32-.09-.63-.18-.93-.29-.25-.08-.49-.16-.72-.25-.32-.12-.63-.24-.95-.36-3.82-1.47-7.64-3.7-10.56-6.86-.47-.53-.93-1.07-1.37-1.63-.22-.3-.45-.61-.65-.92-.07-.09-.12-.18-.18-.29-.13-.21-.26-.42-.4-.63-.18-.32-.37-.65-.53-.97-.16-.3-.3-.59-.43-.91-.03-.04-.04-.07-.05-.11-.03-.05-.05-.09-.07-.14-.12-.26-.22-.55-.33-.83-.04-.11-.08-.2-.11-.3-.12-.28-.21-.57-.29-.86-.11-.34-.2-.68-.29-1.04-.11-.43-.2-.88-.28-1.34-.78-4.5-.46-10.26,1-17.47-.53,.97-1.04,1.94-1.58,2.92-.25,1.24-.71,2.46-1.33,3.65-3.37,6.61-7,12.93-12.61,17.89-.96,.84-1.97,1.66-3.07,2.41-.38,.26-.76,.53-1.16,.78-.32,.21-.65,.41-.97,.61-.33,.21-.67,.41-1.01,.59-.76,.43-1.55,.84-2.38,1.22-.34,.16-.71,.32-1.07,.47-.37,.16-.74,.32-1.12,.46-.38,.14-.78,.29-1.16,.43-.79,.29-1.59,.55-2.44,.8-6.07,7.98-13.63,13.89-22,17.25-2.94,1.18-5.98,2.05-9.08,2.58-2.9,.5-5.71,.75-8.35,.75-.93,0-1.86-.03-2.75-.09-1.03-.08-2.03-.18-3-.34-.49-.08-.97-.16-1.45-.26-.46-.09-.92-.2-1.38-.3-.03-.01-.07-.01-.09-.03-.83-.21-1.63-.45-2.42-.72-.41-.13-.8-.28-1.19-.43-.42-.16-.83-.33-1.22-.51-.41-.18-.8-.37-1.18-.57-.4-.2-.78-.39-1.16-.62-.29-.16-.58-.33-.87-.51-.17-.09-.33-.2-.49-.3-.29-.17-.57-.37-.83-.57-.16-.11-.32-.21-.47-.34-.14-.11-.29-.21-.42-.32-.41-.3-.8-.62-1.18-.96-.32-.26-.62-.54-.92-.83s-.61-.59-.91-.91c-.21-.2-.41-.41-.59-.62-.41-.45-.79-.91-1.17-1.4-2.32-2.92-4.11-6.41-5.31-10.4-2.32,3.12-4.52,5.87-6.37,8.1-.37,.45-.76,.92-1.21,1.43-.57,.67-1.18,1.4-1.86,2.16h0c-.4,.46-.82,.93-1.24,1.41-1.15,1.29-2.41,2.66-3.74,4.05-6.71,7.02-15.3,14.68-21.68,15.78-1.37,.24-2.88,.36-4.49,.36-.42,0-.86-.01-1.28-.03-.26,0-.51-.01-.76-.04-.29-.01-.59-.03-.88-.05-.24-.01-.46-.04-.7-.07-.63-.05-1.26-.13-1.9-.24-.45-.07-.88-.14-1.33-.22-.46-.09-.93-.18-1.4-.29-.46-.11-.92-.22-1.38-.34-3.54-.95-6.9-2.42-9.79-4.41-2.76,3.77-5.02,6.31-6.89,8.02-.47,.43-.92,.82-1.34,1.15-.67-1.28-1.32-2.55-1.95-3.86-1.61-3.3-3.11-6.66-4.48-10.11h0c-1.29-3.26-2.48-6.57-3.53-9.93h0c-.61-1.9-1.17-3.8-1.7-5.74-.18-.7-.37-1.4-.55-2.11v-.03c-.49-1.88-.93-3.78-1.34-5.69-2.17-10.12-3.33-20.63-3.33-31.42,0-2.42,.07-4.83,.18-7.23h0c.08-1.79,.2-3.57,.36-5.34,1.7-1.22,3.63-2.05,5.77-2.41,.93-.17,1.96-.25,3.05-.25,2.4,0,5.25,.41,8,1.38,.82,.29,1.63,.63,2.42,1.03,2.4,1.17,4.57,2.86,6.11,5.16,.76,1.15,1.32,2.37,1.69,3.65,1.03-2.59,2.13-5.25,3.29-8.02,.13-.3,.26-.61,.41-.9,.28-.59,.61-1.15,.93-1.69,.17-.26,.36-.53,.54-.78,.08-.11,.16-.21,.25-.32,.25-.34,.53-.67,.82-.99,.11-.12,.22-.24,.34-.36,.14-.16,.3-.32,.46-.46,.05-.05,.11-.11,.16-.14,.13-.12,.25-.22,.38-.33,.14-.13,.3-.25,.46-.37,.08-.07,.16-.13,.24-.18,.08-.05,.16-.12,.24-.18,.17-.12,.33-.22,.5-.33,.16-.09,.32-.21,.49-.29,0,0,0-.01,.01-.01,.13-.09,.28-.17,.42-.24,.01-.03,.03-.03,.04-.03,.17-.11,.34-.18,.5-.26,.01,0,.03-.01,.04-.01,.13-.07,.26-.12,.41-.18,.04-.03,.08-.05,.12-.05,.18-.09,.37-.17,.57-.24,.25-.11,.51-.2,.79-.28,.01-.01,.05-.03,.07-.03,.29-.09,.59-.17,.9-.25,.3-.07,.59-.13,.91-.18,.93-.16,1.97-.25,3.05-.25,5.31,0,12.81,1.99,16.54,7.57,2.44,3.65,2.83,8.16,1.11,12.41-.07,.16-.13,.33-.21,.53-.04,.08-.07,.17-.09,.26-.38,1.04-.83,2.41-1.33,4.02-.11,.37-.21,.74-.33,1.12-.03,.05-.04,.11-.04,.16-.07,.18-.13,.38-.18,.59-1.07,3.59-2.29,8.02-3.46,12.51h0c-.2,.74-.4,1.47-.58,2.2,.26-.45,.51-.9,.76-1.34,.33-.59,.66-1.18,.97-1.79,.33-.62,.65-1.24,.96-1.87,.18-.37,.38-.74,.55-1.11,1.44-2.91,2.75-6,3.88-9.18,.16-.46,.33-.93,.47-1.42,.21-.58,.38-1.16,.55-1.74,.21-.68,.41-1.38,.61-2.08,.11-.37,.2-.75,.29-1.12,.11-.42,.21-.83,.3-1.25,.09-.41,.18-.83,.26-1.25,.01-.04,.03-.08,.03-.11,2.29-10.43,1.54-14.6,.88-16.15-.08-.24-.17-.46-.25-.7-.95-2.94-.55-6.15,1.07-8.82,1.82-3,4.96-5.08,8.66-5.73,1.22-.21,2.46-.32,3.69-.32,.34,0,.7,.01,1.04,.03,.39,.01,.78,.05,1.17,.09,.21,.03,.43,.05,.65,.08,.18,.03,.37,.05,.57,.09,.86,.13,1.71,.33,2.55,.58,.18,.04,.36,.09,.53,.16,.66,.21,1.32,.45,1.95,.71,.5,.21,.99,.43,1.46,.67,.54,.28,1.08,.57,1.59,.88,.25,.14,.5,.3,.74,.46,.25,.16,.49,.32,.72,.49,.25,.17,.5,.36,.75,.54,.18,.13,.36,.26,.53,.39,.28,.24,.55,.46,.83,.7,.55,.47,1.08,.97,1.59,1.5,1.96,2.01,3.62,4.37,4.84,6.95,2.55-2.67,5.31-5,8.21-6.99,.74-.5,1.47-.97,2.23-1.42,.96-.58,1.92-1.12,2.91-1.61,.32-.17,.63-.33,.96-.47,.45-.22,.9-.43,1.36-.63,3.23-1.43,6.61-2.46,10.07-3.05,2.8-.49,5.52-.72,8.08-.72,2,0,3.94,.14,5.79,.45,.53,.08,1.05,.18,1.57,.29l.2,.04c.34,.08,.7,.16,1.03,.25,.45,.11,.9,.22,1.33,.36,3.94,1.16,7.44,3.04,10.41,5.6-.43-2.53-.04-5.09,1.15-7.37,.13-.25,.28-.5,.43-.75,.03-.05,.07-.13,.12-.18,.13-.22,.28-.43,.43-.63,.17-.22,.34-.43,.51-.63,.11-.13,.21-.24,.33-.36,.2-.2,.39-.39,.59-.58,.14-.13,.29-.26,.43-.38,.11-.09,.22-.18,.36-.28,.16-.13,.34-.26,.53-.38t.04-.03c.21-.14,.43-.28,.67-.41,.07-.04,.14-.09,.22-.12,.01,0,.01-.01,.03-.01,.24-.14,.47-.25,.71-.37,.21-.09,.43-.18,.63-.26,.16-.07,.3-.11,.46-.16,.5-.16,1.04-.3,1.58-.39,.5-.09,1.07-.13,1.58-.13,.43,0,.86,.04,1.21,.08,1.65-.16,7.03-.88,16.19-2.46,7.81-1.34,16.18-2.88,20.68-3.71,1.84-.34,3.13-.58,3.59-.66,.95-.16,1.97-.24,3.07-.24,1.32,0,2.74,.12,4.23,.38,.59,.11,1.2,.24,1.8,.39,.24,.07,.46,.12,.7,.18,.09,.04,.18,.07,.28,.09,.33,.09,.65,.2,.97,.32,.57,.2,1.13,.42,1.69,.67,.25,.11,.5,.22,.75,.36,.16,.07,.3,.14,.45,.22,.3,.16,.61,.33,.9,.5,1.87,1.12,3.53,2.58,4.78,4.44,.76,1.15,1.33,2.37,1.67,3.65,1.03-2.59,2.12-5.27,3.29-8,.14-.36,.29-.68,.46-1.03,.03-.04,.05-.11,.09-.16,.14-.29,.29-.57,.45-.84,.03-.03,.04-.04,.05-.08,.2-.33,.41-.65,.62-.96,.16-.21,.3-.42,.46-.62,.09-.13,.2-.26,.3-.38,.17-.21,.34-.42,.53-.61,.07-.08,.14-.16,.21-.24,.22-.24,.46-.46,.7-.67,.01-.01,.04-.03,.05-.05,.25-.22,.51-.46,.79-.66,.2-.16,.41-.32,.62-.46,.03-.03,.05-.04,.08-.07,.07-.04,.12-.08,.18-.12-1.57-2.49-2.17-5.36-1.67-8.24,.13-.8,.8-4.9,1.71-9.6,.57-2.91,1.21-6.04,1.88-8.78,.33-1.29,.65-2.49,.96-3.53h0c.04-.16,.09-.3,.13-.45,.01-.05,.04-.09,.04-.13,1.84-5.52,6.39-9.27,12.44-10.32,.25-.04,.51-.08,.76-.11,.08-.01,.14-.03,.21-.03h.01c.41-.05,.82-.09,1.22-.12s.82-.04,1.22-.04h.11c.34,.41,.68,.83,1.03,1.25,2.28,2.78,4.45,5.65,6.52,8.58,.17,.24,.33,.49,.5,.72,.58,.83,1.13,1.66,1.7,2.5,1.11,1.67,2.19,3.36,3.21,5.07,.9,1.46,1.75,2.94,2.58,4.42,.7,1.22,1.37,2.47,2.03,3.75,.03,.04,.05,.08,.07,.12v.03c1.72,3.3,3.32,6.65,4.79,10.1,.26,.61,.51,1.21,.76,1.82,.45,1.07,.88,2.15,1.29,3.24,.63,1.62,1.22,3.26,1.79,4.92,.12,.33,.25,.66,.36,1,.72,2.13,1.4,4.3,2.03,6.5,.07,.21,.13,.43,.2,.66,.53,1.87,1.01,3.74,1.47,5.63h0c.43,1.9,.86,3.77,1.22,5.67,.37,1.86,.7,3.73,.99,5.61,.42,2.62,.78,5.27,1.04,7.94,.03,.17,.04,.34,.07,.53h0c.17,1.75,.32,3.5,.42,5.27h0c.13,2.01,.21,4.02,.26,6.03,.03,.72,.03,1.45,.04,2.19,.01,.5,.01,1,.01,1.5Z"/><g><path class="h" d="M179.46,78.25c-.07-.34-.14-.68-.22-1.01-.07-.28-.16-.57-.24-.83-.03-.11-.07-.21-.11-.29-1.53-4.4-5.49-7.23-10.08-7.23-.66,0-1.33,.05-2.01,.16-2.79,.49-5.2,1.86-6.89,3.88-2.08,2.2-8.96,5.2-18.35,6.82-9.35,1.61-20.14,2.34-31.56,3.13h-.17c-4.21,.29-8.45,.58-12.74,.92-9.75,.76-19.76,1.78-30.04,3.55-9.5,1.62-18.62,3.86-27.11,6.64C13,102.94,.48,122.71,0,138.39c-.18,7.93,2.82,15.65,8.25,21.21,4.65,4.77,10.48,7.39,16.44,7.39,1.12,0,2.24-.09,3.33-.28,.4-.08,.78-.16,1.15-.25-1.2,3.23-1.83,6.75-2,10.11-.21,3.7,.95,7.1,3.26,9.53,2.12,2.25,4.98,3.48,8.02,3.48,.63,0,1.26-.05,1.88-.16,.67-.11,1.26-.28,1.82-.46-7.83,29.4-6.79,35.44-6.32,38.23,1.83,10.64,12.11,16.92,21.96,18.77,1.09,.21,2.19,.37,3.26,.46,.28,.03,.55,.04,.82,.04,.51,0,1.03-.04,1.53-.13,6.06-1.04,9.62-5.21,9.79-11.45v-.41c-.01-1.29,.61-7.41,1.59-14.99,1.04-7.81,4.45-22.52,8.24-38.07,2.22-.36,4.4-.7,6.46-1.03,.36-.05,.72-.12,1.08-.17,1.04-.17,2.05-.33,3.03-.47,.97-.16,1.91-.3,2.8-.45,1.8-.29,3.46-.57,4.96-.8,2.75-.45,4.95-.8,6.39-1.04,.28-.04,.51-.08,.74-.12,1.46-.25,2.79-.7,4.03-1.3h.01c7.46-3.57,10.65-12.82,11.08-21.09,.03-.42,.04-.83,.01-1.24h0c-.04-1.55-.34-3-.86-4.37-.57-1.42-1.38-2.73-2.44-3.84-1.47-1.57-3.37-2.66-5.41-3.19-.9-.24-1.83-.36-2.76-.36-.16,0-.3,0-.46,.01-.47,.03-.97,.08-1.45,.16-1.26,.21-2.26,.66-2.98,1.05-.09,.03-.2,.05-.3,.08-1.46,.39-4.24,.95-7.67,1.59-2.13,.4-4.52,.83-7,1.28,2.95-11.03,5.67-20.84,7.5-27.41,.55-.01,1.11-.01,1.65-.01,2.69-.03,5.36-.04,7.99-.07,15.78-.09,30.69-.17,42-2.11,6.02-1.04,10.73-2.59,14.4-4.74,.24-.14,.47-.28,.7-.42,.05-.03,.11-.07,.16-.09,.07-.04,.12-.09,.2-.14,2.28-1.54,4.3-3.63,6.03-6.08,5.54-7.78,8.06-19.04,6.53-26.78ZM35.2,147.21c-.01-5.42,1.59-9.76,4.09-13.2h0c2.86-3.94,6.87-6.73,10.99-8.7h.01c4.46-2.15,9.04-3.33,12.36-3.96-.21,.66-.43,1.34-.67,2.03-2.71,8.21-6.02,18.42-9.32,29.17-2.42,.39-4.54,.72-6.31,1-1.58,.24-2.86,.42-3.74,.58-.11,.03-.21,.04-.3,.05-1.66,.29-3.15,.8-4.5,1.5,.04-2.21-.62-4.37-1.94-6.17-.59-.78-.71-1.16-.68-2.15v-.14Z"/><path class="h" d="M216.9,176.79h0c-.49,2.21-1.32,4.36-2.45,6.42-1.2,2.2-2.36,4.32-3.49,6.31-2.04,3.65-4.04,7.06-5.94,10.19-.86,1.42-1.71,2.78-2.53,4.08-1.78,2.83-3.51,5.42-5.16,7.73-3.54-.95-6.9-2.42-9.79-4.41-2.76,3.77-5.02,6.31-6.89,8.02-.47,.43-.92,.82-1.34,1.15-.18,.14-.37,.29-.54,.41-.08,.07-.16,.12-.24,.16-2.28,1.65-3.86,1.94-5.16,2.16-.9,.14-1.87,.22-2.92,.22-5.44,0-12.44-1.79-18.06-5.58-5.75,6.95-11.53,10.95-17.29,11.94-1.51,.26-3.07,.39-4.63,.39-7.77,0-14.63-2.94-19.26-7.79h0c-3.05-3.19-5.13-7.19-5.92-11.74-.54-3.16-.74-6.65-.59-10.35h0c0-.32,.01-.62,.04-.92,.01-.34,.04-.68,.05-1.01,.07-.97,.14-1.95,.25-2.95,.09-.9,.21-1.8,.34-2.71,.03-.18,.05-.36,.08-.54,.05-.34,.11-.7,.16-1.04,.53-3.15,1.24-6.33,2.15-9.48-1.44,.24-3.63,.59-6.39,1.04-1.5,.24-3.16,.51-4.96,.8,.34-1.53,.74-3.04,1.16-4.53,.03-.07,.04-.13,.05-.2,.96-3.34,2.08-6.62,3.37-9.74,.45-1.08,.91-2.15,1.38-3.19,2.28-4.98,4.91-9.53,7.86-13.59,1.49-2.05,3.05-3.98,4.7-5.75,2.04,.53,3.94,1.62,5.41,3.19,1.05,1.12,1.87,2.42,2.44,3.84,2.17-2.38,4.52-4.45,6.96-6.21,.28-.2,.55-.38,.83-.58,.14-.09,.28-.2,.42-.28,.74-.5,1.49-.97,2.24-1.41,.83-.49,1.67-.93,2.53-1.34,.3-.14,.61-.29,.91-.41,2.78-1.26,5.67-2.13,8.66-2.65,2.08-.37,4.09-.54,5.98-.54,3.21,0,6.19,.53,8.86,1.55,.55-.67,1.16-1.29,1.8-1.84,.32-.28,.66-.54,1-.79,1.7-1.22,3.63-2.05,5.77-2.41,.93-.17,1.96-.25,3.05-.25,2.4,0,5.25,.41,8,1.38,.82,.29,1.63,.63,2.42,1.03,2.4,1.17,4.57,2.86,6.11,5.16,.76,1.15,1.32,2.37,1.69,3.65,1.03-2.59,2.13-5.25,3.29-8.02,.13-.3,.26-.61,.41-.9,.28-.59,.61-1.15,.93-1.69,.17-.26,.36-.53,.54-.78,.08-.11,.16-.21,.25-.32,.58,.68,1.15,1.42,1.66,2.2,.22,.34,.43,.66,.65,1.01h0c1.04,1.76,1.84,3.63,2.4,5.61,.86,3.01,1.09,6.13,.72,9.22,2.67,.74,5.19,1.96,7.41,3.61,2.33,1.7,4.34,3.86,5.88,6.38,.04,.04,.18,.29,.18,.29,3.01,5.11,3.87,11.06,2.55,16.79Z"/><path class="h" d="M205.26,165.35l-.08-.16s0-.01-.01-.01c-2.17-3.53-6.07-5.73-10.24-5.73-.7,0-1.4,.07-2.08,.18-1.82,.3-3.5,1-5.07,2.09h-.01c-.63,.43-1.22,.92-1.82,1.47,1.34-4.83,2.59-8.89,3.44-10.98,1.24-2.95,1.42-6.03,.63-8.85-.37-1.28-.92-2.5-1.69-3.65-1.54-2.3-3.71-3.99-6.11-5.16-.79-.39-1.61-.74-2.42-1.03-2.75-.97-5.61-1.38-8-1.38-1.09,0-2.12,.08-3.05,.25-2.13,.36-4.07,1.18-5.77,2.41-.34,.25-.68,.51-1,.79-.65,.55-1.25,1.17-1.8,1.84-2.67-1.03-5.65-1.55-8.86-1.55-1.88,0-3.9,.17-5.98,.54-2.99,.51-5.88,1.38-8.66,2.65-.3,.12-.61,.26-.91,.41-.86,.41-1.7,.86-2.53,1.34-.75,.43-1.5,.91-2.24,1.41-.14,.08-.28,.18-.42,.28-.28,.2-.55,.38-.83,.58-2.45,1.76-4.79,3.83-6.96,6.21-4.19,4.53-7.83,10.14-10.83,16.71-1.67,3.65-3.08,7.49-4.19,11.41-.91,3.15-1.62,6.33-2.15,9.48-.05,.34-.11,.7-.16,1.04-.03,.18-.05,.36-.08,.54-.13,.91-.25,1.82-.34,2.71-.11,1-.18,1.97-.25,2.95-.01,.33-.04,.67-.05,1.01-.03,.3-.04,.61-.04,.91h0c-.14,3.71,.05,7.2,.59,10.36,.79,4.55,2.87,8.56,5.92,11.73h0c4.63,4.87,11.49,7.81,19.26,7.81,1.57,0,3.12-.13,4.63-.39,5.75-.99,11.53-4.99,17.29-11.94,5.62,3.79,12.63,5.58,18.06,5.58,1.05,0,2.03-.08,2.92-.22,1.3-.22,2.88-.51,5.16-2.16,.08-.04,.16-.09,.24-.16,.17-.12,.36-.26,.54-.41,.42-.33,.87-.71,1.34-1.15,1.87-1.71,4.12-4.25,6.89-8.02,1.8-2.44,3.8-5.4,6.07-8.97,2.42-3.83,5.12-8.37,8.18-13.77,0-.01,.01-.01,.01-.03,1.09-1.95,2.24-4.03,3.42-6.2,2.3-4.17,2.32-8.94,.04-12.8Zm-58.78,6.91c-.68,2.29-1.59,4.84-2.76,7.56-.29,.65-.57,1.26-.84,1.86,.93-3.17,2.13-6.42,3.61-9.41Z"/><path class="h" d="M275.49,148.81c-.42,1.63-.93,3.3-1.53,5.02-1.01,2.92-2.28,5.95-3.78,9.07-2.42,5.02-5.49,10.28-9.16,15.76-.9,1.34-1.82,2.69-2.75,4.02-.76,1.07-1.53,2.12-2.3,3.15-1.01,1.36-2.05,2.73-3.12,4.08-2.32-2.92-4.11-6.41-5.31-10.4-2.32,3.12-4.52,5.87-6.37,8.1-.37,.45-.76,.92-1.21,1.43-.57,.67-1.18,1.4-1.86,2.16h0c-.4,.46-.82,.93-1.24,1.41-1.15,1.29-2.41,2.66-3.74,4.05-6.71,7.02-15.3,14.68-21.68,15.78-1.37,.24-2.88,.36-4.49,.36-.42,0-.86-.01-1.28-.03-.26,0-.51-.01-.76-.04-.29-.01-.59-.03-.88-.05-.24-.01-.46-.04-.7-.07-.63-.05-1.26-.13-1.9-.24-.45-.07-.88-.14-1.33-.22-.46-.09-.93-.18-1.4-.29-.46-.11-.92-.22-1.38-.34-3.54-.95-6.9-2.42-9.79-4.41-2.76,3.77-5.02,6.31-6.89,8.02-1.17-.84-2.26-1.75-3.29-2.71-.53-.49-1.04-.99-1.51-1.51-1.92-2.05-3.51-4.29-4.78-6.71-1.18-2.29-2.07-4.73-2.62-7.28-.11-.43-.2-.88-.28-1.34-.12-.7-.22-1.42-.29-2.16-.14-1.22-.22-2.49-.24-3.8-.04-.96-.03-1.95,.01-2.96,.09-2.63,.38-5.46,.87-8.5,1.65-10.36,5.46-23.01,11.69-38.65,.61-1.53,1.26-3.16,2-4.91,2.4,1.17,4.57,2.86,6.11,5.16,.76,1.15,1.32,2.37,1.69,3.65,1.03-2.59,2.13-5.25,3.29-8.02,.13-.3,.26-.61,.41-.9,.28-.59,.61-1.15,.93-1.69,.17-.26,.36-.53,.54-.78,.08-.11,.16-.21,.25-.32,.25-.34,.53-.67,.82-.99,.11-.12,.22-.24,.34-.36,.14-.16,.3-.32,.46-.46,.05-.05,.11-.11,.16-.14,.13-.12,.25-.22,.38-.33,.14-.13,.3-.25,.46-.37,.08-.07,.16-.13,.24-.18,.08-.05,.16-.12,.24-.18,.17-.12,.33-.22,.5-.33,.16-.09,.32-.21,.49-.29,0,0,0-.01,.01-.01,.13-.09,.28-.17,.42-.24,.01-.03,.03-.03,.04-.03,.17-.11,.34-.18,.5-.26,.01,0,.03-.01,.04-.01,.13-.07,.26-.12,.41-.18,.04-.03,.08-.05,.12-.05,.18-.09,.37-.17,.57-.24,.25-.11,.51-.2,.79-.28,.01-.01,.05-.03,.07-.03,.29-.09,.59-.17,.9-.25,.3-.07,.59-.13,.91-.18,.93-.16,1.97-.25,3.05-.25,5.31,0,12.81,1.99,16.54,7.57,2.44,3.65,2.83,8.16,1.11,12.41-.07,.16-.13,.33-.21,.53-.04,.08-.07,.17-.09,.26-.38,1.04-.83,2.41-1.33,4.02-.11,.37-.21,.74-.33,1.12-.03,.05-.04,.11-.04,.16-.07,.18-.13,.38-.18,.59-1.07,3.59-2.29,8.02-3.46,12.51h0c-.2,.74-.4,1.47-.58,2.2,.26-.45,.51-.9,.76-1.34,.33-.59,.66-1.18,.97-1.79,.33-.61,.65-1.24,.96-1.87,.18-.37,.38-.74,.55-1.11,1.44-2.91,2.75-6,3.88-9.18,.16-.46,.33-.93,.47-1.42,.21-.58,.38-1.16,.55-1.74,.21-.68,.41-1.38,.61-2.08,.11-.37,.2-.75,.29-1.12,.11-.42,.21-.83,.3-1.25,.09-.41,.18-.83,.26-1.25,.01-.04,.03-.08,.03-.11,2.29-10.43,1.54-14.6,.88-16.15-.08-.24-.17-.46-.25-.7-.95-2.94-.55-6.15,1.07-8.82,1.82-3,4.96-5.08,8.66-5.73,1.22-.21,2.46-.32,3.69-.32,.34,0,.7,.01,1.04,.03,.39,.01,.78,.05,1.17,.09,.21,.03,.43,.05,.65,.08,.18,.03,.37,.05,.57,.09,.86,.13,1.71,.33,2.55,.58,.18,.04,.36,.09,.53,.16,.66,.21,1.32,.45,1.95,.71,.5,.21,.99,.43,1.46,.67,.54,.28,1.08,.57,1.59,.88,.25,.14,.5,.3,.74,.46,.25,.16,.49,.32,.72,.49,.25,.17,.5,.36,.75,.54,.18,.13,.36,.26,.53,.39,.28,.24,.55,.46,.83,.7,.55,.47,1.08,.97,1.59,1.5,1.96,2.01,3.62,4.37,4.84,6.95,2.55-2.67,5.31-5,8.21-6.99,.46,.8,.9,1.63,1.3,2.49,.11,.24,.22,.47,.32,.71,.67,1.47,1.21,2.96,1.63,4.44,.37,1.2,.67,2.46,.91,3.86,1.09,6.4,.82,12.44-.84,18.55Z"/><path class="h" d="M265.3,146.1c-2.32,9.07-7.58,18.59-13.02,26.7-1.58,2.37-3.19,4.62-4.74,6.7-2.32,3.12-4.52,5.87-6.37,8.1-.37,.45-.76,.92-1.21,1.43-.57,.67-1.18,1.4-1.86,2.16h0c-.4,.46-.82,.93-1.24,1.41-1.15,1.29-2.41,2.66-3.74,4.05-6.71,7.02-15.3,14.68-21.68,15.78-1.37,.24-2.88,.36-4.49,.36-.42,0-.86-.01-1.28-.03-.26,0-.51-.01-.76-.04-.29-.01-.59-.03-.88-.05-.24-.01-.46-.04-.7-.07-.63-.05-1.26-.13-1.9-.24-.45-.07-.88-.14-1.33-.22-.46-.09-.93-.18-1.4-.29-.46-.11-.92-.22-1.38-.34-3.54-.95-6.9-2.42-9.79-4.41-4.4-3.01-7.7-7.21-8.82-12.55-.07-.25-.12-.49-.16-.74-.65-3.74-.51-8.43,.38-14.05,1.5-9.51,5.2-21.67,11.07-36.4,1.03-2.59,2.13-5.25,3.29-8.02,.13-.3,.26-.61,.41-.9,.28-.59,.61-1.15,.93-1.69,.17-.26,.36-.53,.54-.78,.08-.11,.16-.21,.25-.32,.25-.34,.53-.67,.82-.99,.11-.12,.22-.24,.34-.36,.14-.16,.3-.32,.46-.46,.05-.05,.11-.11,.16-.14,.13-.12,.25-.22,.38-.33,.14-.13,.3-.25,.46-.37,.08-.07,.16-.13,.24-.18,.08-.05,.16-.12,.24-.18,.17-.12,.33-.22,.5-.33,.16-.09,.32-.21,.49-.29,0,0,0-.01,.01-.01,.13-.09,.28-.17,.42-.24,.01-.03,.03-.03,.04-.03,.17-.11,.34-.18,.5-.26,.01,0,.03-.01,.04-.01,.13-.07,.26-.12,.41-.18,.04-.03,.08-.05,.12-.05,.18-.09,.37-.17,.57-.24,.25-.11,.51-.2,.79-.28,.01-.01,.05-.03,.07-.03,.29-.09,.59-.17,.9-.25,.3-.07,.59-.13,.91-.18,.93-.16,1.97-.25,3.05-.25,5.31,0,12.81,1.99,16.54,7.57,2.44,3.65,2.83,8.16,1.11,12.41-.07,.16-.13,.33-.21,.53-.04,.08-.07,.17-.09,.26-.38,1.04-.83,2.41-1.33,4.02-.11,.37-.21,.74-.33,1.12-.03,.05-.04,.11-.04,.16-.07,.18-.13,.38-.18,.59-1.07,3.59-2.29,8.02-3.46,12.51h0c-.2,.74-.4,1.47-.58,2.2,.26-.45,.51-.9,.76-1.34,.33-.59,.66-1.18,.97-1.79,.33-.61,.65-1.24,.96-1.87,.18-.37,.38-.74,.55-1.11,1.44-2.91,2.75-6,3.88-9.18,.16-.46,.33-.93,.47-1.42,.21-.58,.38-1.16,.55-1.74,.22-.68,.42-1.38,.61-2.08,.11-.37,.2-.75,.29-1.12,.11-.42,.21-.83,.3-1.25,.09-.41,.18-.83,.26-1.25,.01-.04,.03-.08,.03-.11,2.29-10.43,1.54-14.6,.88-16.15-.08-.24-.17-.46-.25-.7-.95-2.94-.55-6.15,1.07-8.82,1.82-3,4.96-5.08,8.66-5.73,1.22-.21,2.46-.32,3.69-.32,.34,0,.7,.01,1.04,.03,.39,.01,.78,.05,1.17,.09,.21,.03,.43,.05,.65,.08,.18,.03,.37,.05,.57,.09,.86,.13,1.71,.33,2.55,.58,.18,.04,.36,.09,.53,.16,.66,.21,1.32,.45,1.95,.71,.5,.21,.99,.43,1.46,.67,.54,.28,1.08,.57,1.59,.88,.25,.14,.5,.3,.74,.46,.25,.16,.49,.32,.72,.49,.25,.17,.5,.36,.75,.54,.18,.13,.36,.26,.53,.39,.28,.24,.55,.46,.83,.7,.55,.47,1.08,.97,1.59,1.5,1.96,2.01,3.62,4.37,4.84,6.95,.55,1.17,1.01,2.38,1.38,3.65h0c.26,.88,.46,1.78,.63,2.69,.82,4.81,.61,9.39-.67,14.01Z"/><path class="f" d="M183.6,188.32c-2.37-13.79,10.56-44.96,14.15-53.42,.93-2.21,2.4-3.4,4.22-3.71,3.81-.66,13.32,1.44,10.81,7.48-2.87,7.22-11.83,40.88-11.08,45.23,.41,2.36,1.35,3.5,4.25,3,6.17-1.06,22.84-23.54,27.41-45.81,1.36-6.21,2.94-15.45,.4-21.54-.4-1.24,.86-2.58,2.68-2.89,8.16-1.41,15.49,5.36,16.8,12.98,.53,3.08,.55,6.44-.49,10.17-5.9,23.24-38.15,58.3-46.67,59.77-6.53,1.12-20.86-1.83-22.48-11.26Z"/><path class="h" d="M342.92,141.65c-1.58-2.67-4.13-4.61-7.08-5.44h-.01c-1.04-.3-2.13-.46-3.25-.46-.68,0-1.38,.07-2.08,.18-.76,.13-1.5,.33-2.24,.59h-.03c-.05,.03-.09,.04-.14,.07-.83-4.95-2.54-9.48-5.15-13.32-.91-1.34-1.91-2.58-3.01-3.71-.58-.62-1.18-1.18-1.82-1.72-2.98-2.55-6.48-4.44-10.41-5.6-.43-.13-.88-.25-1.33-.36-.33-.09-.68-.17-1.03-.25l-.2-.04c-.51-.11-1.04-.21-1.57-.29-1.86-.3-3.79-.45-5.79-.45-2.57,0-5.28,.24-8.08,.72-3.46,.59-6.85,1.62-10.07,3.05-.46,.2-.91,.41-1.36,.63-.33,.14-.65,.3-.96,.47-.99,.49-1.95,1.03-2.91,1.61-.75,.45-1.49,.92-2.23,1.42-2.91,1.99-5.66,4.32-8.21,6.99-3.42,3.57-6.52,7.71-9.19,12.41-6.94,12.16-10.12,26.22-8.32,36.68,.28,1.62,.63,3.17,1.09,4.65,1.2,3.99,2.99,7.48,5.31,10.4,.38,.49,.76,.95,1.17,1.4,.18,.21,.38,.42,.59,.62,.3,.32,.61,.62,.91,.91s.61,.57,.92,.83c.38,.34,.78,.66,1.18,.96,.13,.11,.28,.21,.42,.32,.16,.13,.32,.24,.47,.34,.26,.2,.54,.39,.83,.57,.16,.11,.32,.21,.49,.3,.29,.18,.58,.36,.87,.51,.38,.22,.76,.42,1.16,.62,.38,.2,.78,.38,1.18,.57,.4,.18,.8,.36,1.22,.51,.38,.16,.78,.3,1.19,.43,.79,.28,1.59,.51,2.42,.72,.03,.01,.07,.01,.09,.03,.46,.11,.92,.21,1.38,.3,.47,.11,.96,.18,1.45,.26,.97,.16,1.97,.26,3,.34,.9,.07,1.82,.09,2.75,.09,2.63,0,5.45-.25,8.35-.75,3.11-.53,6.15-1.4,9.08-2.58,8.37-3.36,15.93-9.27,22-17.25,.84-.25,1.65-.51,2.44-.8,.38-.14,.78-.29,1.16-.43,.38-.14,.75-.3,1.12-.46,.36-.16,.72-.32,1.07-.47,.83-.38,1.62-.79,2.38-1.22,.34-.18,.68-.38,1.01-.59,.33-.2,.66-.39,.97-.61,.4-.25,.78-.51,1.16-.78,1.09-.75,2.11-1.57,3.07-2.41,5.61-4.96,9.24-11.28,12.61-17.89,.62-1.18,1.08-2.41,1.33-3.65,.68-3.11,.21-6.28-1.38-8.99Zm-48.97,6.54c-1-5.82,2.86-8.79,3.86-9.27,.14-.01,.28-.03,.41-.04,.76,2.03,.55,7.36-1.5,13.55-1.4-1.04-2.46-2.44-2.76-4.24Z"/><path class="h" d="M416.36,148.38c-.24,.43-.47,.88-.7,1.32-.78,1.42-1.54,2.82-2.29,4.17-.08,.17-.17,.34-.26,.51-1.65,2.98-3.25,5.78-4.84,8.45-.28,.47-.55,.93-.84,1.4-.25,.42-.5,.83-.75,1.24-.78,1.28-1.55,2.53-2.33,3.75-1.79,2.84-3.54,5.45-5.2,7.77l-.18-.05-1.95-.62c-2.59-.92-5.23-2.17-7.62-3.83-2.26,3.03-4.2,5.24-5.85,6.89-.4,.38-.78,.74-1.13,1.07-.78,.68-1.47,1.25-2.12,1.7-.26,.2-.53,.36-.76,.5-.2,.13-.4,.25-.58,.34-.5,.28-.95,.49-1.36,.65-.18,.08-.36,.13-.53,.18-.03,.01-.05,.03-.08,.03-.18,.07-.37,.12-.54,.16-.46,.12-.84,.18-1.21,.25-.88,.16-1.82,.22-2.86,.22-.87,0-1.86-.05-2.94-.18-.26-.03-.54-.07-.82-.11-.17-.03-.36-.05-.53-.08-.3-.04-.61-.09-.91-.14-1.33-.25-2.74-.58-4.17-1.03-.32-.09-.63-.18-.93-.29-.25-.08-.49-.16-.72-.25-.32-.12-.63-.24-.95-.36-3.82-1.47-7.64-3.7-10.56-6.86-.47-.53-.93-1.07-1.37-1.63-.22-.3-.45-.61-.65-.92-.07-.09-.12-.18-.18-.29-.13-.21-.26-.42-.4-.63-.18-.32-.37-.65-.53-.97-.16-.3-.3-.59-.43-.91-.03-.04-.04-.07-.05-.11-.03-.05-.05-.09-.07-.14-.12-.26-.22-.55-.33-.83-.04-.11-.08-.2-.11-.3-.12-.28-.21-.57-.29-.86-.11-.34-.2-.68-.29-1.04-.11-.43-.2-.88-.28-1.34-.78-4.5-.46-10.26,1-17.47-.53,.97-1.04,1.94-1.58,2.92-.25,1.24-.71,2.46-1.33,3.65-3.37,6.61-7,12.93-12.61,17.89-4.96-.07-9.86-1.74-13.8-4.75-.78-.58-1.5-1.21-2.19-1.9-1.46-1.43-2.73-3.07-3.77-4.87-.91-1.62-1.59-3.25-2.07-4.9-1.74-5.92-.91-12.43,2.28-17.86,.07-.11,.26-.42,.3-.47,.86-1.38,1.74-2.83,2.66-4.37-1.61-2.28-3.01-4.75-4.15-7.36l-.32-.72c-.66-1.47-1.16-3.08-1.47-4.73-.05-.21-.09-.42-.13-.63-.42-2.47-.43-4.96-.03-7.37,3.94,1.16,7.44,3.04,10.41,5.6-.43-2.53-.04-5.09,1.15-7.37,.13-.25,.28-.5,.43-.75,.03-.05,.07-.13,.12-.18,.13-.22,.28-.43,.43-.63,.17-.22,.34-.43,.51-.63,.11-.13,.21-.24,.33-.36,.2-.2,.39-.39,.59-.58,.14-.13,.29-.26,.43-.38,.11-.09,.22-.18,.36-.28,.16-.13,.34-.26,.53-.38t.04-.03c.21-.14,.43-.28,.67-.41,.07-.04,.14-.09,.22-.12,.01,0,.01-.01,.03-.01,.24-.14,.47-.25,.71-.37,.21-.09,.43-.18,.63-.26,.16-.07,.3-.11,.46-.16,.5-.16,1.04-.3,1.58-.39,.5-.09,1.07-.13,1.58-.13,.43,0,.86,.04,1.21,.08,1.65-.16,7.03-.88,16.19-2.46,7.81-1.34,16.18-2.88,20.68-3.71,1.84-.34,3.13-.58,3.59-.66,.95-.16,1.97-.24,3.07-.24,1.32,0,2.74,.12,4.23,.38,.59,.11,1.2,.24,1.8,.39,.24,.07,.46,.12,.7,.18,.09,.04,.18,.07,.28,.09,.33,.09,.65,.2,.97,.32,.57,.2,1.13,.42,1.69,.67,.25,.11,.5,.22,.75,.36,.16,.07,.3,.14,.45,.22,.3,.16,.61,.33,.9,.5,1.87,1.12,3.53,2.58,4.78,4.44,.76,1.15,1.33,2.37,1.67,3.65,1.03-2.59,2.12-5.27,3.29-8,.14-.36,.29-.68,.46-1.03,.03-.04,.05-.11,.09-.16,.14-.29,.29-.57,.45-.84,.03-.03,.04-.04,.05-.08,.2-.33,.41-.65,.62-.96,.16-.21,.3-.42,.46-.62,.59,.68,1.13,1.41,1.63,2.15,.24,.36,.46,.71,.68,1.08h0c1.07,1.8,1.87,3.69,2.41,5.66,.84,2.96,1.08,6.04,.71,9.1,1.87,.5,3.65,1.22,5.29,2.17,.75,.42,1.46,.88,2.15,1.38,.05,.03,.12,.08,.17,.12,2.33,1.74,4.33,3.95,5.88,6.57,.04,.07,.07,.12,.11,.18,.88,1.53,1.58,3.13,2.08,4.79,.43,1.41,.72,2.86,.86,4.32h0c.49,4.69-.49,9.51-2.91,13.93Z"/><path class="h" d="M420.85,144.39h0c-.53,1.8-1.25,3.55-2.17,5.24l-.99,1.83s-.04,.04-.04,.07l-.71,1.33c-.09,.18-.18,.37-.28,.54,0,0-.18,.34-.43,.76-.34,.65-.8,1.46-.82,1.49-2.46,4.44-4.86,8.56-7.16,12.3-.57,.92-1.13,1.82-1.69,2.7-1.59,2.51-3.15,4.86-4.65,6.98-.01,.01-.01,.03-.03,.04-.45-.09-.9-.18-1.34-.3-.45-.11-.92-.24-1.38-.37-.01,.01-.01,0-.03,0l-.18-.05-1.95-.62c-2.59-.92-5.23-2.17-7.62-3.83-2.26,3.03-4.2,5.24-5.85,6.89-.4,.38-.78,.74-1.13,1.07-.78,.68-1.47,1.25-2.12,1.7-.26,.2-.53,.36-.76,.5-.2,.13-.4,.25-.58,.34-.5,.28-.95,.49-1.36,.65-.18,.08-.36,.13-.53,.18-.03,.01-.05,.03-.08,.03-.18,.07-.37,.12-.54,.16-.46,.12-.84,.18-1.21,.25-.88,.16-1.82,.22-2.86,.22-.87,0-1.86-.05-2.94-.18-.26-.03-.54-.07-.82-.11-.17-.03-.36-.05-.53-.08-.3-.04-.61-.09-.91-.14-1.33-.25-2.74-.58-4.17-1.03-.32-.09-.63-.18-.93-.29-.25-.08-.49-.16-.72-.25-.32-.12-.63-.24-.95-.36-3.82-1.47-7.64-3.7-10.56-6.86-.47-.53-.93-1.07-1.37-1.63-.22-.3-.45-.61-.65-.92-.07-.09-.12-.18-.18-.29-.13-.21-.26-.42-.4-.63-.18-.32-.37-.65-.53-.97-.16-.3-.3-.59-.43-.91-.03-.04-.04-.07-.05-.11-.03-.05-.05-.09-.07-.14-.12-.26-.22-.55-.33-.83-.04-.11-.08-.2-.11-.3-.12-.28-.21-.57-.29-.86-.11-.34-.2-.68-.29-1.04-.11-.43-.2-.88-.28-1.34-.78-4.5-.46-10.26,1-17.47-.53,.97-1.04,1.94-1.58,2.92-.25,1.24-.71,2.46-1.33,3.65-3.37,6.61-7,12.93-12.61,17.89-.96,.84-1.97,1.66-3.07,2.41-4.48-.58-8.77-2.34-12.35-5.09-.05-.04-.11-.08-.14-.12-1.09-.83-2.11-1.76-3.04-2.76-1.28-1.37-2.41-2.9-3.38-4.56-.03-.05-.07-.12-.09-.17-1.03-1.82-1.78-3.61-2.3-5.49-.03-.08-.04-.16-.07-.25-1.8-6.49-.86-13.59,2.62-19.55,.11-.17,.21-.34,.32-.51,.03-.03,.04-.05,.07-.09,.57-.91,1.15-1.86,1.74-2.84-1.5-2.32-2.62-4.53-3.44-6.38-.08-.18-.16-.37-.22-.57l-.09-.21c-.82-1.87-1.41-3.86-1.76-5.9-.11-.59-.18-1.17-.24-1.76-.24-2.28-.16-4.53,.24-6.73l.2,.04c.34,.08,.7,.16,1.03,.25,.45,.11,.9,.22,1.33,.36,3.94,1.16,7.44,3.04,10.41,5.6-.43-2.53-.04-5.09,1.15-7.37,.13-.25,.28-.5,.43-.75,.03-.05,.07-.13,.12-.18,.13-.22,.28-.43,.43-.63,.17-.22,.34-.43,.51-.63,.11-.13,.21-.24,.33-.36,.2-.2,.39-.39,.59-.58,.14-.13,.29-.26,.43-.38,.11-.09,.22-.18,.36-.28,.16-.13,.34-.26,.53-.38t.04-.03c.21-.14,.43-.28,.67-.41,.07-.04,.14-.09,.22-.12,.01,0,.01-.01,.03-.01,.24-.14,.47-.25,.71-.37,.21-.09,.43-.18,.63-.26,.16-.07,.3-.11,.46-.16,.5-.16,1.04-.3,1.58-.39,.5-.09,1.07-.13,1.58-.13,.43,0,.86,.04,1.21,.08,1.65-.16,7.03-.88,16.19-2.46,7.81-1.34,16.18-2.88,20.68-3.71,1.84-.34,3.13-.58,3.59-.66,.95-.16,1.97-.24,3.07-.24,1.32,0,2.74,.12,4.23,.38,.59,.11,1.2,.24,1.8,.39,.24,.07,.46,.12,.7,.18,.09,.04,.18,.07,.28,.09,.33,.09,.65,.2,.97,.32,.57,.2,1.13,.42,1.69,.67,.25,.11,.5,.22,.75,.36,.16,.07,.3,.14,.45,.22,.3,.16,.61,.33,.9,.5,1.87,1.12,3.53,2.58,4.78,4.44,.76,1.15,1.33,2.37,1.67,3.65,1.03-2.59,2.12-5.27,3.29-8,.14-.36,.29-.68,.46-1.03,.03-.04,.05-.11,.09-.16,.14-.29,.29-.57,.45-.84,.03-.03,.04-.04,.05-.08,.2-.33,.41-.65,.62-.96,.16-.21,.3-.42,.46-.62,.09-.13,.2-.26,.3-.38,.17-.21,.34-.42,.53-.61,.07-.08,.14-.16,.21-.24,.22-.24,.46-.46,.7-.67,.01-.01,.04-.03,.05-.05,.74,.83,1.41,1.71,2.03,2.63,.03,.05,.07,.09,.09,.14,1.55,2.34,2.66,4.79,3.36,7.36,.72,2.61,1.04,5.25,.95,7.91,1.11,.39,2.17,.87,3.2,1.42,.76,.4,1.5,.84,2.21,1.32,3.03,2.04,5.62,4.75,7.56,8.04l.08,.12c.16,.28,.32,.54,.46,.82,.03,.04,.07,.13,.09,.17,.12,.24,.24,.47,.34,.71,.88,1.76,1.53,3.62,1.94,5.53,.29,1.28,.49,2.59,.57,3.91,.2,3.11-.17,6.27-1.11,9.32Z"/><path class="h" d="M407.12,143.34c-.67,1.25-1.32,2.45-1.95,3.62h0c-.43,.79-.84,1.53-1.25,2.26-.01,0-.01,.01-.01,.01,0,.01-.01,.04-.01,.04-.45,.82-.9,1.61-1.32,2.37-2.61,4.62-4.96,8.54-7.12,11.93-2.25,3.57-4.27,6.5-6.07,8.91-2.26,3.03-4.2,5.24-5.85,6.89-.4,.38-.78,.74-1.13,1.07-.78,.68-1.47,1.25-2.12,1.7-.26,.2-.53,.36-.76,.5-.2,.13-.4,.25-.58,.34-.5,.28-.95,.49-1.36,.65-.18,.08-.36,.13-.53,.18-.03,.01-.05,.03-.08,.03-.18,.07-.37,.12-.54,.16-.46,.12-.84,.18-1.21,.25-.88,.16-1.82,.22-2.86,.22-.87,0-1.86-.05-2.94-.18-.26-.03-.54-.07-.82-.11-.17-.03-.36-.05-.53-.08-.3-.04-.61-.09-.91-.14-1.33-.25-2.74-.58-4.17-1.03-.32-.09-.63-.18-.93-.29-.25-.08-.49-.16-.72-.25-.32-.12-.63-.24-.95-.36-3.82-1.47-7.64-3.7-10.56-6.86-.47-.53-.93-1.07-1.37-1.63-.22-.3-.45-.61-.65-.92-.07-.09-.12-.18-.18-.29-.13-.21-.26-.42-.4-.63-.18-.32-.37-.65-.53-.97-.16-.3-.3-.59-.43-.91-.03-.04-.04-.07-.05-.11-.03-.05-.05-.09-.07-.14-.12-.26-.22-.55-.33-.83-.04-.11-.08-.2-.11-.3-.12-.28-.21-.57-.29-.86-.11-.34-.2-.68-.29-1.04-.11-.43-.2-.88-.28-1.34-.78-4.5-.46-10.26,1-17.47-.53,.97-1.04,1.94-1.58,2.92-.71,1.3-1.44,2.63-2.17,3.95-.04,.08-.08,.16-.13,.24-2.79,4.66-6.52,6.19-9.16,6.65-.72,.12-1.45,.17-2.19,.17-2.83,0-5.53-.93-7.69-2.59h-.01c-1.3-.99-2.37-2.21-3.2-3.63-.47-.84-.84-1.69-1.09-2.58h0c-.93-3.16-.5-6.61,1.25-9.61,.04-.05,.08-.13,.12-.18,2.32-3.73,4.61-7.6,6.73-11.24-3.33-2.8-5.87-6.67-7.48-10.33-.09-.24-.2-.47-.29-.7-.42-.95-.71-1.95-.88-2.94-.43-2.53-.04-5.09,1.15-7.37,.13-.25,.28-.5,.43-.75,.03-.05,.07-.13,.12-.18,.13-.22,.28-.43,.43-.63,.17-.22,.34-.43,.51-.63,.11-.13,.21-.24,.33-.36,.2-.2,.39-.39,.59-.58,.14-.13,.29-.26,.43-.38,.11-.09,.22-.18,.36-.28,.16-.13,.34-.26,.53-.38t.04-.03c.21-.14,.43-.28,.67-.41,.07-.04,.14-.09,.22-.12,.01,0,.01-.01,.03-.01,.24-.14,.47-.25,.71-.37,.21-.09,.43-.18,.63-.26,.16-.07,.3-.11,.46-.16,.5-.16,1.04-.3,1.58-.39,.5-.09,1.07-.13,1.58-.13,.43,0,.86,.04,1.21,.08,1.65-.16,7.03-.88,16.19-2.46,7.81-1.34,16.18-2.88,20.68-3.71,1.84-.34,3.13-.58,3.59-.66,.95-.16,1.97-.24,3.07-.24,1.32,0,2.74,.12,4.23,.38,.59,.11,1.2,.24,1.8,.39,.24,.07,.46,.12,.7,.18,.09,.04,.18,.07,.28,.09,.33,.09,.65,.2,.97,.32,.57,.2,1.13,.42,1.69,.67,.25,.11,.5,.22,.75,.36,.16,.07,.3,.14,.45,.22,.3,.16,.61,.33,.9,.5,1.87,1.12,3.53,2.58,4.78,4.44,.76,1.15,1.33,2.37,1.67,3.65,.8,2.83,.62,5.91-.62,8.86-.86,2.09-2.11,6.13-3.44,10.97,.58-.55,1.18-1.03,1.8-1.46h.03c1.57-1.09,3.25-1.79,5.06-2.11,.71-.13,1.44-.18,2.16-.18,3.26,0,6.29,1.26,8.5,3.5,.68,.68,1.28,1.46,1.79,2.32,0,.01,.01,.01,.01,.03,.11,.17,.2,.34,.29,.51,1.96,3.73,1.84,8.27-.34,12.28Z"/><path class="h" d="M414.53,190.81c3.57-1.96,7.28-3.87,11.1-5.73-1.28,1.07-2.54,1.99-3.84,2.78-.08,.05-.14,.09-.22,.13-.41,.24-.83,.47-1.2,.67-.08,.05-.17,.09-.26,.13-.32,.17-.62,.32-.92,.45-.29,.14-.62,.29-.92,.41-1.4,.57-2.66,.92-3.73,1.16Z"/><path class="h" d="M442.66,137.2c-.37,.72-.75,1.42-1.12,2.11t-.01,.03s-.01,0-.01,.01,0,.01-.01,.03c-1.11,2.04-2.17,3.96-3.2,5.81-2.59,4.59-4.95,8.54-7.08,11.93h0c-2.29,3.63-4.33,6.62-6.15,9.07-.62,.82-1.2,1.57-1.75,2.28-2.01,2.53-3.73,4.37-5.21,5.71-.38,.36-.75,.67-1.09,.95-.17,.14-.34,.28-.51,.41-.17,.13-.33,.26-.49,.37-.38,.28-.74,.51-1.08,.72-.25,.14-.5,.29-.72,.41-.16,.08-.3,.16-.45,.22-.14,.07-.29,.13-.42,.18-1.04,.42-1.87,.58-2.55,.68-.88,.16-1.84,.24-2.87,.24s-2.2-.08-3.49-.26l-1.16-.17c-.22-.04-.46-.08-.68-.12-.22-.05-.46-.09-.7-.14-.45-.09-.9-.18-1.34-.3-.45-.11-.92-.24-1.38-.37-.01,.01-.01,0-.03,0l-.18-.05-1.95-.62c-2.59-.92-5.23-2.17-7.62-3.83-4.16-2.88-7.6-6.98-8.79-12.59h0c-.05-.28-.11-.55-.16-.82-.65-3.75-.53-8.41,.37-14.03h0c1.5-9.52,5.21-21.7,11.07-36.43,1.03-2.59,2.12-5.27,3.29-8,.14-.36,.29-.68,.46-1.03,.03-.04,.05-.11,.09-.16,.14-.29,.29-.57,.45-.84,.03-.03,.04-.04,.05-.08,.2-.33,.41-.65,.62-.96,.16-.21,.3-.42,.46-.62,.09-.13,.2-.26,.3-.38,.17-.21,.34-.42,.53-.61,.07-.08,.14-.16,.21-.24,.22-.24,.46-.46,.7-.67,.01-.01,.04-.03,.05-.05,.25-.22,.51-.46,.79-.66,.2-.16,.41-.32,.62-.46,.03-.03,.05-.04,.08-.07,.07-.04,.12-.08,.18-.12-1.57-2.49-2.17-5.36-1.67-8.24,.13-.8,.8-4.9,1.71-9.6,.57-2.91,1.21-6.04,1.88-8.78,.33-1.29,.65-2.49,.96-3.53h0c.04-.16,.09-.3,.13-.45,.01-.05,.04-.09,.04-.13,1.84-5.52,6.39-9.27,12.44-10.32,.25-.04,.51-.08,.76-.11,.08-.01,.14-.03,.21-.03h.01c.41-.05,.82-.09,1.22-.12s.82-.04,1.22-.04h.11c.59,0,1.21,.04,1.83,.11,.45,.03,.9,.08,1.34,.14,4.66,.67,9.77,2.7,13.35,6.03,.83,.76,1.58,1.61,2.21,2.51,.11,.14,.21,.3,.3,.45,.08,.12,.16,.25,.22,.37,2.15,3.51,2.48,7.56,.91,11.19-.45,1.07-1.03,2.29-1.67,3.62-.2,.42-.41,.86-.63,1.29-.11,.2-.21,.39-.3,.59-1.2,2.4-2.57,5-3.91,7.57-1.72,3.32-3.7,7.07-4.28,8.48-.03,.05-.05,.13-.08,.18-.5,1.13-1.17,2.15-2,3.01h0c-.38,.42-.8,.79-1.24,1.13,.22,.33,.41,.67,.59,1.03,1.82,3.44,1.95,7.48,.36,11.3-.84,2.09-2.09,6.15-3.44,10.98,.54-.51,1.12-.99,1.71-1.38,1.59-1.13,3.33-1.87,5.19-2.19,.71-.12,1.42-.18,2.13-.18,2.74,0,5.28,.88,7.33,2.46,1.19,.91,2.2,2.04,2.99,3.38,.46,.79,.83,1.61,1.09,2.46t.01,.03h0c1.05,3.3,.65,6.99-1.16,10.29Z"/><path class="h" d="M469.66,167.23c-1.71,2.24-3.34,4.19-4.92,5.86h-.01c-2.21,2.37-4.33,4.19-6.44,5.58-2.3,1.54-4.36,2.37-5.98,2.84-1.17,.36-2.12,.51-2.76,.62-1.55,.26-3.09,.38-4.77,.38-1.32,0-2.63-.07-3.91-.2h-.08c-2.2-.2-4.52-.58-6.82-1.12,.26-.13,.54-.25,.8-.37,5.56-2.47,11.28-4.86,17.07-7.11,.74-.29,1.49-.58,2.24-.86,4.86-1.87,9.78-3.66,14.68-5.33,.3-.11,.59-.21,.9-.3Z"/><path class="h" d="M498.51,75.84c-.2,2.03-.84,3.66-1.74,4.95-1.74,2.51-4.4,3.73-6.42,4.08-.57,.09-1.13,.14-1.71,.14-1.91,0-3.42-.54-4.5-1h-.01c-.24-.09-.45-.18-.63-.28-.47-.22-.7-.32-.95-.37-.76-.14-1.9-.29-3.48-.41-1.15-.08-2.55-.12-4.23-.12s-3.44,.04-5.31,.16c-1.59,5.6-3.04,10.72-4.33,15.42-1.82,6.61-3.36,12.36-4.63,17.35,.55-.5,1.12-.96,1.71-1.34,1.54-1.05,3.2-1.74,4.98-2.04,.71-.12,1.43-.17,2.15-.17,3.94,0,7.49,1.82,9.73,4.92,.21,.3,.41,.59,.59,.91,2.26,3.82,2.22,8.61-.05,12.8-.86,1.59-1.7,3.13-2.51,4.61h0c-3.44,6.27-6.48,11.43-9.18,15.68-2.13,3.37-4.04,6.16-5.78,8.5-2.98,4.02-5.38,6.66-7.36,8.4h0c-.86,.78-1.65,1.38-2.36,1.86-2.13,1.41-3.59,1.67-4.71,1.87-.9,.14-1.88,.22-2.99,.22-.91,0-1.87-.04-2.87-.14-.55-.05-1.11-.11-1.69-.18-.57-.08-1.15-.17-1.74-.28-.28-.05-.55-.11-.84-.16-.91-.18-1.83-.41-2.75-.66-.33-.09-.66-.18-.99-.29-.18-.07-.37-.11-.55-.17-2.37-.76-4.74-1.78-6.92-3.07-.46-.28-.92-.55-1.36-.86-4.3-2.87-7.74-6.92-8.94-12.4-.05-.28-.11-.54-.16-.83-.12-.68-.29-1.66-.32-3.25-.05-2.25,.16-5.74,1.15-11.45,0,0-.01-.01,0-.01v-.03c.4-2.32,.92-4.98,1.61-8.07,1.63-7.35,4.16-17.09,8.03-30.08,.21-.71,.42-1.41,.65-2.15h0c.49-1.62,.99-3.28,1.51-4.99-.11,.08-.21,.16-.29,.24-1.61,1.25-3.57,1.91-5.56,1.91-.93,0-1.86-.14-2.78-.43-3.16-1.01-5.7-3.16-7.27-6.02-.67-1.2-1.16-2.53-1.45-3.95-.72-3.54-.11-7.46,1.53-10.83,1-2.08,2.38-3.96,4.09-5.44,.04-.04,.09-.08,.13-.12,2.15-1.76,4.84-3.4,7.75-4.86,.8-.42,1.62-.8,2.45-1.18h.01s.07-.04,.11-.05c.46-.21,.92-.42,1.4-.62,2.53-1.09,5.12-2.07,7.58-2.94,1.26-.43,2.51-.84,3.67-1.22,.71-2.13,1.38-4.08,1.97-5.81,.18-.54,.37-1.07,.53-1.55,1.07-3.08,1.87-5.31,2.29-6.45,.18-.53,.3-.82,.32-.88,.07-.14,.12-.29,.18-.43,2.94-6.82,7.15-10.24,14.1-11.45,1.12-.18,2.32-.29,3.57-.29,3.08,0,10.72,.63,14.98,6.48,2.41,3.26,3.05,7.48,1.75,11.52,0,0-.54,1.75-.75,2.47,2.29,.36,4.49,1.18,6.53,2.38,2.98,1.7,5.62,4.15,7.74,6.94,1.36,1.76,2.49,3.67,3.36,5.63,.84,1.84,1.43,3.75,1.75,5.61l.12,.75h0c.17,1.3,.18,2.47,.08,3.53Z"/><path class="h" d="M652.62,174.97c-2.36-13.74-14.56-30.08-58.87-30.75-.93,0-1.88-.01-2.84-.01-14.65,0-31.45,1.61-49.93,4.79-3.67,.63-7.4,1.28-11.19,2-.99-4.9-1.38-9.98-1.19-15.23,.3-10.28,7.61-37.57,10.11-43.68,1.76-4.28,1.4-8.82-1.07-12.51-3.73-5.57-11.24-7.56-16.54-7.56-1.08,0-2.11,.08-3.05,.25-1.22,.21-2.4,.58-3.5,1.09-.83,.37-1.61,.83-2.36,1.37-.16,.12-.32,.24-.47,.37-.82,.63-1.55,1.38-2.24,2.21-.18-.07-.36-.13-.54-.2-.16-.05-.32-.12-.49-.17-2.4-.79-5.03-1.18-7.83-1.18-.28,0-.57,0-.86,.01-.41,0-.83,.03-1.26,.07-1.24,.08-2.53,.24-3.86,.46-5.57,.96-10.82,3.23-15.59,6.66-5.25,3.77-9.94,8.99-13.86,15.46-1.41,2.32-2.73,4.82-3.94,7.45-2.29,5.02-4.08,10.43-5.32,15.84-.42,1.82-.76,3.63-1.05,5.44v.03c-.04,.22-.08,.45-.11,.67,0,.01-.01,.03,0,.04-.17,1.04-.3,2.07-.41,3.09h0c-.24,2.13-.37,4.21-.4,6.24-.04,2.17,.04,4.25,.25,6.24h0c.07,.67,.14,1.33,.24,1.96,.04,.3,.09,.59,.14,.9,.32,1.87,.86,3.65,1.61,5.31h0c1.37,3.11,3.41,5.81,5.98,8.02,2.5,2.15,5.5,3.8,8.85,4.86,.17,.05,.34,.11,.53,.16,.9,.28,1.82,.51,2.76,.67,.21,.05,.42,.08,.63,.12-.32,.11-.62,.21-.93,.32-1.46,.49-2.92,.97-4.37,1.47-.3,.09-.59,.2-.9,.3-4.9,1.67-9.82,3.46-14.68,5.33-.75,.28-1.5,.57-2.24,.86-5.79,2.25-11.52,4.63-17.07,7.11-.26,.12-.54,.24-.8,.37-1.26,.57-2.51,1.13-3.77,1.71-1.25,.58-2.49,1.16-3.71,1.75-.29,.14-.57,.28-.86,.41h-.01c-3.82,1.87-7.53,3.78-11.1,5.74-6.42,3.52-12.37,7.17-17.65,10.97-7.82,5.61-14.15,11.45-18.35,17.47-8.6,12.15-7.06,27.98-1.71,38.27,4.13,7.99,9.14,9.66,12.6,9.66,.58,0,1.17-.04,1.75-.14,3.16-.55,5.85-2.36,7.96-5.36,7.23-10.24,16.84-20.12,28.42-29.36h0c1.29-1.04,2.59-2.07,3.94-3.07,.01-.01,.01-.03,.03-.03,20.17-15.31,45.73-28.75,74.66-39.01,.67,1.04,1.38,2.07,2.12,3.07,2.9,4.07,6.12,7.85,9.62,11.33,17.35,17.35,41.43,27.47,67.26,27.47,5.94,0,12.01-.53,18.02-1.55,14.67-2.53,27.96-9.77,37.47-20.39,9.61-10.73,13.97-23.56,11.97-35.18Zm-158.85-57.1c-.25,.59-.5,1.2-.76,1.82-.26,.63-.54,1.25-.83,1.84,.42-1.42,.9-2.87,1.42-4.28,.49-1.34,1.03-2.66,1.62-3.94,.18-.39,.38-.8,.58-1.18-.14,.47-.3,.96-.46,1.46-.45,1.34-.96,2.78-1.57,4.28Zm103.65,75.93c-3.38,.59-6.9,.88-10.44,.88-16.05,0-31.1-5.81-41.77-15.71,4.24-.92,8.54-1.76,12.99-2.53,12.27-2.12,23.43-3.19,33.16-3.19,19.39,0,27.4,4.45,27.87,7.25,.42,2.46-3.95,10.22-21.81,13.28Z"/><path class="f" d="M382.03,220.46c14.99-21.44,65.76-44.38,118.45-58.3-2.74-8.31-4.09-17.23-3.8-26.43-5.58,8.8-12.02,15.89-17.64,16.86-7.98,1.37-17.84-2.72-19.4-11.79-3.18-18.5,8.21-55.38,32.69-59.6,9.07-1.56,13.9,1.53,16.4,6.33,1.2-2.82,2.12-5.03,2.78-6.64,.93-2.21,2.4-3.4,4.22-3.71,3.81-.66,13.32,1.44,10.81,7.48-2.63,6.43-10.43,34.85-10.79,46.87-.37,9.78,1.13,18.48,3.74,26.06,6.47-1.49,12.82-2.58,19.16-3.67,51.88-8.93,96.97-6.24,101.25,18.61,3.12,18.14-15.25,40.54-42.09,45.16-41.17,7.09-75.62-12.94-91.51-42.33-45.76,15.16-93.15,41.44-118.38,77.15-.75,1.06-1.41,1.55-2.14,1.68-4.17,.72-13.81-19.47-3.75-33.72Zm98.33-80.8c14.87-2.56,31.13-51.3,16.99-48.87-17.05,2.93-25.69,50.36-16.99,48.87Zm72.47,23.94c-8.89,1.53-18.07,3.49-27.53,6.05,14.92,23.76,44.6,33.41,69.81,29.07,23.03-3.97,30.54-15.72,29.16-23.7-2.56-14.87-32.62-18.1-71.44-11.42Z"/><path class="f" d="M143.02,141.34c9.07-1.56,13.9,1.53,16.4,6.33,1.2-2.82,2.12-5.03,2.78-6.64,.93-2.21,2.4-3.4,4.22-3.71,3.81-.66,13.32,1.44,10.81,7.48-3.29,8.04-14.08,49.49-9.73,48.74,3.08-.53,11.19-13.13,19.41-26.13,1.2-1.7,2.35-2.65,3.62-2.86,2.54-.44,4.67,2.19,2.96,5.28-9.65,17.72-20.78,35.51-25.49,36.32-3.99,.69-18.11-2.11-19.91-11.51-5.67,9.38-12.38,17.07-18.36,18.1-7.98,1.37-17.84-2.72-19.4-11.79-3.19-18.5,8.21-55.38,32.69-59.6Zm-11.97,58.46c14.87-2.56,31.13-51.3,16.99-48.87-17.05,2.93-25.69,50.36-16.99,48.87Z"/><path class="f" d="M421.01,147.45c-1.69-9.79,9.04-46.19,17.98-73.5-8.43,2.01-15.8,4.77-20.08,8.13-4.15-1.34-3.25-8.03,0-10.83,4.58-3.78,14.18-7.67,24.33-10.54,3.66-11.28,6.46-18.86,6.46-18.86,1.73-4.03,3.36-5.43,7.35-6.12,3.99-.69,11.9,.75,10.2,6.09-.12,.39-1.93,6.12-4.4,14.58,3.66-.44,7.17-.67,9.8-.57,5.99,.09,11.96,7.65,12.93,13.28,.25,1.45,.29,2.75-.62,2.91-.91,.16-2.03-.96-4.55-1.46-5.21-.97-13.23-.9-21.67,0-8.08,27.91-18.89,67.12-17.48,75.28,.06,.36,.27,.51,.64,.45,3.08-.53,11.18-13.13,19.41-26.13,1.2-1.7,2.35-2.65,3.62-2.86,2.72-.47,4.67,2.19,2.96,5.28-9.47,17.69-20.78,35.51-25.5,36.32-3.99,.69-19.77-2.01-21.39-11.44Z"/><path class="f" d="M424.32,126.53c1.2-1.7,2.35-2.65,3.62-2.86,2.72-.47,4.67,2.19,2.96,5.28-9.47,17.69-20.78,35.51-25.5,36.32-3.99,.69-18.32-2.26-19.94-11.69-2.37-13.79,10.56-44.96,14.15-53.42,.93-2.21,2.4-3.4,4.22-3.71,3.81-.66,13.32,1.44,10.81,7.48-3.29,8.04-14.08,49.49-9.72,48.74,3.08-.53,11.18-13.13,19.41-26.13Zm-9.34-37.98c-3.81,.66-11.51-1.75-10.86-5.6,.26-1.73,2.58-15.38,4.4-21.11,.86-2.58,2.88-3.86,5.42-4.3,6.35-1.09,15.78,3.82,13.9,8.07-2.39,5.64-9.25,17.84-10.84,21.66-.27,.61-.93,1.09-2.02,1.28Z"/><path class="f" d="M327.47,148.61c-2.72,.47-5.22-2.09-3.63-4.79,4.68-7.53,9.12-15.39,12.56-21.4-.91,.16-1.63,.28-2.18,.37-5.26,.91-9.47-6.21-10.79-9.53-.89-1.9,.13-3.57,1.58-3.82,.18-.03,.39,.12,.58,.09,1.15,.18,9.52-1.08,18.41-2.61,10.88-1.87,22.64-4.08,24.27-4.36,3.81-.66,13.32,1.44,10.81,7.48-3.29,8.04-14.08,49.49-9.73,48.74,3.08-.53,11.19-13.13,19.41-26.13,1.2-1.7,2.35-2.65,3.62-2.86,2.72-.47,4.67,2.19,2.96,5.28-9.47,17.69-20.78,35.51-25.49,36.32-3.99,.69-18.32-2.26-19.94-11.69-1.72-9.98,4.57-28.8,9.43-41.78-5.23,1.09-10.82,2.24-15.53,3.05-3.24,6.16-8.12,15.78-13.39,25.28-.87,1.46-1.86,2.19-2.95,2.37Z"/><path class="f" d="M287.39,116.48c27.57-4.75,33.3,19.85,24.67,41.32,3.29-1.5,6.06-3.84,7.98-6.79,2.64-4.19,3.48-5.83,4.53-7.32,1.02-1.67,2.35-2.65,3.62-2.86,2.54-.44,4.67,2.19,2.96,5.28-5.72,11.26-10.91,19.06-24.42,21.95-6.39,9.51-15.77,16.91-27.19,18.87-21.22,3.65-26.68-9.6-28.05-17.58-2.72-15.78,10.15-48.44,35.91-52.87Zm-4.72,57.21c3.27-.56,6.46-2.61,9.32-5.53-9.15-2.16-16.93-8.29-19.74-19.2-1.78,5.91-2.63,11.84-1.76,16.92,.59,3.45,3.11,9.36,12.17,7.8Zm9.55-47.59c-4.72,.81-12.97,8.21-11,19.64,1.37,7.98,8.57,12.9,16.59,13.95,8.06-15.02,9.46-36.18-5.59-33.59Z"/><path class="f" d="M5.16,134.63c.36-12.01,10.44-28.32,33.76-36.07,8.49-2.77,17.28-4.84,25.81-6.31,27.03-4.65,53.47-3.98,74.51-7.6,7.44-1.28,18.86-4.37,23.7-9.87,.3-.43,.81-.7,1.54-.83,.91-.16,1.7,.08,2.06,1.14,2.09,6.74-2.1,20.35-8.64,24.65-2.86,1.8-6.94,3.06-11.84,3.91-14.33,2.47-36.12,1.73-56.96,2.15-1.84,6.67-7.42,26.3-12.91,47.6,15.24-2.62,29.93-5.15,31.25-6.13,.18-.03,.33-.24,.51-.27,1.45-.25,2.97,.98,2.83,3.44-.22,4.15-1.87,13.02-7.67,14.02-3.81,.66-17.26,2.79-31.26,5.01-4.5,18.33-8.61,35.66-9.84,44.83-.73,5.54-1.71,13.93-1.67,16.35-.05,1.87-.5,2.51-2.31,2.83-5.69-.51-15.82-4-17.16-11.8-1.12-6.53,3.79-26.8,10.12-48.62-8.34,1.44-14.48,2.68-15.32,3.2-.15,.21-.51,.27-.69,.31-1.45,.25-2.79-1.01-2.65-3.47,.22-4.15,1.87-13.02,7.67-14.02,2.36-.41,8.38-1.26,15.81-2.54,6.54-21.67,13.48-42.1,16.07-49.83-4.78,.45-9.38,.87-13.55,1.59-18.5,3.19-36.05,14.05-36,34.96-.04,3,.72,5.29,2.43,7.61,.49,.66,.07,2.6-2.1,2.98-8.53,1.47-17.77-7.77-17.5-19.21Z"/></g><polyline class="l" points="432.84 70.46 432.75 70.48 424.87 71.8 417.42 73.05 412.79 73.83 405.5 75.05 400.8 75.84"/><path class="i" d="M216.48,49.54c-.01,.07-.03,.12-.04,.18-.43,1.95-.84,3.87-1.25,5.74-.14,.7-.29,1.38-.43,2.07-.78,.29-1.54,.59-2.28,.9-1.32,.54-2.57,1.08-3.74,1.66-2.59,1.24-4.79,2.57-6.5,3.99,.43-.51,3.05-3.54,7.31-7.83,1.97-2,4.3-4.28,6.94-6.7Z"/><path class="i" d="M253.11,46.35c-2.42-1.12-5.21-1.72-8.14-1.72-1.53,0-2.98,.17-4.29,.5-1.92,.47-3.69,1.32-5.23,2.46-.5-.04-.99-.05-1.5-.05-.29,0-.58,.01-.86,.01-1.69,.07-3.45,.32-5.24,.76-1.11,.28-2.2,.62-3.26,1.04,.53-2.41,1.09-4.88,1.67-7.44l.04-.21c.07-.26,.12-.54,.17-.8,12.86-10.36,29.49-20.93,46.5-23.95,.2-.04,.42-.08,.62-.12,5.13-.95,9.11-.04,11.14,3.58,7.23,12.76-10.43,19.87-31.62,25.93Z"/><path class="i" d="M278.23,283.32c1.88,.48,39.15,9.66,63.41-1.73,.14-.07,.29-.14,.43-.21,3.54-1.63,5.56-3.89,5.25-6.97-2.11-20.9-51.09,10.36-69.09,8.91Z"/><g><path class="g" d="M338.01,43.42c-.94,3.63-.93,7.62-3.89,10.53-.57,.55-1.03,1.56-.99,2.33,.16,3.66-1.35,6.8-2.74,10.03-1.08,2.52-1.59,5.21-.59,7.97,.18,.49-.37,2.7-1.1,5.02l-10.59,1.75c.98-.76,1.7-1.75,1.66-2.83-.13-3.62,2.04-6.24,3.14-9.32,1.12-3.14,2.07-6.36,2.97-9.59,.64-2.3,1.45-4.35,3.57-5.8,2.23-1.52,3.61-3.73,3.98-6.5,.28-2.03,.58-4.05,.97-6.73,1.81,.66,2.65,.71,3.05,1.17,.42,.46,.7,1.38,.55,1.96Z"/><path class="g" d="M306.97,216.64c-.22,1.7-.29,3.44-.28,5.2,0,.31,0,.62,0,.93-.08,5.25-1.28,10.22-2.75,15.14-.4,.22-.79,.43-1.18,.67-.46,.28-.92,.57-1.36,.87-.25,.17-.5,.33-.74,.51-.51,.34-1.01,.72-1.5,1.1-.7,.55-1.38,1.1-2.04,1.69-4.55,4.09-8.05,9.26-10.18,14.96h0c-3.63,.35-7.44,1.03-11.4,2.11,.59-2.02,1.8-3.17,3.46-4.33,1.09-.78,1.67-2.31,2.36-3.56,.57-1.01,1.05-2.09,1.42-3.18,.74-2.18,1.42-4.39,2.07-6.6,.56-1.93,.97-3.89,1.56-5.82,.55-1.77,1.23-3.5,1.82-5.27,.19-.58,.38-1.16,.55-1.75,.71-2.46,1.21-4.98,1.93-7.98-.23-.63-.41-1.27-.54-1.91l16.82-2.77Z"/><path class="g" d="M368.43,220.23c1.23,4.19,1.12,8.38-1.28,12.04h-.01c-.18,.06-.34,.1-.51,.15-.36,.11-.71,.21-1.05,.32-.52,.16-1.02,.33-1.51,.51-1.12,.38-2.21,.8-3.26,1.25-.4,.16-.79,.33-1.18,.51-.38,.18-.77,.35-1.15,.53-.37,.18-.75,.38-1.11,.56,.99-1.75,1.78-3.62,2.71-5.42-1.22-3.41,2.51-6.97-.3-10.4-.25-.31,.29-1.34,.59-1.98,1.04-2.24,2.16-4.45,3.24-6.68,.37-.78,.96-1.56,1.01-2.38,.04-.73,.12-1.45,.2-2.17l7.06-1.16c-.98,3.71-2.15,7.4-3.39,11.05-.4,1.19-.41,2.05-.05,3.26Z"/><path class="g" d="M255.37,67.65c-.26,1.62-.63,3.24-.93,4.84-.3,1.63-.54,3.26-.5,4.9,.04,2.07-.2,4.07-.51,6.06-.32,2-.71,4-.95,6.03-.11,.84-.29,1.67-.47,2.49h-.01l-4.29,.71-3.38,.57c.03-.25,.05-.5,.07-.75,.12-2.45,.95-4.52,2.5-6.4,.92-1.11,1.83-2.37,2.24-3.67,.08-.25,.16-.5,.24-.76,.86-2.7,1.83-5.48,1.84-8.19v-.09c.21-.4,.41-.76,.61-1.12,.32-.61,.62-1.16,.87-1.65l.05-.09,.05-.08c.16-.28,.45-.76,.88-1.28,.42-.51,.99-1.07,1.71-1.51Z"/></g><path class="g" d="M232.06,253.05c.51-3.3,1.54-6.62,1.46-9.91-.1-4.15,.97-8.05,1.46-12.08,.1-.84,.29-1.67,.47-2.49h.01l7.68-1.27c-.03,.25-.05,.5-.06,.75-.13,2.44-.95,4.51-2.51,6.39-.91,1.11-1.82,2.37-2.23,3.68-.9,2.93-2.07,5.97-2.08,8.95-.04,4.05-2.67,6.74-3.68,10.42-1.69-1.65-.74-3.05-.51-4.43Z"/><g><path class="h" d="M262.75,68.77c-.72-.88-1.67-1.49-2.71-1.79-.93-.28-1.95-.32-2.96-.05-.65,.16-1.21,.42-1.71,.72-.72,.45-1.29,1-1.71,1.51-.43,.51-.72,1-.88,1.28l-.05,.08-.05,.09c-.25,.49-.55,1.04-.87,1.65-.2,.36-.4,.72-.61,1.12-.05,.11-.12,.21-.17,.33,.05-.41,.13-.82,.21-1.24,.03-.16,.05-.3,.08-.46,.78-4.46,1.67-8.69,2.25-10.47,.75-2.3,.29-4.59-1.28-6.29-2.54-2.73-7.19-3.08-9.7-2.46-1.88,.47-3.4,1.66-4.34,3.41-.37-.16-.78-.28-1.2-.38-1.07-.29-2.29-.42-3.66-.37-1.11,.04-2.3,.21-3.61,.53-1.82,.46-3.5,1.16-5.04,2.05-.83,.49-1.61,1.03-2.36,1.62-6.25,4.95-9.87,13.47-11.24,21.46h0c-.37,2.17-.58,4.28-.63,6.28v.03c-.08,2.9,.16,5.54,.7,7.71l.03,.11h0v.03c.58,2.21,1.71,4,3.17,5.38h.01c1.97,1.86,4.52,2.96,7.17,3.36,1,.14,2.01,.18,3.01,.13,.88-.05,1.75-.18,2.59-.39,2.17-.54,4.3-1.96,6.39-4.27,.9-.99,1.78-2.15,2.66-3.46,1.62,1.09,3.48,1.82,5.28,2.24l.16,.04c.2,.05,.4,.11,.59,.13,1.97,.4,3.84,.45,5.21,.24,.24-.04,.46-.08,.67-.13,1.86-.46,5.31-1.32,15.3-23.35,1-2.21,.75-4.66-.7-6.4Zm-32.27,13.03c-.16,.39-.33,.78-.51,1.17-.62,1.32-1.22,2.36-1.78,3.17-.03,.05-.07,.09-.09,.14,.01-.12,.01-.24,.03-.37,.11-2.37,.53-5.41,1.38-8.4,.43-1.57,1-3.13,1.7-4.57,.53-1.09,1.09-2.01,1.67-2.71,.14-.2,.29-.37,.45-.53,0,.75-.08,1.69-.21,2.74-.37,2.61-1.18,5.98-2.63,9.35Z"/><path class="h" d="M222.01,85.48c-2.25,5.03-4.17,8.97-5.85,12.05h0c-.62,1.17-1.21,2.2-1.75,3.12h0c-1.99,3.33-3.5,5.25-4.69,6.41-1.45,1.38-2.38,1.62-3,1.78-.11,.03-.22,.04-.34,.07-3.63,.67-14.38-.46-16.63-7.96l-.12-.43c-.99-3.98,.49-13.99,2.71-24.92,1.82-8.87,4.12-18.34,5.98-25.64,1.3-5.08,2.38-9.12,2.95-11.18l.04-.13,.04-.12c1.24-3.55,3.15-5.36,6.6-6.21,1.67-.42,5.12-.65,7.75,.91,.49,.28,.93,.61,1.34,1.01,1.51,1.5,2.08,3.59,1.57,5.75l-.07,.26c-.72,3.17-1.41,6.29-2.07,9.31-.01,.07-.03,.12-.04,.18-.43,1.95-.84,3.87-1.25,5.74-.14,.7-.29,1.38-.43,2.07-2.2,10.4-3.92,19.39-5.03,26.2,.53-.96,1-1.86,1.41-2.61h0c.04-.09,.07-.14,.11-.21l.05-.08,.04-.09c.36-.58,1.28-2.11,2.99-3.01,.4-.2,.83-.38,1.32-.5,2.15-.53,4.33,.16,5.7,1.82,1.43,1.74,1.69,4.2,.67,6.44Z"/><g><path class="f" d="M256.66,70.11c-.69,.17-1.29,.74-1.89,1.74-4.03,7.55-8.02,14.87-9.7,15.29-2.39,.59,1.92-22.85,3.41-27.44,1.14-3.45-4.22-4.23-6.31-3.71-.99,.25-1.77,.97-2.19,2.23-.3,.92-.72,2.18-1.27,3.8-1.59-2.56-4.4-4.08-9.36-2.84-9.29,2.31-14.46,13.05-15.92,22.81-.51,3.38-.57,6.65-.21,9.4,.1,.77,.24,1.51,.41,2.19,1.23,4.96,6.87,6.84,11.24,5.75,3.28-.82,6.69-5.36,9.46-10.79,1.38,5.14,9.33,6.12,11.51,5.58,2.58-.64,8.04-10.97,12.67-21.2,.82-1.79-.47-3.15-1.86-2.81Zm-31.57,21.99c-4.77,1.19-1.91-25.49,7.43-27.81,7.75-1.93,.72,25.78-7.43,27.81Z"/><path class="f" d="M213.34,82.15c.6-.99,1.19-1.56,1.89-1.74,1.49-.37,2.68,1.02,1.86,2.81-4.53,10.2-10.08,20.55-12.67,21.19-2.19,.54-11.05-.31-12.34-5.48-2.22-8.94,11.62-59.77,11.62-59.77,.8-2.31,1.64-3.15,3.83-3.7s6.63-.07,5.91,2.96c-.25,1.12-11.91,51.82-10.18,58.77,.05,.2,.17,.27,.37,.22,1.69-.42,5.67-7.74,9.71-15.29Z"/></g></g></g></g></svg>