<?xml version="1.0" encoding="utf-8"?>
<!-- Generator: Adobe Illustrator 26.2.1, SVG Export Plug-In . SVG Version: 6.00 Build 0)  -->
<svg version="1.1" id="Capa_1" xmlns="http://www.w3.org/2000/svg" xmlns:xlink="http://www.w3.org/1999/xlink" x="0px" y="0px"
	 viewBox="0 0 1499.2 1198.3" style="enable-background:new 0 0 1499.2 1198.3;" xml:space="preserve">
<style type="text/css">
	.st0{fill:#F8AE19;}
	.st1{fill:#FFFFFF;}
	.st2{fill:#602515;}
	.st3{fill:#E79F18;}
	.st4{fill:#622715;}
	.st5{fill:#F7AD19;}
	.st6{fill:#FEF8ED;}
	.st7{fill:#F7AE1A;}
	.st8{fill:#FDF4E3;}
</style>
<g id="a">
</g>
<path class="st0" d="M416.7,0h1019c35.1,0,63.5,28.4,63.5,63.5l0,0c0,35.1-28.4,63.5-63.5,63.5h-1019c-35.1,0-63.5-28.4-63.5-63.5
	l0,0C353.2,28.4,381.7,0,416.7,0z"/>
<g>
	<path class="st1" d="M496,86.4h-37.8l12.6-62.8h10.6l-10.7,53.2h27.1L496,86.4L496,86.4z"/>
	<path class="st1" d="M525.6,86.5c-4.5,0-8.2-1-11.1-2.9c-3-2.1-5.2-4.7-6.6-7.8c-1.4-3.2-2.1-6.6-2.1-10.4c0-7.5,2.5-13.8,7.4-19
		c4.9-5.2,11.1-7.8,18.6-7.8c8.4,0,14,3.5,16.7,10.6l2.1-10.6h10.2l-9.5,47.7H541l1.4-7.1C538,84.1,532.4,86.5,525.6,86.5z
		 M529.1,78c5.1,0,9.1-1.7,12.2-5.2c3-3.5,4.5-7.5,4.5-12c0-3.5-1-6.6-3.1-9.2s-5.3-3.9-9.7-3.9c-2,0-4,0.4-6,1.1
		c-2,0.7-3.8,1.8-5.4,3.2c-1.6,1.4-2.9,3.2-3.9,5.4s-1.5,4.7-1.5,7.5c0,4.3,1.3,7.6,3.8,9.8C522.5,76.9,525.5,78,529.1,78z"/>
	<path class="st1" d="M583.8,86.5c-4.7,0-8.9-0.8-12.5-2.5c-3.7-1.7-6.6-3.8-8.8-6.3l4.6-6.7c2.9,2.6,5.8,4.5,8.6,5.7
		s5.5,1.7,7.8,1.7c2.2,0,4-0.4,5.6-1.3c1.6-0.9,2.3-2.3,2.3-4.2c0-1.6-0.7-2.8-2-3.7s-3.2-1.8-5.6-2.7c-4.3-1.5-7.6-3.2-10-5
		s-3.6-4.7-3.7-8.7c0-3.2,0.8-5.9,2.4-7.9c1.7-2.1,3.9-3.7,6.5-4.7c2.6-1,5.4-1.5,8.4-1.5c7.7,0,14,2.2,19,6.7l-5,7.1
		c-5.1-3.7-9.9-5.6-14.2-5.6c-2.1,0-3.8,0.5-5.1,1.5s-2,2.2-2,3.5c0,1.6,0.9,2.9,2.8,3.9c2.3,1.2,4.5,2.2,6.5,3
		c4.1,1.5,7.2,3.3,9.3,5.4c1.7,1.7,2.7,4.3,3,7.8c0,3.4-0.8,6.1-2.5,8.2c-1.8,2.2-4.1,3.8-6.8,4.8S586.8,86.5,583.8,86.5L583.8,86.5
		z"/>
	<path class="st1" d="M717.7,86.4h-10.3l5.3-26.3c0.2-1.1,0.3-2.1,0.3-3c0-2.7-0.8-4.8-2.4-6.6c-1.6-1.7-4.2-2.6-7.9-2.6
		c-3.2,0-6.2,1.1-9,3.2s-4.8,5.5-6.1,9.9l-5.2,25.4H672l5.3-26.3c0.2-1.1,0.3-2.1,0.3-3c0-2.7-0.8-4.8-2.4-6.6
		c-1.6-1.7-4.2-2.6-7.9-2.6c-3.2,0-6.2,1.1-9,3.2c-2.8,2.2-4.8,5.5-6.1,9.9L647,86.4h-10.3l9.4-47.7h10.4l-1.3,7.3
		c3.7-4.9,9-7.3,15.8-7.3c9.2,0,14.8,3.6,17,10.7c4.5-7.1,10.6-10.7,18.4-10.7c6.1,0,10.6,1.5,13.4,4.3c2.8,2.9,4.2,6.5,4.2,10.8
		c0,1.5-0.2,3.2-0.5,4.9L717.7,86.4L717.7,86.4z"/>
	<path class="st1" d="M751.7,86.5c-4.5,0-8.2-1-11.1-2.9c-3-2.1-5.2-4.7-6.6-7.8c-1.4-3.2-2.1-6.6-2.1-10.4c0-7.5,2.5-13.8,7.4-19
		s11.1-7.8,18.6-7.8c8.4,0,14,3.5,16.7,10.6l2.1-10.6h10.2l-9.5,47.7h-10.2l1.4-7.1C764.1,84.1,758.5,86.5,751.7,86.5z M755.2,78
		c5.1,0,9.1-1.7,12.2-5.2c3-3.5,4.5-7.5,4.5-12c0-3.5-1-6.6-3.1-9.2s-5.3-3.9-9.7-3.9c-2,0-4,0.4-6,1.1c-2,0.7-3.8,1.8-5.4,3.2
		c-1.6,1.4-2.9,3.2-3.9,5.4s-1.5,4.7-1.5,7.5c0,4.3,1.3,7.6,3.8,9.8C748.6,76.9,751.6,78,755.2,78z M766.8,32.2l-8.5-0.9l8.9-12.4
		l10.6,4.5L766.8,32.2z"/>
	<path class="st1" d="M809.9,86.5c-4.7,0-8.9-0.8-12.5-2.5c-3.7-1.7-6.6-3.8-8.8-6.3l4.6-6.7c2.9,2.6,5.8,4.5,8.6,5.7
		s5.5,1.7,7.8,1.7c2.2,0,4-0.4,5.6-1.3c1.6-0.9,2.3-2.3,2.3-4.2c0-1.6-0.7-2.8-2-3.7s-3.2-1.8-5.6-2.7c-4.3-1.5-7.6-3.2-10-5
		s-3.6-4.7-3.7-8.7c0-3.2,0.8-5.9,2.4-7.9c1.7-2.1,3.9-3.7,6.5-4.7c2.6-1,5.4-1.5,8.4-1.5c7.7,0,14,2.2,19,6.7l-5,7.1
		c-5.1-3.7-9.9-5.6-14.2-5.6c-2.1,0-3.8,0.5-5.1,1.5s-2,2.2-2,3.5c0,1.6,0.9,2.9,2.8,3.9c2.3,1.2,4.5,2.2,6.5,3
		c4.1,1.5,7.2,3.3,9.3,5.4c1.7,1.7,2.7,4.3,3,7.8c0,3.4-0.8,6.1-2.5,8.2c-1.8,2.2-4.1,3.8-6.8,4.8S812.9,86.5,809.9,86.5L809.9,86.5
		z"/>
	<path class="st1" d="M886.8,86.5c-5.3,0-9.7-1-13.2-2.9c-3.7-2.1-6.4-4.7-8-8s-2.5-6.8-2.5-10.7c0-5.4,1.2-10.1,3.6-14
		s5.7-7,9.8-9.1s8.7-3.2,13.8-3.2c7,0,12.2,1.9,15.8,5.6c3.5,3.8,5.2,8.4,5.2,14.1c0,2.6-0.3,5.1-0.9,7.7h-37.1
		c0.2,3.7,1.4,6.6,3.6,8.8s5.7,3.3,10.3,3.3s9.1-1.5,12.9-4.4l4.7,6.6C899.9,84.4,893.9,86.4,886.8,86.5L886.8,86.5z M902.1,58.5
		c0-7.5-3.9-11.3-11.8-11.3c-4.4,0-8,1-10.6,3.2c-2.7,2.1-4.5,4.8-5.6,8.1L902.1,58.5L902.1,58.5z"/>
	<path class="st1" d="M954.8,86.4h-11.7l-7.6-17.5l-16,17.5h-11.7l21.8-24.5l-11-23.2h11.7l7.2,16.3L952,38.7h11.5l-20.1,23.2
		L954.8,86.4z"/>
	<path class="st1" d="M1004,103.8h-10.2l4.9-24.6c-4.5,4.8-10.1,7.3-16.9,7.3c-4.5,0-8.2-1-11.1-2.9c-3-2.1-5.2-4.7-6.6-7.8
		c-1.4-3.2-2.1-6.6-2.1-10.4c0-7.5,2.5-13.8,7.4-19s11.1-7.8,18.6-7.8c8.4,0,14,3.5,16.7,10.6l2.1-10.6h10.2L1004,103.8L1004,103.8z
		 M985.4,78c5.1,0,9.1-1.7,12.2-5.2c3-3.5,4.5-7.5,4.5-12c0-3.5-1-6.6-3.1-9.2s-5.3-3.9-9.7-3.9c-2,0-4,0.4-6,1.1
		c-2,0.7-3.8,1.8-5.4,3.2c-1.6,1.4-2.9,3.2-3.9,5.4s-1.5,4.7-1.5,7.5c0,4.3,1.3,7.6,3.8,9.8C978.7,76.9,981.8,78,985.4,78z"/>
	<path class="st1" d="M1042.8,86.5c-6.1,0-10.6-1.4-13.4-4.3c-2.8-2.9-4.2-6.5-4.2-10.8c0-1.5,0.2-3.2,0.5-4.9l5.7-27.7h10.3
		l-5.3,26.3c-0.2,1.1-0.3,2.1-0.3,3c0,2.7,0.8,4.8,2.4,6.6c1.6,1.7,4.2,2.6,7.9,2.6c4.2,0,7.5-1.2,10-3.7c2.5-2.4,4.2-5.6,5.1-9.5
		l5.2-25.4h10.3l-9.4,47.7h-10.4l1.3-7.2C1054.9,84,1049.6,86.5,1042.8,86.5L1042.8,86.5z"/>
	<path class="st1" d="M1093.1,86.4h-10.2l9.5-47.7h10.2L1093.1,86.4z M1098.9,32.4c-2.9,0-4.6-1.8-4.9-5.3c0-2.3,0.8-4.1,2.2-5.4
		c1.5-1.3,3.2-1.9,5-1.9c3.1,0,4.7,1.7,5,5.1c0,2.3-0.8,4.2-2.3,5.5S1100.8,32.4,1098.9,32.4z"/>
	<path class="st1" d="M1125.6,86.5c-4.7,0-8.9-0.8-12.5-2.5c-3.7-1.7-6.6-3.8-8.8-6.3l4.6-6.7c2.9,2.6,5.8,4.5,8.6,5.7
		s5.5,1.7,7.8,1.7c2.2,0,4-0.4,5.6-1.3c1.6-0.9,2.3-2.3,2.3-4.2c0-1.6-0.7-2.8-2-3.7s-3.2-1.8-5.6-2.7c-4.3-1.5-7.6-3.2-10-5
		s-3.6-4.7-3.7-8.7c0-3.2,0.8-5.9,2.4-7.9c1.7-2.1,3.9-3.7,6.5-4.7s5.4-1.5,8.4-1.5c7.7,0,14,2.2,19,6.7l-5,7.1
		c-5.1-3.7-9.9-5.6-14.2-5.6c-2.1,0-3.8,0.5-5.1,1.5s-1.9,2.2-1.9,3.5c0,1.6,0.9,2.9,2.8,3.9c2.3,1.2,4.5,2.2,6.5,3
		c4.1,1.5,7.2,3.3,9.3,5.4c1.7,1.7,2.7,4.3,3.1,7.8c0,3.4-0.8,6.1-2.5,8.2c-1.8,2.2-4.1,3.8-6.8,4.8S1128.6,86.5,1125.6,86.5
		L1125.6,86.5z"/>
	<path class="st1" d="M1161.8,86.4h-10.2l9.5-47.7h10.2L1161.8,86.4z M1167.6,32.4c-2.9,0-4.6-1.8-4.9-5.3c0-2.3,0.8-4.1,2.2-5.4
		c1.5-1.3,3.2-1.9,5-1.9c3.1,0,4.7,1.7,5,5.1c0,2.3-0.8,4.2-2.3,5.5S1169.4,32.4,1167.6,32.4z"/>
	<path class="st1" d="M1192.8,86.5c-3.2,0-6-0.8-8.2-2.6c-2.2-1.7-3.4-4.4-3.4-8.1c0-1.3,0.1-2.5,0.4-3.7l4.8-24.3h-6.6l1.4-7.7h6.7
		l2.6-13.1h10.2l-2.6,13.1h14.1l-1.4,7.7h-14.3l-4.7,23.3c-0.2,1-0.3,1.8-0.3,2.7c0,2.2,1.2,3.3,3.6,3.3c2,0,4.7-0.8,7.9-2.2
		l1.6,8.3C1200.6,85.4,1196.6,86.5,1192.8,86.5L1192.8,86.5z"/>
	<path class="st1" d="M1233.3,86.5c-4.5,0-8.2-1-11.1-2.9c-3-2.1-5.2-4.7-6.6-7.8c-1.4-3.2-2.1-6.6-2.1-10.4c0-7.5,2.5-13.8,7.4-19
		s11.1-7.8,18.6-7.8c8.4,0,14,3.5,16.7,10.6l2.1-10.6h10.2l-9.5,47.7h-10.2l1.4-7.1C1245.6,84.1,1240,86.5,1233.3,86.5z M1236.8,78
		c5.1,0,9.1-1.7,12.2-5.2c3-3.5,4.5-7.5,4.5-12c0-3.5-1-6.6-3.1-9.2c-2.1-2.6-5.3-3.9-9.7-3.9c-2,0-4.1,0.4-6,1.1
		c-2,0.7-3.8,1.8-5.4,3.2c-1.6,1.4-2.9,3.2-3.9,5.4s-1.5,4.7-1.5,7.5c0,4.3,1.3,7.6,3.8,9.8C1230.1,76.9,1233.2,78,1236.8,78z"/>
	<path class="st1" d="M1291.4,86.5c-4.7,0-8.9-0.8-12.5-2.5c-3.7-1.7-6.6-3.8-8.8-6.3l4.6-6.7c2.9,2.6,5.8,4.5,8.6,5.7
		s5.5,1.7,7.8,1.7c2.2,0,4-0.4,5.6-1.3c1.6-0.9,2.3-2.3,2.3-4.2c0-1.6-0.7-2.8-2-3.7s-3.2-1.8-5.6-2.7c-4.3-1.5-7.6-3.2-10-5
		s-3.6-4.7-3.7-8.7c0-3.2,0.8-5.9,2.4-7.9c1.7-2.1,3.9-3.7,6.5-4.7s5.4-1.5,8.4-1.5c7.7,0,14,2.2,19,6.7l-5,7.1
		c-5.2-3.7-9.9-5.6-14.2-5.6c-2.1,0-3.8,0.5-5.1,1.5s-1.9,2.2-1.9,3.5c0,1.6,0.9,2.9,2.8,3.9c2.3,1.2,4.5,2.2,6.5,3
		c4.1,1.5,7.2,3.3,9.3,5.4c1.7,1.7,2.7,4.3,3.1,7.8c0,3.4-0.8,6.1-2.5,8.2c-1.8,2.2-4.1,3.8-6.8,4.8
		C1297.4,86,1294.5,86.5,1291.4,86.5L1291.4,86.5z"/>
	<path class="st1" d="M1344.4,103.9c-4.6,0-8.1-1.4-10.7-4.3l5.4-7.4c1.9,1.3,3.7,2,5.5,2c3.6,0,6.6-1.8,9-5.4l2.3-3.4l-10.2-46.8
		h10.5l6.8,36.5l20.7-36.5h10.5L1361.6,93C1357.3,100.2,1351.6,103.8,1344.4,103.9L1344.4,103.9z"/>
</g>
<g>
	<path class="st2" d="M499.2,284h-59.5l27.6-138.8H521c19.4,0,34.6,5.6,45.6,16.9c5.5,5.6,9.6,12,12.2,19.3c2.7,7.3,4,16.3,4,26.9
		c-1.6,22.3-10.3,40.6-26.3,54.6C540.7,277,521.6,284,499.2,284L499.2,284z M503.6,263c13.9,0,26.1-4.6,36.8-13.8
		c10.6-9.2,16.9-22.2,18.7-39c0-14.9-3.9-26-11.7-33.2s-17.7-10.8-29.8-10.8h-31.1L467.3,263H503.6L503.6,263z"/>
	<path class="st2" d="M645.6,284.1c-11.6,0-21.3-2.1-29.2-6.3c-8.1-4.5-14.1-10.4-17.8-17.6c-3.7-7.2-5.6-15.1-5.6-23.6
		c0-12,2.7-22.3,8-31c5.3-8.7,12.6-15.4,21.7-20.1c9.1-4.7,19.2-7.1,30.4-7.1c15.5,0,27.1,4.1,34.8,12.4
		c7.7,8.3,11.6,18.6,11.6,31.1c0,5.6-0.7,11.3-2,16.9h-81.9c0.4,8.1,3.1,14.5,8,19.4c5,4.9,12.5,7.3,22.7,7.3s20.1-3.2,28.6-9.7
		l10.3,14.5C674.5,279.6,661.3,284.1,645.6,284.1L645.6,284.1z M679.3,222.3c0-16.6-8.7-24.9-26-24.9c-9.8,0-17.6,2.3-23.5,7
		c-5.9,4.7-10,10.6-12.4,17.9H679.3z"/>
	<path class="st2" d="M737.6,284.1c-5.8,0-11-1.8-15.5-5.3c-4.5-3.5-6.7-9.4-6.7-17.5c0-3.1,0.3-6,0.8-8.7l23.4-115.7h22.6
		l-23.4,115.3l-0.4,4.3c0,4.6,2.2,6.8,6.5,6.8c3,0,7-1.2,11.9-3.7l0.8,19.4C750.5,282.4,743.8,284.1,737.6,284.1L737.6,284.1z"/>
	<path class="st2" d="M796.7,284h-22.6l21-105.5h22.6L796.7,284z M809.6,164.6c-6.5,0-10.1-3.9-10.9-11.7c0-5.2,1.7-9.1,5-11.9
		s7-4.2,11.1-4.2c6.7,0,10.5,3.8,11.1,11.3c0,5.2-1.7,9.2-5.1,12.1S813.7,164.6,809.6,164.6L809.6,164.6z"/>
	<path class="st2" d="M879.2,284.1c-10.6,0-19.4-2.1-26.5-6.4c-7.6-4.8-13.1-10.8-16.5-18c-3.4-7.2-5.1-14.9-5.1-23.1
		c0-12.7,2.9-23.4,8.6-32.3c6.1-9.1,13.5-15.8,22.3-19.9s18.1-6.2,28-6.2c18.9,0,32.9,5.8,41.8,17.2l-13.9,15
		c-6.5-8.3-16.1-12.4-29-12.4c-6.1,0-11.8,1.4-17.1,4.1s-9.7,6.8-13,12.2c-3.3,5.4-5,12.2-5,20.4s2.3,14.9,6.9,21
		c4.8,5.8,11.8,8.7,21.2,8.7c13.3,0,24.1-4.2,32.3-12.5l11.5,12.3C915.2,277.6,899.6,284.1,879.2,284.1L879.2,284.1z"/>
	<path class="st2" d="M968.8,284h-22.6l21-105.5h22.6L968.8,284z M981.7,164.6c-6.5,0-10.1-3.9-10.9-11.7c0-5.2,1.7-9.1,5-11.9
		s7-4.2,11.1-4.2c6.7,0,10.5,3.8,11.1,11.3c0,5.2-1.7,9.2-5.1,12.1S985.8,164.6,981.7,164.6L981.7,164.6z"/>
	<path class="st2" d="M1053.3,284.1c-11.1,0-20.4-2.1-27.8-6.5c-7.7-4.6-13.4-10.6-16.9-17.8c-3.5-7.2-5.3-15.1-5.3-23.5
		c0-18,5.9-32.2,17.8-42.5c11.8-10.3,26.2-15.5,42.9-15.5c11.4,0,20.7,2.1,28.1,6.4c7.7,4.6,13.3,10.6,16.8,17.8
		c3.5,7.2,5.3,15,5.3,23.4c0,18-5.9,32.2-17.8,42.6C1084.5,279,1070.1,284.1,1053.3,284.1L1053.3,284.1z M1055.1,265.1
		c6.1,0,11.9-1.3,17.3-3.9c5.5-2.6,9.9-6.6,13.4-12.1c3.4-5.5,5.2-12.6,5.2-21.3c0-8-2.4-15-7.2-21s-12-8.9-21.5-8.9
		c-5.9,0-11.7,1.4-17.2,4.1c-5.5,2.7-10,6.8-13.5,12.3s-5.3,12.5-5.3,20.9s2.3,15.1,6.9,21.2
		C1038.1,262.2,1045.3,265.1,1055.1,265.1L1055.1,265.1z"/>
	<path class="st2" d="M1165.8,284.1c-10.4,0-19.6-1.9-27.7-5.5c-8.1-3.7-14.5-8.4-19.3-14l10.1-14.8c6.3,5.8,12.7,10,19.1,12.5
		s12.1,3.8,17.2,3.8c4.8,0,8.9-1,12.3-2.9c3.4-1.9,5.2-5,5.2-9.3c0-3.5-1.5-6.2-4.5-8.2c-3-1.9-7.1-3.9-12.4-6
		c-9.5-3.4-16.9-7-22-11c-5.2-3.9-7.9-10.3-8.1-19.1c0-7.1,1.8-13,5.3-17.5c3.8-4.7,8.6-8.2,14.4-10.4c5.8-2.2,11.9-3.3,18.5-3.3
		c16.9,0,30.9,5,42.1,14.9l-11.1,15.7c-11.4-8.2-21.8-12.4-31.3-12.4c-4.7,0-8.5,1.1-11.3,3.2c-2.9,2.2-4.3,4.8-4.3,7.8
		c0,3.6,2.1,6.5,6.2,8.5c5.2,2.6,9.9,4.8,14.3,6.6c9,3.2,15.9,7.2,20.6,12c3.7,3.8,5.9,9.5,6.7,17.2c0,7.4-1.8,13.5-5.6,18.2
		c-4,4.9-9,8.4-15,10.6S1172.6,284.1,1165.8,284.1L1165.8,284.1z"/>
	<path class="st2" d="M1267.5,284.1c-9.9,0-18.1-2.1-24.5-6.3c-6.7-4.5-11.6-10.3-14.7-17.4c-3.1-7-4.7-14.7-4.7-22.9
		c0-16.5,5.4-30.5,16.4-41.9s24.6-17.2,41.2-17.2c18.6,0,30.9,7.8,36.9,23.5l4.6-23.4h22.6l-21,105.5h-22.6l3.2-15.8
		C1294.9,278.9,1282.5,284.1,1267.5,284.1L1267.5,284.1z M1275.3,265.5c11.2,0,20.2-3.8,26.9-11.5c6.7-7.7,10-16.5,10-26.6
		c0-7.9-2.3-14.6-6.8-20.4c-4.6-5.7-11.7-8.6-21.3-8.6c-4.5,0-8.9,0.8-13.3,2.4s-8.4,4-12,7.1c-3.6,3.2-6.5,7.1-8.7,11.9
		c-2.2,4.7-3.3,10.3-3.3,16.7c0,9.5,2.8,16.7,8.3,21.6C1260.6,263.1,1267.3,265.5,1275.3,265.5L1275.3,265.5z"/>
	<path class="st2" d="M1396.1,284.1c-10.4,0-19.6-1.9-27.7-5.5c-8.1-3.7-14.5-8.4-19.3-14l10.1-14.8c6.3,5.8,12.7,10,19.1,12.5
		s12.1,3.8,17.2,3.8c4.8,0,8.9-1,12.3-2.9c3.4-1.9,5.2-5,5.2-9.3c0-3.5-1.5-6.2-4.5-8.2s-7.1-3.9-12.4-6c-9.5-3.4-16.9-7-22-11
		c-5.2-3.9-7.9-10.3-8.1-19.1c0-7.1,1.8-13,5.3-17.5c3.8-4.7,8.6-8.2,14.4-10.4c5.8-2.2,11.9-3.3,18.5-3.3c16.9,0,30.9,5,42,14.9
		l-11.1,15.7c-11.4-8.2-21.8-12.4-31.3-12.4c-4.7,0-8.5,1.1-11.3,3.2c-2.9,2.2-4.3,4.8-4.3,7.8c0,3.6,2.1,6.5,6.2,8.5
		c5.2,2.6,9.9,4.8,14.3,6.6c9,3.2,15.9,7.2,20.6,12c3.7,3.8,5.9,9.5,6.7,17.2c0,7.4-1.8,13.5-5.6,18.2c-4,4.9-9,8.4-15,10.6
		S1402.9,284.1,1396.1,284.1L1396.1,284.1z"/>
</g>
<g>
	<path class="st0" d="M106.8,440c-4.1,0-7.8,1.2-11.5,2c-16.4,4.1-32.4,8.6-47.6,15.6c-4.5,2-9,4.1-12.7,7.8
		c-1.6,1.2-3.3,2.5-5.3,2.5c-9.4,0.8-18-1.2-25-8.2c-5.3-5.3-6.2-11.9-2-18.1c2-2.9,4.1-4.9,6.6-7c9.4-7.4,20.9-11.9,32.4-15.2
		c12.3-3.3,24.6-4.9,37.3-6.2c15.6-1.2,31.6-2,47.6-3.3c3.3,0,4.9-1.6,6.6-3.7c11.9-16.8,24.2-33.6,36.5-50.1
		c19.3-25.9,38.2-51.7,57.1-77.6c22.2-30,44.7-59.5,64.8-90.7c8.2-12.7,20.1-17.2,34.5-16c1.2,0,2.5,0.4,3.7,0.4
		c8.2,2.5,11.1,7,10.7,15.6c-1.2,13.1-4.1,25.4-7,38.2c-6.6,29.6-13.1,59.1-18.5,88.7c-3.7,23.8-7.8,48-10.3,71.8
		c-1.2,14.8-2.5,29.5-3.3,44.3c-0.8,10.3-1.2,20.1-1.2,30.4c-0.8,28.3,2,56.2,10.7,83.3c4.9,15.6,11.5,30.4,22.2,43.1
		c4.5,5.8,9.9,11.1,16,14.8c6.6,4.1,13.5,5.8,20.9,4.9c7.8-1.2,15.6-2,23-3.3c4.1-0.8,8.2-2.5,12.3-2.9c3.3-0.4,7,0,9.9,0.8
		c6.1,2.5,7,7.8,2.5,11.9c-2.5,2.5-5.3,4.1-8.6,5.3c-11.5,4.9-23.8,7.8-36.1,9.8c-9,1.2-18.1,2.9-27.5,2.5
		c-20.9-0.4-39-7.8-54.6-21.8c-15.2-13.5-25.4-30.4-33.2-48.8c-7.4-17.7-11.5-36.5-14.4-55.4c-2.5-18.9-2.5-37.4-2.1-56.2
		c0-2.5,0.4-4.5,0.4-7c0-3.3,0-3.7-3.3-4.5c-4.1-0.4-8.6-0.8-12.7-1.2c-12.3-1.2-24.2-1.2-36.5-1.2c-14.4,0-29.1,0-43.5,0.8
		c-3.3,0.4-4.9,1.6-6.6,4.1c-23.4,32.8-47.6,64.8-71.8,97.3c-9.4,12.3-18.9,25-28.3,37.3c-4.9,6.2-11.1,9.4-18.5,9.4
		c-2.5,0-4.9-0.4-7-1.6c-3.7-1.6-4.5-4.1-3.3-7.8c0.8-1.6,1.6-2.9,2.5-4.5c9-14.4,19.3-28.3,29.1-42.3
		c20.5-27.9,41.9-55.4,62.8-83.3C105.2,443.7,106.4,442.5,106.8,440L106.8,440z M274.3,255.7c-1.6,2.1-2.9,3.7-4.1,5.3
		c-25,33.2-49.2,66.9-73.5,100.6c-10.7,14.8-21.3,29.1-32,43.9c-0.8,0.8-2.1,1.6-1.2,2.9c0.4,1.2,1.6,0.8,2.9,0.8
		c5.3,0.4,11.1,0.4,16.4,0.8c18.9,0.4,37.8,2,56.2,6.2c3.7,0.8,4.1,0.8,4.9-2.9c0-0.8,0-1.6,0.4-2.5c0.8-8.2,2.1-16,2.9-23.8
		c3.3-22.2,7.8-43.5,11.9-65.2c4.1-20.5,8.6-41,14.8-61.6C274.3,259,275.1,257.8,274.3,255.7L274.3,255.7z"/>
	<path class="st0" d="M447.4,347.2c3.7-1.6,6.6-3.3,9.4-4.9c13.1-7,27.1-11.9,42.3-12.3c17.2-0.8,33.6,2.9,46.4,15.6
		c9,8.6,13.1,20.1,11.5,32.4c-2,15.2-10.3,27.5-20.5,37.8c-1.6,1.6-3.3,2.9-4.5,4.1c-13.5,11.5-28.3,12.3-43.9,6.6
		c-2.9-0.8-5.3-2.5-7-4.9c-3.3-3.7-3.3-7-0.4-11.1c0.8-1.2,1.6-2,2.5-2.9c4.5-4.5,7-10.3,7.8-16.4c1.6-7.4,2.9-14.8,3.3-22.6
		c0-1.6,0-3.3-0.4-4.9s-1.2-2-2.9-1.6c-2.5,1.2-4.9,2.5-7.4,3.7c-7.8,4.1-15.2,8.6-22.6,14.4c-10.7,8.2-20.9,16.8-31.6,25.5
		c-2.5,2-4.1,4.9-5.3,7.8c-9,25-19.7,49.2-29.1,78c-5.3,18.9-9.9,27.5-13.5,36.1c-4.9,11.1-13.5,15.6-25,15.6
		c-5.3-0.4-10.7-0.4-15.6-2.5c-1.6-0.4-3.7-1.2-5.3-2c-7.4-4.1-10.3-9.8-7.8-18.5c4.1-14,10.7-37.8,14.8-51.7
		c7.8-30.4,16.8-56.6,26.3-82.5c4.9-14.4,10.3-28.7,16.8-42.7c2-4.1,4.1-8.2,7-11.5c3.3-4.5,7.4-7,12.3-8.6
		c11.5-2.9,22.2-2,32.8,2.9c2,1.2,4.1,2.5,5.8,4.1c2.9,2.9,4.5,6.2,4.5,10.3C447.4,342.4,447,344.4,447.4,347.2L447.4,347.2z"/>
	<path class="st0" d="M616.1,475.7c-0.4,7.4,0.8,15.2,3.7,23c0.8,3.3,2.5,6.1,4.1,9c3.3,4.5,7,6.6,12.7,5.8
		c10.3-1.6,20.1-5.3,29.5-9.4c21.8-9.4,41.5-21.3,59.9-36.1c17.7-14,35.7-27.5,52.9-41.9c4.1-3.3,8.6-6.1,14.4-6.6
		c1.6-0.4,3.3-0.4,4.9,0c3.7,1.6,4.9,4.5,3.3,8.2c-0.8,2-2.5,4.1-4.1,5.8c-9.4,9.4-19.3,17.6-29.5,25.9
		c-25,19.7-50.5,38.6-77.2,56.2c-14.4,10.3-30.4,16.8-48,20.1c-20.5,4.1-39.8,1.6-57.9-9.4c-11.9-7.4-20.5-17.6-25.8-30.8
		c-3.7-9.9-5.8-20.1-5.8-30.8c0-9.9,1.2-19.7,4.1-29.1c7.4-26.3,20.1-49.2,38.2-69.4c11.5-12.7,24.6-23.4,39.8-31.6
		c13.1-7,27.1-11.5,42.3-13.1c11.5-1.2,23-0.8,34.1,2c8.6,2,16.8,4.5,23.4,10.7c7.8,6.6,12.7,14.8,12.7,25.4
		c0,6.2-0.8,11.5-2.9,17.2c-3.7,12.7-9.4,24.2-17.2,34.5c-18.1,23.4-41,36.9-70.2,40.2c-11.9,1.2-24.2,2-36.1,0.4
		c-2.5-0.4-3.3,0.8-3.7,2.9C616.9,461.3,616,467.9,616.1,475.7L616.1,475.7z M690.4,363.2c-0.4-1.6-0.8-3.7-0.8-5.3
		c-0.4-2-1.6-2.5-2.9-1.6c-1.2,0-2,0.4-2.9,0.8c-7.8,4.1-14.8,9-20.9,14.8c-11.1,10.7-20.1,23-27.5,36.1c-3.3,5.8-6.2,11.5-8.2,17.2
		c-1.2,2.5-0.8,3.3,2,2.9c3.3-0.4,6.6-1.2,9.8-1.6c9-1.6,16.8-5.3,23.4-11.9c10.7-10.3,19.7-22.2,25-36.1
		C689.1,373.5,689.5,368.6,690.4,363.2L690.4,363.2z"/>
	<path class="st0" d="M864,380.5c3.3-4.1,6.2-7.4,9-10.7c9.4-11.5,19.7-22.2,30.8-31.6c9.4-8.2,20.5-12.3,33.2-13.5
		c8.6-0.8,16.8,0,25,2.5c15.2,4.9,24.6,15.6,28.3,30.8c3.7,13.5,2.9,26.7-0.4,39.8c-5.8,24.2-13.5,48-25,69.8
		c-11.1,20.5-25,39-43.5,53.4c-17.2,13.1-36.9,20.5-59.5,19.3c-5.3-0.4-11.1-1.2-16.4-2.9c-4.9-2-9-4.1-12.7-7.8
		c-3.3-3.3-6.6-6.6-9.8-9.8c-0.8-0.8-1.2-2-2.9-2c-1.2,1.2-1.2,2.9-2,4.1c-5.8,18.9-11.5,37.8-17.2,56.6
		c-8.2,25.4-17.2,50.9-27.1,75.5c-2.5,6.2-5.8,11.9-9.8,17.2c-2.5,3.3-5.3,6.2-9.4,7.4c-10.3,4.5-21.3,4.5-32,0.4
		c-7-2.5-10.7-7.4-10.7-15.2c0.4-5.3,1.2-11.1,2.5-16.4c4.5-18.1,10.3-36.1,15.6-54.2c7.8-25.5,17.2-50.1,25.4-75.5
		c9-28.3,19.3-56.2,27.9-85c9-29.1,19.7-57.9,30-86.6c1.2-3.3,2.5-6.6,3.7-9.4c1.6-4.1,4.5-7,8.2-8.6c13.5-6.6,27.1-6.6,40.6-0.8
		c2.5,0.8,4.1,2.5,6.2,4.5c2,2.5,3.3,5.3,2.5,8.6c-0.8,5.8-2.5,11.1-4.1,16.4c-2,7-4.1,13.5-6.2,20.1
		C864,377.6,863.5,378.5,864,380.5L864,380.5z M923.5,364.5c-2.5,0-3.3,1.2-4.1,2c-12.7,10.7-23,23.4-31.6,37.4
		c-11.5,17.2-22.6,34.9-34.5,52.1c-4.5,6.6-9,13.1-14.8,18.9c-1.2,0.8-2,2-0.4,3.3c2.5,2.5,3.3,5.3,4.9,7.8
		c4.9,9.4,11.5,17.2,19.3,23.8c2,1.6,3.3,1.6,4.9,0.4c3.3-2.5,6.2-4.9,8.6-7.8c10.7-12.7,19.7-27.1,26.3-43.1
		c10.7-26.7,18.5-54.6,21.3-83.3C923.5,372.3,923.9,368.6,923.5,364.5L923.5,364.5z"/>
	<path class="st0" d="M1134.4,456.8c-3.7,5.3-7.4,11.1-11.1,16.4c-8.2,11.5-16,22.6-24.2,34.1c-3.7,4.9-8.2,9.9-13.1,13.9
		c-7.8,6.6-16.8,10.7-27.1,11.9c-9.4,1.2-18.9,0.8-28.3-2.5c-16-5.3-24.6-17.7-29.5-32.8c-2.9-9-3.3-18.5-2.5-27.9
		c1.6-24.2,9-47.2,18.5-69.4c4.9-11.1,11.5-20.9,18.9-30.4c7-9,14.4-17.6,23-25c12.7-10.7,27.5-16.4,43.5-19.3
		c12.7-1.6,25.4-1.2,37.8,0.8c10.7,2,19.7,6.6,26.7,14.8c0.8,0.8,1.2,1.6,2.1,2.5c2.1,2.5,2.5,2,4.1-0.4c1.2-2,2.5-4.1,3.7-5.8
		c2.5-3.7,4.9-7,8.6-9.4c8.6-5.8,18.5-6.6,28.3-5.3c4.9,0.4,9,2,12.7,4.5c4.1,2.9,5.8,6.6,5.8,11.1c0,4.1-0.8,7.8-2.1,11.1
		c-2.1,5.3-4.1,10.7-6.2,15.6c-4.1,11.5-8.6,23-13.1,34.5c-2.5,5.8-3.7,11.5-5.3,17.2c-3.7,14-9.4,26.7-13.1,40.6
		c-4.5,14.8-7.8,30-7.4,45.5c0,2,0.4,4.5,0.8,7c0.4,2.1,1.2,2.5,2.9,1.2c2.5-1.2,4.1-2.9,5.8-4.5c9.4-8.6,17.2-18.9,24.6-29.1
		c13.5-17.6,27.1-35.7,40.6-53.4c4.1-5.3,8.6-9,14.8-10.7c2.9-0.8,5.3-1.2,7.8,0.8c2.1,2.9,1.6,5.8,0.4,8.2c-2.1,5.3-5.3,9.4-8.2,14
		c-14.4,20.9-30,40.6-45.2,60.7c-5.8,7.8-11.1,16-18.1,22.6c-12.7,12.3-28.3,16.4-45.6,11.9c-15.2-4.1-24.6-14.4-29.1-29.5
		c-2.9-9.4-2.9-19.7-2.1-29.5c0.4-5.3,0.4-10.7,0.8-15.6C1135.2,456.8,1134.8,456.8,1134.4,456.8L1134.4,456.8z M1152.4,384.2
		c-6.6-2.9-8.6-7.8-11.1-12.7c-2.1-4.5-4.1-8.6-6.6-12.3c-6.2-9-10.7-9.9-20.1-3.7c-0.8,0.8-1.6,1.2-2.5,2
		c-7,6.2-13.1,13.1-18.1,20.9c-8.2,14-15.2,28.7-20.5,43.9c-7,19.7-10.7,39.8-12.7,60.3c-0.8,6.1-2.1,12.3-0.4,18.5
		c0.4,1.6-0.4,3.7,1.6,4.1c1.6,0.8,2.5-1.2,3.7-2.5c8.6-8.2,15.6-18.1,22.6-27.9c14.8-21.8,29.1-43.9,43.5-66.5
		C1137.2,399.8,1142.2,390.7,1152.4,384.2L1152.4,384.2z"/>
	<path class="st0" d="M1356.4,323.8c13.9-0.4,27.5,2.9,39.8,10.7c9.8,6.2,16,15.2,18.1,26.7c1.2,6.6,1.2,13.5-0.4,20.5
		c-4.1,18.5-14.4,32.4-31.6,41c-9.4,4.5-19.3,4.5-29.1,2.5c-2.9-0.4-5.3-1.6-7.8-3.3c-4.9-3.7-5.8-8.2-1.6-12.7
		c3.3-3.3,5.8-7,8.2-11.1c4.1-5.8,6.2-12.3,7-19.3c1.2-7.4-0.8-14.4-3.7-20.9c-0.8-2-2.1-2-3.7-1.2c-6.6,3.3-11.9,8.2-16.4,14
		c-8.6,11.1-13.5,23.8-15.6,37.4c-2.9,18.5,1.6,35.7,8.6,52.5c4.5,9.4,9,18.9,14,28.3c1.6,4.1,2.1,4.1,6.2,1.6
		c28.3-16,55.8-32.8,84.1-49.2c6.2-3.7,12.3-7.4,18.5-11.1c4.1-2.5,8.6-4.1,13.5-5.3c2.5-0.8,5.3-0.8,7.8-0.4
		c4.9,0.8,6.6,4.5,3.7,8.6c-1.6,2.5-4.1,4.5-6.6,6.1c-10.3,7-20.5,13.1-30.8,19.7c-25.4,16-51.3,30.4-77.2,45.5
		c-2.1,1.2-4.1,2.9-6.6,4.1c-2.1,1.2-2.5,2.9-1.2,5.3c2.5,5.8,4.5,11.9,6.6,18.1c3.7,11.9,5.3,24.2,5.8,36.9
		c0.4,27.5-18.1,51.3-41.9,60.3c-23,8.6-46,6.2-67.7-4.1c-9.4-4.5-16.8-11.9-21.3-21.8c-4.5-9-4.1-18.1,0.4-27.1
		c4.5-8.2,10.3-14.8,16.8-20.9c12.7-11.9,27.1-21.8,41.4-32c2.2-1.6,2.6-3.7,1.2-6.2c-7.4-14-14.4-28.7-21.8-43.1
		c-8.2-16.4-13.5-33.6-15.6-51.7c-2.5-18.9,2.5-35.7,11.9-51.3c16-25.9,39.8-39.4,68.1-45.5c3.3-0.8,6.2-1.2,9.4-1.6
		S1353.1,323.8,1356.4,323.8L1356.4,323.8z M1313.7,573c0.4-4.5,0-8.2-0.8-12.3c-1.2-5.3-2.9-11.1-5.3-16c-0.4-2-1.2-2.5-2.9-1.2
		c-0.8,0.8-1.6,1.2-2.5,1.6c-9.4,7.4-18.1,16-26.3,24.6c-2.9,2.9-4.9,6.2-6.6,9.8c-1.2,2.5-2.5,4.9-2.5,7.8
		c-1.2,11.5,9,24.2,24.2,24.2c1.6,0,3.7-0.8,4.9-2c7.8-6.2,14.8-13.1,16.4-23.8C1313.3,581.6,1314.1,577.1,1313.7,573L1313.7,573z"
		/>
</g>
<path class="st2" d="M226.7,982.1H927c46.1,0,83.4,37.4,83.4,83.4v49.2c0,46.1-37.4,83.4-83.4,83.4H226.7
	c-46.1,0-83.4-37.4-83.4-83.4v-49.2C143.2,1019.5,180.6,982.1,226.7,982.1z"/>
<path class="st0" d="M861.5,982h510.7c46.1,0,83.5,37.4,83.5,83.5v49.3c0,46.1-37.4,83.5-83.5,83.5H861.5
	c-46.1,0-83.5-37.4-83.5-83.5v-49.3C778,1019.4,815.4,982,861.5,982z"/>
<g>
	<path class="st2" d="M264.2,1099.5c0.6,0.2,1.1,0.3,1.6,0.5C265.3,1099.9,264.8,1099.7,264.2,1099.5z"/>
	<path class="st3" d="M265.9,1100.1c-0.5-0.2-1.1-0.3-1.6-0.5C264.8,1099.7,265.3,1099.9,265.9,1100.1z"/>
	<path class="st3" d="M316.2,1071.3c0.7-8.7-3.3-12.6-12.3-12.4c-15,0.3-30-0.3-45,0.2c-9.2,0.3-16.2-1.2-20.6-10.5
		c-4.1-8.8-10.8-8.4-17.8-2.6c-10.4,8.6-14.7,24-9.3,39c5.4,14.9,13.4,28.6,23.7,40.6c10.5,12.2,25.6,15.8,38.5,11
		c6.6-2.4,10.4-6.3,9.1-13.8c-3-4.5-5.7-9.1-8.9-13.3c-3.9-5.1-9-7.4-15.1-4c-7.2,4-11.5,1.2-14.8-5.2c-2.4-4.8-5.3-9.4-7.7-14.2
		c-1.5-2.9-1.6-6,1.1-8.4c3.2-3,5.6-0.5,8,1.3c5.8,4.5,11.6,8.8,17.2,13.6c6.4,5.5,12.2,5,18.5-0.2c8.5-7,17.3-13.7,28.6-22.7
		c0,14.6,0.1,25.9,0,37.2c-0.1,5.3-4.1,5.5-8.1,5.8c-5.7,0.4-11.7-1.3-19.1,3c-0.3-1.6-0.8-3-1.3-4.3c-0.2,0.8-0.2,1.6-0.2,2.5
		c0.1,2,0.8,3.3,1.8,4c1,0.7,2.5,1,4.2,0.9c8.7-0.6,17.6,1.2,26.2-1C319.8,1102.8,314.9,1086.9,316.2,1071.3L316.2,1071.3z
		 M237,1069c-4.2,4.6-10.5,8.1-8.1,15.1c3.6,10.5,8.7,20.6,17.4,27.9c3.5,2.9,8.1,2.1,12.1,0.1c5-2.6,9-1.7,12,2.9
		c2.4,3.8,6.8,7.6,4.6,12.3c-2.4,5.2-8.2,4.8-13.3,5.1c-10.3-0.4-18.4-5.6-24.2-13.6c-7.5-10.2-14.2-21.1-19-32.9
		c-4.3-10.8-5.2-21.8,2.9-31.6c3.2-3.8,7.3-8.5,12.2-2.5C237.4,1056.7,242.9,1062.6,237,1069L237,1069z M276,1087.9
		c-2.7,2.1-5.8,2.3-8.5,0.3c-6.4-4.8-12.8-9.8-19.1-14.8c-2-1.6-2.8-3.7-2.1-6.1c0.8-2.8,3.3-2.9,5.6-2.9c16.4-0.1,32.8,0,52.3,0
		C294.1,1075.2,284.6,1081.1,276,1087.9L276,1087.9z"/>
	<path class="st4" d="M264.2,1099.5c0.6,0.2,1.1,0.3,1.6,0.5C265.3,1099.9,264.8,1099.7,264.2,1099.5z"/>
</g>
<g>
	<path class="st1" d="M386.7,1090.8c2.4,2,3.6,4.7,3.6,8c0,2.6-0.7,4.9-2,7c-1.4,2-3.3,3.6-5.9,4.8c-2.5,1.1-5.5,1.7-8.9,1.7
		c-2.8,0-5.6-0.4-8.4-1.2s-5.2-2-7.1-3.4l3-5.7c1.7,1.4,3.5,2.4,5.6,3.2c2.1,0.7,4.2,1.1,6.4,1.1c3.2,0,5.7-0.7,7.5-2
		c1.8-1.3,2.7-3.1,2.7-5.3s-0.9-4-2.7-5.2c-1.8-1.2-4.4-1.8-7.7-1.8h-6.2v-4.4l12.1-11.7h-18.6l-0.1-6.3h28.1v4.5l-13.6,13.2
		l2.4,0.2C381,1087.6,384.2,1088.7,386.7,1090.8L386.7,1090.8z"/>
	<path class="st1" d="M416,1112.1h-7.2v-36.2h-9.2v-6.5H416V1112.1z"/>
	<path class="st1" d="M466.6,1095.3v6.4h-6.4v10.4h-6.7v-10.4h-20.8v-5.4l14.5-26.8h7l-13.7,25.9h13.1v-10.2h6.7v10.2H466.6
		L466.6,1095.3z"/>
	<path class="st1" d="M499.6,1090.8c2.4,2,3.6,4.7,3.6,8c0,2.6-0.7,4.9-2,7c-1.4,2-3.3,3.6-5.9,4.8c-2.5,1.1-5.5,1.7-8.9,1.7
		c-2.8,0-5.6-0.4-8.4-1.2s-5.2-2-7.1-3.4l3-5.7c1.7,1.4,3.5,2.4,5.6,3.2c2.1,0.7,4.2,1.1,6.4,1.1c3.2,0,5.7-0.7,7.5-2
		c1.8-1.3,2.7-3.1,2.7-5.3s-0.9-4-2.7-5.2c-1.8-1.2-4.4-1.8-7.7-1.8h-6.2v-4.4l12.1-11.7h-18.6l-0.1-6.3h28.1v4.5l-13.6,13.2
		l2.4,0.2C493.9,1087.6,497.2,1088.7,499.6,1090.8L499.6,1090.8z"/>
	<path class="st1" d="M541.9,1106.1v6h-32.5v-5.3l17-16.7c1.8-1.7,3.1-3.3,4.2-4.9s1.6-3,1.6-4.2c0-1.7-0.7-3.1-2.1-4
		c-1.4-0.9-3.4-1.4-5.9-1.4c-2,0-4.1,0.5-6.3,1.4c-2.2,0.9-4.3,2.2-6.2,3.9l-2.9-5.5c2.4-1.9,5.1-3.4,7.9-4.5
		c2.8-1.1,5.7-1.6,8.5-1.6s5.4,0.4,7.6,1.3c2.2,0.9,3.9,2.1,5.1,3.7s1.8,3.5,1.8,5.6c0,3.9-2.8,8.6-8.3,13.9l-12.8,12.1
		L541.9,1106.1L541.9,1106.1z"/>
	<path class="st1" d="M579.5,1106.1v6H547v-5.3l17-16.7c1.8-1.7,3.1-3.3,4.2-4.9s1.6-3,1.6-4.2c0-1.7-0.7-3.1-2.1-4
		c-1.4-0.9-3.4-1.4-5.9-1.4c-2,0-4.1,0.5-6.3,1.4c-2.2,0.9-4.3,2.2-6.2,3.9l-2.9-5.5c2.4-1.9,5.1-3.4,7.9-4.5
		c2.8-1.1,5.7-1.6,8.5-1.6s5.4,0.4,7.6,1.3c2.2,0.9,3.9,2.1,5.1,3.7s1.8,3.5,1.8,5.6c0,3.9-2.8,8.6-8.3,13.9l-12.8,12.1
		L579.5,1106.1L579.5,1106.1z"/>
	<path class="st1" d="M592.5,1105.5c1.7,0.5,3.3,0.7,4.9,0.7c4,0,7-1.4,9-4.1c2-2.8,2.9-6.5,2.8-11.3c-1.1,2-2.7,3.5-4.6,4.5
		c-2,1-4.3,1.6-7,1.6c-4.2,0-7.6-1.2-10-3.6s-3.7-5.7-3.7-9.8c0-2.8,0.6-5.3,1.9-7.4c1.2-2.1,3-3.7,5.2-4.9c2.2-1.1,4.9-1.7,7.9-1.7
		c3.6,0,6.7,0.8,9.3,2.4c2.6,1.6,4.6,4,6,7.1c1.4,3.1,2.1,6.7,2.1,11s-0.8,8.4-2.3,11.8c-1.5,3.4-3.6,6-6.4,7.8
		c-2.8,1.8-6,2.7-9.7,2.7c-2.1,0-4.3-0.3-6.6-0.9s-4.3-1.4-6.1-2.3l2.8-5.4C589.3,1104.3,590.8,1105,592.5,1105.5L592.5,1105.5z
		 M593.1,1077.7c-1.6,1.4-2.3,3.3-2.3,5.8s0.7,4.2,2.2,5.6c1.5,1.4,3.5,2.1,6.1,2.1c2.8,0,5-0.8,6.7-2.3c1.6-1.6,2.4-3.4,2.4-5.7
		c0-1.3-0.3-2.5-1-3.6c-0.7-1.2-1.6-2.1-3-2.8s-2.9-1.1-4.8-1.1C596.7,1075.5,594.6,1076.3,593.1,1077.7L593.1,1077.7z"/>
	<path class="st1" d="M650.1,1074.9c2.8,3.7,4.3,9,4.3,15.8s-1.4,12.2-4.3,15.8c-2.8,3.7-6.9,5.5-12.2,5.5s-9.4-1.8-12.3-5.5
		c-2.8-3.7-4.3-9-4.3-15.8s1.4-12.2,4.3-15.8s6.9-5.5,12.3-5.5S647.2,1071.2,650.1,1074.9z M631.1,1079c-1.5,2.6-2.2,6.5-2.2,11.8
		s0.8,9.2,2.3,11.8c1.5,2.6,3.8,3.9,6.8,3.9s5.3-1.3,6.7-3.9s2.2-6.5,2.2-11.8s-0.7-9.2-2.2-11.8c-1.5-2.6-3.7-3.8-6.7-3.8
		S632.6,1076.4,631.1,1079L631.1,1079z"/>
	<path class="st1" d="M667.8,1105.5c1.7,0.5,3.3,0.7,4.9,0.7c4,0,7-1.4,9-4.1c2-2.8,2.9-6.5,2.8-11.3c-1.1,2-2.7,3.5-4.6,4.5
		c-2,1-4.3,1.6-7,1.6c-4.2,0-7.6-1.2-10-3.6s-3.7-5.7-3.7-9.8c0-2.8,0.6-5.3,1.9-7.4c1.2-2.1,3-3.7,5.2-4.9c2.2-1.1,4.9-1.7,7.9-1.7
		c3.6,0,6.7,0.8,9.3,2.4c2.6,1.6,4.6,4,6,7.1c1.4,3.1,2.1,6.7,2.1,11s-0.8,8.4-2.3,11.8c-1.5,3.4-3.6,6-6.4,7.8
		c-2.8,1.8-6,2.7-9.7,2.7c-2.1,0-4.3-0.3-6.6-0.9s-4.3-1.4-6.1-2.3l2.8-5.4C664.6,1104.3,666.1,1105,667.8,1105.5L667.8,1105.5z
		 M668.4,1077.7c-1.6,1.4-2.3,3.3-2.3,5.8s0.7,4.2,2.2,5.6c1.5,1.4,3.5,2.1,6.1,2.1c2.8,0,5-0.8,6.7-2.3s2.4-3.4,2.4-5.7
		c0-1.3-0.3-2.5-1-3.6c-0.7-1.2-1.6-2.1-3-2.8s-2.9-1.1-4.8-1.1C672,1075.5,669.9,1076.3,668.4,1077.7L668.4,1077.7z"/>
	<path class="st1" d="M717.2,1112.1H710v-36.2h-9.2v-6.5h16.4L717.2,1112.1L717.2,1112.1z"/>
</g>
<g>
	<path class="st5" d="M947.7,1055.9c-10.5-0.2-19.2,8.1-19.4,18.4c-0.1,10.2,8.3,19.3,18.4,19.6c10.7,0.4,19.7-8.4,19.8-19.3
		C966.5,1063.9,958.7,1056.1,947.7,1055.9L947.7,1055.9z M948.4,1085.9c-8.2-0.6-13-4.9-12.9-11.7c0.2-6.7,4.6-11.5,12.2-11.1
		c6.8,0.3,10.8,4.4,11.2,10.9C959.2,1081.5,954.3,1084.8,948.4,1085.9L948.4,1085.9z"/>
	<path class="st5" d="M964.3,1040.9c-13.6-6.6-27.4-5.6-39.5,3.7c-12.9,9.9-17.7,23.3-14.2,39.4c2.9,13.2,10.4,24.1,17.7,35
		c12.7,19.1,25.5,19,38.4-0.2c8.8-13,17.3-26.1,17.8-47.8C984.7,1060.4,978.7,1047.9,964.3,1040.9L964.3,1040.9z M950.8,1128.5
		c-1.6,2.2-3.1,3.3-6,1.1c-9.4-7.2-28-43.7-27.8-57.4c0.8-9.9,5.8-19.7,16.8-24.8c11.2-5.2,22.7-4.3,32.6,3.5
		c9.8,7.8,14,18.3,10.9,30.7C972.8,1099.6,961.4,1113.9,950.8,1128.5L950.8,1128.5z"/>
	<path class="st6" d="M947.7,1055.9c-10.5-0.2-19.2,8.1-19.4,18.4c-0.1,10.2,8.3,19.3,18.4,19.6c10.7,0.4,19.7-8.4,19.8-19.3
		C966.5,1063.9,958.7,1056.1,947.7,1055.9L947.7,1055.9z M948.4,1085.9c-8.2-0.6-13-4.9-12.9-11.7c0.2-6.7,4.6-11.5,12.2-11.1
		c6.8,0.3,10.8,4.4,11.2,10.9C959.2,1081.5,954.3,1084.8,948.4,1085.9L948.4,1085.9z"/>
	<path class="st6" d="M964.3,1040.9c-13.6-6.6-27.4-5.6-39.5,3.7c-12.9,9.9-17.7,23.3-14.2,39.4c2.9,13.2,10.4,24.1,17.7,35
		c12.7,19.1,25.5,19,38.4-0.2c8.8-13,17.3-26.1,17.8-47.8C984.7,1060.4,978.7,1047.9,964.3,1040.9L964.3,1040.9z M950.8,1128.5
		c-1.6,2.2-3.1,3.3-6,1.1c-9.4-7.2-28-43.7-27.8-57.4c0.8-9.9,5.8-19.7,16.8-24.8c11.2-5.2,22.7-4.3,32.6,3.5
		c9.8,7.8,14,18.3,10.9,30.7C972.8,1099.6,961.4,1113.9,950.8,1128.5L950.8,1128.5z"/>
	<path class="st7" d="M947.7,1055.9c-10.5-0.2-19.2,8.1-19.4,18.4c-0.1,10.2,8.3,19.3,18.4,19.6c10.7,0.4,19.7-8.4,19.8-19.3
		C966.5,1063.9,958.7,1056.1,947.7,1055.9L947.7,1055.9z M948.4,1085.9c-8.2-0.6-13-4.9-12.9-11.7c0.2-6.7,4.6-11.5,12.2-11.1
		c6.8,0.3,10.8,4.4,11.2,10.9C959.2,1081.5,954.3,1084.8,948.4,1085.9L948.4,1085.9z"/>
	<path class="st8" d="M947.7,1055.9c-10.5-0.2-19.2,8.1-19.4,18.4c-0.1,10.2,8.3,19.3,18.4,19.6c10.7,0.4,19.7-8.4,19.8-19.3
		C966.5,1063.9,958.7,1056.1,947.7,1055.9L947.7,1055.9z M948.4,1085.9c-8.2-0.6-13-4.9-12.9-11.7c0.2-6.7,4.6-11.5,12.2-11.1
		c6.8,0.3,10.8,4.4,11.2,10.9C959.2,1081.5,954.3,1084.8,948.4,1085.9L948.4,1085.9z"/>
</g>
<path class="st2" d="M1053.3,1075.6c-5.2,0-9.6-1.7-13.2-5.2c-3.6-3.5-5.4-7.7-5.4-12.8c0-5,1.8-9.3,5.4-12.7
	c3.6-3.4,8.1-5.2,13.4-5.2c5,0,9.6,2,13.6,6l-3.5,4.2c-3-3.2-6.4-4.8-10-4.8c-3.6,0-6.7,1.2-9.1,3.5c-2.5,2.3-3.7,5.3-3.7,8.9
	c0,1.6,0.3,3.1,0.9,4.6c0.6,1.5,1.4,2.8,2.5,4c1.1,1.2,2.4,2.1,4,2.8c1.6,0.7,3.4,1,5.4,1c3.6,0,6.9-1.4,10-4.1l3.6,3.8
	C1063.1,1073.6,1058.4,1075.6,1053.3,1075.6z"/>
<path class="st2" d="M1079.3,1075.6c-1.8,0-3.3-0.6-4.7-1.9c-1.4-1.3-2-3.3-2-6v-30.1h5.8v29.5c0,2.1,0.8,3.2,2.5,3.2
	c0.8,0,1.7-0.3,2.7-0.9l0.8,4.8C1082.6,1075.1,1080.9,1075.6,1079.3,1075.6z"/>
<path class="st2" d="M1090,1075.6c-0.9,0-1.7-0.3-2.3-0.9c-0.6-0.6-0.9-1.5-0.9-2.5c0-0.8,0.2-1.4,0.5-1.9c0.3-0.5,0.7-0.9,1.2-1.1
	c0.5-0.2,1-0.4,1.5-0.4c0.5,0,1.1,0.1,1.5,0.4c0.5,0.2,0.9,0.6,1.2,1.1c0.3,0.5,0.5,1.1,0.5,1.9c0,1-0.3,1.9-0.9,2.5
	C1091.7,1075.3,1090.9,1075.6,1090,1075.6z"/>
<path class="st2" d="M1130.1,1075.6h-6v-30.4h-7.7v-5.4h13.8V1075.6z"/>
<path class="st2" d="M1164.4,1045.3c-1.4-0.4-2.8-0.6-4.2-0.6c-3.4,0-5.9,1.1-7.6,3.4c-1.6,2.1-2.4,4.9-2.4,8.3c0,0.3,0,0.6,0,0.8
	c1-1.7,2.3-2.9,3.9-3.8c1.7-0.9,3.6-1.3,5.9-1.3c3.6,0,6.4,1,8.5,3.1c2.1,2.1,3.1,4.9,3.1,8.4c0,2.4-0.5,4.5-1.6,6.3
	c-1,1.8-2.5,3.2-4.4,4.2c-1.9,1-4.1,1.5-6.7,1.5c-3,0-5.6-0.7-7.8-2c-2.2-1.4-3.9-3.3-5-5.9c-1.2-2.6-1.8-5.7-1.8-9.2
	c0-3.7,0.6-7,1.9-9.9c1.3-2.8,3.1-5,5.4-6.5c2.3-1.5,5-2.3,8.2-2.3c1.8,0,3.6,0.2,5.6,0.7c1.9,0.5,3.7,1.2,5.1,2l-2.4,4.4
	C1167.1,1046.2,1165.8,1045.7,1164.4,1045.3z M1154.8,1057.9c-1.2,0.6-2.1,1.5-2.7,2.5c-0.6,1.1-0.9,2.2-0.9,3.4
	c0,1.1,0.2,2.1,0.8,3.2c0.5,1,1.4,1.9,2.5,2.5c1.1,0.6,2.5,1,4.1,1c2.2,0,4-0.6,5.3-1.8c1.3-1.2,2-2.9,2-5c0-2-0.6-3.7-1.9-4.9
	c-1.3-1.2-3-1.8-5.2-1.8C1157.4,1056.9,1156,1057.2,1154.8,1057.9z"/>
<path class="st2" d="M1200.3,1057.7c2,1.7,3,3.9,3,6.7c0,2.2-0.6,4.2-1.7,5.9c-1.1,1.7-2.8,3-4.9,4c-2.1,0.9-4.6,1.4-7.4,1.4
	c-2.4,0-4.7-0.3-7-1c-2.3-0.7-4.3-1.6-6-2.8l2.5-4.8c1.4,1.1,3,2,4.7,2.6c1.8,0.6,3.5,0.9,5.3,0.9c2.7,0,4.8-0.6,6.3-1.7
	c1.5-1.1,2.3-2.6,2.3-4.5c0-1.9-0.8-3.3-2.3-4.3c-1.5-1-3.7-1.5-6.4-1.5h-5.2v-3.7l10.1-9.8H1178l-0.1-5.3h23.5v3.8l-11.4,11l2,0.2
	C1195.5,1055,1198.2,1056,1200.3,1057.7z"/>
<path class="st2" d="M1221.2,1075.6c-3.9,0-7.2-1.2-9.8-3.6c-2.6-2.4-3.9-5.7-3.9-10c0-2.9,0.6-5.4,1.9-7.5c1.4-2.2,3.2-3.8,5.3-4.8
	c2.1-1,4.3-1.5,6.6-1.5c4.9,0,8.6,1.5,11.3,4.5l-3.2,3.9c-1.9-2.1-4.5-3.1-7.8-3.1c-1.3,0-2.5,0.3-3.7,0.8c-1.2,0.6-2.3,1.5-3.1,2.8
	c-0.8,1.2-1.2,2.9-1.2,4.8c0,1.9,0.4,3.5,1.2,4.8c0.8,1.3,1.8,2.2,3,2.8c1.2,0.6,2.5,0.9,3.9,0.9c3.5,0,6.2-1.1,8-3.2l3.3,3.2
	C1230.3,1073.9,1226.4,1075.6,1221.2,1075.6z"/>
<path class="st2" d="M1058.1,1137h-4.3l1.1-8.9h-9.1l-1.1,8.9h-4.3l1.1-8.9h-7.2l0.4-4.4h7.3l1.1-9h-7.1l0.4-4.4h7.3l1.1-9.2h4.4
	l-1.1,9.2h9.1l1.1-9.2h4.4l-1.1,9.2h7.1l-0.4,4.4h-7.3l-1.1,9h7.2l-0.4,4.4h-7.3L1058.1,1137z M1055.5,1123.7l1.1-9h-9.1l-1.1,9
	H1055.5z"/>
<path class="st2" d="M1089.2,1137h-6v-30.4h-7.7v-5.4h13.8V1137z"/>
<path class="st2" d="M1131.6,1131.9v5.1h-27.2v-4.5l14.2-14c1.5-1.4,2.6-2.7,3.5-4.1c0.9-1.3,1.3-2.5,1.3-3.5c0-1.4-0.6-2.6-1.8-3.4
	c-1.2-0.8-2.8-1.2-4.9-1.2c-1.7,0-3.4,0.4-5.3,1.2c-1.9,0.8-3.6,1.9-5.2,3.3l-2.4-4.6c2-1.6,4.3-2.9,6.6-3.8
	c2.4-0.9,4.8-1.4,7.1-1.4c2.4,0,4.5,0.4,6.3,1.1c1.8,0.7,3.3,1.8,4.3,3.1c1,1.4,1.5,2.9,1.5,4.7c0,3.3-2.3,7.2-7,11.7l-10.7,10.2
	H1131.6z"/>
<path class="st2" d="M1144.9,1137c-3.1,0-5.4-0.9-7.1-2.6c-1.7-1.7-2.5-3.7-2.5-6c0-2.3,0.8-4.2,2.5-5.7c1.6-1.5,4.2-2.3,7.8-2.3
	h8.2c0-1.1-0.1-2-0.4-2.7c-0.7-2.2-2.7-3.3-6.1-3.3c-2.6,0-5.3,0.9-8,2.6l-2.4-4c3.4-2.3,7.4-3.4,11.7-3.4c3.9,0,6.7,0.9,8.4,2.7
	c1.7,1.8,2.6,4.1,2.6,6.8l0.1,17.7h-5.8v-3.5C1151.8,1135.9,1148.8,1137,1144.9,1137z M1146.1,1132.4c2.4,0,4.2-0.5,5.5-1.5
	c1.3-1,2-2.2,2.3-3.7v-2.5h-7.4c-3.8,0-5.6,1.2-5.6,3.5c0,1.4,0.5,2.5,1.5,3.1C1143.3,1132,1144.6,1132.4,1146.1,1132.4z"/>
<path class="st2" d="M1178.9,1123.4h-12.6v-4h12.6V1123.4z"/>
<path class="st2" d="M1206.5,1103.6c2.1,1.6,3.2,3.8,3.2,6.6c0,1.7-0.5,3.1-1.4,4.4c-0.9,1.3-2.2,2.3-3.8,3c2.2,0.8,3.9,1.9,5.1,3.5
	c1.2,1.6,1.9,3.5,1.9,5.6c0,3.2-1.2,5.7-3.7,7.5c-2.5,1.8-5.8,2.8-10,2.8c-4.2,0-7.5-0.9-10-2.7c-2.5-1.8-3.7-4.3-3.7-7.4
	c0-2.1,0.6-4,1.9-5.7c1.3-1.6,3.1-2.8,5.3-3.6c-1.7-0.8-3.1-1.8-4.1-3.1c-1-1.3-1.5-2.8-1.5-4.5c0-2.7,1.1-4.9,3.2-6.4
	c2.1-1.6,5-2.4,8.7-2.4C1201.5,1101.2,1204.4,1102,1206.5,1103.6z M1191.9,1121.8c-1.4,1-2.1,2.5-2.1,4.4c0,1.9,0.7,3.4,2.1,4.5
	c1.4,1.1,3.4,1.6,5.9,1.6c2.5,0,4.5-0.5,5.9-1.6c1.4-1.1,2.1-2.5,2.1-4.5c0-1.9-0.7-3.3-2.1-4.4c-1.4-1-3.4-1.6-5.9-1.6
	C1195.2,1120.3,1193.3,1120.8,1191.9,1121.8z M1192.8,1106.8c-1.2,0.9-1.8,2.1-1.8,3.7c0,1.6,0.6,2.8,1.8,3.7c1.2,0.9,2.9,1.3,5,1.3
	c2.1,0,3.8-0.4,5-1.3c1.2-0.9,1.8-2.1,1.8-3.7c0-1.6-0.6-2.8-1.8-3.7c-1.2-0.9-2.8-1.3-5-1.3
	C1195.7,1105.5,1194,1105.9,1192.8,1106.8z"/>
<path class="st2" d="M1232.8,1137h-6v-30.4h-7.7v-5.4h13.8V1137z"/>
</svg>
