<?xml version="1.0" encoding="UTF-8"?><svg xmlns="http://www.w3.org/2000/svg" viewBox="0 0 1499.23 1198.27"><defs><style>.d{fill:#e79f18;}.e{fill:#fff;}.f{fill:#602515;}.g{fill:#622715;}.h{fill:#f7ad19;}.i{fill:#f8ae19;}.j{fill:#fdf4e3;}.k{fill:#fef8ed;}.l{fill:#f7ae1a;}</style></defs><g id="a"/><g id="b"><g id="c"><rect class="i" x="353.23" y="0" width="1146" height="127" rx="63.5" ry="63.5"/><g><path class="e" d="M496,86.41h-37.77l12.56-62.81h10.59l-10.68,53.21h27.1l-1.79,9.6Z"/><path class="e" d="M525.61,86.46c-4.49,0-8.18-.96-11.08-2.87-3.02-2.06-5.23-4.68-6.64-7.85-1.41-3.18-2.11-6.63-2.11-10.37,0-7.47,2.47-13.79,7.4-18.97s11.14-7.77,18.62-7.77c8.43,0,14,3.54,16.69,10.62l2.06-10.57h10.23l-9.51,47.73h-10.23l1.44-7.14c-4.49,4.79-10.11,7.19-16.87,7.19Zm3.5-8.43c5.08,0,9.14-1.73,12.16-5.2,3.02-3.47,4.53-7.47,4.53-12.02,0-3.55-1.03-6.63-3.09-9.22-2.06-2.59-5.28-3.89-9.65-3.89-2.03,0-4.05,.36-6.03,1.07-1.99,.71-3.8,1.79-5.43,3.24-1.63,1.44-2.94,3.23-3.93,5.37s-1.48,4.65-1.48,7.54c0,4.31,1.26,7.58,3.77,9.79,2.51,2.22,5.56,3.32,9.15,3.32Z"/><path class="e" d="M583.75,86.46c-4.7,0-8.87-.84-12.52-2.51-3.65-1.67-6.57-3.79-8.75-6.35l4.58-6.69c2.87,2.64,5.75,4.53,8.64,5.67s5.48,1.72,7.78,1.72c2.15,0,4.01-.44,5.56-1.32,1.56-.88,2.33-2.29,2.33-4.22,0-1.58-.67-2.81-2.02-3.69s-3.22-1.79-5.61-2.73c-4.31-1.52-7.63-3.18-9.96-4.97-2.33-1.79-3.56-4.67-3.68-8.66,0-3.22,.81-5.86,2.42-7.92,1.73-2.14,3.91-3.7,6.53-4.68,2.62-.98,5.41-1.47,8.37-1.47,7.66,0,14,2.24,19.02,6.73l-5.03,7.11c-5.14-3.73-9.87-5.59-14.18-5.59-2.12,0-3.84,.49-5.14,1.47s-1.95,2.15-1.95,3.53c0,1.64,.93,2.92,2.78,3.86,2.33,1.17,4.49,2.16,6.46,2.98,4.07,1.46,7.18,3.27,9.33,5.43,1.68,1.69,2.69,4.29,3.05,7.8,0,3.36-.84,6.11-2.51,8.23-1.79,2.21-4.06,3.81-6.8,4.8s-5.65,1.48-8.73,1.48Z"/><path class="e" d="M717.71,86.41h-10.32l5.29-26.34c.18-1.06,.27-2.06,.27-3.01,0-2.65-.79-4.85-2.38-6.58-1.59-1.74-4.23-2.61-7.94-2.61-3.23,0-6.24,1.08-9.02,3.23s-4.8,5.47-6.06,9.94l-5.2,25.37h-10.32l5.29-26.34c.18-1.06,.27-2.06,.27-3.01,0-2.65-.79-4.85-2.38-6.58-1.59-1.74-4.23-2.61-7.94-2.61-3.23,0-6.24,1.08-9.02,3.23-2.78,2.15-4.8,5.47-6.06,9.94l-5.2,25.37h-10.32l9.42-47.73h10.41l-1.35,7.29c3.71-4.89,8.97-7.34,15.79-7.34,9.15,0,14.8,3.56,16.96,10.68,4.49-7.12,10.62-10.68,18.39-10.68,6.1,0,10.56,1.45,13.37,4.34,2.81,2.9,4.22,6.5,4.22,10.81,0,1.54-.18,3.16-.54,4.88l-5.65,27.74Z"/><path class="e" d="M751.71,86.46c-4.49,0-8.18-.96-11.08-2.87-3.02-2.06-5.23-4.68-6.64-7.85-1.41-3.18-2.11-6.63-2.11-10.37,0-7.47,2.47-13.79,7.4-18.97s11.14-7.77,18.62-7.77c8.43,0,14,3.54,16.69,10.62l2.06-10.57h10.23l-9.51,47.73h-10.23l1.44-7.14c-4.49,4.79-10.11,7.19-16.87,7.19Zm3.5-8.43c5.08,0,9.14-1.73,12.16-5.2,3.02-3.47,4.53-7.47,4.53-12.02,0-3.55-1.03-6.63-3.09-9.22-2.06-2.59-5.28-3.89-9.65-3.89-2.03,0-4.05,.36-6.03,1.07-1.99,.71-3.8,1.79-5.43,3.24-1.63,1.44-2.94,3.23-3.93,5.37s-1.48,4.65-1.48,7.54c0,4.31,1.26,7.58,3.77,9.79,2.51,2.22,5.56,3.32,9.15,3.32Zm11.57-45.85l-8.52-.9,8.88-12.38,10.59,4.49-10.95,8.79Z"/><path class="e" d="M809.86,86.46c-4.7,0-8.87-.84-12.52-2.51-3.65-1.67-6.57-3.79-8.75-6.35l4.58-6.69c2.87,2.64,5.75,4.53,8.64,5.67s5.48,1.72,7.78,1.72c2.15,0,4.01-.44,5.56-1.32,1.56-.88,2.33-2.29,2.33-4.22,0-1.58-.67-2.81-2.02-3.69s-3.22-1.79-5.61-2.73c-4.31-1.52-7.63-3.18-9.96-4.97-2.33-1.79-3.56-4.67-3.68-8.66,0-3.22,.81-5.86,2.42-7.92,1.73-2.14,3.91-3.7,6.53-4.68,2.62-.98,5.41-1.47,8.37-1.47,7.66,0,14,2.24,19.02,6.73l-5.03,7.11c-5.14-3.73-9.87-5.59-14.18-5.59-2.12,0-3.84,.49-5.14,1.47s-1.95,2.15-1.95,3.53c0,1.64,.93,2.92,2.78,3.86,2.33,1.17,4.49,2.16,6.46,2.98,4.07,1.46,7.18,3.27,9.33,5.43,1.68,1.69,2.69,4.29,3.05,7.8,0,3.36-.84,6.11-2.51,8.23-1.79,2.21-4.06,3.81-6.8,4.8s-5.65,1.48-8.73,1.48Z"/><path class="e" d="M886.84,86.46c-5.26,0-9.66-.96-13.19-2.87-3.68-2.06-6.36-4.71-8.05-7.96-1.69-3.25-2.53-6.82-2.53-10.7,0-5.41,1.21-10.08,3.63-14.01,2.42-3.93,5.69-6.96,9.8-9.09,4.11-2.13,8.7-3.2,13.75-3.2,7,0,12.25,1.88,15.75,5.62,3.5,3.75,5.25,8.44,5.25,14.08,0,2.56-.3,5.11-.9,7.67h-37.06c.18,3.65,1.39,6.58,3.63,8.79s5.67,3.32,10.27,3.32,9.09-1.47,12.92-4.4l4.67,6.55c-4.84,4.13-10.83,6.19-17.95,6.19Zm15.25-28c0-7.51-3.92-11.26-11.75-11.26-4.43,0-7.97,1.05-10.63,3.16-2.66,2.11-4.53,4.81-5.61,8.09h27.99Z"/><path class="e" d="M954.85,86.41h-11.66l-7.63-17.5-15.97,17.5h-11.66l21.8-24.5-10.95-23.24h11.66l7.18,16.33,14.36-16.33h11.48l-20.1,23.24,11.49,24.5Z"/><path class="e" d="M1004.02,103.82h-10.23l4.93-24.63c-4.49,4.85-10.11,7.27-16.87,7.27-4.49,0-8.18-.96-11.08-2.87-3.02-2.06-5.23-4.68-6.64-7.85-1.41-3.18-2.11-6.63-2.11-10.37,0-7.47,2.47-13.79,7.4-18.97s11.14-7.77,18.62-7.77c8.43,0,14,3.54,16.69,10.62l2.06-10.57h10.23l-13.01,65.14Zm-18.66-25.8c5.08,0,9.14-1.73,12.16-5.2,3.02-3.47,4.53-7.47,4.53-12.02,0-3.55-1.03-6.63-3.09-9.22-2.06-2.59-5.28-3.89-9.65-3.89-2.03,0-4.05,.36-6.03,1.07-1.99,.71-3.8,1.79-5.43,3.24-1.63,1.44-2.94,3.23-3.93,5.37s-1.48,4.65-1.48,7.54c0,4.31,1.26,7.58,3.77,9.79,2.51,2.22,5.56,3.32,9.15,3.32Z"/><path class="e" d="M1042.78,86.46c-6.1,0-10.56-1.45-13.37-4.34-2.81-2.9-4.22-6.5-4.22-10.81,0-1.54,.18-3.16,.54-4.88l5.65-27.74h10.32l-5.29,26.34c-.18,1.06-.27,2.06-.27,3.01,0,2.65,.79,4.85,2.38,6.58,1.59,1.74,4.23,2.61,7.94,2.61,4.19,0,7.52-1.22,10-3.67,2.48-2.44,4.17-5.61,5.07-9.5l5.2-25.37h10.32l-9.42,47.73h-10.41l1.35-7.24c-3.71,4.86-8.97,7.29-15.79,7.29Z"/><path class="e" d="M1093.11,86.41h-10.23l9.51-47.73h10.23l-9.51,47.73Zm5.83-54.06c-2.93,0-4.58-1.76-4.93-5.29,0-2.33,.75-4.13,2.24-5.38,1.5-1.26,3.17-1.88,5.03-1.88,3.05,0,4.73,1.71,5.02,5.11,0,2.33-.76,4.16-2.29,5.47s-3.22,1.97-5.07,1.97Z"/><path class="e" d="M1125.59,86.46c-4.7,0-8.87-.84-12.52-2.51-3.65-1.67-6.57-3.79-8.75-6.35l4.58-6.69c2.87,2.64,5.75,4.53,8.64,5.67s5.48,1.72,7.78,1.72c2.15,0,4.01-.44,5.56-1.32,1.56-.88,2.33-2.29,2.33-4.22,0-1.58-.67-2.81-2.02-3.69s-3.22-1.79-5.61-2.73c-4.31-1.52-7.63-3.18-9.96-4.97-2.33-1.79-3.56-4.67-3.68-8.66,0-3.22,.81-5.86,2.42-7.92,1.73-2.14,3.91-3.7,6.53-4.68,2.62-.98,5.41-1.47,8.37-1.47,7.66,0,14,2.24,19.02,6.73l-5.03,7.11c-5.14-3.73-9.87-5.59-14.18-5.59-2.12,0-3.84,.49-5.14,1.47s-1.95,2.15-1.95,3.53c0,1.64,.93,2.92,2.78,3.86,2.33,1.17,4.49,2.16,6.46,2.98,4.07,1.46,7.18,3.27,9.33,5.43,1.68,1.69,2.69,4.29,3.05,7.8,0,3.36-.84,6.11-2.51,8.23-1.79,2.21-4.06,3.81-6.8,4.8s-5.65,1.48-8.73,1.48Z"/><path class="e" d="M1161.75,86.41h-10.23l9.51-47.73h10.23l-9.51,47.73Zm5.83-54.06c-2.93,0-4.58-1.76-4.93-5.29,0-2.33,.75-4.13,2.24-5.38,1.5-1.26,3.17-1.88,5.03-1.88,3.05,0,4.73,1.71,5.02,5.11,0,2.33-.76,4.16-2.29,5.47s-3.22,1.97-5.07,1.97Z"/><path class="e" d="M1192.8,86.46c-3.23,0-5.97-.85-8.21-2.56-2.24-1.7-3.36-4.41-3.36-8.12,0-1.26,.12-2.48,.36-3.68l4.85-24.32h-6.55l1.44-7.72h6.73l2.6-13.1h10.23l-2.6,13.1h14.09l-1.44,7.72h-14.27l-4.67,23.33c-.18,.96-.27,1.85-.27,2.69,0,2.21,1.2,3.32,3.59,3.32,2.03,0,4.67-.75,7.9-2.24l1.61,8.26c-4.25,2.21-8.25,3.32-12.02,3.32Z"/><path class="e" d="M1233.26,86.46c-4.49,0-8.18-.96-11.08-2.87-3.02-2.06-5.23-4.68-6.64-7.85-1.41-3.18-2.11-6.63-2.11-10.37,0-7.47,2.47-13.79,7.4-18.97,4.93-5.18,11.14-7.77,18.62-7.77,8.43,0,14,3.54,16.69,10.62l2.06-10.57h10.23l-9.51,47.73h-10.23l1.44-7.14c-4.49,4.79-10.11,7.19-16.87,7.19Zm3.5-8.43c5.08,0,9.14-1.73,12.16-5.2,3.02-3.47,4.53-7.47,4.53-12.02,0-3.55-1.03-6.63-3.09-9.22-2.06-2.59-5.28-3.89-9.65-3.89-2.03,0-4.05,.36-6.03,1.07-1.99,.71-3.8,1.79-5.43,3.24-1.63,1.44-2.94,3.23-3.93,5.37s-1.48,4.65-1.48,7.54c0,4.31,1.26,7.58,3.77,9.79,2.51,2.22,5.56,3.32,9.15,3.32Z"/><path class="e" d="M1291.4,86.46c-4.7,0-8.87-.84-12.52-2.51-3.65-1.67-6.57-3.79-8.75-6.35l4.58-6.69c2.87,2.64,5.75,4.53,8.64,5.67s5.48,1.72,7.78,1.72c2.15,0,4.01-.44,5.56-1.32,1.56-.88,2.33-2.29,2.33-4.22,0-1.58-.67-2.81-2.02-3.69s-3.22-1.79-5.61-2.73c-4.31-1.52-7.63-3.18-9.96-4.97-2.33-1.79-3.56-4.67-3.68-8.66,0-3.22,.81-5.86,2.42-7.92,1.73-2.14,3.91-3.7,6.53-4.68,2.62-.98,5.41-1.47,8.37-1.47,7.66,0,14,2.24,19.02,6.73l-5.02,7.11c-5.15-3.73-9.87-5.59-14.18-5.59-2.12,0-3.83,.49-5.14,1.47s-1.95,2.15-1.95,3.53c0,1.64,.93,2.92,2.78,3.86,2.33,1.17,4.49,2.16,6.46,2.98,4.07,1.46,7.18,3.27,9.33,5.43,1.68,1.69,2.69,4.29,3.05,7.8,0,3.36-.84,6.11-2.51,8.23-1.79,2.21-4.06,3.81-6.8,4.8-2.74,.99-5.64,1.48-8.72,1.48Z"/><path class="e" d="M1344.43,103.86c-4.55,0-8.11-1.44-10.68-4.31l5.38-7.41c1.92,1.35,3.74,2.03,5.47,2.03,3.59,0,6.58-1.8,8.97-5.39l2.33-3.36-10.23-46.75h10.5l6.82,36.51,20.73-36.51h10.5l-32.66,54.3c-4.25,7.25-9.96,10.88-17.14,10.88Z"/></g><g><path class="f" d="M499.21,284.05h-59.5l27.57-138.83h53.75c19.44,0,34.64,5.62,45.62,16.86,5.49,5.55,9.57,11.98,12.25,19.29,2.68,7.3,4.02,16.28,4.02,26.92-1.59,22.34-10.35,40.56-26.28,54.64-15.93,14.08-35.07,21.12-57.42,21.12Zm4.36-21.02c13.88,0,26.15-4.6,36.79-13.79,10.64-9.19,16.89-22.18,18.74-38.97,0-14.94-3.9-26.01-11.7-33.22-7.8-7.21-17.72-10.81-29.75-10.81h-31.14l-19.24,96.79h36.29Z"/><path class="f" d="M645.57,284.14c-11.64,0-21.35-2.11-29.16-6.34-8.13-4.55-14.07-10.42-17.8-17.6-3.74-7.18-5.6-15.07-5.6-23.65,0-11.96,2.68-22.28,8.03-30.96,5.35-8.68,12.58-15.38,21.67-20.09,9.09-4.71,19.22-7.07,30.39-7.07,15.47,0,27.07,4.14,34.81,12.43,7.74,8.28,11.6,18.65,11.6,31.11,0,5.65-.66,11.3-1.98,16.95h-81.91c.4,8.07,3.07,14.54,8.03,19.44,4.96,4.89,12.53,7.34,22.71,7.34s20.1-3.24,28.56-9.72l10.31,14.48c-10.71,9.12-23.93,13.68-39.67,13.68Zm33.72-61.88c0-16.59-8.66-24.89-25.98-24.89-9.78,0-17.62,2.33-23.5,7-5.88,4.66-10.02,10.63-12.4,17.89h61.88Z"/><path class="f" d="M737.6,284.14c-5.82,0-10.98-1.77-15.47-5.32-4.5-3.55-6.74-9.4-6.74-17.55,0-3.15,.26-6.04,.79-8.67l23.4-115.72h22.61l-23.4,115.27-.4,4.34c0,4.56,2.18,6.83,6.55,6.83,3.04,0,7.01-1.24,11.9-3.71l.79,19.38c-7.14,3.44-13.82,5.15-20.03,5.15Z"/><path class="f" d="M796.7,284.05h-22.61l21.02-105.51h22.61l-21.02,105.51Zm12.89-119.49c-6.48,0-10.11-3.9-10.91-11.7,0-5.16,1.65-9.12,4.96-11.9,3.31-2.78,7.01-4.17,11.11-4.17,6.74,0,10.45,3.77,11.11,11.31,0,5.16-1.69,9.19-5.06,12.1-3.37,2.91-7.11,4.36-11.2,4.36Z"/><path class="f" d="M879.21,284.14c-10.58,0-19.4-2.12-26.48-6.36-7.6-4.76-13.09-10.75-16.46-17.96-3.37-7.21-5.06-14.89-5.06-23.05,0-12.66,2.88-23.43,8.63-32.3,6.08-9.13,13.5-15.76,22.26-19.87,8.76-4.11,18.1-6.17,28.01-6.17,18.91,0,32.86,5.75,41.85,17.25l-13.88,15.03c-6.48-8.3-16.13-12.45-28.96-12.45-6.08,0-11.79,1.36-17.11,4.08-5.32,2.72-9.65,6.8-12.99,12.24-3.34,5.44-5.01,12.24-5.01,20.4s2.31,14.9,6.94,20.98c4.76,5.83,11.83,8.74,21.22,8.74,13.35,0,24.13-4.16,32.33-12.49l11.5,12.3c-10.84,13.09-26.44,19.63-46.81,19.63Z"/><path class="f" d="M968.85,284.05h-22.61l21.02-105.51h22.61l-21.02,105.51Zm12.89-119.49c-6.48,0-10.11-3.9-10.91-11.7,0-5.16,1.65-9.12,4.96-11.9,3.31-2.78,7.01-4.17,11.11-4.17,6.74,0,10.45,3.77,11.11,11.31,0,5.16-1.69,9.19-5.06,12.1-3.37,2.91-7.11,4.36-11.2,4.36Z"/><path class="f" d="M1053.34,284.14c-11.11,0-20.36-2.15-27.77-6.46-7.73-4.63-13.37-10.57-16.91-17.81-3.54-7.24-5.31-15.07-5.31-23.49,0-18.01,5.92-32.17,17.75-42.48,11.83-10.31,26.15-15.46,42.94-15.46,11.37,0,20.73,2.12,28.06,6.36,7.67,4.63,13.27,10.57,16.81,17.81,3.54,7.25,5.31,15.04,5.31,23.39,0,18.01-5.95,32.2-17.85,42.58-11.9,10.37-26.25,15.56-43.04,15.56Zm1.78-19.04c6.08,0,11.87-1.29,17.35-3.89,5.49-2.59,9.95-6.64,13.39-12.15,3.44-5.5,5.16-12.6,5.16-21.28,0-8.03-2.41-15.03-7.24-20.99-4.83-5.96-12-8.94-21.52-8.94-5.95,0-11.67,1.36-17.15,4.08-5.49,2.72-9.98,6.83-13.49,12.34-3.51,5.51-5.26,12.47-5.26,20.89s2.31,15.09,6.94,21.18c4.76,5.83,12.03,8.75,21.82,8.75Z"/><path class="f" d="M1165.79,284.14c-10.38,0-19.6-1.85-27.67-5.54-8.07-3.69-14.51-8.37-19.34-14.05l10.11-14.79c6.35,5.83,12.71,10.01,19.09,12.54,6.38,2.53,12.11,3.79,17.21,3.79,4.76,0,8.86-.97,12.3-2.92,3.44-1.94,5.16-5.05,5.16-9.33,0-3.5-1.49-6.22-4.46-8.16-2.98-1.94-7.11-3.95-12.4-6.03-9.52-3.37-16.86-7.03-22.01-10.98-5.16-3.95-7.87-10.33-8.13-19.14,0-7.13,1.78-12.96,5.35-17.49,3.83-4.73,8.64-8.18,14.43-10.35,5.78-2.17,11.95-3.26,18.49-3.26,16.92,0,30.94,4.96,42.05,14.87l-11.11,15.73c-11.37-8.24-21.82-12.35-31.34-12.35-4.69,0-8.48,1.08-11.35,3.25-2.88,2.16-4.31,4.76-4.31,7.79,0,3.62,2.05,6.46,6.15,8.52,5.16,2.58,9.92,4.78,14.28,6.59,8.99,3.23,15.87,7.23,20.63,12.01,3.7,3.75,5.95,9.49,6.74,17.24,0,7.43-1.85,13.49-5.55,18.19-3.97,4.89-8.97,8.43-15.02,10.61-6.05,2.18-12.48,3.27-19.29,3.27Z"/><path class="f" d="M1267.53,284.14c-9.92,0-18.08-2.11-24.49-6.34-6.68-4.55-11.57-10.34-14.68-17.36-3.11-7.02-4.66-14.66-4.66-22.92,0-16.51,5.45-30.49,16.36-41.93,10.91-11.44,24.63-17.16,41.15-17.16,18.64,0,30.94,7.82,36.89,23.47l4.56-23.37h22.61l-21.02,105.51h-22.61l3.17-15.78c-9.92,10.59-22.35,15.88-37.29,15.88Zm7.74-18.64c11.24,0,20.2-3.83,26.87-11.49,6.68-7.66,10.02-16.52,10.02-26.57,0-7.85-2.28-14.65-6.84-20.38-4.56-5.73-11.67-8.6-21.32-8.6-4.5,0-8.94,.79-13.34,2.37-4.4,1.58-8.4,3.96-12,7.15-3.6,3.19-6.5,7.15-8.68,11.88-2.18,4.73-3.27,10.29-3.27,16.66,0,9.53,2.78,16.74,8.33,21.64,5.55,4.9,12.3,7.34,20.23,7.34Z"/><path class="f" d="M1396.05,284.14c-10.38,0-19.6-1.85-27.67-5.54-8.07-3.69-14.51-8.37-19.34-14.05l10.11-14.79c6.35,5.83,12.71,10.01,19.09,12.54,6.38,2.53,12.11,3.79,17.2,3.79,4.76,0,8.86-.97,12.3-2.92,3.44-1.94,5.16-5.05,5.16-9.33,0-3.5-1.49-6.22-4.46-8.16-2.97-1.94-7.11-3.95-12.4-6.03-9.52-3.37-16.86-7.03-22.01-10.98-5.16-3.95-7.87-10.33-8.13-19.14,0-7.13,1.78-12.96,5.35-17.49,3.83-4.73,8.64-8.18,14.43-10.35,5.78-2.17,11.95-3.26,18.49-3.26,16.92,0,30.94,4.96,42.04,14.87l-11.11,15.73c-11.37-8.24-21.82-12.35-31.34-12.35-4.7,0-8.48,1.08-11.35,3.25-2.88,2.16-4.31,4.76-4.31,7.79,0,3.62,2.05,6.46,6.15,8.52,5.16,2.58,9.92,4.78,14.28,6.59,8.99,3.23,15.87,7.23,20.63,12.01,3.7,3.75,5.95,9.49,6.74,17.24,0,7.43-1.85,13.49-5.55,18.19-3.97,4.89-8.97,8.43-15.02,10.61-6.05,2.18-12.48,3.27-19.29,3.27Z"/></g><g><path class="i" d="M106.84,439.98c-4.11,0-7.8,1.23-11.49,2.05-16.42,4.11-32.42,8.62-47.61,15.6-4.51,2.05-9.03,4.11-12.72,7.8-1.64,1.23-3.28,2.46-5.34,2.46-9.44,.82-18.05-1.23-25.03-8.21-5.33-5.34-6.15-11.9-2.05-18.06,2.05-2.87,4.1-4.92,6.56-6.98,9.44-7.39,20.93-11.9,32.42-15.18,12.31-3.28,24.62-4.93,37.34-6.16,15.6-1.23,31.6-2.05,47.61-3.28,3.28,0,4.92-1.64,6.57-3.69,11.9-16.83,24.21-33.65,36.53-50.07,19.29-25.85,38.17-51.71,57.05-77.57,22.16-29.96,44.73-59.51,64.84-90.7,8.21-12.72,20.11-17.24,34.47-16.01,1.23,0,2.46,.41,3.69,.41,8.21,2.47,11.08,6.98,10.67,15.6-1.23,13.13-4.1,25.44-6.98,38.17-6.56,29.55-13.13,59.1-18.47,88.65-3.69,23.8-7.8,48.02-10.26,71.82-1.23,14.77-2.46,29.55-3.28,44.32-.82,10.26-1.23,20.11-1.23,30.37-.82,28.32,2.05,56.23,10.67,83.31,4.93,15.6,11.49,30.37,22.16,43.09,4.51,5.75,9.85,11.08,16.01,14.77,6.57,4.11,13.54,5.75,20.93,4.92,7.8-1.23,15.6-2.05,22.98-3.28,4.11-.82,8.21-2.46,12.31-2.87,3.28-.41,6.98,0,9.85,.82,6.15,2.46,6.98,7.79,2.46,11.9-2.46,2.46-5.34,4.11-8.62,5.34-11.49,4.92-23.8,7.8-36.11,9.85-9.03,1.23-18.06,2.87-27.5,2.47-20.93-.41-38.99-7.8-54.58-21.75-15.18-13.54-25.44-30.37-33.24-48.83-7.39-17.65-11.49-36.53-14.37-55.41-2.46-18.88-2.46-37.35-2.05-56.22,0-2.46,.41-4.51,.41-6.98,0-3.28,0-3.69-3.28-4.51-4.11-.41-8.62-.82-12.72-1.23-12.31-1.23-24.21-1.23-36.53-1.23-14.37,0-29.14,0-43.5,.82-3.28,.41-4.93,1.64-6.57,4.11-23.39,32.83-47.61,64.84-71.82,97.26-9.44,12.31-18.88,25.03-28.32,37.35-4.92,6.15-11.08,9.44-18.47,9.44-2.46,0-4.92-.41-6.98-1.64-3.69-1.64-4.51-4.11-3.28-7.8,.82-1.64,1.64-2.87,2.46-4.51,9.03-14.37,19.29-28.32,29.14-42.27,20.52-27.91,41.86-55.41,62.79-83.31,.82-1.23,2.05-2.46,2.46-4.92Zm167.44-184.27c-1.64,2.05-2.87,3.7-4.11,5.34-25.03,33.24-49.25,66.9-73.46,100.55-10.67,14.77-21.34,29.14-32.01,43.91-.82,.82-2.05,1.64-1.23,2.87,.41,1.23,1.64,.82,2.87,.82,5.34,.41,11.08,.41,16.41,.82,18.88,.41,37.76,2.05,56.23,6.16,3.69,.82,4.1,.82,4.92-2.87,0-.82,0-1.64,.41-2.46,.82-8.21,2.05-16.01,2.87-23.8,3.28-22.16,7.8-43.5,11.9-65.25,4.11-20.52,8.62-41.04,14.77-61.56,.41-1.23,1.23-2.46,.41-4.51Z"/><path class="i" d="M447.43,347.23c3.69-1.64,6.57-3.28,9.44-4.92,13.13-6.98,27.09-11.9,42.27-12.31,17.24-.82,33.65,2.87,46.38,15.6,9.03,8.62,13.13,20.11,11.49,32.42-2.05,15.19-10.26,27.5-20.52,37.76-1.64,1.64-3.28,2.87-4.51,4.11-13.54,11.49-28.32,12.31-43.91,6.57-2.87-.82-5.34-2.46-6.98-4.92-3.28-3.7-3.28-6.98-.41-11.08,.82-1.23,1.64-2.05,2.46-2.87,4.51-4.51,6.98-10.26,7.8-16.41,1.64-7.39,2.87-14.77,3.28-22.57,0-1.64,0-3.28-.41-4.92-.41-1.64-1.23-2.05-2.87-1.64-2.46,1.23-4.92,2.47-7.39,3.7-7.8,4.1-15.19,8.62-22.57,14.36-10.67,8.21-20.93,16.83-31.6,25.45-2.46,2.05-4.1,4.92-5.33,7.79-9.03,25.03-19.7,49.25-29.14,77.98-5.34,18.88-9.85,27.5-13.54,36.11-4.92,11.08-13.54,15.6-25.03,15.6-5.33-.41-10.67-.41-15.59-2.46-1.64-.41-3.7-1.23-5.34-2.05-7.39-4.11-10.26-9.85-7.8-18.47,4.11-13.95,10.67-37.76,14.77-51.71,7.8-30.37,16.83-56.63,26.27-82.49,4.92-14.36,10.26-28.73,16.83-42.68,2.05-4.11,4.1-8.21,6.98-11.49,3.28-4.51,7.39-6.98,12.31-8.62,11.49-2.87,22.16-2.05,32.83,2.87,2.05,1.23,4.1,2.46,5.75,4.1,2.87,2.87,4.51,6.16,4.51,10.26-.41,2.05-.82,4.11-.41,6.98Z"/><path class="i" d="M616.09,475.69c-.41,7.39,.82,15.18,3.69,22.98,.82,3.28,2.46,6.15,4.1,9.03,3.28,4.51,6.98,6.57,12.72,5.75,10.26-1.64,20.11-5.34,29.55-9.44,21.75-9.44,41.45-21.34,59.92-36.12,17.65-13.95,35.7-27.5,52.94-41.86,4.11-3.28,8.62-6.15,14.37-6.56,1.64-.41,3.28-.41,4.92,0,3.69,1.64,4.92,4.51,3.28,8.21-.82,2.05-2.46,4.1-4.11,5.75-9.44,9.44-19.29,17.65-29.55,25.86-25.03,19.7-50.48,38.57-77.15,56.22-14.37,10.26-30.37,16.83-48.02,20.11-20.52,4.11-39.81,1.64-57.87-9.44-11.9-7.39-20.52-17.65-25.85-30.78-3.7-9.85-5.75-20.11-5.75-30.78,0-9.85,1.23-19.7,4.1-29.14,7.39-26.27,20.11-49.25,38.17-69.36,11.49-12.72,24.62-23.39,39.8-31.6,13.13-6.98,27.09-11.49,42.27-13.13,11.49-1.23,22.99-.82,34.06,2.05,8.62,2.05,16.83,4.51,23.39,10.67,7.8,6.57,12.72,14.77,12.72,25.44,0,6.16-.82,11.49-2.87,17.24-3.69,12.72-9.44,24.22-17.24,34.48-18.06,23.39-41.04,36.93-70.18,40.22-11.9,1.23-24.21,2.05-36.12,.41-2.46-.41-3.28,.82-3.69,2.87-.82,6.56-1.64,13.13-1.64,20.93Zm74.28-112.45c-.41-1.64-.82-3.69-.82-5.33-.41-2.05-1.64-2.46-2.87-1.64-1.23,0-2.05,.41-2.87,.82-7.8,4.11-14.77,9.03-20.93,14.77-11.08,10.67-20.11,22.98-27.5,36.12-3.28,5.75-6.15,11.49-8.21,17.24-1.23,2.46-.82,3.28,2.05,2.87,3.28-.41,6.57-1.23,9.85-1.64,9.03-1.64,16.82-5.34,23.39-11.9,10.67-10.26,19.7-22.16,25.03-36.11,1.64-4.93,2.05-9.85,2.87-15.19Z"/><path class="i" d="M863.95,380.48c3.28-4.11,6.15-7.39,9.03-10.67,9.44-11.49,19.7-22.16,30.78-31.6,9.44-8.21,20.52-12.31,33.24-13.54,8.62-.82,16.82,0,25.03,2.46,15.18,4.92,24.62,15.6,28.31,30.78,3.7,13.54,2.87,26.67-.41,39.81-5.75,24.21-13.54,48.02-25.03,69.77-11.08,20.52-25.03,38.99-43.5,53.35-17.24,13.13-36.93,20.52-59.51,19.29-5.34-.41-11.08-1.23-16.41-2.87-4.93-2.05-9.03-4.11-12.73-7.8-3.28-3.28-6.56-6.57-9.85-9.85-.82-.82-1.23-2.05-2.87-2.05-1.23,1.23-1.23,2.87-2.05,4.1-5.75,18.88-11.49,37.76-17.24,56.64-8.21,25.44-17.24,50.89-27.08,75.51-2.47,6.15-5.75,11.9-9.85,17.24-2.46,3.28-5.34,6.15-9.44,7.39-10.26,4.51-21.34,4.51-32.01,.41-6.98-2.46-10.67-7.39-10.67-15.18,.41-5.34,1.23-11.08,2.47-16.42,4.51-18.06,10.26-36.11,15.59-54.17,7.8-25.45,17.24-50.07,25.44-75.51,9.03-28.32,19.29-56.23,27.91-84.95,9.03-29.14,19.7-57.86,29.96-86.59,1.23-3.28,2.46-6.56,3.69-9.44,1.64-4.1,4.51-6.98,8.21-8.62,13.54-6.57,27.08-6.57,40.63-.82,2.46,.82,4.11,2.46,6.16,4.51,2.05,2.46,3.28,5.33,2.46,8.62-.82,5.75-2.46,11.08-4.11,16.42-2.05,6.98-4.1,13.54-6.15,20.11,0,.82-.41,1.64,0,3.7Zm59.51-16.01c-2.46,0-3.28,1.23-4.11,2.05-12.72,10.67-22.98,23.39-31.6,37.35-11.49,17.24-22.57,34.89-34.48,52.12-4.51,6.56-9.03,13.13-14.77,18.88-1.23,.82-2.05,2.05-.41,3.28,2.46,2.46,3.28,5.34,4.92,7.8,4.93,9.44,11.49,17.24,19.29,23.8,2.05,1.64,3.28,1.64,4.93,.41,3.28-2.46,6.15-4.92,8.62-7.8,10.67-12.72,19.7-27.08,26.27-43.09,10.67-26.68,18.47-54.58,21.34-83.31,0-3.7,.41-7.39,0-11.49Z"/><path class="i" d="M1134.38,456.81c-3.69,5.34-7.39,11.08-11.08,16.42-8.21,11.49-16.01,22.57-24.21,34.06-3.7,4.92-8.21,9.85-13.13,13.95-7.8,6.57-16.83,10.67-27.09,11.9-9.44,1.23-18.88,.82-28.32-2.46-16.01-5.34-24.62-17.65-29.54-32.83-2.87-9.03-3.28-18.47-2.47-27.91,1.64-24.21,9.03-47.19,18.47-69.36,4.92-11.08,11.49-20.93,18.88-30.37,6.98-9.03,14.37-17.65,22.98-25.03,12.72-10.67,27.5-16.42,43.5-19.29,12.73-1.64,25.45-1.23,37.76,.82,10.67,2.05,19.7,6.57,26.68,14.77,.82,.82,1.23,1.64,2.05,2.47,2.05,2.46,2.46,2.05,4.1-.41,1.23-2.05,2.46-4.1,3.69-5.75,2.47-3.69,4.93-6.98,8.62-9.44,8.62-5.75,18.47-6.57,28.32-5.34,4.92,.41,9.03,2.05,12.72,4.51,4.1,2.87,5.75,6.57,5.75,11.08,0,4.11-.82,7.8-2.05,11.08-2.05,5.33-4.1,10.67-6.15,15.59-4.11,11.49-8.62,22.98-13.13,34.47-2.46,5.75-3.69,11.49-5.33,17.24-3.7,13.95-9.44,26.67-13.13,40.63-4.51,14.77-7.8,29.96-7.39,45.55,0,2.05,.41,4.51,.82,6.98,.41,2.05,1.23,2.46,2.87,1.23,2.46-1.23,4.1-2.87,5.75-4.51,9.44-8.62,17.24-18.88,24.62-29.14,13.54-17.65,27.09-35.71,40.63-53.35,4.11-5.34,8.62-9.03,14.77-10.67,2.87-.82,5.34-1.23,7.8,.82,2.05,2.87,1.64,5.75,.41,8.21-2.05,5.33-5.34,9.44-8.21,13.95-14.37,20.93-29.96,40.63-45.15,60.74-5.75,7.8-11.08,16.01-18.05,22.57-12.73,12.31-28.32,16.41-45.55,11.9-15.19-4.1-24.63-14.36-29.14-29.55-2.87-9.44-2.87-19.7-2.05-29.55,.41-5.33,.41-10.67,.82-15.59,0-.41-.41-.41-.82-.41Zm18.06-72.64c-6.57-2.87-8.62-7.8-11.08-12.72-2.05-4.51-4.11-8.62-6.57-12.31-6.16-9.03-10.67-9.85-20.11-3.69-.82,.82-1.64,1.23-2.46,2.05-6.98,6.16-13.13,13.13-18.06,20.93-8.21,13.95-15.18,28.73-20.52,43.91-6.98,19.7-10.67,39.81-12.72,60.33-.82,6.15-2.05,12.31-.41,18.47,.41,1.64-.41,3.69,1.64,4.11,1.64,.82,2.46-1.23,3.69-2.46,8.62-8.21,15.6-18.06,22.57-27.91,14.77-21.75,29.14-43.91,43.5-66.48,5.34-8.62,10.26-17.65,20.52-24.21Z"/><path class="i" d="M1356.39,323.84c13.95-.41,27.5,2.87,39.81,10.67,9.85,6.16,16.01,15.19,18.06,26.68,1.23,6.56,1.23,13.54-.41,20.52-4.1,18.47-14.36,32.42-31.6,41.04-9.44,4.51-19.29,4.51-29.14,2.46-2.87-.41-5.33-1.64-7.8-3.28-4.92-3.69-5.75-8.21-1.64-12.72,3.28-3.28,5.75-6.98,8.21-11.08,4.11-5.75,6.16-12.31,6.98-19.29,1.23-7.39-.82-14.36-3.69-20.93-.82-2.05-2.05-2.05-3.69-1.23-6.57,3.28-11.9,8.21-16.42,13.95-8.62,11.08-13.54,23.8-15.59,37.35-2.87,18.47,1.64,35.7,8.62,52.53,4.51,9.44,9.03,18.88,13.96,28.31,1.64,4.11,2.05,4.11,6.15,1.64,28.32-16.01,55.81-32.83,84.13-49.25,6.15-3.69,12.31-7.39,18.47-11.08,4.1-2.46,8.62-4.11,13.54-5.34,2.46-.82,5.33-.82,7.8-.41,4.92,.82,6.56,4.51,3.69,8.62-1.64,2.46-4.11,4.51-6.57,6.15-10.26,6.98-20.52,13.13-30.78,19.7-25.44,16.01-51.3,30.37-77.16,45.55-2.05,1.23-4.1,2.87-6.56,4.11-2.05,1.23-2.46,2.87-1.23,5.33,2.46,5.75,4.51,11.9,6.56,18.06,3.7,11.9,5.34,24.21,5.75,36.94,.41,27.5-18.05,51.3-41.86,60.32-22.98,8.62-45.96,6.16-67.72-4.1-9.44-4.51-16.82-11.9-21.34-21.75-4.51-9.03-4.11-18.06,.41-27.09,4.51-8.21,10.26-14.77,16.83-20.93,12.72-11.9,27.09-21.75,41.45-32.01q3.28-2.47,1.23-6.16c-7.39-13.95-14.36-28.73-21.75-43.09-8.21-16.42-13.54-33.65-15.59-51.71-2.47-18.88,2.46-35.7,11.9-51.3,16.01-25.85,39.81-39.4,68.13-45.55,3.28-.82,6.15-1.23,9.44-1.64s6.15,0,9.44,0Zm-42.68,249.11c.41-4.51,0-8.21-.82-12.31-1.23-5.33-2.87-11.08-5.34-16.01-.41-2.05-1.23-2.46-2.87-1.23-.82,.82-1.64,1.23-2.46,1.64-9.44,7.39-18.06,16.01-26.27,24.62-2.87,2.87-4.93,6.16-6.57,9.85-1.23,2.46-2.46,4.92-2.46,7.8-1.23,11.49,9.03,24.21,24.21,24.21,1.64,0,3.69-.82,4.92-2.05,7.8-6.15,14.77-13.13,16.42-23.8,.82-4.1,1.64-8.62,1.23-12.72Z"/></g><rect class="f" x="143.23" y="982.13" width="867.26" height="216.12" rx="83.44" ry="83.44"/><rect class="i" x="778.02" y="982" width="677.7" height="216.27" rx="83.5" ry="83.5"/><g><path class="f" d="M264.22,1099.54c.56,.17,1.11,.34,1.65,.53-.55-.16-1.1-.33-1.65-.53Z"/><path class="d" d="M265.87,1100.06c-.55-.16-1.1-.33-1.65-.53,.56,.17,1.11,.34,1.65,.53Z"/><path class="d" d="M316.25,1071.34c.74-8.72-3.34-12.58-12.26-12.38-14.98,.34-29.99-.34-44.95,.22-9.22,.35-16.19-1.18-20.6-10.5-4.15-8.76-10.77-8.39-17.83-2.56-10.43,8.61-14.71,23.97-9.27,39.01,5.38,14.87,13.4,28.6,23.72,40.58,10.48,12.16,25.6,15.78,38.53,10.99,6.62-2.45,10.4-6.32,9.07-13.78-2.95-4.46-5.67-9.1-8.9-13.35-3.89-5.11-9.02-7.43-15.14-3.99-7.17,4.03-11.48,1.25-14.81-5.25-2.45-4.79-5.27-9.39-7.73-14.17-1.52-2.94-1.58-5.98,1.08-8.45,3.2-2.96,5.65-.51,8.04,1.35,5.77,4.48,11.64,8.85,17.18,13.61,6.39,5.49,12.25,5.02,18.55-.19,8.5-7.03,17.27-13.73,28.64-22.71,0,14.56,.1,25.91-.04,37.25-.07,5.35-4.1,5.52-8.15,5.82-5.66,.42-11.73-1.35-19.13,2.97-.3-1.58-.75-3-1.32-4.29-.19,.75-.25,1.6-.19,2.54,.12,1.96,.76,3.26,1.83,4.02,1.03,.73,2.47,.98,4.23,.86,8.74-.58,17.57,1.15,26.25-1.04,6.79-15.12,1.87-31.04,3.19-46.54Zm-79.29-2.3c-4.22,4.55-10.52,8.11-8.09,15.11,3.65,10.5,8.66,20.63,17.45,27.95,3.46,2.89,8.15,2.14,12.08,.09,4.98-2.59,9.01-1.69,11.95,2.86,2.42,3.75,6.78,7.59,4.56,12.32-2.41,5.15-8.23,4.8-13.33,5.08-10.31-.45-18.37-5.58-24.25-13.59-7.5-10.22-14.24-21.08-18.96-32.88-4.31-10.78-5.24-21.84,2.94-31.56,3.17-3.77,7.28-8.54,12.17-2.54,3.94,4.84,9.46,10.7,3.48,17.16Zm39.01,18.89c-2.7,2.11-5.76,2.34-8.54,.26-6.44-4.84-12.77-9.82-19.11-14.8-1.97-1.55-2.76-3.69-2.08-6.13,.8-2.84,3.34-2.87,5.59-2.87,16.38-.06,32.76-.03,52.28-.03-10,10.86-19.46,16.77-28.15,23.58Z"/><path class="g" d="M264.22,1099.54c.56,.17,1.11,.34,1.65,.53-.55-.16-1.1-.33-1.65-.53Z"/></g><g><path class="e" d="M386.68,1090.76c2.42,2,3.63,4.65,3.63,7.96,0,2.62-.68,4.95-2.04,6.99-1.36,2.04-3.32,3.62-5.86,4.75-2.54,1.13-5.5,1.69-8.88,1.69-2.81,0-5.6-.42-8.39-1.25-2.79-.83-5.16-1.96-7.11-3.39l2.99-5.67c1.67,1.36,3.55,2.41,5.64,3.15,2.09,.74,4.22,1.11,6.38,1.11,3.21,0,5.72-.66,7.54-2,1.81-1.33,2.71-3.1,2.71-5.32s-.9-3.98-2.71-5.17c-1.81-1.19-4.36-1.78-7.66-1.78h-6.22v-4.38l12.08-11.7h-18.61l-.06-6.35h28.06v4.51l-13.61,13.17,2.38,.18c4.07,.32,7.31,1.48,9.73,3.48Z"/><path class="e" d="M416.02,1112.12h-7.2v-36.24h-9.21v-6.47h16.41v42.71Z"/><path class="e" d="M466.63,1095.28v6.41h-6.35v10.43h-6.71v-10.43h-20.8v-5.43l14.52-26.85h6.96l-13.73,25.87h13.06v-10.19h6.71v10.19h6.35Z"/><path class="e" d="M499.61,1090.76c2.42,2,3.63,4.65,3.63,7.96,0,2.62-.68,4.95-2.04,6.99-1.36,2.04-3.32,3.62-5.86,4.75-2.54,1.13-5.5,1.69-8.88,1.69-2.81,0-5.6-.42-8.39-1.25-2.79-.83-5.16-1.96-7.11-3.39l2.99-5.67c1.67,1.36,3.55,2.41,5.64,3.15,2.09,.74,4.22,1.11,6.38,1.11,3.21,0,5.72-.66,7.54-2,1.81-1.33,2.71-3.1,2.71-5.32s-.9-3.98-2.71-5.17c-1.81-1.19-4.36-1.78-7.66-1.78h-6.22v-4.38l12.08-11.7h-18.61l-.06-6.35h28.06v4.51l-13.61,13.17,2.38,.18c4.07,.32,7.31,1.48,9.73,3.48Z"/><path class="e" d="M541.86,1106.08v6.04h-32.46v-5.31l16.96-16.69c1.75-1.65,3.14-3.27,4.18-4.88,1.04-1.61,1.56-2.99,1.56-4.16,0-1.73-.71-3.06-2.14-4.01-1.42-.94-3.38-1.42-5.86-1.42-1.99,0-4.11,.47-6.35,1.4-2.24,.94-4.31,2.24-6.22,3.91l-2.87-5.49c2.44-1.91,5.07-3.41,7.9-4.48,2.83-1.08,5.66-1.62,8.51-1.62s5.37,.43,7.57,1.3c2.2,.86,3.91,2.1,5.13,3.71s1.83,3.48,1.83,5.61c0,3.9-2.77,8.55-8.3,13.94l-12.75,12.13h23.31Z"/><path class="e" d="M579.5,1106.08v6.04h-32.46v-5.31l16.96-16.69c1.75-1.65,3.14-3.27,4.18-4.88,1.04-1.61,1.56-2.99,1.56-4.16,0-1.73-.71-3.06-2.14-4.01-1.42-.94-3.38-1.42-5.86-1.42-1.99,0-4.11,.47-6.35,1.4-2.24,.94-4.31,2.24-6.22,3.91l-2.87-5.49c2.44-1.91,5.07-3.41,7.9-4.48,2.83-1.08,5.66-1.62,8.51-1.62s5.37,.43,7.57,1.3c2.2,.86,3.91,2.1,5.13,3.71s1.83,3.48,1.83,5.61c0,3.9-2.77,8.55-8.3,13.94l-12.75,12.13h23.31Z"/><path class="e" d="M592.49,1105.47c1.67,.47,3.31,.7,4.94,.7,4.03,0,7.04-1.38,9.03-4.14,1.99-2.76,2.93-6.54,2.81-11.33-1.14,1.99-2.68,3.5-4.64,4.53-1.95,1.03-4.27,1.55-6.96,1.55-4.23,0-7.57-1.21-10.01-3.62-2.44-2.41-3.66-5.67-3.66-9.78,0-2.83,.62-5.3,1.86-7.42,1.24-2.11,2.98-3.74,5.22-4.87,2.24-1.14,4.86-1.71,7.87-1.71,3.58,0,6.67,.81,9.27,2.44,2.6,1.63,4.6,3.98,5.98,7.05,1.38,3.07,2.07,6.74,2.07,10.99s-.75,8.37-2.26,11.75c-1.5,3.37-3.64,5.97-6.41,7.8-2.77,1.83-6,2.74-9.7,2.74-2.12,0-4.32-.29-6.62-.88-2.3-.59-4.32-1.37-6.07-2.35l2.81-5.43c1.3,.85,2.79,1.52,4.45,1.98Zm.58-27.81c-1.57,1.41-2.35,3.34-2.35,5.78s.74,4.22,2.23,5.6c1.48,1.37,3.51,2.06,6.07,2.06,2.81,0,5.02-.78,6.65-2.33,1.63-1.55,2.44-3.45,2.44-5.69,0-1.26-.33-2.47-.98-3.62-.65-1.16-1.64-2.1-2.96-2.83-1.32-.73-2.94-1.09-4.85-1.09-2.6,0-4.69,.71-6.25,2.12Z"/><path class="e" d="M650.09,1074.92c2.85,3.69,4.27,8.98,4.27,15.84s-1.42,12.15-4.27,15.84c-2.85,3.69-6.91,5.54-12.2,5.54s-9.42-1.85-12.26-5.54c-2.85-3.69-4.27-8.98-4.27-15.84s1.42-12.15,4.27-15.84,6.94-5.54,12.26-5.54,9.35,1.85,12.2,5.54Zm-19,4.03c-1.48,2.56-2.23,6.5-2.23,11.81s.75,9.2,2.26,11.78c1.5,2.58,3.76,3.87,6.77,3.87s5.26-1.29,6.74-3.87c1.48-2.58,2.23-6.51,2.23-11.78s-.74-9.25-2.23-11.81c-1.48-2.56-3.73-3.84-6.74-3.84s-5.32,1.28-6.8,3.84Z"/><path class="e" d="M667.78,1105.47c1.67,.47,3.31,.7,4.94,.7,4.03,0,7.04-1.38,9.03-4.14,1.99-2.76,2.93-6.54,2.81-11.33-1.14,1.99-2.68,3.5-4.64,4.53-1.95,1.03-4.27,1.55-6.96,1.55-4.23,0-7.57-1.21-10.01-3.62-2.44-2.41-3.66-5.67-3.66-9.78,0-2.83,.62-5.3,1.86-7.42,1.24-2.11,2.98-3.74,5.22-4.87,2.24-1.14,4.86-1.71,7.87-1.71,3.58,0,6.67,.81,9.27,2.44,2.6,1.63,4.6,3.98,5.98,7.05,1.38,3.07,2.07,6.74,2.07,10.99s-.75,8.37-2.26,11.75c-1.5,3.37-3.64,5.97-6.41,7.8-2.77,1.83-6,2.74-9.7,2.74-2.12,0-4.32-.29-6.62-.88-2.3-.59-4.32-1.37-6.07-2.35l2.81-5.43c1.3,.85,2.79,1.52,4.45,1.98Zm.58-27.81c-1.57,1.41-2.35,3.34-2.35,5.78s.74,4.22,2.23,5.6c1.48,1.37,3.51,2.06,6.07,2.06,2.81,0,5.02-.78,6.65-2.33s2.44-3.45,2.44-5.69c0-1.26-.33-2.47-.98-3.62-.65-1.16-1.64-2.1-2.96-2.83-1.32-.73-2.94-1.09-4.85-1.09-2.6,0-4.69,.71-6.25,2.12Z"/><path class="e" d="M717.17,1112.12h-7.2v-36.24h-9.21v-6.47h16.41v42.71Z"/></g><g><path class="f" d="M1058.73,1075.48c-5.36,0-9.89-1.79-13.58-5.37-3.7-3.58-5.54-7.95-5.54-13.12s1.86-9.52,5.57-13.05c3.71-3.53,8.3-5.29,13.76-5.29,5.18,0,9.84,2.05,13.97,6.16l-3.63,4.31c-3.12-3.27-6.53-4.9-10.24-4.9s-6.83,1.19-9.35,3.56-3.78,5.42-3.78,9.15c0,1.63,.3,3.2,.89,4.72,.6,1.52,1.46,2.88,2.59,4.08,1.13,1.2,2.5,2.16,4.12,2.86,1.62,.7,3.46,1.06,5.53,1.06,3.68,0,7.09-1.4,10.24-4.21l3.68,3.91c-4.24,4.09-8.98,6.13-14.24,6.13Z"/><path class="f" d="M1086.42,1075.48c-3.15,0-5.58-.87-7.28-2.62-1.7-1.75-2.55-3.79-2.55-6.12s.84-4.32,2.52-5.88c1.68-1.55,4.36-2.33,8.04-2.33h8.46c0-1.17-.12-2.09-.37-2.76-.7-2.27-2.8-3.41-6.3-3.41-2.66,0-5.41,.9-8.25,2.71l-2.47-4.08c3.54-2.35,7.55-3.52,12.03-3.52,3.96,0,6.83,.91,8.62,2.74,1.79,1.83,2.68,4.17,2.68,7.02l.05,18.21h-5.94v-3.57c-2.1,2.4-5.18,3.6-9.25,3.6Zm1.26-4.78c2.42,0,4.29-.51,5.62-1.52,1.33-1.02,2.1-2.28,2.31-3.78v-2.57h-7.56c-3.85,0-5.78,1.21-5.78,3.62,0,1.47,.52,2.55,1.55,3.23,1.03,.68,2.32,1.02,3.86,1.02Z"/><path class="f" d="M1116.15,1075.48c-1.82,0-3.43-.65-4.83-1.96-1.4-1.31-2.1-3.35-2.1-6.14v-30.91h5.99v30.26c0,2.16,.86,3.23,2.57,3.23,.84,0,1.77-.29,2.78-.88l.84,4.92c-1.82,.98-3.57,1.47-5.25,1.47Z"/><path class="f" d="M1132.39,1075.48c-1.82,0-3.43-.65-4.83-1.96-1.4-1.31-2.1-3.35-2.1-6.14v-30.91h5.99v30.26c0,2.16,.86,3.23,2.57,3.23,.84,0,1.77-.29,2.78-.88l.84,4.92c-1.82,.98-3.57,1.47-5.25,1.47Z"/><path class="f" d="M1153.82,1075.48c-3.15,0-5.79-.63-7.91-1.9-2.12-1.26-3.71-2.95-4.78-5.06-1.07-2.11-1.6-4.45-1.6-7.01,0-3.05,.62-5.6,1.86-7.66,1.4-2.2,3.17-3.81,5.29-4.83,2.13-1.02,4.45-1.53,6.97-1.53,8.79,0,13.19,4.66,13.19,13.97l-.11,2.16h-21.12c.67,2.47,1.77,4.25,3.32,5.35,1.55,1.09,3.33,1.64,5.35,1.64,3.01,0,5.64-1.09,7.88-3.26l3.2,3.41c-2.91,3.15-6.76,4.73-11.56,4.73Zm7.67-16.29c-.25-2.37-1.08-4.11-2.5-5.23s-3.18-1.68-5.28-1.68c-2.45,0-4.36,.64-5.73,1.93-1.37,1.29-2.19,2.95-2.47,4.98h15.97Z"/><path class="f" d="M1204.04,1075.46h-6.2v-31.21h-7.93v-5.57h14.13v36.77Z"/><path class="f" d="M1239.24,1044.38c-1.45-.38-2.88-.58-4.28-.58-3.47,0-6.08,1.16-7.83,3.47-1.63,2.15-2.44,4.99-2.44,8.54,0,.29,0,.57,.03,.86,.98-1.72,2.32-3.02,4.02-3.91,1.7-.89,3.7-1.34,6.02-1.34,3.68,0,6.58,1.06,8.69,3.18s3.18,4.98,3.18,8.59c0,2.49-.53,4.66-1.6,6.51-1.07,1.86-2.58,3.28-4.54,4.28-1.96,1-4.24,1.5-6.83,1.5-3.08,0-5.74-.7-7.99-2.1-2.24-1.4-3.97-3.42-5.17-6.07s-1.81-5.8-1.81-9.47,.65-7.21,1.94-10.11c1.3-2.9,3.13-5.14,5.52-6.72,2.38-1.57,5.18-2.36,8.41-2.36,1.82,0,3.73,.25,5.73,.76s3.75,1.18,5.25,2.02l-2.42,4.56c-1.12-.7-2.41-1.24-3.86-1.63Zm-9.85,12.87c-1.19,.63-2.11,1.49-2.76,2.57-.65,1.09-.95,2.26-.92,3.52-.04,1.12,.23,2.21,.79,3.26,.56,1.05,1.42,1.91,2.57,2.57,1.16,.67,2.57,1,4.26,1,2.28,0,4.1-.63,5.46-1.89,1.37-1.26,2.05-2.98,2.05-5.15s-.65-3.76-1.94-4.99c-1.3-1.23-3.06-1.84-5.31-1.84-1.61,0-3.01,.32-4.2,.95Z"/><path class="f" d="M1276.02,1057.06c2.08,1.72,3.13,4,3.13,6.85,0,2.26-.59,4.26-1.76,6.02-1.17,1.75-2.85,3.12-5.04,4.09-2.19,.97-4.74,1.46-7.64,1.46-2.42,0-4.82-.36-7.22-1.08s-4.44-1.69-6.12-2.92l2.57-4.88c1.44,1.17,3.06,2.08,4.86,2.72,1.8,.64,3.63,.96,5.49,.96,2.77,0,4.93-.57,6.49-1.72,1.56-1.14,2.34-2.67,2.34-4.58s-.78-3.43-2.34-4.45c-1.56-1.02-3.76-1.54-6.59-1.54h-5.36v-3.78l10.4-10.07h-16.02l-.05-5.46h24.17v3.89l-11.72,11.34,2.05,.16c3.5,.28,6.29,1.28,8.38,3Z"/><path class="f" d="M1297.5,1075.48c-4.03,0-7.38-1.24-10.06-3.73-2.68-2.49-4.02-5.89-4.02-10.22,0-3.01,.64-5.56,1.92-7.65,1.45-2.26,3.25-3.9,5.4-4.9,2.14-1,4.4-1.5,6.76-1.5,5.01,0,8.86,1.52,11.56,4.57l-3.31,3.98c-1.93-2.13-4.59-3.19-7.99-3.19-1.3,0-2.58,.29-3.85,.87-1.27,.58-2.34,1.54-3.22,2.87-.82,1.28-1.23,2.94-1.23,4.98s.39,3.6,1.18,4.89c.79,1.29,1.81,2.25,3.07,2.89,1.26,.63,2.61,.95,4.05,.95,3.57,0,6.32-1.09,8.25-3.26l3.36,3.26c-2.56,3.47-6.51,5.2-11.87,5.2Z"/><path class="f" d="M1063.67,1138.5h-4.41l1.1-9.09h-9.3l-1.16,9.09h-4.41l1.1-9.09h-7.35l.42-4.52h7.51l1.1-9.25h-7.3l.42-4.52h7.46l1.16-9.4h4.47l-1.16,9.4h9.3l1.16-9.4h4.47l-1.16,9.4h7.3l-.37,4.52h-7.51l-1.16,9.25h7.36l-.42,4.52h-7.46l-1.16,9.09Zm-2.73-13.61l1.1-9.25h-9.3l-1.16,9.25h9.35Z"/><path class="f" d="M1102.76,1120.1c2.08,1.72,3.13,4,3.13,6.85,0,2.26-.59,4.26-1.76,6.02-1.17,1.75-2.86,3.12-5.04,4.09s-4.74,1.46-7.64,1.46c-2.42,0-4.83-.36-7.22-1.08-2.4-.72-4.44-1.69-6.12-2.92l2.57-4.88c1.44,1.17,3.06,2.08,4.86,2.72,1.8,.64,3.63,.96,5.49,.96,2.77,0,4.93-.57,6.49-1.72,1.56-1.14,2.34-2.67,2.34-4.58s-.78-3.43-2.34-4.45c-1.56-1.02-3.76-1.54-6.59-1.54h-5.36v-3.78l10.4-10.07h-16.02l-.05-5.46h24.17v3.89l-11.72,11.34,2.05,.16c3.5,.28,6.3,1.28,8.38,3Z"/><path class="f" d="M1128.03,1138.5h-6.2v-31.21h-7.93v-5.57h14.13v36.77Z"/><path class="f" d="M1171.55,1133.3v5.2h-27.95v-4.57l14.6-14.37c1.51-1.42,2.71-2.82,3.6-4.2,.89-1.38,1.34-2.58,1.34-3.58,0-1.49-.61-2.64-1.84-3.45-1.23-.81-2.91-1.22-5.04-1.22-1.72,0-3.54,.4-5.46,1.21s-3.71,1.93-5.36,3.36l-2.47-4.73c2.1-1.65,4.37-2.93,6.8-3.86,2.43-.93,4.88-1.39,7.33-1.39s4.62,.37,6.51,1.12c1.89,.74,3.36,1.81,4.41,3.2,1.05,1.39,1.58,3,1.58,4.83,0,3.36-2.38,7.36-7.14,12.01l-10.98,10.45h20.07Z"/><path class="f" d="M1185.13,1138.52c-3.15,0-5.58-.87-7.28-2.62-1.7-1.75-2.55-3.79-2.55-6.12s.84-4.32,2.52-5.88c1.68-1.55,4.36-2.33,8.04-2.33h8.46c0-1.17-.12-2.09-.37-2.76-.7-2.27-2.8-3.41-6.3-3.41-2.66,0-5.41,.9-8.25,2.71l-2.47-4.08c3.54-2.35,7.55-3.52,12.03-3.52,3.96,0,6.83,.91,8.62,2.74,1.79,1.83,2.68,4.17,2.68,7.02l.05,18.21h-5.94v-3.57c-2.1,2.4-5.18,3.6-9.25,3.6Zm1.26-4.78c2.42,0,4.29-.51,5.62-1.52,1.33-1.02,2.1-2.28,2.31-3.78v-2.57h-7.57c-3.85,0-5.78,1.21-5.78,3.62,0,1.47,.52,2.55,1.55,3.23,1.03,.68,2.32,1.02,3.86,1.02Z"/><path class="f" d="M1229.05,1104.18c2.19,1.65,3.28,3.93,3.28,6.82,0,1.7-.47,3.22-1.42,4.55s-2.26,2.35-3.94,3.07c2.24,.77,4,1.98,5.28,3.63s1.92,3.55,1.92,5.73c0,3.26-1.26,5.83-3.78,7.72s-5.94,2.84-10.24,2.84-7.72-.94-10.24-2.81-3.78-4.42-3.78-7.64c0-2.21,.67-4.14,2-5.81,1.33-1.66,3.15-2.88,5.46-3.65-1.79-.78-3.18-1.86-4.18-3.22-1-1.36-1.5-2.91-1.5-4.65,0-2.79,1.09-5,3.28-6.62,2.19-1.62,5.16-2.43,8.91-2.43s6.77,.83,8.96,2.48Zm-14.97,18.75c-1.42,1.05-2.13,2.54-2.13,4.47s.72,3.54,2.15,4.62,3.45,1.63,6.04,1.63,4.61-.54,6.04-1.63c1.44-1.09,2.15-2.61,2.15-4.57s-.73-3.42-2.18-4.49c-1.45-1.07-3.48-1.6-6.07-1.6s-4.6,.53-6.02,1.58Zm.92-15.4c-1.23,.9-1.84,2.18-1.84,3.82s.61,2.91,1.84,3.82c1.23,.9,2.94,1.36,5.15,1.36s3.91-.45,5.12-1.36c1.21-.9,1.81-2.18,1.81-3.82s-.6-2.91-1.81-3.82c-1.21-.9-2.92-1.36-5.12-1.36s-3.92,.45-5.15,1.36Z"/><path class="f" d="M1256.05,1138.5h-6.2v-31.21h-7.93v-5.57h14.13v36.77Z"/></g><g><path class="h" d="M931.57,1054.93c-10.53-.16-19.22,8.08-19.36,18.36-.13,10.22,8.34,19.26,18.38,19.62,10.71,.38,19.73-8.43,19.75-19.31,.02-10.74-7.78-18.5-18.77-18.67Zm.68,30.01c-8.25-.6-13.01-4.91-12.86-11.73,.15-6.66,4.56-11.5,12.19-11.14,6.77,.33,10.8,4.37,11.15,10.9,.4,7.51-4.55,10.84-10.49,11.97Z"/><path class="h" d="M948.19,1039.85c-13.6-6.61-27.37-5.61-39.53,3.73-12.92,9.92-17.68,23.3-14.17,39.39,2.88,13.19,10.4,24.09,17.68,35.03q19.06,28.62,38.44-.2c8.78-13.04,17.34-26.11,17.84-47.78,.16-10.63-5.86-23.16-20.27-30.17Zm-13.53,87.63c-1.6,2.2-3.12,3.28-5.98,1.1-9.42-7.17-27.96-43.72-27.75-57.43,.85-9.9,5.81-19.68,16.81-24.78,11.21-5.2,22.71-4.29,32.6,3.52,9.81,7.75,14.03,18.3,10.88,30.7-4.56,17.98-15.91,32.29-26.57,46.9Z"/><path class="k" d="M931.57,1054.93c-10.53-.16-19.22,8.08-19.36,18.36-.13,10.22,8.34,19.26,18.38,19.62,10.71,.38,19.73-8.43,19.75-19.31,.02-10.74-7.78-18.5-18.77-18.67Zm.68,30.01c-8.25-.6-13.01-4.91-12.86-11.73,.15-6.66,4.56-11.5,12.19-11.14,6.77,.33,10.8,4.37,11.15,10.9,.4,7.51-4.55,10.84-10.49,11.97Z"/><path class="k" d="M948.19,1039.85c-13.6-6.61-27.37-5.61-39.53,3.73-12.92,9.92-17.68,23.3-14.17,39.39,2.88,13.19,10.4,24.09,17.68,35.03q19.06,28.62,38.44-.2c8.78-13.04,17.34-26.11,17.84-47.78,.16-10.63-5.86-23.16-20.27-30.17Zm-13.53,87.63c-1.6,2.2-3.12,3.28-5.98,1.1-9.42-7.17-27.96-43.72-27.75-57.43,.85-9.9,5.81-19.68,16.81-24.78,11.21-5.2,22.71-4.29,32.6,3.52,9.81,7.75,14.03,18.3,10.88,30.7-4.56,17.98-15.91,32.29-26.57,46.9Z"/><path class="l" d="M931.57,1054.93c-10.53-.16-19.22,8.08-19.36,18.36-.13,10.22,8.34,19.26,18.38,19.62,10.71,.38,19.73-8.43,19.75-19.31,.02-10.74-7.78-18.5-18.77-18.67Zm.68,30.01c-8.25-.6-13.01-4.91-12.86-11.73,.15-6.66,4.56-11.5,12.19-11.14,6.77,.33,10.8,4.37,11.15,10.9,.4,7.51-4.55,10.84-10.49,11.97Z"/><path class="j" d="M931.57,1054.93c-10.53-.16-19.22,8.08-19.36,18.36-.13,10.22,8.34,19.26,18.38,19.62,10.71,.38,19.73-8.43,19.75-19.31,.02-10.74-7.78-18.5-18.77-18.67Zm.68,30.01c-8.25-.6-13.01-4.91-12.86-11.73,.15-6.66,4.56-11.5,12.19-11.14,6.77,.33,10.8,4.37,11.15,10.9,.4,7.51-4.55,10.84-10.49,11.97Z"/></g></g></g></svg>