<?xml version="1.0" encoding="UTF-8"?><svg xmlns="http://www.w3.org/2000/svg" xmlns:xlink="http://www.w3.org/1999/xlink" viewBox="0 0 281.53 188.73"><defs><style>.f{fill:#fff;}.g{fill:#602515;}.h{fill:#f8ae19;}.i{fill:#fcc054;}.j{fill:url(#d);}.k{fill:url(#e);}.l{fill:none;}.m{fill:#83bf3b;}</style><linearGradient id="d" x1="81.15" y1="75.7" x2="172.59" y2="145.36" gradientTransform="matrix(1, 0, 0, 1, 0, 0)" gradientUnits="userSpaceOnUse"><stop offset="0" stop-color="#f8ae19"/><stop offset="1" stop-color="#f46425"/></linearGradient><linearGradient id="e" x1="90.65" y1="25.28" x2="151.44" y2="65.16" xlink:href="#d"/></defs><g id="a"/><g id="b"><g id="c"><path class="j" d="M195.74,104.71c-.11,.64-.23,1.28-.36,1.91h0c-.12,.62-.26,1.21-.4,1.82-.1,.42-.2,.83-.31,1.25-.69,2.67-1.55,5.27-2.57,7.78-1.63,4.07-3.68,7.94-6.09,11.54,0,0,0,0-.01,.01-11.4,17.04-30.81,28.25-52.84,28.25s-41.85-11.45-53.19-28.78c.14-.09,.28-.19,.43-.3,.13-.1,.27-.2,.4-.31,.3-.23,.61-.49,.91-.77,.22-.2,.44-.41,.66-.64,.4,.14,.8,.26,1.21,.37,1.83,.5,3.72,.75,5.64,.75,1.02,0,2-.08,2.91-.24,3.58-.62,7.54-3.31,12.47-8.47,.49-.51,.99-1.05,1.49-1.61,3.02,2.94,6.98,4.65,11.53,4.98,.5,.04,1.03,.06,1.61,.06,1.47,0,3-.14,4.55-.4,1.73-.3,3.44-.78,5.08-1.44,4.03-1.62,7.72-4.31,10.75-7.85,2.4-.91,4.51-2.17,6.41-3.8,.18,.22,.37,.45,.59,.69,.02,.02,.03,.04,.05,.06,1.74,1.88,3.98,3.36,6.67,4.4,.02,0,.44,.16,.44,.16,.18,.07,.36,.13,.55,.19,.18,.06,.36,.11,.54,.17,.76,.23,1.54,.43,2.38,.58,.03,0,.06,.01,.09,.01,.19,.03,.37,.07,.56,.09,0,0,.23,.03,.25,.04,.16,.02,.33,.05,.49,.06,.64,.07,1.28,.11,1.9,.11,.81,0,1.54-.06,2.25-.19,.27-.05,.54-.1,.86-.18,.23-.05,.45-.12,.67-.19,.14-.04,.34-.11,.58-.21,1.27-.5,2.49-1.29,3.75-2.41,.02-.02,.05-.05,.07-.07,.18-.16,.37-.35,.57-.54l.03-.03s.08,.03,.11,.04l.84,.27c.05,.02,.19,.06,.19,.06,.09,.03,.18,.05,.27,.07,.76,.21,1.5,.37,2.21,.49,.03,0,.6,.09,.6,.09,.79,.11,1.57,.17,2.31,.17s1.48-.06,2.17-.18c.19-.03,.43-.07,.68-.13,1.54-.85,3.14-1.67,4.78-2.47h0c.19-.16,.39-.33,.58-.51,.23-.2,.45-.43,.69-.65h0c-.4-.14-.79-.28-1.18-.44,.29-.27,.58-.57,.87-.88,.31,.12,.62,.23,.95,.33,.05,.01,.14,.05,.22,.07,.05,.02,.1,.03,.11,.03,.44,.14,.9,.26,1.36,.37,.11-.06,.23-.11,.35-.16,2.39-1.07,4.86-2.09,7.36-3.06,.32-.12,.64-.25,.96-.37Z"/><path class="h" d="M74.54,75.47c-.74,1.06-1.62,1.96-2.6,2.62-.03,.02-.06,.05-.09,.06-.02,.01-.05,.03-.07,.04-.1,.06-.2,.12-.3,.18,1.3-5.25,3.25-10.24,5.77-14.89,.03,.14,.07,.29,.1,.44,.66,3.34-.43,8.19-2.81,11.54Z"/><path class="k" d="M176.9,47.66c-3.92,1.16-6.92,4.02-8.21,7.87-.02,.06-.04,.12-.06,.18-.2,.62-.37,1.29-.55,1.97,0,.02,0,.04-.01,.06-.27,1.1-.54,2.39-.87,4.06-.37,1.91-.65,3.61-.76,4.28-.07,.43-.12,.87-.14,1.31-.39-.14-.78-.26-1.19-.36-.4-.1-.82-.19-1.22-.27-.95-.16-1.89-.25-2.81-.25-.78,0-1.54,.06-2.28,.18-.21,.04-.79,.15-1.62,.3-1.62,.3-5.41,.99-8.85,1.59-3.25,.56-5.25,.84-6.12,.95-.13,0-.27-.01-.41-.01-.58,0-1.14,.05-1.67,.14-.45,.08-.91,.19-1.4,.35l-.07,.02c-.18,.06-.36,.12-.55,.2-.13,.05-.28,.11-.43,.18-.05,.02-.09,.05-.14,.07-.16,.07-.32,.15-.48,.24-.12,.06-.25,.12-.37,.2-.21,.12-.4,.23-.57,.36-.19,.12-.37,.25-.54,.39-.12,.1-.26,.19-.37,.3-.11,.1-.22,.19-.33,.3-.02,.02-.03,.03-.06,.05-.14,.13-.27,.26-.39,.38-.07,.07-.21,.2-.37,.39h0c-.74-.22-1.51-.39-2.26-.51-1.08-.18-2.24-.27-3.41-.27-1.45,0-2.95,.13-4.44,.39-1.95,.33-3.87,.92-5.66,1.71-1.24,.54-2.46,1.21-3.64,1.97-1.13-.96-2.37-1.76-3.68-2.37,1.53-1.64,3.26-4.59,5.71-10,.99-2.16,.69-4.59-.77-6.34-.74-.9-1.72-1.54-2.83-1.87-.07-.02-.13-.03-.2-.05-.01-1.49-.57-2.92-1.62-4.05-.58-.64-1.31-1.15-2.13-1.52-1.04-.48-2.25-.74-3.51-.74-.66,0-1.28,.07-1.85,.22-.83,.2-1.59,.57-2.25,1.06-.22-.02-.43-.02-.65-.02-.12,0-.25,0-.37,0-.73,.03-1.49,.14-2.26,.33-.48,.12-.95,.27-1.41,.45,.23-1.04,.47-2.11,.72-3.21l.02-.09c.03-.11,.05-.23,.07-.35,.34-1.95-.27-3.91-1.67-5.31-.06-.06-.12-.11-.18-.16,10.49-7.65,23.41-12.16,37.38-12.16,16.96,0,32.36,6.64,43.75,17.47Z"/><path class="h" d="M196.69,93.73c0,.61-.01,1.21-.03,1.82h0c-.06,2.4-.27,4.76-.6,7.08h0c-.37,.33-.71,.6-1.02,.8-.92,.61-1.55,.72-2.03,.81-.39,.06-.81,.1-1.29,.1-.39,0-.81-.02-1.24-.06-.24-.02-.48-.05-.73-.08-.24-.03-.49-.07-.75-.12-.12-.02-.23-.05-.36-.07h0c-.39-.08-.79-.18-1.19-.28-.14-.04-.28-.08-.43-.12-.08-.03-.16-.05-.24-.07-1.02-.33-2.04-.77-2.99-1.32-.2-.12-.4-.24-.58-.37-.27,.35-.52,.68-.75,.98-.87,1.09-1.61,1.88-2.25,2.46-.16,.15-.32,.29-.47,.41-.07,.06-.15,.12-.22,.18-.07,.06-.14,.11-.21,.16-.16,.12-.32,.22-.47,.31-.11,.06-.22,.12-.31,.18-.07,.03-.13,.07-.19,.1-.06,.03-.12,.06-.18,.08-.45,.18-.81,.25-1.1,.3-.38,.07-.79,.1-1.24,.1s-.95-.03-1.5-.11l-.5-.07c-.1-.02-.2-.03-.3-.05-.1-.02-.2-.04-.3-.06-.19-.04-.39-.08-.58-.13-.19-.05-.4-.1-.6-.16,0,0,0,0-.01,0l-.08-.02-.84-.27c-1.12-.4-2.25-.94-3.29-1.65-.98,1.31-1.81,2.26-2.52,2.97-.17,.16-.33,.32-.49,.46-.33,.3-.64,.54-.91,.73-.11,.09-.23,.15-.33,.22-.09,.06-.17,.11-.25,.15-.22,.12-.41,.21-.58,.28-.08,.03-.15,.06-.23,.08-.01,0-.02,.01-.03,.01-.08,.03-.16,.05-.23,.07-.2,.05-.36,.08-.52,.11-.38,.07-.78,.1-1.23,.1-.37,0-.8-.02-1.27-.08-.11-.01-.23-.03-.35-.05-.07-.01-.15-.02-.23-.03-.13-.02-.26-.04-.39-.06-.57-.11-1.18-.25-1.8-.44-.14-.04-.27-.08-.4-.12-.11-.03-.21-.07-.31-.11l-.41-.15c-1.65-.64-3.29-1.59-4.55-2.96-.2-.23-.4-.46-.59-.7-.1-.13-.19-.26-.28-.4-.03-.04-.05-.08-.08-.12-.06-.09-.11-.18-.17-.27-.08-.14-.16-.28-.23-.42-.07-.13-.13-.26-.19-.39-.01-.02-.02-.03-.02-.05-.01-.02-.02-.04-.03-.06-.05-.11-.1-.24-.14-.36-.02-.05-.03-.09-.05-.13-.05-.12-.09-.24-.12-.37-.05-.15-.09-.3-.12-.45-.05-.19-.09-.38-.12-.58-.33-1.94-.2-4.42,.43-7.53-.23,.42-.45,.83-.68,1.26-.11,.53-.31,1.06-.57,1.57-1.45,2.85-3.02,5.57-5.44,7.71-.41,.36-.85,.72-1.32,1.04-.16,.11-.33,.23-.5,.33-.14,.09-.28,.18-.42,.26-.14,.09-.29,.18-.44,.26-.33,.19-.67,.36-1.03,.53-.15,.07-.31,.14-.46,.2-.16,.07-.32,.14-.48,.2-.16,.06-.33,.12-.5,.19-.34,.12-.69,.24-1.05,.35-2.62,3.44-5.87,5.99-9.48,7.43-1.27,.51-2.58,.89-3.92,1.11-1.25,.22-2.46,.32-3.6,.32-.4,0-.8-.01-1.19-.04-.44-.03-.87-.08-1.29-.15-.21-.03-.42-.07-.62-.11-.2-.04-.4-.09-.6-.13-.01,0-.03,0-.04-.01-.36-.09-.7-.19-1.04-.31-.18-.06-.35-.12-.51-.19-.18-.07-.36-.14-.53-.22-.18-.08-.35-.16-.51-.24-.17-.09-.33-.17-.5-.27-.12-.07-.25-.14-.37-.22-.07-.04-.14-.09-.21-.13-.12-.07-.24-.16-.36-.24-.07-.05-.14-.09-.2-.15-.06-.05-.12-.09-.18-.14-.18-.13-.35-.27-.51-.41-.14-.11-.27-.23-.4-.36s-.26-.26-.39-.39c-.09-.09-.18-.18-.26-.27-.18-.19-.34-.39-.51-.6-1-1.26-1.77-2.76-2.29-4.48-1,1.34-1.95,2.53-2.75,3.49-.16,.19-.33,.4-.52,.62-.24,.29-.51,.6-.8,.93h0c-.17,.2-.35,.4-.53,.61-.49,.56-1.04,1.15-1.61,1.75-2.89,3.02-6.59,6.33-9.35,6.8-.59,.1-1.24,.15-1.94,.15-.18,0-.37,0-.55-.01-.11,0-.22,0-.33-.02-.12,0-.26-.01-.38-.02-.1,0-.2-.02-.3-.03-.27-.02-.54-.06-.82-.1-.19-.03-.38-.06-.57-.1-.2-.04-.4-.08-.6-.12-.2-.05-.4-.1-.6-.15-1.53-.41-2.97-1.04-4.22-1.9-1.19,1.62-2.16,2.72-2.97,3.46-.2,.19-.4,.35-.58,.49-.08,.06-.16,.12-.23,.18-.44-.82-.86-1.65-1.26-2.49-.54-1.13-1.05-2.28-1.52-3.44-.58-1.41-1.11-2.84-1.58-4.3-.16-.48-.31-.95-.44-1.44-.13-.42-.25-.83-.36-1.26-.21-.76-.4-1.53-.59-2.29-1.11-4.7-1.7-9.6-1.7-14.64,0-.71,.01-1.41,.04-2.11h0c.03-1,.09-1.99,.16-2.97,.14-.12,.28-.23,.43-.34,.73-.53,1.57-.89,2.49-1.04,.4-.07,.85-.11,1.32-.11,1.03,0,2.26,.18,3.45,.6,.35,.12,.7,.27,1.04,.44,1.03,.51,1.97,1.23,2.63,2.22,.33,.49,.57,1.02,.73,1.57,.44-1.12,.92-2.26,1.42-3.46,.06-.13,.11-.26,.18-.39,.12-.26,.26-.49,.4-.73,.07-.11,.15-.23,.23-.33,.03-.05,.07-.09,.11-.14,.11-.15,.23-.29,.35-.43,.05-.05,.1-.1,.15-.15,.06-.07,.13-.14,.2-.2,.02-.02,.05-.05,.07-.06,.06-.05,.11-.1,.16-.14,.06-.06,.13-.11,.2-.16,.03-.03,.07-.06,.1-.08,.03-.02,.07-.05,.1-.08,.07-.05,.14-.1,.22-.14,.07-.04,.14-.09,.21-.12,0,0,0,0,0,0,.06-.04,.12-.07,.18-.1,0-.01,.01-.01,.02-.01,.07-.05,.15-.08,.22-.11,0,0,.01,0,.02,0,.06-.03,.11-.05,.18-.08,.02-.01,.03-.02,.05-.02,.08-.04,.16-.07,.24-.1,.11-.05,.22-.09,.34-.12,0,0,.02-.01,.03-.01,.12-.04,.26-.07,.39-.11,.13-.03,.26-.06,.39-.08,.4-.07,.85-.11,1.32-.11,2.29,0,5.52,.86,7.13,3.26,1.05,1.57,1.22,3.52,.48,5.35-.03,.07-.06,.14-.09,.23-.02,.03-.03,.07-.04,.11-.16,.45-.36,1.04-.57,1.73-.05,.16-.09,.32-.14,.48-.01,.02-.02,.05-.02,.07-.03,.08-.06,.16-.08,.26-.46,1.55-.99,3.46-1.49,5.39h0c-.09,.32-.17,.64-.25,.95,.11-.19,.22-.39,.33-.58,.14-.26,.28-.51,.42-.77,.14-.27,.28-.53,.41-.81,.08-.16,.16-.32,.24-.48,.62-1.25,1.19-2.59,1.67-3.96,.07-.2,.14-.4,.2-.61,.09-.25,.16-.5,.24-.75,.09-.3,.18-.6,.26-.9,.05-.16,.09-.32,.12-.48,.05-.18,.09-.36,.13-.54,.04-.18,.08-.36,.11-.54,0-.02,.01-.03,.01-.05,.99-4.49,.66-6.29,.38-6.96-.03-.1-.07-.2-.11-.3-.41-1.27-.24-2.65,.46-3.8,.78-1.29,2.14-2.19,3.73-2.47,.53-.09,1.06-.14,1.59-.14,.15,0,.3,0,.45,.01,.17,0,.33,.02,.51,.04,.09,.01,.19,.02,.28,.03,.08,.01,.16,.02,.24,.04,.37,.06,.74,.14,1.1,.25,.08,.02,.15,.04,.23,.07,.28,.09,.57,.19,.84,.31,.22,.09,.43,.19,.63,.29,.23,.12,.47,.24,.69,.38,.11,.06,.22,.13,.32,.2,.11,.07,.21,.14,.31,.21,.11,.07,.22,.15,.32,.23,.08,.06,.15,.11,.23,.17,.12,.1,.24,.2,.36,.3,.24,.2,.47,.42,.69,.65,.85,.87,1.56,1.88,2.09,3,1.1-1.15,2.29-2.16,3.54-3.01,.32-.22,.64-.42,.96-.61,.41-.25,.83-.48,1.25-.69,.14-.07,.27-.14,.41-.2,.19-.1,.39-.19,.58-.27,1.39-.62,2.85-1.06,4.34-1.32,1.21-.21,2.38-.31,3.48-.31,.86,0,1.7,.06,2.5,.19,.23,.03,.45,.08,.68,.12l.09,.02c.15,.03,.3,.07,.44,.11,.19,.05,.39,.1,.57,.15,1.7,.5,3.21,1.31,4.49,2.41-.19-1.09-.02-2.2,.49-3.18,.06-.11,.12-.22,.19-.32,.01-.02,.03-.06,.05-.08,.06-.1,.12-.19,.19-.27,.07-.1,.15-.19,.22-.27,.05-.06,.09-.1,.14-.15,.09-.09,.17-.17,.26-.25,.06-.06,.12-.11,.19-.16,.05-.04,.1-.08,.15-.12,.07-.06,.15-.11,.23-.16t.02-.01c.09-.06,.19-.12,.29-.18,.03-.02,.06-.04,.1-.05,0,0,0,0,.01,0,.1-.06,.2-.11,.31-.16,.09-.04,.19-.08,.27-.11,.07-.03,.13-.05,.2-.07,.22-.07,.45-.13,.68-.17,.22-.04,.46-.06,.68-.06,.19,0,.37,.02,.52,.03,.71-.07,3.03-.38,6.98-1.06,3.37-.58,6.97-1.24,8.92-1.6,.79-.15,1.35-.25,1.55-.28,.41-.07,.85-.1,1.32-.1,.57,0,1.18,.05,1.82,.16,.26,.05,.52,.1,.78,.17,.1,.03,.2,.05,.3,.08,.04,.02,.08,.03,.12,.04,.14,.04,.28,.09,.42,.14,.24,.09,.49,.18,.73,.29,.11,.05,.22,.1,.32,.15,.07,.03,.13,.06,.19,.1,.13,.07,.26,.14,.39,.22,.81,.48,1.52,1.11,2.06,1.91,.33,.49,.57,1.02,.72,1.57,.44-1.12,.91-2.27,1.42-3.45,.06-.15,.12-.3,.2-.44,.01-.02,.02-.05,.04-.07,.06-.12,.12-.24,.19-.36,.01-.01,.02-.02,.02-.03,.09-.14,.18-.28,.27-.41,.07-.09,.13-.18,.2-.27,.04-.06,.09-.11,.13-.16,.07-.09,.15-.18,.23-.26,.03-.03,.06-.07,.09-.1,.1-.1,.2-.2,.3-.29,0,0,.02-.01,.02-.02,.11-.1,.22-.2,.34-.28,.09-.07,.18-.14,.27-.2,.01-.01,.02-.02,.03-.03,.03-.02,.05-.03,.08-.05-.68-1.07-.94-2.31-.72-3.55,.06-.35,.35-2.11,.74-4.14,.24-1.25,.52-2.6,.81-3.79,.14-.56,.28-1.07,.41-1.52h0c.02-.07,.04-.13,.06-.19,0-.02,.02-.04,.02-.06,.79-2.38,2.75-4,5.36-4.45,.11-.02,.22-.03,.33-.05,.03,0,.06-.01,.09-.01h0c.18-.02,.35-.04,.53-.05s.35-.02,.53-.02h.05c.26,0,.52,.02,.79,.05,.07,.08,.14,.16,.2,.24,1,1.19,1.95,2.42,2.86,3.69,.33,.46,.66,.93,.98,1.4,.91,1.35,1.78,2.74,2.59,4.15,.17,.3,.33,.6,.5,.89,.02,.04,.04,.07,.06,.11,.91,1.66,1.74,3.36,2.5,5.1,.2,.45,.39,.9,.57,1.36,.67,1.63,1.27,3.3,1.8,5.01,.56,1.79,1.04,3.6,1.44,5.45h0c.35,1.58,.62,3.18,.85,4.8h0c.06,.37,.1,.73,.14,1.09,.17,1.37,.29,2.76,.36,4.15h0c.03,.5,.05,.99,.06,1.48,.02,.66,.03,1.33,.03,2Z"/><path class="f" d="M186.95,17.51C170.9,6.05,151.96,0,132.18,0s-39.74,6.38-56.06,18.45c-14.1,10.43-24.84,24.26-31.34,40.31-.07,.15-.13,.3-.19,.46,.73-.05,1.46-.1,2.18-.15,0,0,.43-.03,.45-.03,1.06-.07,2.11-.15,3.14-.22,.07-.16,.13-.31,.21-.47C64.68,26.2,96.43,5.18,132.18,5.18c26.52,0,51.16,11.86,67.81,31.28,3.28,.04,6.28,.95,8.67,2.59-5.96-8.24-13.26-15.5-21.71-21.54Zm31.63,105.77c-.5-.5-1-1.02-1.48-1.55-11.75,36.71-45.8,61.82-84.92,61.82-34.39,0-65.05-20-79.83-49.48-2.67-.57-5.15-1.71-7.25-3.31,5.53,13.21,14.05,25.12,25.03,34.7,17.18,15.01,39.22,23.27,62.05,23.27,21.58,0,41.88-7.09,58.73-20.5,13.9-11.06,24.43-25.92,30.29-42.52-.91-.77-1.78-1.58-2.63-2.43Zm-173.24-8.56c-.06,1.59,.03,3.1,.26,4.46,.34,1.96,1.24,3.69,2.55,5.05-1.11-3.09-2.05-6.27-2.81-9.52Z"/><g><path class="f" d="M82.75,147.85c.27,.79,.3,1.58,.1,2.36-.21,.78-.64,1.52-1.3,2.2-.66,.69-1.38,1.14-2.15,1.37-.77,.23-1.55,.21-2.35-.04-.79-.25-1.55-.73-2.28-1.44l-2.08-2.02,6.49-6.7,2.08,2.02c.73,.71,1.23,1.46,1.5,2.25Zm-4.65,4.96c.9-.02,1.75-.44,2.55-1.27,.81-.83,1.21-1.7,1.2-2.62,0-.91-.44-1.78-1.29-2.61l-1.21-1.17-5.1,5.27,1.21,1.17c.87,.84,1.75,1.25,2.64,1.23Z"/><path class="f" d="M86.66,151.72l-1.89,2.48,2.7,2.06-.61,.8-2.7-2.06-1.95,2.55,3.02,2.31-.61,.8-3.98-3.05,5.67-7.41,3.98,3.05-.61,.8-3.02-2.31Z"/><path class="f" d="M88.69,162.17l2.76,1.74-.53,.84-3.79-2.38,4.96-7.9,1.03,.65-4.43,7.06Z"/><path class="f" d="M98.49,158.23l-4.4,8.22-1.07-.57,4.4-8.22,1.07,.57Z"/><path class="f" d="M99.87,161.5c.66-.52,1.39-.83,2.2-.93,.81-.11,1.62,0,2.42,.33,.94,.39,1.67,.96,2.18,1.7,.51,.74,.76,1.6,.73,2.56l-1.35-.56c-.02-.62-.2-1.16-.54-1.63-.33-.47-.81-.83-1.44-1.09-.6-.25-1.2-.33-1.79-.25-.59,.08-1.13,.32-1.62,.73-.48,.4-.87,.95-1.16,1.64-.28,.68-.39,1.34-.34,1.97,.06,.63,.27,1.18,.63,1.66,.36,.48,.84,.84,1.44,1.09,.63,.26,1.22,.34,1.79,.25,.56-.09,1.07-.34,1.53-.77l1.35,.56c-.66,.69-1.44,1.12-2.32,1.28-.89,.16-1.8,.04-2.74-.35-.8-.33-1.45-.82-1.95-1.47-.5-.65-.8-1.38-.9-2.21-.1-.82,.02-1.66,.37-2.5s.85-1.52,1.51-2.03Z"/><path class="f" d="M111.66,163.55l-2.69,8.93-1.17-.35,2.69-8.93,1.17,.35Z"/><path class="f" d="M114.08,173.31c-.62-.53-1.07-1.2-1.34-1.99-.27-.79-.32-1.63-.14-2.53,.17-.89,.53-1.66,1.08-2.29,.55-.63,1.21-1.08,1.99-1.34,.78-.26,1.59-.31,2.44-.15,.86,.17,1.6,.52,2.22,1.05,.62,.54,1.07,1.2,1.33,1.98,.27,.79,.31,1.63,.13,2.53s-.53,1.67-1.07,2.3c-.54,.63-1.2,1.08-1.98,1.34-.78,.26-1.6,.31-2.45,.14-.85-.17-1.58-.52-2.21-1.05Zm4.22-.1c.57-.2,1.05-.54,1.46-1.04,.4-.49,.67-1.1,.81-1.83,.14-.74,.12-1.4-.07-2.01-.19-.6-.51-1.1-.96-1.5-.45-.4-1-.66-1.65-.78-.65-.13-1.26-.09-1.82,.11-.56,.2-1.05,.54-1.45,1.03-.4,.49-.67,1.1-.81,1.84-.14,.73-.12,1.39,.07,2,.18,.61,.5,1.11,.96,1.51,.45,.4,1,.66,1.64,.78,.64,.12,1.24,.09,1.81-.11Z"/><path class="f" d="M125.18,175.26c-.47-.25-.83-.58-1.08-.99-.25-.41-.36-.86-.33-1.37l1.29,.09c.01,.44,.17,.82,.46,1.14,.3,.32,.75,.5,1.35,.54,.58,.04,1.04-.07,1.4-.34,.35-.27,.55-.63,.58-1.08,.02-.36-.05-.65-.23-.89s-.41-.42-.7-.56c-.29-.14-.67-.29-1.16-.46-.6-.2-1.08-.4-1.44-.58-.36-.19-.66-.46-.9-.82-.24-.36-.34-.83-.3-1.41,.03-.51,.19-.95,.48-1.32,.29-.37,.67-.65,1.15-.83,.48-.18,1.02-.25,1.63-.21,.87,.06,1.57,.33,2.1,.8,.53,.47,.8,1.07,.82,1.8l-1.33-.09c-.02-.36-.19-.69-.5-.98-.31-.29-.74-.46-1.28-.5-.51-.03-.93,.07-1.27,.31-.34,.24-.52,.6-.55,1.07-.02,.34,.05,.62,.23,.85,.17,.23,.4,.41,.67,.54,.27,.13,.66,.28,1.16,.46,.6,.21,1.08,.41,1.45,.6,.36,.19,.67,.47,.91,.83,.24,.36,.34,.83,.3,1.42-.03,.45-.18,.87-.45,1.26-.27,.38-.65,.68-1.13,.9-.49,.22-1.05,.3-1.69,.26-.62-.04-1.16-.19-1.63-.44Z"/><path class="f" d="M138.47,173.47l-4.06,.22-.63,2.11-1.28,.07,2.85-9.44,1.4-.08,3.86,9.07-1.28,.07-.86-2.03Zm-.4-.97l-1.94-4.61-1.42,4.79,3.37-.19Z"/><path class="f" d="M144.66,174.57c-.52-.13-.95-.36-1.29-.7s-.56-.75-.66-1.25l1.28-.23c.12,.42,.36,.75,.73,.99,.36,.24,.84,.31,1.44,.2,.57-.1,1-.32,1.27-.67s.38-.74,.3-1.19c-.06-.35-.21-.62-.44-.8-.23-.19-.5-.31-.81-.37-.31-.06-.72-.12-1.24-.16-.63-.05-1.15-.12-1.54-.22-.39-.09-.75-.29-1.07-.58-.32-.29-.53-.72-.63-1.29-.09-.5-.04-.97,.15-1.4,.19-.43,.49-.79,.91-1.09,.42-.29,.93-.49,1.53-.6,.86-.15,1.6-.06,2.23,.27,.63,.33,1.04,.85,1.23,1.55l-1.32,.23c-.11-.34-.35-.62-.72-.83-.37-.21-.83-.27-1.36-.17-.5,.09-.89,.29-1.16,.61-.27,.32-.36,.71-.28,1.17,.06,.33,.2,.59,.43,.77,.23,.18,.49,.3,.79,.36,.29,.06,.71,.12,1.23,.17,.64,.06,1.15,.14,1.55,.23,.4,.1,.76,.29,1.08,.58,.32,.29,.54,.73,.64,1.31,.08,.45,.04,.89-.13,1.33-.17,.44-.46,.82-.88,1.15-.42,.33-.95,.55-1.58,.66-.61,.11-1.17,.1-1.68-.03Z"/><path class="f" d="M161.31,168.12l-3.82,1.41,.02,2.2-1.21,.44-.05-9.86,1.32-.49,6.36,7.53-1.21,.45-1.42-1.69Zm-.67-.81l-3.21-3.83,.05,5,3.16-1.17Z"/><path class="f" d="M170.87,165.91l-3.72-2.37-1.31,.67,1.75,3.39-1.08,.56-4.27-8.29,2.67-1.38c.63-.32,1.21-.49,1.75-.5,.54,0,1.01,.11,1.42,.37,.4,.25,.72,.62,.96,1.08,.29,.57,.39,1.16,.29,1.76-.1,.61-.45,1.15-1.03,1.63l3.87,2.4-1.3,.67Zm-5.48-2.56l1.59-.82c.59-.3,.95-.67,1.1-1.11,.14-.44,.09-.9-.16-1.39-.25-.49-.59-.8-1.02-.92-.43-.12-.94-.03-1.53,.28l-1.59,.82,1.62,3.14Z"/><path class="f" d="M171.21,156.03l1.72,2.6,2.84-1.87,.55,.84-2.84,1.87,1.77,2.68,3.17-2.09,.55,.84-4.19,2.76-5.15-7.79,4.18-2.77,.55,.84-3.17,2.09Z"/><path class="f" d="M182.71,152c-.08,.73-.54,1.45-1.39,2.14l-1.38,1.14,2.47,3.01-.94,.77-5.92-7.2,2.33-1.91c.81-.67,1.59-.98,2.34-.94,.75,.04,1.38,.38,1.88,1,.49,.6,.7,1.27,.61,2Zm-1.15,.07c.06-.43-.08-.86-.43-1.28-.73-.89-1.61-.91-2.62-.07l-1.38,1.14,2.18,2.65,1.38-1.14c.52-.43,.82-.86,.88-1.29Z"/><path class="f" d="M190.69,147.75l-2.81,2.94,.98,1.98-.89,.93-4.36-8.85,.97-1.01,9.02,3.99-.89,.93-2.02-.89Zm-.96-.43l-4.57-2.04,2.24,4.47,2.33-2.43Z"/><path class="f" d="M195.99,144.31c-.47,.26-.94,.38-1.41,.37-.48-.01-.92-.17-1.33-.46l.78-1.04c.38,.23,.78,.3,1.21,.23,.43-.07,.83-.35,1.19-.84,.35-.46,.51-.92,.47-1.36-.03-.44-.23-.8-.59-1.07-.29-.21-.58-.31-.87-.29-.29,.02-.58,.12-.85,.28-.27,.17-.61,.41-1.01,.73-.5,.4-.92,.69-1.27,.89-.35,.2-.74,.3-1.17,.31-.43,0-.88-.17-1.34-.52-.41-.31-.69-.68-.85-1.12-.16-.44-.18-.92-.07-1.42,.11-.5,.35-1,.71-1.48,.52-.7,1.13-1.14,1.81-1.32,.68-.18,1.34-.09,1.96,.29l-.8,1.07c-.31-.18-.68-.22-1.09-.12-.42,.1-.79,.37-1.11,.8-.31,.41-.45,.82-.43,1.23,.02,.42,.22,.76,.59,1.05,.27,.2,.55,.29,.84,.27,.29-.02,.56-.12,.82-.27,.26-.16,.6-.4,1.02-.72,.5-.39,.93-.69,1.29-.89,.36-.2,.75-.3,1.19-.31,.44,0,.89,.16,1.36,.52,.36,.27,.63,.63,.81,1.06,.18,.43,.22,.91,.14,1.44-.08,.53-.32,1.05-.7,1.56-.37,.49-.79,.87-1.25,1.12Z"/></g><path class="h" d="M74.54,75.47c-.74,1.06-1.62,1.96-2.6,2.62,.19-.77,.4-1.53,.62-2.29,1.2-4.15,2.82-8.13,4.8-11.87,.66,3.34-.43,8.19-2.81,11.54Z"/><path class="h" d="M195.78,93.73c0,.64,0,1.27-.03,1.9-.07,2.64-.31,5.24-.7,7.8-.92,.61-1.55,.72-2.03,.81-.39,.06-.81,.1-1.29,.1-.39,0-.81-.02-1.24-.06-.24-.02-.48-.05-.73-.08-.24-.03-.49-.07-.75-.12-.12-.02-.23-.05-.36-.07h0c-.39-.08-.79-.18-1.19-.28-.14-.04-.28-.08-.43-.12-.08-.03-.16-.05-.24-.07-1.02-.33-2.04-.77-2.99-1.32-.2-.12-.4-.24-.58-.37-.27,.35-.52,.68-.75,.98-.87,1.09-1.61,1.88-2.25,2.46-.16,.15-.32,.29-.47,.41-.07,.06-.15,.12-.22,.18-.07,.06-.14,.11-.21,.16-.16,.12-.32,.22-.47,.31-.11,.06-.22,.12-.31,.18-.07,.03-.13,.07-.19,.1-.06,.03-.12,.06-.18,.08-.45,.18-.81,.25-1.1,.3-.38,.07-.79,.1-1.24,.1s-.95-.03-1.5-.11l-.5-.07-.58-.13-1.19-.27s0,0-.01,0l-.08-.02-.84-.27c-1.12-.4-2.25-.94-3.29-1.65-.98,1.31-1.81,2.26-2.52,2.97-.17,.16-.33,.32-.49,.46-.33,.3-.64,.54-.91,.73-.11,.09-.23,.15-.33,.22-.09,.06-.17,.11-.25,.15-.22,.12-.41,.21-.58,.28-.08,.03-.15,.06-.23,.08-.01,0-.02,.01-.03,.01-.08,.03-.16,.05-.23,.07-.2,.05-.36,.08-.52,.11-.38,.07-.78,.1-1.23,.1-.37,0-.8-.02-1.27-.08-.11-.01-.23-.03-.35-.05-.07-.01-.15-.02-.23-.03-.13-.02-.26-.04-.39-.06-.57-.11-1.18-.25-1.8-.44-.14-.04-.27-.08-.4-.12-.11-.03-.21-.07-.31-.11l-.41-.15c-1.65-.64-3.29-1.59-4.55-2.96-.2-.23-.4-.46-.59-.7-.1-.13-.19-.26-.28-.4-.03-.04-.05-.08-.08-.12-.06-.09-.11-.18-.17-.27-.08-.14-.16-.28-.23-.42-.07-.13-.13-.26-.19-.39-.01-.02-.02-.03-.02-.05-.01-.02-.02-.04-.03-.06-.05-.11-.1-.24-.14-.36-.02-.05-.03-.09-.05-.13-.05-.12-.09-.24-.12-.37-.05-.15-.09-.3-.12-.45-.05-.19-.09-.38-.12-.58-.33-1.94-.2-4.42,.43-7.53-.23,.42-.45,.83-.68,1.26-.11,.53-.31,1.06-.57,1.57-1.45,2.85-3.02,5.57-5.44,7.71-.41,.36-.85,.72-1.32,1.04-.16,.11-.33,.23-.5,.33-.14,.09-.28,.18-.42,.26-.14,.09-.29,.18-.44,.26-.33,.19-.67,.36-1.03,.53-.15,.07-.31,.14-.46,.2-.16,.07-.32,.14-.48,.2-.16,.06-.33,.12-.5,.19-.34,.12-.69,.24-1.05,.35-2.62,3.44-5.87,5.99-9.48,7.43-1.27,.51-2.58,.89-3.92,1.11-1.25,.22-2.46,.32-3.6,.32-.4,0-.8-.01-1.19-.04-.44-.03-.87-.08-1.29-.15-.21-.03-.42-.07-.62-.11-.2-.04-.4-.09-.6-.13-.01,0-.03,0-.04-.01-.36-.09-.7-.19-1.04-.31-.18-.06-.35-.12-.51-.19-.18-.07-.36-.14-.53-.22-.18-.08-.35-.16-.51-.24-.17-.09-.33-.17-.5-.27-.12-.07-.25-.14-.37-.22-.07-.04-.14-.09-.21-.13-.12-.07-.24-.16-.36-.24-.07-.05-.14-.09-.2-.15-.06-.05-.12-.09-.18-.14-.18-.13-.35-.27-.51-.41-.14-.11-.27-.23-.4-.36s-.26-.26-.39-.39c-.09-.09-.18-.18-.26-.27-.18-.19-.34-.39-.51-.6-1-1.26-1.77-2.76-2.29-4.48-1,1.34-1.95,2.53-2.75,3.49-.16,.19-.33,.4-.52,.62-.24,.29-.51,.6-.8,.93h0c-.17,.2-.35,.4-.53,.61-.49,.56-1.04,1.15-1.61,1.75-2.89,3.02-6.59,6.33-9.35,6.8-.59,.1-1.24,.15-1.94,.15-.18,0-.37,0-.55-.01-.11,0-.22,0-.33-.02-.12,0-.26-.01-.38-.02-.1,0-.2-.02-.3-.03-.27-.02-.54-.06-.82-.1-.19-.03-.38-.06-.57-.1-.2-.04-.4-.08-.6-.12-.2-.05-.4-.1-.6-.15-1.53-.41-2.97-1.04-4.22-1.9-1.19,1.62-2.16,2.72-2.97,3.46-.2,.19-.4,.35-.58,.49-.29-.55-.57-1.1-.84-1.66-.69-1.42-1.34-2.87-1.93-4.36h0c-.56-1.41-1.07-2.83-1.52-4.28h0c-.26-.82-.51-1.64-.73-2.47-.08-.3-.16-.6-.24-.91h0c-.21-.82-.4-1.64-.58-2.46-.94-4.36-1.44-8.89-1.44-13.55,0-1.04,.03-2.08,.08-3.12h0c.03-.77,.09-1.54,.15-2.3,.73-.53,1.57-.89,2.49-1.04,.4-.07,.85-.11,1.32-.11,1.03,0,2.26,.18,3.45,.6,.35,.12,.7,.27,1.04,.44,1.03,.51,1.97,1.23,2.63,2.22,.33,.49,.57,1.02,.73,1.57,.44-1.12,.92-2.26,1.42-3.46,.06-.13,.11-.26,.18-.39,.12-.26,.26-.49,.4-.73,.07-.11,.15-.23,.23-.33,.03-.05,.07-.09,.11-.14,.11-.15,.23-.29,.35-.43,.05-.05,.1-.1,.15-.15,.06-.07,.13-.14,.2-.2,.02-.02,.05-.05,.07-.06,.06-.05,.11-.1,.16-.14,.06-.06,.13-.11,.2-.16,.03-.03,.07-.06,.1-.08,.03-.02,.07-.05,.1-.08,.07-.05,.14-.1,.22-.14,.07-.04,.14-.09,.21-.12,0,0,0,0,0,0,.06-.04,.12-.07,.18-.1,0-.01,.01-.01,.02-.01,.07-.05,.15-.08,.22-.11,0,0,.01,0,.02,0,.06-.03,.11-.05,.18-.08,.02-.01,.03-.02,.05-.02,.08-.04,.16-.07,.24-.1,.11-.05,.22-.09,.34-.12,0,0,.02-.01,.03-.01,.12-.04,.26-.07,.39-.11,.13-.03,.26-.06,.39-.08,.4-.07,.85-.11,1.32-.11,2.29,0,5.52,.86,7.13,3.26,1.05,1.57,1.22,3.52,.48,5.35-.03,.07-.06,.14-.09,.23-.02,.03-.03,.07-.04,.11-.16,.45-.36,1.04-.57,1.73-.05,.16-.09,.32-.14,.48-.01,.02-.02,.05-.02,.07-.03,.08-.06,.16-.08,.26-.46,1.55-.99,3.46-1.49,5.39h0c-.09,.32-.17,.64-.25,.95,.11-.19,.22-.39,.33-.58,.14-.26,.28-.51,.42-.77,.14-.27,.28-.53,.41-.81,.08-.16,.16-.32,.24-.48,.62-1.25,1.19-2.59,1.67-3.96,.07-.2,.14-.4,.2-.61,.09-.25,.16-.5,.24-.75,.09-.3,.18-.6,.26-.9,.05-.16,.09-.32,.12-.48,.05-.18,.09-.36,.13-.54,.04-.18,.08-.36,.11-.54,0-.02,.01-.03,.01-.05,.99-4.49,.66-6.29,.38-6.96-.03-.1-.07-.2-.11-.3-.41-1.27-.24-2.65,.46-3.8,.78-1.29,2.14-2.19,3.73-2.47,.53-.09,1.06-.14,1.59-.14,.15,0,.3,0,.45,.01,.17,0,.33,.02,.51,.04,.09,.01,.19,.02,.28,.03,.08,.01,.16,.02,.24,.04,.37,.06,.74,.14,1.1,.25,.08,.02,.15,.04,.23,.07,.28,.09,.57,.19,.84,.31,.22,.09,.43,.19,.63,.29,.23,.12,.47,.24,.69,.38,.11,.06,.22,.13,.32,.2,.11,.07,.21,.14,.31,.21,.11,.07,.22,.15,.32,.23,.08,.06,.15,.11,.23,.17,.12,.1,.24,.2,.36,.3,.24,.2,.47,.42,.69,.65,.85,.87,1.56,1.88,2.09,3,1.1-1.15,2.29-2.16,3.54-3.01,.32-.22,.64-.42,.96-.61,.41-.25,.83-.48,1.25-.69,.14-.07,.27-.14,.41-.2,.19-.1,.39-.19,.58-.27,1.39-.62,2.85-1.06,4.34-1.32,1.21-.21,2.38-.31,3.48-.31,.86,0,1.7,.06,2.5,.19,.23,.03,.45,.08,.68,.12l.09,.02c.15,.03,.3,.07,.44,.11,.19,.05,.39,.1,.57,.15,1.7,.5,3.21,1.31,4.49,2.41-.19-1.09-.02-2.2,.49-3.18,.06-.11,.12-.22,.19-.32,.01-.02,.03-.06,.05-.08,.06-.1,.12-.19,.19-.27,.07-.1,.15-.19,.22-.27,.05-.06,.09-.1,.14-.15,.09-.09,.17-.17,.26-.25,.06-.06,.12-.11,.19-.16,.05-.04,.1-.08,.15-.12,.07-.06,.15-.11,.23-.16t.02-.01c.09-.06,.19-.12,.29-.18,.03-.02,.06-.04,.1-.05,0,0,0,0,.01,0,.1-.06,.2-.11,.31-.16,.09-.04,.19-.08,.27-.11,.07-.03,.13-.05,.2-.07,.22-.07,.45-.13,.68-.17,.22-.04,.46-.06,.68-.06,.19,0,.37,.02,.52,.03,.71-.07,3.03-.38,6.98-1.06,3.37-.58,6.97-1.24,8.92-1.6,.79-.15,1.35-.25,1.55-.28,.41-.07,.85-.1,1.32-.1,.57,0,1.18,.05,1.82,.16,.26,.05,.52,.1,.78,.17,.1,.03,.2,.05,.3,.08,.04,.02,.08,.03,.12,.04,.14,.04,.28,.09,.42,.14,.24,.09,.49,.18,.73,.29,.11,.05,.22,.1,.32,.15,.07,.03,.13,.06,.19,.1,.13,.07,.26,.14,.39,.22,.81,.48,1.52,1.11,2.06,1.91,.33,.49,.57,1.02,.72,1.57,.44-1.12,.91-2.27,1.42-3.45,.06-.15,.12-.3,.2-.44,.01-.02,.02-.05,.04-.07,.06-.12,.12-.24,.19-.36,.01-.01,.02-.02,.02-.03,.09-.14,.18-.28,.27-.41,.07-.09,.13-.18,.2-.27,.04-.06,.09-.11,.13-.16,.07-.09,.15-.18,.23-.26,.03-.03,.06-.07,.09-.1,.1-.1,.2-.2,.3-.29,0,0,.02-.01,.02-.02,.11-.1,.22-.2,.34-.28,.09-.07,.18-.14,.27-.2,.01-.01,.02-.02,.03-.03,.03-.02,.05-.03,.08-.05-.68-1.07-.94-2.31-.72-3.55,.06-.35,.35-2.11,.74-4.14,.24-1.25,.52-2.6,.81-3.79,.14-.56,.28-1.07,.41-1.52h0c.02-.07,.04-.13,.06-.19,0-.02,.02-.04,.02-.06,.79-2.38,2.75-4,5.36-4.45,.11-.02,.22-.03,.33-.05,.03,0,.06-.01,.09-.01h0c.18-.02,.35-.04,.53-.05s.35-.02,.53-.02h.05c.15,.18,.3,.36,.44,.54,.98,1.2,1.92,2.43,2.81,3.7,.07,.1,.14,.21,.22,.31,.25,.36,.49,.72,.73,1.08,.48,.72,.94,1.45,1.38,2.18,.39,.63,.75,1.27,1.11,1.91,.3,.53,.59,1.07,.87,1.62,.01,.02,.02,.03,.03,.05h0c.74,1.44,1.43,2.88,2.07,4.36,.11,.26,.22,.52,.33,.78,.19,.46,.38,.93,.56,1.4,.27,.7,.53,1.41,.77,2.12,.05,.14,.11,.28,.15,.43,.31,.92,.6,1.86,.87,2.8,.03,.09,.06,.19,.09,.28,.23,.81,.44,1.61,.64,2.43h0c.19,.82,.37,1.62,.53,2.45,.16,.8,.3,1.61,.43,2.42,.18,1.13,.33,2.27,.45,3.42,.01,.07,.02,.15,.03,.23h0c.07,.75,.14,1.51,.18,2.27h0c.06,.87,.09,1.73,.11,2.6,.01,.31,.01,.62,.02,.94,0,.22,0,.43,0,.65Z"/><g><path class="h" d="M77.36,63.93c-.03-.15-.06-.3-.1-.44-.03-.12-.07-.24-.1-.36-.01-.05-.03-.09-.05-.12-.66-1.9-2.37-3.12-4.35-3.12-.28,0-.57,.02-.87,.07-1.2,.21-2.24,.8-2.97,1.67-.9,.95-3.86,2.24-7.91,2.94-4.03,.69-8.68,1.01-13.6,1.35h-.07c-1.82,.12-3.64,.25-5.49,.4-4.21,.33-8.52,.77-12.95,1.53-4.1,.7-8.02,1.66-11.68,2.86C5.6,74.57,.21,83.09,0,89.85c-.08,3.42,1.21,6.75,3.56,9.14,2,2.05,4.52,3.18,7.09,3.18,.48,0,.96-.04,1.44-.12,.17-.03,.33-.07,.49-.11-.52,1.39-.79,2.91-.86,4.36-.09,1.59,.41,3.06,1.41,4.11,.91,.97,2.15,1.5,3.46,1.5,.27,0,.54-.02,.81-.07,.29-.05,.54-.12,.78-.2-3.38,12.67-2.93,15.28-2.72,16.48,.79,4.59,5.22,7.29,9.47,8.09,.47,.09,.94,.16,1.41,.2,.12,.01,.24,.02,.35,.02,.22,0,.44-.02,.66-.06,2.61-.45,4.15-2.25,4.22-4.94v-.18c0-.56,.26-3.19,.69-6.46,.45-3.37,1.92-9.71,3.55-16.41,.96-.15,1.9-.3,2.79-.44,.15-.02,.31-.05,.47-.07,.45-.07,.89-.14,1.31-.2,.42-.07,.82-.13,1.21-.19,.78-.12,1.49-.24,2.14-.35,1.19-.19,2.13-.35,2.75-.45,.12-.02,.22-.03,.32-.05,.63-.11,1.2-.3,1.74-.56h0c3.22-1.54,4.59-5.53,4.78-9.09,.01-.18,.02-.36,0-.53h0c-.02-.67-.15-1.29-.37-1.88-.24-.61-.6-1.17-1.05-1.66-.64-.68-1.45-1.15-2.33-1.37-.39-.1-.79-.15-1.19-.15-.07,0-.13,0-.2,0-.2,.01-.42,.03-.62,.07-.54,.09-.98,.28-1.28,.45-.04,.01-.09,.02-.13,.03-.63,.17-1.83,.41-3.31,.69-.92,.17-1.95,.36-3.02,.55,1.27-4.76,2.45-8.98,3.23-11.82,.24,0,.48,0,.71,0,1.16-.01,2.31-.02,3.44-.03,6.8-.04,13.23-.07,18.1-.91,2.59-.45,4.63-1.12,6.21-2.04,.1-.06,.2-.12,.3-.18,.02-.01,.05-.03,.07-.04,.03-.02,.05-.04,.09-.06,.98-.66,1.86-1.57,2.6-2.62,2.39-3.35,3.47-8.21,2.81-11.54ZM15.17,93.65c0-2.34,.69-4.21,1.76-5.69h0c1.23-1.7,2.96-2.9,4.74-3.75h0c1.92-.93,3.9-1.44,5.33-1.71-.09,.28-.19,.58-.29,.87-1.17,3.54-2.59,7.94-4.02,12.58-1.04,.17-1.96,.31-2.72,.43-.68,.1-1.23,.18-1.61,.25-.05,.01-.09,.02-.13,.02-.72,.12-1.36,.35-1.94,.65,.02-.95-.27-1.88-.83-2.66-.26-.33-.31-.5-.3-.93v-.06Z"/><path class="h" d="M93.5,106.41h0c-.21,.95-.57,1.88-1.06,2.77-.52,.95-1.02,1.86-1.5,2.72-.88,1.57-1.74,3.04-2.56,4.39-.37,.61-.74,1.2-1.09,1.76-.77,1.22-1.52,2.34-2.22,3.33-1.53-.41-2.97-1.04-4.22-1.9-1.19,1.62-2.16,2.72-2.97,3.46-.2,.19-.4,.35-.58,.49-.08,.06-.16,.12-.23,.18-.03,.03-.07,.05-.1,.07-.98,.71-1.66,.83-2.22,.93-.39,.06-.81,.1-1.26,.1-2.34,0-5.36-.77-7.79-2.41-2.48,3-4.97,4.72-7.45,5.15-.65,.11-1.32,.17-2,.17-3.35,0-6.3-1.27-8.3-3.36h0c-1.32-1.37-2.21-3.1-2.55-5.06-.23-1.36-.32-2.87-.26-4.46h0c0-.14,0-.27,.02-.4,0-.15,.02-.3,.02-.44,.03-.42,.06-.84,.11-1.27,.04-.39,.09-.78,.15-1.17,.01-.08,.02-.15,.03-.23,.02-.15,.05-.3,.07-.45,.23-1.36,.53-2.73,.92-4.09-.62,.1-1.57,.26-2.75,.45-.65,.1-1.36,.22-2.14,.35,.15-.66,.32-1.31,.5-1.95,.01-.03,.02-.06,.02-.09,.41-1.44,.9-2.85,1.45-4.2,.19-.47,.39-.92,.6-1.37,.98-2.15,2.12-4.11,3.39-5.86,.64-.89,1.32-1.71,2.03-2.48,.88,.23,1.7,.7,2.33,1.37,.45,.48,.81,1.04,1.05,1.66,.94-1.03,1.95-1.92,3-2.68,.12-.09,.24-.16,.36-.25,.06-.04,.12-.09,.18-.12,.32-.22,.64-.42,.96-.61,.36-.21,.72-.4,1.09-.58,.13-.06,.26-.12,.39-.18,1.2-.54,2.45-.92,3.73-1.14,.9-.16,1.76-.23,2.58-.23,1.38,0,2.67,.23,3.82,.67,.24-.29,.5-.56,.78-.79,.14-.12,.28-.23,.43-.34,.73-.53,1.57-.89,2.49-1.04,.4-.07,.85-.11,1.32-.11,1.03,0,2.26,.18,3.45,.6,.35,.12,.7,.27,1.04,.44,1.03,.51,1.97,1.23,2.63,2.22,.33,.49,.57,1.02,.73,1.57,.44-1.12,.92-2.26,1.42-3.46,.06-.13,.11-.26,.18-.39,.12-.26,.26-.49,.4-.73,.07-.11,.15-.23,.23-.33,.03-.05,.07-.09,.11-.14,.25,.3,.49,.61,.71,.95,.1,.15,.19,.28,.28,.44h0c.45,.76,.79,1.57,1.03,2.42,.37,1.3,.47,2.64,.31,3.97,1.15,.32,2.24,.85,3.2,1.55,1,.73,1.87,1.66,2.54,2.75,.02,.02,.08,.12,.08,.12,1.3,2.2,1.67,4.77,1.1,7.24Z"/><path class="h" d="M88.48,101.47l-.03-.07s0,0,0,0c-.94-1.52-2.62-2.47-4.42-2.47-.3,0-.6,.03-.9,.08-.78,.13-1.51,.43-2.18,.9h0c-.27,.19-.53,.4-.78,.64,.58-2.08,1.12-3.83,1.48-4.73,.53-1.27,.61-2.6,.27-3.81-.16-.55-.4-1.08-.73-1.57-.66-.99-1.6-1.72-2.63-2.22-.34-.17-.69-.32-1.04-.44-1.19-.42-2.42-.6-3.45-.6-.47,0-.91,.03-1.32,.11-.92,.15-1.75,.51-2.49,1.04-.15,.11-.3,.22-.43,.34-.28,.24-.54,.51-.78,.79-1.15-.44-2.43-.67-3.82-.67-.81,0-1.68,.07-2.58,.23-1.29,.22-2.54,.6-3.73,1.14-.13,.05-.26,.11-.39,.18-.37,.18-.73,.37-1.09,.58-.32,.19-.65,.39-.96,.61-.06,.03-.12,.08-.18,.12-.12,.09-.24,.16-.36,.25-1.06,.76-2.07,1.65-3,2.68-1.8,1.95-3.38,4.37-4.67,7.2-.72,1.57-1.33,3.23-1.8,4.92-.39,1.36-.7,2.73-.92,4.09-.02,.15-.05,.3-.07,.45-.01,.08-.02,.15-.03,.23-.06,.39-.11,.78-.15,1.17-.05,.43-.08,.85-.11,1.27,0,.14-.02,.29-.02,.44-.01,.13-.02,.26-.02,.39h0c-.06,1.6,.02,3.1,.26,4.47,.34,1.96,1.24,3.69,2.55,5.06h0c2,2.1,4.95,3.37,8.3,3.37,.68,0,1.35-.06,2-.17,2.48-.43,4.97-2.15,7.45-5.15,2.42,1.63,5.44,2.41,7.79,2.41,.45,0,.87-.03,1.26-.1,.56-.1,1.24-.22,2.22-.93,.03-.02,.07-.04,.1-.07,.07-.05,.15-.11,.23-.18,.18-.14,.37-.31,.58-.49,.81-.74,1.78-1.83,2.97-3.46,.78-1.05,1.64-2.33,2.62-3.86,1.04-1.65,2.21-3.61,3.52-5.94,0,0,0,0,0-.01,.47-.84,.96-1.74,1.48-2.67,.99-1.8,1-3.85,.02-5.52Zm-25.34,2.98c-.3,.99-.69,2.09-1.19,3.26-.12,.28-.24,.54-.36,.8,.4-1.37,.92-2.77,1.55-4.06Z"/><path class="h" d="M118.76,94.35c-.18,.7-.4,1.42-.66,2.16-.44,1.26-.98,2.57-1.63,3.91-1.04,2.16-2.37,4.43-3.95,6.79-.39,.58-.78,1.16-1.19,1.73-.33,.46-.66,.91-.99,1.36-.44,.58-.89,1.17-1.35,1.76-1-1.26-1.77-2.76-2.29-4.48-1,1.34-1.95,2.53-2.75,3.49-.16,.19-.33,.4-.52,.62-.24,.29-.51,.6-.8,.93h0c-.17,.2-.35,.4-.53,.61-.49,.56-1.04,1.15-1.61,1.75-2.89,3.02-6.59,6.33-9.35,6.8-.59,.1-1.24,.15-1.94,.15-.18,0-.37,0-.55-.01-.11,0-.22,0-.33-.02-.12,0-.26-.01-.38-.02-.1,0-.2-.02-.3-.03-.27-.02-.54-.06-.82-.1-.19-.03-.38-.06-.57-.1-.2-.04-.4-.08-.6-.12-.2-.05-.4-.1-.6-.15-1.53-.41-2.97-1.04-4.22-1.9-1.19,1.62-2.16,2.72-2.97,3.46-.51-.36-.98-.75-1.42-1.17-.23-.21-.45-.43-.65-.65-.83-.89-1.52-1.85-2.06-2.89-.51-.99-.89-2.04-1.13-3.14-.05-.19-.09-.38-.12-.58-.05-.3-.1-.61-.12-.93-.06-.53-.1-1.07-.1-1.64-.02-.41-.01-.84,0-1.28,.04-1.13,.16-2.36,.37-3.67,.71-4.47,2.36-9.92,5.04-16.66,.26-.66,.54-1.36,.86-2.12,1.03,.51,1.97,1.23,2.63,2.22,.33,.49,.57,1.02,.73,1.57,.44-1.12,.92-2.26,1.42-3.46,.06-.13,.11-.26,.18-.39,.12-.26,.26-.49,.4-.73,.07-.11,.15-.23,.23-.33,.03-.05,.07-.09,.11-.14,.11-.15,.23-.29,.35-.43,.05-.05,.1-.1,.15-.15,.06-.07,.13-.14,.2-.2,.02-.02,.05-.05,.07-.06,.06-.05,.11-.1,.16-.14,.06-.06,.13-.11,.2-.16,.03-.03,.07-.06,.1-.08,.03-.02,.07-.05,.1-.08,.07-.05,.14-.1,.22-.14,.07-.04,.14-.09,.21-.12,0,0,0,0,0,0,.06-.04,.12-.07,.18-.1,0-.01,.01-.01,.02-.01,.07-.05,.15-.08,.22-.11,0,0,.01,0,.02,0,.06-.03,.11-.05,.18-.08,.02-.01,.03-.02,.05-.02,.08-.04,.16-.07,.24-.1,.11-.05,.22-.09,.34-.12,0,0,.02-.01,.03-.01,.12-.04,.26-.07,.39-.11,.13-.03,.26-.06,.39-.08,.4-.07,.85-.11,1.32-.11,2.29,0,5.52,.86,7.13,3.26,1.05,1.57,1.22,3.52,.48,5.35-.03,.07-.06,.14-.09,.23-.02,.03-.03,.07-.04,.11-.16,.45-.36,1.04-.57,1.73-.05,.16-.09,.32-.14,.48-.01,.02-.02,.05-.02,.07-.03,.08-.06,.16-.08,.26-.46,1.55-.99,3.46-1.49,5.39h0c-.09,.32-.17,.64-.25,.95,.11-.19,.22-.39,.33-.58,.14-.26,.28-.51,.42-.77,.14-.26,.28-.53,.41-.81,.08-.16,.16-.32,.24-.48,.62-1.25,1.19-2.59,1.67-3.96,.07-.2,.14-.4,.2-.61,.09-.25,.16-.5,.24-.75,.09-.3,.18-.6,.26-.9,.05-.16,.09-.32,.12-.48,.05-.18,.09-.36,.13-.54,.04-.18,.08-.36,.11-.54,0-.02,.01-.03,.01-.05,.99-4.49,.66-6.29,.38-6.96-.03-.1-.07-.2-.11-.3-.41-1.27-.24-2.65,.46-3.8,.78-1.29,2.14-2.19,3.73-2.47,.53-.09,1.06-.14,1.59-.14,.15,0,.3,0,.45,.01,.17,0,.33,.02,.51,.04,.09,.01,.19,.02,.28,.03,.08,.01,.16,.02,.24,.04,.37,.06,.74,.14,1.1,.25,.08,.02,.15,.04,.23,.07,.28,.09,.57,.19,.84,.31,.22,.09,.43,.19,.63,.29,.23,.12,.47,.24,.69,.38,.11,.06,.22,.13,.32,.2,.11,.07,.21,.14,.31,.21,.11,.07,.22,.15,.32,.23,.08,.06,.15,.11,.23,.17,.12,.1,.24,.2,.36,.3,.24,.2,.47,.42,.69,.65,.85,.87,1.56,1.88,2.09,3,1.1-1.15,2.29-2.16,3.54-3.01,.2,.35,.39,.7,.56,1.07,.05,.1,.1,.2,.14,.31,.29,.64,.52,1.28,.7,1.91,.16,.52,.29,1.06,.39,1.66,.47,2.76,.35,5.36-.36,8Z"/><path class="h" d="M114.36,93.18c-1,3.91-3.27,8.01-5.61,11.51-.68,1.02-1.37,1.99-2.04,2.89-1,1.34-1.95,2.53-2.75,3.49-.16,.19-.33,.4-.52,.62-.24,.29-.51,.6-.8,.93h0c-.17,.2-.35,.4-.53,.61-.49,.56-1.04,1.15-1.61,1.75-2.89,3.02-6.59,6.33-9.35,6.8-.59,.1-1.24,.15-1.94,.15-.18,0-.37,0-.55-.01-.11,0-.22,0-.33-.02-.12,0-.26-.01-.38-.02-.1,0-.2-.02-.3-.03-.27-.02-.54-.06-.82-.1-.19-.03-.38-.06-.57-.1-.2-.04-.4-.08-.6-.12-.2-.05-.4-.1-.6-.15-1.53-.41-2.97-1.04-4.22-1.9-1.9-1.3-3.32-3.11-3.8-5.41-.03-.11-.05-.21-.07-.32-.28-1.61-.22-3.63,.16-6.06,.65-4.1,2.24-9.34,4.77-15.69,.44-1.12,.92-2.26,1.42-3.46,.06-.13,.11-.26,.18-.39,.12-.26,.26-.49,.4-.73,.07-.11,.15-.23,.23-.33,.03-.05,.07-.09,.11-.14,.11-.15,.23-.29,.35-.43,.05-.05,.1-.1,.15-.15,.06-.07,.13-.14,.2-.2,.02-.02,.05-.05,.07-.06,.06-.05,.11-.1,.16-.14,.06-.06,.13-.11,.2-.16,.03-.03,.07-.06,.1-.08,.03-.02,.07-.05,.1-.08,.07-.05,.14-.1,.22-.14,.07-.04,.14-.09,.21-.12,0,0,0,0,0,0,.06-.04,.12-.07,.18-.1,0-.01,.01-.01,.02-.01,.07-.05,.15-.08,.22-.11,0,0,.01,0,.02,0,.06-.03,.11-.05,.18-.08,.02-.01,.03-.02,.05-.02,.08-.04,.16-.07,.24-.1,.11-.05,.22-.09,.34-.12,0,0,.02-.01,.03-.01,.12-.04,.26-.07,.39-.11,.13-.03,.26-.06,.39-.08,.4-.07,.85-.11,1.32-.11,2.29,0,5.52,.86,7.13,3.26,1.05,1.57,1.22,3.52,.48,5.35-.03,.07-.06,.14-.09,.23-.02,.03-.03,.07-.04,.11-.16,.45-.36,1.04-.57,1.73-.05,.16-.09,.32-.14,.48-.01,.02-.02,.05-.02,.07-.03,.08-.06,.16-.08,.26-.46,1.55-.99,3.46-1.49,5.39h0c-.09,.32-.17,.64-.25,.95,.11-.19,.22-.39,.33-.58,.14-.26,.28-.51,.42-.77,.14-.26,.28-.53,.41-.81,.08-.16,.16-.32,.24-.48,.62-1.25,1.19-2.59,1.67-3.96,.07-.2,.14-.4,.2-.61,.09-.25,.16-.5,.24-.75,.1-.3,.18-.6,.26-.9,.05-.16,.09-.32,.12-.48,.05-.18,.09-.36,.13-.54,.04-.18,.08-.36,.11-.54,0-.02,.01-.03,.01-.05,.99-4.49,.66-6.29,.38-6.96-.03-.1-.07-.2-.11-.3-.41-1.27-.24-2.65,.46-3.8,.78-1.29,2.14-2.19,3.73-2.47,.53-.09,1.06-.14,1.59-.14,.15,0,.3,0,.45,.01,.17,0,.33,.02,.51,.04,.09,.01,.19,.02,.28,.03,.08,.01,.16,.02,.24,.04,.37,.06,.74,.14,1.1,.25,.08,.02,.15,.04,.23,.07,.28,.09,.57,.19,.84,.31,.22,.09,.43,.19,.63,.29,.23,.12,.47,.24,.69,.38,.11,.06,.22,.13,.32,.2,.11,.07,.21,.14,.31,.21,.11,.07,.22,.15,.32,.23,.08,.06,.15,.11,.23,.17,.12,.1,.24,.2,.36,.3,.24,.2,.47,.42,.69,.65,.85,.87,1.56,1.88,2.09,3,.24,.51,.44,1.03,.6,1.57h0c.11,.38,.2,.77,.27,1.16,.35,2.07,.26,4.05-.29,6.04Z"/><path class="f" d="M79.14,111.38c-1.02-5.94,4.55-19.38,6.1-23.03,.4-.95,1.04-1.47,1.82-1.6,1.64-.28,5.74,.62,4.66,3.22-1.24,3.11-5.1,17.62-4.77,19.5,.17,1.02,.58,1.51,1.83,1.29,2.66-.46,9.85-10.15,11.82-19.75,.59-2.68,1.27-6.66,.17-9.29-.17-.53,.37-1.11,1.15-1.25,3.52-.61,6.68,2.31,7.24,5.6,.23,1.33,.24,2.78-.21,4.38-2.54,10.02-16.44,25.13-20.12,25.76-2.82,.48-8.99-.79-9.69-4.85Z"/><path class="h" d="M147.82,91.26c-.68-1.15-1.78-1.99-3.05-2.34h0c-.45-.13-.92-.2-1.4-.2-.3,0-.6,.03-.9,.08-.33,.06-.65,.14-.96,.26h-.01s-.04,.02-.06,.03c-.36-2.13-1.1-4.09-2.22-5.74-.39-.58-.82-1.11-1.3-1.6-.25-.27-.51-.51-.78-.74-1.28-1.1-2.79-1.91-4.49-2.41-.19-.06-.38-.11-.57-.15-.14-.04-.3-.07-.44-.11l-.09-.02c-.22-.05-.45-.09-.68-.12-.8-.13-1.63-.19-2.5-.19-1.11,0-2.28,.1-3.48,.31-1.49,.26-2.95,.7-4.34,1.32-.2,.09-.39,.18-.58,.27-.14,.06-.28,.13-.41,.2-.43,.21-.84,.44-1.25,.69-.32,.19-.64,.4-.96,.61-1.25,.86-2.44,1.86-3.54,3.01-1.48,1.54-2.81,3.33-3.96,5.35-2.99,5.24-4.36,11.3-3.59,15.81,.12,.7,.27,1.37,.47,2,.52,1.72,1.29,3.22,2.29,4.48,.16,.21,.33,.41,.51,.6,.08,.09,.16,.18,.26,.27,.13,.14,.26,.27,.39,.39s.26,.24,.4,.36c.16,.15,.33,.28,.51,.41,.06,.05,.12,.09,.18,.14,.07,.06,.14,.1,.2,.15,.11,.09,.23,.17,.36,.24,.07,.05,.14,.09,.21,.13,.12,.08,.25,.15,.37,.22,.16,.1,.33,.18,.5,.27,.16,.09,.33,.16,.51,.24,.17,.08,.35,.15,.53,.22,.16,.07,.33,.13,.51,.19,.34,.12,.69,.22,1.04,.31,.01,0,.03,0,.04,.01,.2,.05,.4,.09,.6,.13,.2,.05,.41,.08,.62,.11,.42,.07,.85,.11,1.29,.15,.39,.03,.78,.04,1.19,.04,1.13,0,2.35-.11,3.6-.32,1.34-.23,2.65-.6,3.92-1.11,3.61-1.45,6.87-4,9.48-7.43,.36-.11,.71-.22,1.05-.35,.16-.06,.33-.12,.5-.19,.16-.06,.32-.13,.48-.2,.15-.07,.31-.14,.46-.2,.36-.16,.7-.34,1.03-.53,.15-.08,.29-.16,.44-.26,.14-.09,.28-.17,.42-.26,.17-.11,.33-.22,.5-.33,.47-.32,.91-.68,1.32-1.04,2.42-2.14,3.98-4.86,5.44-7.71,.27-.51,.47-1.04,.57-1.57,.3-1.34,.09-2.71-.6-3.88Zm-21.11,2.82c-.43-2.51,1.23-3.79,1.66-4,.06,0,.12-.01,.18-.02,.33,.87,.24,3.17-.65,5.84-.6-.45-1.06-1.05-1.19-1.83Z"/><path class="h" d="M179.48,94.16c-.1,.19-.2,.38-.3,.57-.33,.61-.66,1.21-.99,1.8-.03,.07-.07,.15-.11,.22-.71,1.28-1.4,2.49-2.09,3.64-.12,.2-.24,.4-.36,.6-.11,.18-.22,.36-.32,.53-.33,.55-.67,1.09-1,1.62-.77,1.23-1.53,2.35-2.24,3.35l-.08-.02-.84-.27c-1.12-.4-2.25-.94-3.29-1.65-.98,1.31-1.81,2.26-2.52,2.97-.17,.16-.33,.32-.49,.46-.33,.3-.64,.54-.91,.73-.11,.09-.23,.15-.33,.22-.09,.06-.17,.11-.25,.15-.22,.12-.41,.21-.58,.28-.08,.03-.15,.06-.23,.08-.01,0-.02,.01-.03,.01-.08,.03-.16,.05-.23,.07-.2,.05-.36,.08-.52,.11-.38,.07-.78,.1-1.23,.1-.37,0-.8-.02-1.27-.08-.11-.01-.23-.03-.35-.05-.07-.01-.15-.02-.23-.03-.13-.02-.26-.04-.39-.06-.57-.11-1.18-.25-1.8-.44-.14-.04-.27-.08-.4-.12-.11-.03-.21-.07-.31-.11l-.41-.15c-1.65-.64-3.29-1.59-4.55-2.96-.2-.23-.4-.46-.59-.7-.1-.13-.19-.26-.28-.4-.03-.04-.05-.08-.08-.12-.06-.09-.11-.18-.17-.27-.08-.14-.16-.28-.23-.42-.07-.13-.13-.26-.19-.39-.01-.02-.02-.03-.02-.05-.01-.02-.02-.04-.03-.06-.05-.11-.1-.24-.14-.36-.02-.05-.03-.09-.05-.13-.05-.12-.09-.24-.12-.37-.05-.15-.09-.3-.12-.45-.05-.19-.09-.38-.12-.58-.33-1.94-.2-4.42,.43-7.53-.23,.42-.45,.83-.68,1.26-.11,.53-.31,1.06-.57,1.57-1.45,2.85-3.02,5.57-5.44,7.71-2.14-.03-4.25-.75-5.95-2.05-.33-.25-.65-.52-.94-.82-.63-.62-1.17-1.32-1.62-2.1-.39-.7-.69-1.4-.89-2.11-.75-2.55-.39-5.36,.98-7.7,.03-.05,.11-.18,.13-.2,.37-.6,.75-1.22,1.15-1.88-.69-.98-1.3-2.05-1.79-3.17l-.14-.31c-.28-.64-.5-1.33-.64-2.04-.02-.09-.04-.18-.06-.27-.18-1.07-.19-2.14-.01-3.18,1.7,.5,3.21,1.31,4.49,2.41-.19-1.09-.02-2.2,.49-3.18,.06-.11,.12-.22,.19-.32,.01-.02,.03-.06,.05-.08,.06-.1,.12-.19,.19-.27,.07-.1,.15-.19,.22-.27,.05-.06,.09-.1,.14-.15,.09-.09,.17-.17,.26-.25,.06-.06,.12-.11,.19-.16,.05-.04,.1-.08,.15-.12,.07-.06,.15-.11,.23-.16t.02-.01c.09-.06,.19-.12,.29-.18,.03-.02,.06-.04,.1-.05,0,0,0,0,.01,0,.1-.06,.2-.11,.31-.16,.09-.04,.19-.08,.27-.11,.07-.03,.13-.05,.2-.07,.22-.07,.45-.13,.68-.17,.22-.04,.46-.06,.68-.06,.19,0,.37,.02,.52,.03,.71-.07,3.03-.38,6.98-1.06,3.37-.58,6.97-1.24,8.92-1.6,.79-.15,1.35-.25,1.55-.28,.41-.07,.85-.1,1.32-.1,.57,0,1.18,.05,1.82,.16,.26,.05,.52,.1,.78,.17,.1,.03,.2,.05,.3,.08,.04,.02,.08,.03,.12,.04,.14,.04,.28,.09,.42,.14,.24,.09,.49,.18,.73,.29,.11,.05,.22,.1,.32,.15,.07,.03,.13,.06,.19,.1,.13,.07,.26,.14,.39,.22,.81,.48,1.52,1.11,2.06,1.91,.33,.49,.57,1.02,.72,1.57,.44-1.12,.91-2.27,1.42-3.45,.06-.15,.12-.3,.2-.44,.01-.02,.02-.05,.04-.07,.06-.12,.12-.24,.19-.36,.01-.01,.02-.02,.02-.03,.09-.14,.18-.28,.27-.41,.07-.09,.13-.18,.2-.27,.26,.3,.49,.61,.7,.93,.1,.15,.2,.31,.3,.47h0c.46,.78,.81,1.59,1.04,2.44,.36,1.28,.47,2.6,.31,3.92,.81,.22,1.57,.53,2.28,.94,.32,.18,.63,.38,.92,.6,.02,.01,.05,.03,.07,.05,1,.75,1.87,1.7,2.54,2.83,.02,.03,.03,.05,.05,.08,.38,.66,.68,1.35,.9,2.07,.19,.61,.31,1.23,.37,1.86h0c.21,2.02-.21,4.1-1.25,6Z"/><path class="h" d="M181.41,92.44h0c-.23,.78-.54,1.53-.94,2.26l-.43,.79s-.02,.02-.02,.03l-.31,.57c-.04,.08-.08,.16-.12,.23,0,0-.08,.15-.19,.33-.15,.28-.35,.63-.35,.64-1.06,1.91-2.09,3.69-3.09,5.3-.24,.4-.49,.78-.73,1.16-.69,1.08-1.36,2.09-2,3.01,0,0,0,.01-.01,.02-.19-.04-.39-.08-.58-.13-.19-.05-.4-.1-.6-.16,0,0,0,0-.01,0l-.08-.02-.84-.27c-1.12-.4-2.25-.94-3.29-1.65-.98,1.31-1.81,2.26-2.52,2.97-.17,.16-.33,.32-.49,.46-.33,.3-.64,.54-.91,.73-.11,.09-.23,.15-.33,.22-.09,.06-.17,.11-.25,.15-.22,.12-.41,.21-.58,.28-.08,.03-.15,.06-.23,.08-.01,0-.02,.01-.03,.01-.08,.03-.16,.05-.23,.07-.2,.05-.36,.08-.52,.11-.38,.07-.78,.1-1.23,.1-.37,0-.8-.02-1.27-.08-.11-.01-.23-.03-.35-.05-.07-.01-.15-.02-.23-.03-.13-.02-.26-.04-.39-.06-.57-.11-1.18-.25-1.8-.44-.14-.04-.27-.08-.4-.12-.11-.03-.21-.07-.31-.11l-.41-.15c-1.65-.64-3.29-1.59-4.55-2.96-.2-.23-.4-.46-.59-.7-.1-.13-.19-.26-.28-.4-.03-.04-.05-.08-.08-.12-.06-.09-.11-.18-.17-.27-.08-.14-.16-.28-.23-.42-.07-.13-.13-.26-.19-.39-.01-.02-.02-.03-.02-.05-.01-.02-.02-.04-.03-.06-.05-.11-.1-.24-.14-.36-.02-.05-.03-.09-.05-.13-.05-.12-.09-.24-.12-.37-.05-.15-.09-.3-.12-.45-.05-.19-.09-.38-.12-.58-.33-1.94-.2-4.42,.43-7.53-.23,.42-.45,.83-.68,1.26-.11,.53-.31,1.06-.57,1.57-1.45,2.85-3.02,5.57-5.44,7.71-.41,.36-.85,.72-1.32,1.04-1.93-.25-3.78-1.01-5.32-2.2-.02-.02-.05-.03-.06-.05-.47-.36-.91-.76-1.31-1.19-.55-.59-1.04-1.25-1.46-1.96-.01-.02-.03-.05-.04-.07-.44-.78-.77-1.55-.99-2.37-.01-.03-.02-.07-.03-.11-.78-2.8-.37-5.86,1.13-8.43,.05-.07,.09-.15,.14-.22,.01-.01,.02-.02,.03-.04,.24-.39,.49-.8,.75-1.23-.65-1-1.13-1.95-1.48-2.75-.03-.08-.07-.16-.1-.24l-.04-.09c-.35-.81-.61-1.66-.76-2.54-.05-.26-.08-.51-.1-.76-.1-.98-.07-1.95,.1-2.9l.09,.02c.15,.03,.3,.07,.44,.11,.19,.05,.39,.1,.57,.15,1.7,.5,3.21,1.31,4.49,2.41-.19-1.09-.02-2.2,.49-3.18,.06-.11,.12-.22,.19-.32,.01-.02,.03-.06,.05-.08,.06-.1,.12-.19,.19-.27,.07-.1,.15-.19,.22-.27,.05-.06,.09-.1,.14-.15,.09-.09,.17-.17,.26-.25,.06-.06,.12-.11,.19-.16,.05-.04,.1-.08,.15-.12,.07-.06,.15-.11,.23-.16t.02-.01c.09-.06,.19-.12,.29-.18,.03-.02,.06-.04,.1-.05,0,0,0,0,.01,0,.1-.06,.2-.11,.31-.16,.09-.04,.19-.08,.27-.11,.07-.03,.13-.05,.2-.07,.22-.07,.45-.13,.68-.17,.22-.04,.46-.06,.68-.06,.19,0,.37,.02,.52,.03,.71-.07,3.03-.38,6.98-1.06,3.37-.58,6.97-1.24,8.92-1.6,.79-.15,1.35-.25,1.55-.28,.41-.07,.85-.1,1.32-.1,.57,0,1.18,.05,1.82,.16,.26,.05,.52,.1,.78,.17,.1,.03,.2,.05,.3,.08,.04,.02,.08,.03,.12,.04,.14,.04,.28,.09,.42,.14,.24,.09,.49,.18,.73,.29,.11,.05,.22,.1,.32,.15,.07,.03,.13,.06,.19,.1,.13,.07,.26,.14,.39,.22,.81,.48,1.52,1.11,2.06,1.91,.33,.49,.57,1.02,.72,1.57,.44-1.12,.91-2.27,1.42-3.45,.06-.15,.12-.3,.2-.44,.01-.02,.02-.05,.04-.07,.06-.12,.12-.24,.19-.36,.01-.01,.02-.02,.02-.03,.09-.14,.18-.28,.27-.41,.07-.09,.13-.18,.2-.27,.04-.06,.09-.11,.13-.16,.07-.09,.15-.18,.23-.26,.03-.03,.06-.07,.09-.1,.1-.1,.2-.2,.3-.29,0,0,.02-.01,.02-.02,.32,.36,.61,.74,.87,1.13,.01,.02,.03,.04,.04,.06,.67,1.01,1.15,2.07,1.45,3.17,.31,1.12,.45,2.26,.41,3.41,.48,.17,.94,.37,1.38,.61,.33,.17,.65,.36,.95,.57,1.31,.88,2.42,2.05,3.26,3.47l.03,.05c.07,.12,.14,.23,.2,.35,.01,.02,.03,.06,.04,.07,.05,.1,.1,.2,.15,.31,.38,.76,.66,1.56,.83,2.38,.12,.55,.21,1.12,.24,1.69,.09,1.34-.07,2.7-.48,4.02Z"/><path class="h" d="M175.49,91.99c-.29,.54-.57,1.06-.84,1.56h0c-.19,.34-.36,.66-.54,.98,0,0,0,0,0,0,0,0,0,.02,0,.02-.19,.35-.39,.69-.57,1.02-1.12,1.99-2.14,3.68-3.07,5.14-.97,1.54-1.84,2.8-2.62,3.84-.98,1.31-1.81,2.26-2.52,2.97-.17,.16-.33,.32-.49,.46-.33,.3-.64,.54-.91,.73-.11,.09-.23,.15-.33,.22-.09,.06-.17,.11-.25,.15-.22,.12-.41,.21-.58,.28-.08,.03-.15,.06-.23,.08-.01,0-.02,.01-.03,.01-.08,.03-.16,.05-.23,.07-.2,.05-.36,.08-.52,.11-.38,.07-.78,.1-1.23,.1-.37,0-.8-.02-1.27-.08-.11-.01-.23-.03-.35-.05-.07-.01-.15-.02-.23-.03-.13-.02-.26-.04-.39-.06-.57-.11-1.18-.25-1.8-.44-.14-.04-.27-.08-.4-.12-.11-.03-.21-.07-.31-.11l-.41-.15c-1.65-.64-3.29-1.59-4.55-2.96-.2-.23-.4-.46-.59-.7-.1-.13-.19-.26-.28-.4-.03-.04-.05-.08-.08-.12-.06-.09-.11-.18-.17-.27-.08-.14-.16-.28-.23-.42-.07-.13-.13-.26-.19-.39-.01-.02-.02-.03-.02-.05-.01-.02-.02-.04-.03-.06-.05-.11-.1-.24-.14-.36-.02-.05-.03-.09-.05-.13-.05-.12-.09-.24-.12-.37-.05-.15-.09-.3-.12-.45-.05-.19-.09-.38-.12-.58-.33-1.94-.2-4.42,.43-7.53-.23,.42-.45,.83-.68,1.26-.31,.56-.62,1.13-.94,1.7-.02,.03-.03,.07-.06,.1-1.2,2.01-2.81,2.67-3.95,2.87-.31,.05-.62,.07-.94,.07-1.22,0-2.38-.4-3.31-1.12h0c-.56-.43-1.02-.95-1.38-1.57-.2-.36-.36-.73-.47-1.11h0c-.4-1.36-.22-2.85,.54-4.14,.02-.02,.03-.06,.05-.08,1-1.61,1.99-3.27,2.9-4.85-1.44-1.21-2.53-2.88-3.22-4.45-.04-.1-.09-.2-.12-.3-.18-.41-.31-.84-.38-1.27-.19-1.09-.02-2.2,.49-3.18,.06-.11,.12-.22,.19-.32,.01-.02,.03-.06,.05-.08,.06-.1,.12-.19,.19-.27,.07-.1,.15-.19,.22-.27,.05-.06,.09-.1,.14-.15,.09-.09,.17-.17,.26-.25,.06-.06,.12-.11,.19-.16,.05-.04,.1-.08,.15-.12,.07-.06,.15-.11,.23-.16t.02-.01c.09-.06,.19-.12,.29-.18,.03-.02,.06-.04,.1-.05,0,0,0,0,.01,0,.1-.06,.2-.11,.31-.16,.09-.04,.19-.08,.27-.11,.07-.03,.13-.05,.2-.07,.22-.07,.45-.13,.68-.17,.22-.04,.46-.06,.68-.06,.19,0,.37,.02,.52,.03,.71-.07,3.03-.38,6.98-1.06,3.37-.58,6.97-1.24,8.92-1.6,.79-.15,1.35-.25,1.55-.28,.41-.07,.85-.1,1.32-.1,.57,0,1.18,.05,1.82,.16,.26,.05,.52,.1,.78,.17,.1,.03,.2,.05,.3,.08,.04,.02,.08,.03,.12,.04,.14,.04,.28,.09,.42,.14,.24,.09,.49,.18,.73,.29,.11,.05,.22,.1,.32,.15,.07,.03,.13,.06,.19,.1,.13,.07,.26,.14,.39,.22,.81,.48,1.52,1.11,2.06,1.91,.33,.49,.57,1.02,.72,1.57,.35,1.22,.27,2.55-.27,3.82-.37,.9-.91,2.64-1.48,4.73,.25-.24,.51-.44,.78-.63h.01c.68-.47,1.4-.77,2.18-.91,.31-.06,.62-.08,.93-.08,1.41,0,2.71,.54,3.67,1.51,.3,.3,.55,.63,.77,1,0,0,0,0,0,.01,.05,.07,.09,.15,.12,.22,.85,1.61,.79,3.56-.15,5.29Z"/><path class="h" d="M178.69,112.45c1.54-.85,3.14-1.67,4.78-2.47-.55,.46-1.1,.86-1.66,1.2-.03,.02-.06,.04-.1,.06-.18,.1-.36,.2-.52,.29-.03,.02-.07,.04-.11,.06-.14,.07-.27,.14-.4,.19-.12,.06-.27,.12-.4,.18-.6,.24-1.15,.4-1.61,.5Z"/><path class="h" d="M190.82,89.34c-.16,.31-.32,.61-.48,.91t0,.01s0,0,0,0,0,0,0,.01c-.48,.88-.94,1.71-1.38,2.5-1.12,1.98-2.13,3.68-3.05,5.14h0c-.99,1.57-1.87,2.85-2.65,3.91-.27,.35-.52,.68-.75,.98-.87,1.09-1.61,1.88-2.25,2.46-.16,.15-.32,.29-.47,.41-.07,.06-.15,.12-.22,.18-.07,.06-.14,.11-.21,.16-.16,.12-.32,.22-.47,.31-.11,.06-.22,.12-.31,.18-.07,.03-.13,.07-.19,.1-.06,.03-.12,.06-.18,.08-.45,.18-.81,.25-1.1,.3-.38,.07-.79,.1-1.24,.1s-.95-.03-1.5-.11l-.5-.07c-.1-.02-.2-.03-.3-.05-.1-.02-.2-.04-.3-.06-.19-.04-.39-.08-.58-.13-.19-.05-.4-.1-.6-.16,0,0,0,0-.01,0l-.08-.02-.84-.27c-1.12-.4-2.25-.94-3.29-1.65-1.79-1.24-3.27-3.01-3.79-5.43h0c-.02-.12-.05-.24-.07-.35-.28-1.62-.23-3.63,.16-6.05h0c.65-4.1,2.25-9.35,4.77-15.7,.44-1.12,.91-2.27,1.42-3.45,.06-.15,.12-.3,.2-.44,.01-.02,.02-.05,.04-.07,.06-.12,.12-.24,.19-.36,.01-.01,.02-.02,.02-.03,.09-.14,.18-.28,.27-.41,.07-.09,.13-.18,.2-.27,.04-.06,.09-.11,.13-.16,.07-.09,.15-.18,.23-.26,.03-.03,.06-.07,.09-.1,.1-.1,.2-.2,.3-.29,0,0,.02-.01,.02-.02,.11-.1,.22-.2,.34-.28,.09-.07,.18-.14,.27-.2,.01-.01,.02-.02,.03-.03,.03-.02,.05-.03,.08-.05-.68-1.07-.94-2.31-.72-3.55,.06-.35,.35-2.11,.74-4.14,.24-1.25,.52-2.6,.81-3.79,.14-.56,.28-1.07,.41-1.52h0c.02-.07,.04-.13,.06-.19,0-.02,.02-.04,.02-.06,.79-2.38,2.75-4,5.36-4.45,.11-.02,.22-.03,.33-.05,.03,0,.06-.01,.09-.01h0c.18-.02,.35-.04,.53-.05s.35-.02,.53-.02h.05c.26,0,.52,.02,.79,.05,.19,.01,.39,.03,.58,.06,2.01,.29,4.21,1.16,5.75,2.6,.36,.33,.68,.69,.95,1.08,.05,.06,.09,.13,.13,.19,.03,.05,.07,.11,.1,.16,.93,1.52,1.07,3.26,.39,4.82-.19,.46-.44,.99-.72,1.56-.09,.18-.18,.37-.27,.56-.05,.09-.09,.17-.13,.26-.52,1.03-1.11,2.16-1.69,3.26-.74,1.43-1.59,3.05-1.84,3.65-.01,.02-.02,.06-.03,.08-.22,.49-.51,.93-.86,1.3h0c-.16,.18-.35,.34-.53,.49,.1,.14,.18,.29,.26,.44,.78,1.48,.84,3.22,.15,4.87-.36,.9-.9,2.65-1.48,4.73,.23-.22,.48-.43,.74-.6,.69-.49,1.44-.81,2.24-.94,.31-.05,.61-.08,.92-.08,1.18,0,2.28,.38,3.16,1.06,.51,.39,.95,.88,1.29,1.46,.2,.34,.36,.69,.47,1.06t0,.01h0c.45,1.42,.28,3.01-.5,4.44Z"/><path class="h" d="M202.46,102.29c-.74,.96-1.44,1.8-2.12,2.53h0c-.95,1.02-1.87,1.8-2.77,2.41-.99,.66-1.88,1.02-2.58,1.23-.51,.15-.91,.22-1.19,.27-.67,.11-1.33,.16-2.05,.16-.57,0-1.13-.03-1.69-.09h-.03c-.95-.09-1.95-.25-2.94-.48,.11-.06,.23-.11,.35-.16,2.39-1.07,4.86-2.09,7.36-3.06,.32-.12,.64-.25,.96-.37,2.09-.81,4.22-1.58,6.33-2.3,.13-.05,.26-.09,.39-.13Z"/><path class="h" d="M214.89,62.89c-.09,.87-.36,1.58-.75,2.13-.75,1.08-1.9,1.61-2.77,1.76-.24,.04-.49,.06-.74,.06-.82,0-1.48-.23-1.94-.43h0c-.1-.04-.19-.08-.27-.12-.2-.1-.3-.14-.41-.16-.33-.06-.82-.12-1.5-.18-.49-.03-1.1-.05-1.82-.05s-1.48,.02-2.29,.07c-.69,2.41-1.31,4.62-1.87,6.65-.78,2.85-1.45,5.33-2,7.48,.24-.22,.48-.41,.74-.58,.66-.45,1.38-.75,2.15-.88,.31-.05,.62-.07,.92-.07,1.7,0,3.23,.78,4.19,2.12,.09,.13,.18,.26,.26,.39,.98,1.65,.96,3.71-.02,5.52-.37,.69-.73,1.35-1.08,1.99h0c-1.48,2.7-2.79,4.93-3.96,6.76-.92,1.45-1.74,2.66-2.49,3.67-1.28,1.73-2.32,2.87-3.17,3.62h0c-.37,.33-.71,.6-1.02,.8-.92,.61-1.55,.72-2.03,.81-.39,.06-.81,.1-1.29,.1-.39,0-.81-.02-1.24-.06-.24-.02-.48-.05-.73-.08-.24-.03-.49-.07-.75-.12-.12-.02-.24-.05-.36-.07-.39-.08-.79-.18-1.19-.28-.14-.04-.28-.08-.43-.12-.08-.03-.16-.05-.24-.07-1.02-.33-2.04-.77-2.99-1.32-.2-.12-.4-.24-.58-.37-1.86-1.24-3.34-2.99-3.85-5.35-.02-.12-.05-.23-.07-.36-.05-.3-.12-.72-.14-1.4-.02-.97,.07-2.47,.49-4.94,0,0,0,0,0,0h0c.17-1.01,.4-2.16,.69-3.49,.7-3.17,1.79-7.37,3.46-12.97,.09-.31,.18-.61,.28-.93h0c.21-.7,.43-1.41,.65-2.15-.05,.03-.09,.07-.12,.1-.69,.54-1.54,.82-2.39,.82-.4,0-.8-.06-1.2-.19-1.36-.44-2.46-1.36-3.13-2.59-.29-.52-.5-1.09-.62-1.7-.31-1.53-.05-3.22,.66-4.67,.43-.9,1.03-1.71,1.76-2.34,.02-.02,.04-.03,.06-.05,.93-.76,2.09-1.46,3.34-2.09,.35-.18,.7-.35,1.06-.51h0s.03-.02,.05-.02c.2-.09,.4-.18,.6-.27,1.09-.47,2.21-.89,3.27-1.27,.54-.19,1.08-.36,1.58-.53,.31-.92,.6-1.76,.85-2.5,.08-.23,.16-.46,.23-.67,.46-1.33,.81-2.29,.99-2.78,.08-.23,.13-.35,.14-.38,.03-.06,.05-.12,.08-.19,1.27-2.94,3.08-4.42,6.08-4.94,.48-.08,1-.12,1.54-.12,1.33,0,4.62,.27,6.46,2.79,1.04,1.41,1.32,3.22,.75,4.97,0,0-.23,.75-.32,1.07,.99,.15,1.94,.51,2.81,1.03,1.28,.73,2.42,1.79,3.34,2.99,.58,.76,1.07,1.58,1.45,2.43,.36,.79,.62,1.62,.75,2.42l.05,.32h0c.07,.56,.08,1.07,.03,1.52Z"/><path class="h" d="M281.33,105.62c-1.02-5.92-6.28-12.97-25.38-13.26-.4,0-.81,0-1.23,0-6.32,0-13.56,.69-21.52,2.07-1.58,.27-3.19,.55-4.82,.86-.43-2.11-.6-4.3-.51-6.57,.13-4.43,3.28-16.2,4.36-18.83,.76-1.84,.6-3.8-.46-5.39-1.61-2.4-4.85-3.26-7.13-3.26-.47,0-.91,.03-1.32,.11-.53,.09-1.03,.25-1.51,.47-.36,.16-.69,.36-1.02,.59-.07,.05-.14,.1-.2,.16-.35,.27-.67,.6-.96,.95-.08-.03-.15-.06-.23-.09-.07-.02-.14-.05-.21-.07-1.03-.34-2.17-.51-3.38-.51-.12,0-.24,0-.37,0-.18,0-.36,.01-.54,.03-.53,.03-1.09,.1-1.66,.2-2.4,.41-4.66,1.39-6.72,2.87-2.26,1.62-4.28,3.88-5.98,6.66-.61,1-1.17,2.08-1.7,3.21-.99,2.16-1.76,4.49-2.29,6.83-.18,.78-.33,1.57-.45,2.34h0c-.02,.11-.03,.2-.05,.3,0,0,0,.01,0,.02-.07,.45-.13,.89-.18,1.33h0c-.1,.92-.16,1.82-.17,2.69-.02,.94,.02,1.83,.11,2.69h0c.03,.29,.06,.57,.1,.85,.02,.13,.04,.26,.06,.39,.14,.81,.37,1.57,.69,2.29h0c.59,1.34,1.47,2.5,2.58,3.46,1.08,.93,2.37,1.64,3.81,2.09,.07,.02,.15,.05,.23,.07,.39,.12,.78,.22,1.19,.29,.09,.02,.18,.03,.27,.05-.14,.05-.27,.09-.4,.14-.63,.21-1.26,.42-1.88,.64-.13,.04-.26,.09-.39,.13-2.11,.72-4.23,1.49-6.33,2.3-.32,.12-.65,.24-.96,.37-2.5,.97-4.97,2-7.36,3.06-.11,.05-.23,.1-.35,.16-.54,.24-1.08,.49-1.62,.74-.54,.25-1.07,.5-1.6,.75-.12,.06-.24,.12-.37,.18h0c-1.65,.81-3.25,1.63-4.78,2.47-2.77,1.52-5.33,3.09-7.61,4.73-3.37,2.42-6.1,4.94-7.91,7.53-3.71,5.24-3.04,12.06-.74,16.5,1.78,3.44,3.94,4.17,5.43,4.17,.25,0,.51-.02,.75-.06,1.36-.24,2.52-1.02,3.43-2.31,3.12-4.42,7.26-8.67,12.25-12.66h0c.56-.45,1.12-.89,1.7-1.32,0,0,0-.01,.01-.01,8.69-6.6,19.71-12.39,32.18-16.81,.29,.45,.6,.89,.91,1.32,1.25,1.75,2.64,3.38,4.15,4.89,7.48,7.48,17.86,11.84,28.99,11.84,2.56,0,5.18-.23,7.77-.67,6.32-1.09,12.05-4.21,16.15-8.79,4.14-4.63,6.02-10.16,5.16-15.16Zm-68.47-24.61c-.11,.26-.22,.52-.33,.78-.11,.27-.23,.54-.36,.79,.18-.61,.39-1.24,.61-1.84,.21-.58,.44-1.15,.7-1.7,.08-.17,.16-.35,.25-.51-.06,.2-.13,.41-.2,.63-.19,.58-.41,1.2-.68,1.84Zm44.68,32.73c-1.46,.26-2.97,.38-4.5,.38-6.92,0-13.4-2.5-18.01-6.77,1.83-.4,3.68-.76,5.6-1.09,5.29-.91,10.1-1.37,14.3-1.37,8.36,0,11.81,1.92,12.01,3.13,.18,1.06-1.7,4.4-9.4,5.73Z"/><path class="f" d="M164.68,125.23c6.46-9.24,28.35-19.13,51.06-25.13-1.18-3.58-1.76-7.43-1.64-11.39-2.41,3.8-5.18,6.85-7.6,7.27-3.44,.59-7.69-1.17-8.36-5.08-1.37-7.98,3.54-23.87,14.09-25.69,3.91-.67,5.99,.66,7.07,2.73,.52-1.22,.91-2.17,1.2-2.86,.4-.95,1.04-1.47,1.82-1.6,1.64-.28,5.74,.62,4.66,3.22-1.13,2.77-4.5,15.02-4.65,20.2-.16,4.21,.49,7.97,1.61,11.23,2.79-.64,5.52-1.11,8.26-1.58,22.36-3.85,41.8-2.69,43.65,8.02,1.35,7.82-6.57,17.47-18.14,19.47-17.75,3.06-32.6-5.58-39.45-18.25-19.73,6.54-40.16,17.86-51.03,33.26-.32,.46-.61,.67-.92,.72-1.8,.31-5.95-8.39-1.62-14.53Zm42.39-34.83c6.41-1.1,13.42-22.11,7.32-21.06-7.35,1.27-11.08,21.71-7.32,21.06Zm31.24,10.32c-3.83,.66-7.79,1.5-11.87,2.61,6.43,10.24,19.22,14.4,30.09,12.53,9.93-1.71,13.16-6.77,12.57-10.21-1.1-6.41-14.06-7.8-30.8-4.92Z"/><path class="f" d="M61.65,91.12c3.91-.67,5.99,.66,7.07,2.73,.52-1.22,.91-2.17,1.2-2.86,.4-.95,1.04-1.47,1.82-1.6,1.64-.28,5.74,.62,4.66,3.22-1.42,3.46-6.07,21.33-4.19,21.01,1.33-.23,4.82-5.66,8.37-11.26,.52-.73,1.01-1.14,1.56-1.23,1.09-.19,2.01,.94,1.28,2.28-4.16,7.64-8.96,15.31-10.99,15.66-1.72,.3-7.8-.91-8.58-4.96-2.44,4.04-5.33,7.36-7.91,7.8-3.44,.59-7.69-1.17-8.36-5.08-1.37-7.98,3.54-23.87,14.09-25.69Zm-5.16,25.2c6.41-1.1,13.42-22.11,7.32-21.06-7.35,1.27-11.08,21.71-7.32,21.06Z"/><path class="f" d="M181.48,93.76c-.73-4.22,3.9-19.91,7.75-31.68-3.63,.87-6.81,2.06-8.65,3.5-1.79-.58-1.4-3.46,0-4.67,1.97-1.63,6.11-3.31,10.49-4.54,1.58-4.86,2.79-8.13,2.79-8.13,.75-1.74,1.45-2.34,3.17-2.64,1.72-.3,5.13,.32,4.4,2.62-.05,.17-.83,2.64-1.9,6.28,1.58-.19,3.09-.29,4.22-.24,2.58,.04,5.16,3.3,5.57,5.72,.11,.63,.12,1.19-.27,1.25-.39,.07-.88-.41-1.96-.63-2.25-.42-5.7-.39-9.34,0-3.48,12.03-8.14,28.93-7.54,32.45,.03,.16,.12,.22,.28,.19,1.33-.23,4.82-5.66,8.37-11.26,.52-.73,1.01-1.14,1.56-1.23,1.17-.2,2.01,.94,1.28,2.28-4.08,7.63-8.96,15.31-10.99,15.66-1.72,.3-8.52-.87-9.22-4.93Z"/><path class="f" d="M182.91,84.74c.52-.73,1.01-1.14,1.56-1.23,1.17-.2,2.01,.94,1.28,2.28-4.08,7.63-8.96,15.31-10.99,15.66-1.72,.3-7.9-.98-8.6-5.04-1.02-5.94,4.55-19.38,6.1-23.03,.4-.95,1.04-1.47,1.82-1.6,1.64-.28,5.74,.62,4.66,3.22-1.42,3.46-6.07,21.33-4.19,21.01,1.33-.23,4.82-5.66,8.37-11.26Zm-4.03-16.37c-1.64,.28-4.96-.76-4.68-2.41,.11-.74,1.11-6.63,1.9-9.1,.37-1.11,1.24-1.66,2.34-1.85,2.74-.47,6.8,1.65,5.99,3.48-1.03,2.43-3.99,7.69-4.67,9.34-.12,.26-.4,.47-.87,.55Z"/><path class="f" d="M141.16,94.26c-1.17,.2-2.25-.9-1.56-2.07,2.02-3.25,3.93-6.63,5.42-9.22-.39,.07-.7,.12-.94,.16-2.27,.39-4.08-2.68-4.65-4.11-.38-.82,.06-1.54,.68-1.65,.08-.01,.17,.05,.25,.04,.5,.08,4.11-.47,7.94-1.12,4.69-.81,9.76-1.76,10.46-1.88,1.64-.28,5.74,.62,4.66,3.22-1.42,3.46-6.07,21.33-4.19,21.01,1.33-.23,4.82-5.66,8.37-11.26,.52-.73,1.01-1.14,1.56-1.23,1.17-.2,2.01,.94,1.28,2.28-4.08,7.63-8.96,15.31-10.99,15.66-1.72,.3-7.9-.98-8.6-5.04-.74-4.3,1.97-12.41,4.06-18.01-2.25,.47-4.66,.96-6.7,1.31-1.39,2.66-3.5,6.8-5.77,10.9-.37,.63-.8,.94-1.27,1.02Z"/><path class="f" d="M123.88,80.41c11.88-2.05,14.35,8.56,10.63,17.81,1.42-.65,2.61-1.66,3.44-2.93,1.14-1.81,1.5-2.51,1.95-3.15,.44-.72,1.01-1.14,1.56-1.23,1.09-.19,2.01,.94,1.28,2.28-2.47,4.85-4.7,8.22-10.53,9.46-2.76,4.1-6.8,7.29-11.72,8.14-9.15,1.57-11.5-4.14-12.09-7.58-1.17-6.8,4.38-20.88,15.48-22.79Zm-2.03,24.66c1.41-.24,2.79-1.12,4.02-2.38-3.94-.93-7.3-3.57-8.51-8.28-.77,2.55-1.13,5.11-.76,7.3,.26,1.49,1.34,4.04,5.25,3.36Zm4.12-20.51c-2.03,.35-5.59,3.54-4.74,8.46,.59,3.44,3.69,5.56,7.15,6.01,3.47-6.48,4.08-15.6-2.41-14.48Z"/><path class="f" d="M2.23,88.23c.16-5.18,4.5-12.21,14.55-15.55,3.66-1.19,7.45-2.09,11.12-2.72,11.65-2.01,23.05-1.71,32.12-3.28,3.21-.55,8.13-1.88,10.22-4.25,.13-.18,.35-.3,.66-.36,.39-.07,.73,.04,.89,.49,.9,2.9-.91,8.77-3.73,10.62-1.23,.78-2.99,1.32-5.1,1.68-6.18,1.06-15.57,.75-24.56,.93-.79,2.87-3.2,11.34-5.56,20.52,6.57-1.13,12.9-2.22,13.47-2.64,.08-.01,.14-.1,.22-.12,.63-.11,1.28,.42,1.22,1.48-.09,1.79-.8,5.61-3.31,6.04-1.64,.28-7.44,1.2-13.48,2.16-1.94,7.9-3.71,15.37-4.24,19.33-.31,2.39-.74,6-.72,7.05-.02,.81-.22,1.08-1,1.22-2.45-.22-6.82-1.72-7.4-5.09-.48-2.82,1.63-11.55,4.36-20.96-3.6,.62-6.24,1.16-6.61,1.38-.06,.09-.22,.12-.3,.13-.63,.11-1.2-.44-1.14-1.49,.09-1.79,.8-5.61,3.31-6.04,1.02-.18,3.61-.54,6.82-1.09,2.82-9.34,5.81-18.15,6.93-21.48-2.06,.19-4.04,.37-5.84,.68-7.97,1.37-15.54,6.06-15.52,15.07-.02,1.29,.31,2.28,1.05,3.28,.21,.29,.03,1.12-.91,1.28-3.68,.63-7.66-3.35-7.54-8.28Z"/></g><polyline class="l" points="186.58 60.57 186.54 60.58 183.15 61.15 179.94 61.69 177.94 62.02 174.8 62.55 172.77 62.89"/><path class="i" d="M93.32,51.55s-.01,.05-.02,.08c-.19,.84-.36,1.67-.54,2.47-.06,.3-.12,.6-.19,.89-.33,.12-.66,.26-.98,.39-.57,.23-1.11,.47-1.61,.72-1.12,.53-2.07,1.11-2.8,1.72,.19-.22,1.32-1.53,3.15-3.38,.85-.86,1.86-1.84,2.99-2.89Z"/><path class="i" d="M109.11,50.18c-1.04-.48-2.25-.74-3.51-.74-.66,0-1.28,.07-1.85,.22-.83,.2-1.59,.57-2.25,1.06-.22-.02-.43-.02-.65-.02-.12,0-.25,0-.37,0-.73,.03-1.49,.14-2.26,.33-.48,.12-.95,.27-1.41,.45,.23-1.04,.47-2.11,.72-3.21l.02-.09c.03-.11,.05-.23,.07-.35,5.54-4.47,12.71-9.02,20.04-10.32,.09-.02,.18-.03,.27-.05,2.21-.41,3.93-.02,4.8,1.54,3.12,5.5-4.49,8.56-13.63,11.18Z"/><path class="i" d="M119.93,152.33c.81,.21,16.88,4.17,27.33-.75,.06-.03,.12-.06,.19-.09,1.52-.7,2.4-1.68,2.26-3.01-.91-9.01-22.02,4.47-29.78,3.84Z"/><g><path class="g" d="M145.7,48.91c-.41,1.57-.4,3.28-1.68,4.54-.25,.24-.44,.67-.43,1.01,.07,1.58-.58,2.93-1.18,4.32-.47,1.09-.69,2.24-.25,3.43,.08,.21-.16,1.17-.47,2.16l-4.57,.76c.42-.33,.73-.76,.72-1.22-.06-1.56,.88-2.69,1.36-4.02,.48-1.35,.89-2.74,1.28-4.13,.28-.99,.63-1.88,1.54-2.5,.96-.66,1.56-1.61,1.72-2.8,.12-.88,.25-1.75,.42-2.9,.78,.28,1.14,.31,1.32,.5,.18,.2,.3,.6,.24,.85Z"/><path class="g" d="M132.33,123.58c-.09,.73-.13,1.48-.12,2.24,0,.13,0,.27,0,.4-.03,2.26-.55,4.41-1.19,6.52-.17,.09-.34,.19-.51,.29-.2,.12-.4,.25-.59,.38-.11,.07-.22,.14-.32,.22-.22,.15-.44,.31-.65,.47-.3,.24-.6,.47-.88,.73-1.96,1.76-3.47,3.99-4.39,6.45h0c-1.57,.15-3.21,.44-4.92,.91,.25-.87,.78-1.37,1.49-1.87,.47-.34,.72-1,1.02-1.54,.25-.44,.45-.9,.61-1.37,.32-.94,.61-1.89,.89-2.84,.24-.83,.42-1.68,.67-2.51,.24-.76,.53-1.51,.79-2.27,.08-.25,.16-.5,.24-.76,.31-1.06,.52-2.14,.83-3.44-.1-.27-.18-.55-.23-.82l7.25-1.2Z"/><path class="g" d="M158.82,125.13c.53,1.81,.48,3.61-.55,5.19h0c-.08,.03-.15,.04-.22,.06-.16,.05-.31,.09-.45,.14-.22,.07-.44,.14-.65,.22-.48,.16-.95,.35-1.41,.54-.17,.07-.34,.14-.51,.22-.16,.08-.33,.15-.5,.23-.16,.08-.32,.16-.48,.24,.43-.76,.77-1.56,1.17-2.33-.53-1.47,1.08-3-.13-4.48-.11-.13,.13-.58,.25-.85,.45-.97,.93-1.92,1.4-2.88,.16-.34,.41-.67,.44-1.03,.02-.32,.05-.63,.09-.94l3.04-.5c-.42,1.6-.93,3.19-1.46,4.76-.17,.51-.18,.88-.02,1.41Z"/><path class="g" d="M110.08,59.36c-.11,.7-.27,1.4-.4,2.09-.13,.7-.23,1.41-.22,2.11,.02,.89-.09,1.75-.22,2.61-.14,.86-.31,1.73-.41,2.6-.05,.36-.12,.72-.2,1.07h0l-1.85,.31-1.46,.24c.01-.11,.02-.22,.03-.32,.05-1.06,.41-1.95,1.08-2.76,.4-.48,.79-1.02,.96-1.58,.03-.11,.07-.22,.1-.33,.37-1.16,.79-2.36,.79-3.53v-.04c.09-.17,.18-.33,.26-.48,.14-.26,.27-.5,.37-.71l.02-.04,.02-.03c.07-.12,.19-.33,.38-.55,.18-.22,.43-.46,.74-.65Z"/></g><path class="g" d="M100.03,139.28c.22-1.42,.66-2.85,.63-4.27-.04-1.79,.42-3.47,.63-5.21,.04-.36,.13-.72,.2-1.07h0l3.31-.55c-.01,.11-.02,.22-.03,.32-.06,1.05-.41,1.95-1.08,2.75-.39,.48-.79,1.02-.96,1.59-.39,1.26-.89,2.57-.9,3.86-.02,1.75-1.15,2.9-1.59,4.49-.73-.71-.32-1.32-.22-1.91Z"/><circle class="m" cx="69.17" cy="137.7" r="3.02"/><circle class="m" cx="201.97" cy="130.1" r="3.02"/><g><path class="h" d="M113.26,59.84c-.31-.38-.72-.64-1.17-.77-.4-.12-.84-.14-1.28-.02-.28,.07-.52,.18-.74,.31-.31,.19-.56,.43-.74,.65-.19,.22-.31,.43-.38,.55l-.02,.03-.02,.04c-.11,.21-.24,.45-.37,.71-.09,.15-.17,.31-.26,.48-.02,.05-.05,.09-.07,.14,.02-.18,.06-.35,.09-.53,.01-.07,.02-.13,.03-.2,.33-1.92,.72-3.75,.97-4.51,.32-.99,.12-1.98-.55-2.71-1.1-1.17-3.1-1.33-4.18-1.06-.81,.2-1.46,.72-1.87,1.47-.16-.07-.33-.12-.52-.16-.46-.12-.99-.18-1.58-.16-.48,.02-.99,.09-1.55,.23-.78,.2-1.51,.5-2.17,.89-.36,.21-.69,.44-1.02,.7-2.7,2.13-4.26,5.81-4.85,9.25h0c-.16,.94-.25,1.84-.27,2.71h0c-.03,1.26,.07,2.4,.3,3.34v.05h.01c.25,.96,.74,1.74,1.37,2.33h0c.85,.8,1.95,1.28,3.09,1.45,.43,.06,.87,.08,1.3,.06,.38-.02,.75-.08,1.12-.17,.94-.23,1.86-.85,2.75-1.84,.39-.43,.77-.93,1.15-1.49,.7,.47,1.5,.78,2.28,.96l.07,.02c.09,.02,.17,.05,.26,.06,.85,.17,1.66,.19,2.25,.1,.1-.02,.2-.03,.29-.06,.8-.2,2.29-.57,6.59-10.07,.43-.95,.32-2.01-.3-2.76Zm-13.91,5.62c-.07,.17-.14,.33-.22,.51-.27,.57-.53,1.02-.77,1.37-.01,.02-.03,.04-.04,.06,0-.05,0-.1,.01-.16,.05-1.02,.23-2.33,.6-3.62,.19-.68,.43-1.35,.73-1.97,.23-.47,.47-.87,.72-1.17,.06-.09,.12-.16,.19-.23,0,.32-.03,.73-.09,1.18-.16,1.12-.51,2.58-1.13,4.03Z"/><path class="h" d="M95.7,67.04c-.97,2.17-1.8,3.86-2.52,5.19h0c-.27,.51-.52,.95-.75,1.34h0c-.86,1.44-1.51,2.26-2.02,2.76-.62,.6-1.03,.7-1.29,.77-.05,.01-.1,.02-.15,.03-1.57,.29-6.2-.2-7.17-3.43l-.05-.19c-.43-1.71,.21-6.03,1.17-10.74,.78-3.82,1.78-7.91,2.58-11.05,.56-2.19,1.03-3.93,1.27-4.82l.02-.06,.02-.05c.53-1.53,1.36-2.31,2.84-2.68,.72-.18,2.21-.28,3.34,.39,.21,.12,.4,.26,.58,.44,.65,.65,.9,1.55,.68,2.48l-.03,.11c-.31,1.37-.61,2.71-.89,4.01,0,.03-.01,.05-.02,.08-.19,.84-.36,1.67-.54,2.47-.06,.3-.12,.6-.19,.89-.95,4.48-1.69,8.36-2.17,11.29,.23-.41,.43-.8,.61-1.12h0s.03-.06,.05-.09l.02-.03,.02-.04c.15-.25,.55-.91,1.29-1.3,.17-.09,.36-.16,.57-.22,.93-.23,1.87,.07,2.46,.78,.62,.75,.73,1.81,.29,2.78Z"/><g><path class="f" d="M110.64,60.42c-.3,.07-.56,.32-.81,.75-1.74,3.25-3.46,6.41-4.18,6.59-1.03,.26,.83-9.85,1.47-11.83,.49-1.49-1.82-1.82-2.72-1.6-.43,.11-.76,.42-.94,.96-.13,.4-.31,.94-.55,1.64-.68-1.1-1.89-1.76-4.03-1.23-4,1-6.23,5.63-6.86,9.83-.22,1.46-.25,2.87-.09,4.05,.04,.33,.1,.65,.18,.95,.53,2.14,2.96,2.95,4.85,2.48,1.41-.35,2.88-2.31,4.08-4.65,.59,2.22,4.02,2.64,4.96,2.4,1.11-.28,3.47-4.73,5.46-9.14,.35-.77-.2-1.36-.8-1.21Zm-13.61,9.48c-2.06,.51-.82-10.99,3.2-11.99,3.34-.83,.31,11.11-3.2,11.99Z"/><path class="f" d="M91.96,65.61c.26-.43,.51-.67,.81-.75,.64-.16,1.16,.44,.8,1.21-1.95,4.4-4.35,8.86-5.46,9.14-.94,.23-4.76-.13-5.32-2.36-.96-3.86,5.01-25.76,5.01-25.76,.34-1,.71-1.36,1.65-1.59s2.86-.03,2.55,1.28c-.11,.48-5.13,22.34-4.39,25.34,.02,.09,.07,.12,.16,.1,.73-.18,2.45-3.34,4.18-6.59Z"/></g></g></g></g></svg>