<?xml version="1.0" encoding="UTF-8"?><svg xmlns="http://www.w3.org/2000/svg" viewBox="0 0 295.01 197.77"><defs><style>.d{fill:#fff;}.e{fill:#602515;}.f{fill:#f8ae19;}.g{fill:#fcc054;}.h{fill:none;}</style></defs><g id="a"/><g id="b"><g id="c"><path class="f" d="M205.12,109.73c-.11,.67-.24,1.34-.38,2h0c-.13,.65-.27,1.27-.42,1.9-.1,.44-.21,.87-.32,1.31-.73,2.79-1.62,5.52-2.69,8.15-1.71,4.27-3.86,8.32-6.38,12.09,0,0,0,0-.01,.01-11.95,17.85-32.29,29.6-55.38,29.6s-43.85-11.99-55.74-30.16c.15-.1,.3-.2,.45-.31,.14-.1,.29-.21,.42-.32,.32-.24,.64-.52,.96-.81,.23-.21,.46-.43,.69-.67,.42,.14,.84,.27,1.27,.39,1.91,.52,3.9,.78,5.91,.78,1.07,0,2.09-.08,3.04-.25,3.75-.65,7.9-3.47,13.07-8.87,.51-.54,1.03-1.1,1.56-1.69,3.16,3.08,7.31,4.88,12.08,5.22,.52,.04,1.08,.06,1.68,.06,1.54,0,3.15-.14,4.76-.42,1.81-.31,3.6-.81,5.32-1.51,4.23-1.69,8.09-4.52,11.26-8.23,2.52-.96,4.73-2.27,6.72-3.98,.19,.23,.39,.47,.62,.72,.02,.02,.04,.04,.05,.06,1.82,1.97,4.17,3.52,6.99,4.61,.02,0,.46,.17,.46,.17,.19,.07,.38,.14,.58,.2,.18,.06,.37,.12,.57,.18,.8,.24,1.62,.45,2.5,.61,.03,0,.06,.01,.09,.01,.2,.04,.39,.07,.58,.1,0,0,.24,.04,.26,.04,.17,.02,.35,.05,.52,.07,.67,.08,1.34,.12,1.99,.12,.84,0,1.61-.07,2.35-.2,.28-.05,.56-.11,.9-.19,.24-.05,.47-.12,.7-.2,.14-.04,.36-.11,.61-.22,1.33-.52,2.61-1.35,3.93-2.53,.02-.02,.05-.05,.08-.07,.19-.17,.39-.36,.6-.56l.03-.03s.08,.03,.12,.04l.88,.28c.05,.02,.2,.06,.2,.06,.1,.03,.19,.05,.29,.08,.8,.22,1.58,.39,2.32,.51,.03,0,.63,.1,.63,.1,.83,.12,1.65,.18,2.42,.18s1.55-.07,2.27-.18c.2-.04,.45-.08,.71-.14,1.61-.89,3.29-1.75,5.01-2.59h0c.2-.17,.4-.35,.61-.54,.24-.21,.48-.45,.72-.68h0c-.42-.14-.83-.3-1.24-.46,.3-.29,.61-.59,.92-.92,.33,.12,.65,.24,.99,.35,.05,.01,.15,.05,.23,.07,.05,.02,.1,.03,.11,.04,.46,.14,.94,.27,1.42,.39,.12-.06,.24-.11,.36-.17,2.51-1.12,5.1-2.19,7.71-3.21,.33-.13,.67-.26,1.01-.39Z"/><path class="f" d="M78.11,79.09c-.78,1.11-1.69,2.05-2.72,2.75-.04,.02-.06,.05-.09,.07-.02,.01-.05,.03-.07,.04-.1,.07-.21,.12-.32,.19,1.36-5.5,3.41-10.73,6.05-15.6,.04,.15,.07,.3,.1,.46,.69,3.5-.45,8.58-2.95,12.1Z"/><path class="f" d="M185.37,49.95c-4.1,1.22-7.26,4.22-8.6,8.25-.02,.07-.04,.12-.06,.19-.21,.65-.39,1.35-.58,2.07,0,.02,0,.04-.01,.07-.29,1.15-.57,2.5-.92,4.25-.39,2-.68,3.78-.8,4.48-.08,.45-.12,.91-.15,1.37-.4-.14-.82-.27-1.24-.38-.42-.11-.86-.2-1.28-.28-.99-.17-1.98-.26-2.95-.26-.82,0-1.61,.07-2.39,.19-.22,.04-.83,.15-1.69,.32-1.7,.31-5.67,1.04-9.28,1.67-3.4,.58-5.5,.88-6.42,1-.14,0-.29-.01-.43-.01-.61,0-1.2,.05-1.75,.15-.48,.08-.95,.2-1.46,.36l-.07,.02c-.19,.06-.38,.12-.58,.21-.14,.05-.3,.12-.45,.18-.05,.02-.1,.05-.15,.07-.17,.08-.34,.16-.51,.26-.13,.07-.26,.13-.39,.21-.22,.12-.42,.24-.6,.37-.2,.12-.39,.26-.57,.4-.13,.1-.27,.2-.39,.31-.11,.1-.23,.2-.35,.31-.02,.02-.04,.04-.06,.05-.14,.14-.29,.27-.4,.4-.07,.07-.22,.21-.39,.41h0c-.78-.23-1.58-.4-2.37-.53-1.14-.18-2.34-.28-3.57-.28-1.52,0-3.09,.14-4.66,.41-2.05,.35-4.06,.96-5.93,1.8-1.3,.57-2.58,1.27-3.81,2.06-1.19-1.01-2.49-1.84-3.85-2.48,1.61-1.72,3.41-4.8,5.99-10.48,1.03-2.26,.72-4.8-.8-6.64-.77-.94-1.8-1.62-2.97-1.96-.07-.02-.14-.04-.21-.05-.01-1.56-.59-3.06-1.69-4.25-.61-.67-1.37-1.2-2.24-1.59-1.09-.51-2.35-.78-3.68-.78-.69,0-1.34,.08-1.94,.23-.87,.21-1.67,.59-2.36,1.11-.23-.02-.45-.02-.68-.02-.13,0-.26,0-.39,0-.76,.03-1.56,.14-2.37,.34-.5,.12-.99,.28-1.47,.47,.24-1.09,.49-2.21,.76-3.36l.02-.1c.03-.12,.05-.24,.08-.36,.36-2.04-.29-4.1-1.75-5.56-.06-.06-.12-.12-.19-.17,10.99-8.02,24.53-12.74,39.17-12.74,17.77,0,33.91,6.96,45.84,18.3Z"/><path class="e" d="M195.91,18.35C179.09,6.34,159.24,0,138.51,0s-41.64,6.68-58.74,19.33c-14.77,10.92-26.03,25.43-32.84,42.24-.07,.16-.14,.32-.2,.48,.76-.05,1.53-.11,2.29-.16,0,0,.45-.03,.47-.03,1.11-.08,2.21-.15,3.29-.23,.07-.16,.14-.33,.22-.49C67.78,27.46,101.05,5.43,138.51,5.43c27.79,0,53.61,12.43,71.06,32.77,3.44,.05,6.58,1,9.09,2.72-6.24-8.64-13.9-16.25-22.75-22.57Zm33.14,110.84c-.53-.53-1.05-1.07-1.55-1.62-12.31,38.46-48,64.78-88.98,64.78-36.03,0-68.17-20.96-83.65-51.85-2.79-.6-5.4-1.79-7.6-3.47,5.8,13.85,14.73,26.32,26.23,36.36,18,15.73,41.09,24.39,65.02,24.39,22.61,0,43.89-7.43,61.54-21.48,14.56-11.59,25.6-27.16,31.74-44.55-.95-.81-1.87-1.66-2.75-2.55Zm-181.54-8.97c-.06,1.67,.03,3.25,.27,4.68,.35,2.05,1.3,3.86,2.67,5.3-1.16-3.24-2.15-6.57-2.94-9.97Z"/><g><path class="d" d="M86.1,154.48c.26,.83,.28,1.65,.06,2.46-.22,.82-.67,1.56-1.34,2.24-.67,.67-1.41,1.12-2.23,1.35-.82,.23-1.64,.21-2.47-.04-.83-.25-1.61-.74-2.33-1.45l-2.58-2.56,6.84-6.89,2.58,2.56c.73,.72,1.22,1.5,1.47,2.32Zm-4.98,3.96c.7,0,1.36-.31,1.99-.95,.63-.63,.95-1.3,.94-2.01,0-.7-.32-1.37-.96-2l-.79-.79-3.98,4,.8,.79c.63,.63,1.3,.95,2,.95Z"/><path class="d" d="M90,159.51l-1.21,1.54,2.49,1.96-1.13,1.43-2.49-1.96-1.32,1.67,2.82,2.22-1.17,1.49-4.67-3.68,6-7.63,4.67,3.68-1.17,1.49-2.81-2.21Z"/><path class="d" d="M93.01,169.04l2.6,1.68-.99,1.53-4.59-2.96,5.26-8.16,1.99,1.28-4.27,6.62Z"/><path class="d" d="M103.07,165.82l-4.66,8.52-2.07-1.13,4.66-8.52,2.07,1.13Z"/><path class="d" d="M103.91,168.92c.68-.53,1.44-.84,2.28-.94,.85-.1,1.7,.04,2.57,.41,1.06,.45,1.85,1.12,2.37,2,.52,.88,.7,1.86,.54,2.93l-2.39-1.02c-.02-.45-.15-.84-.39-1.17-.24-.33-.57-.59-.99-.77-.67-.28-1.31-.28-1.93,0-.62,.29-1.09,.82-1.42,1.61-.33,.78-.39,1.49-.17,2.14,.22,.64,.66,1.11,1.33,1.39,.42,.18,.83,.24,1.24,.18,.41-.06,.78-.23,1.12-.53l2.39,1.02c-.67,.86-1.5,1.4-2.49,1.64-.99,.23-2.02,.13-3.08-.33-.87-.37-1.56-.89-2.08-1.57-.52-.68-.82-1.44-.91-2.29-.09-.85,.05-1.72,.43-2.6,.38-.88,.9-1.59,1.58-2.12Z"/><path class="d" d="M116.67,171.36l-2.91,9.26-2.26-.71,2.91-9.26,2.26,.71Z"/><path class="d" d="M118.53,181.37c-.66-.57-1.13-1.27-1.41-2.11-.28-.84-.33-1.72-.14-2.65,.19-.93,.58-1.72,1.17-2.37,.59-.65,1.3-1.1,2.13-1.37,.83-.26,1.69-.3,2.59-.11,.89,.19,1.67,.56,2.33,1.13,.66,.57,1.13,1.27,1.4,2.1,.27,.83,.32,1.71,.12,2.64-.19,.93-.58,1.72-1.17,2.38-.59,.65-1.3,1.11-2.12,1.38-.83,.26-1.69,.3-2.58,.11-.89-.19-1.67-.56-2.33-1.13Zm4.75-1.36c.56-.41,.93-1.03,1.1-1.86,.17-.84,.08-1.56-.27-2.15s-.91-.97-1.67-1.13c-.77-.16-1.43-.04-1.99,.36-.56,.4-.93,1.03-1.1,1.88-.17,.84-.08,1.56,.27,2.15,.35,.59,.91,.97,1.68,1.13,.76,.16,1.42,.03,1.98-.38Z"/><path class="d" d="M129.82,183.54c-.54-.27-.96-.65-1.26-1.13-.3-.48-.44-1.03-.4-1.67l2.51,.2c0,.36,.11,.65,.31,.85,.2,.21,.46,.32,.81,.35,.35,.03,.63-.03,.85-.18,.21-.15,.33-.36,.36-.64,.02-.24-.05-.44-.2-.61-.15-.17-.34-.31-.56-.43-.23-.12-.55-.26-.97-.42-.61-.24-1.11-.48-1.49-.7-.38-.22-.7-.54-.95-.93-.25-.4-.36-.9-.31-1.51,.07-.9,.45-1.58,1.15-2.04,.69-.46,1.56-.65,2.61-.57,1.07,.08,1.91,.41,2.52,.97,.61,.56,.91,1.3,.88,2.21l-2.55-.2c0-.31-.09-.57-.29-.76-.2-.2-.46-.31-.79-.33-.28-.02-.52,.04-.71,.17-.19,.14-.29,.35-.31,.63-.02,.31,.1,.57,.38,.77,.28,.2,.73,.42,1.33,.67,.61,.26,1.1,.5,1.48,.73,.38,.22,.69,.53,.95,.92,.26,.39,.36,.87,.32,1.45-.04,.55-.22,1.04-.54,1.47-.32,.43-.75,.76-1.31,.98-.55,.22-1.19,.31-1.92,.25-.71-.06-1.33-.22-1.88-.49Z"/><path class="d" d="M143.73,182.33l-3.62,.15-.51,1.74-2.47,.1,3.1-9.85,2.74-.12,3.92,9.55-2.5,.11-.65-1.69Zm-.69-1.8l-1.35-3.5-1.04,3.6,2.39-.1Z"/><path class="d" d="M150.62,183.08c-.59-.13-1.09-.4-1.5-.79-.41-.39-.67-.9-.79-1.52l2.48-.42c.1,.35,.26,.6,.5,.75s.53,.2,.87,.14c.35-.06,.6-.18,.78-.38,.17-.19,.24-.43,.19-.71-.04-.24-.15-.42-.34-.55-.18-.13-.4-.22-.65-.28-.25-.06-.6-.12-1.04-.18-.65-.09-1.19-.19-1.61-.32-.42-.13-.81-.35-1.15-.68-.34-.33-.57-.79-.67-1.39-.15-.89,.06-1.64,.62-2.26,.56-.61,1.36-1.01,2.4-1.18,1.05-.18,1.95-.07,2.68,.33s1.19,1.04,1.39,1.93l-2.52,.42c-.07-.31-.22-.53-.46-.67-.24-.14-.52-.19-.85-.13-.28,.05-.5,.16-.64,.34-.15,.18-.2,.41-.15,.69,.05,.31,.24,.53,.56,.65s.8,.23,1.46,.33c.65,.11,1.19,.22,1.61,.35,.42,.13,.8,.35,1.14,.66,.34,.32,.56,.76,.66,1.33,.09,.55,.03,1.06-.17,1.56-.2,.49-.55,.91-1.03,1.27-.48,.35-1.09,.59-1.8,.71-.7,.12-1.35,.11-1.94-.03Z"/><path class="d" d="M167.23,177.35l-3.43,1.18v1.81l-2.33,.81,.16-10.32,2.59-.89,6.49,8.03-2.37,.82-1.11-1.43Zm-1.17-1.53l-2.3-2.97,.03,3.75,2.26-.78Z"/><path class="d" d="M177.18,174.84l-3.43-2.39-.51,.25,1.62,3.29-2.12,1.05-4.3-8.7,3.56-1.76c.69-.34,1.33-.51,1.93-.51,.6,0,1.13,.15,1.57,.45,.45,.3,.8,.7,1.05,1.22,.29,.58,.38,1.18,.28,1.79-.1,.62-.42,1.18-.97,1.68l3.71,2.45-2.39,1.18Zm-4.68-3.64l1.31-.65c.39-.19,.63-.43,.73-.72,.1-.29,.06-.6-.11-.95-.16-.33-.39-.54-.68-.64-.29-.09-.63-.05-1.01,.15l-1.31,.65,1.07,2.16Z"/><path class="d" d="M179.49,164.53l1.06,1.65,2.67-1.7,.98,1.54-2.67,1.7,1.15,1.8,3.02-1.93,1.02,1.6-5.01,3.2-5.22-8.18,5.01-3.2,1.02,1.6-3.02,1.93Z"/><path class="d" d="M191.15,159.39c.09,.52,.01,1.07-.23,1.62-.24,.56-.67,1.08-1.29,1.58l-1.15,.91,2.17,2.72-1.85,1.48-6.06-7.58,2.99-2.39c.61-.48,1.2-.79,1.78-.91s1.13-.09,1.63,.11c.5,.2,.94,.54,1.32,1.01,.35,.44,.57,.92,.66,1.45Zm-2.24,.96c.04-.3-.06-.61-.3-.91-.24-.3-.51-.47-.82-.49-.3-.03-.63,.1-.99,.38l-1.01,.8,1.52,1.9,1-.8c.35-.28,.55-.57,.59-.88Z"/><path class="d" d="M199.38,155.97l-2.53,2.59,.82,1.61-1.73,1.77-4.49-9.3,1.91-1.96,9.4,4.27-1.75,1.79-1.63-.78Zm-1.73-.84l-3.38-1.62,1.71,3.33,1.67-1.71Z"/><path class="d" d="M204.92,151.79c-.52,.31-1.07,.46-1.63,.45-.56,0-1.1-.19-1.62-.57l1.53-2c.31,.19,.6,.26,.88,.2s.52-.22,.73-.49c.21-.28,.32-.55,.31-.81,0-.26-.12-.48-.35-.65-.19-.14-.4-.2-.62-.17-.22,.03-.45,.11-.67,.24-.22,.13-.52,.32-.88,.59-.53,.38-1,.67-1.39,.87-.39,.2-.83,.3-1.3,.29-.47,0-.95-.19-1.44-.56-.72-.55-1.08-1.24-1.09-2.07-.01-.83,.3-1.66,.94-2.5,.65-.85,1.37-1.38,2.18-1.59,.8-.21,1.58-.06,2.34,.46l-1.55,2.04c-.26-.18-.53-.23-.8-.17-.27,.06-.51,.22-.71,.49-.17,.23-.25,.46-.24,.69,.02,.23,.14,.43,.36,.61,.25,.19,.53,.22,.85,.09,.32-.13,.75-.38,1.29-.76,.55-.37,1.02-.65,1.41-.85,.39-.19,.82-.29,1.29-.3,.47,0,.93,.17,1.39,.52,.44,.33,.76,.75,.94,1.25,.19,.5,.23,1.04,.12,1.63-.11,.59-.39,1.17-.83,1.75-.43,.56-.91,1-1.43,1.31Z"/></g><path class="f" d="M78.11,79.09c-.78,1.11-1.69,2.05-2.72,2.75,.2-.8,.42-1.61,.65-2.4,1.26-4.35,2.96-8.52,5.02-12.44,.69,3.5-.45,8.58-2.95,12.1Z"/><g><path class="e" d="M81.06,66.99c-.03-.15-.07-.31-.1-.46-.03-.12-.07-.26-.11-.37-.01-.05-.03-.1-.05-.13-.69-1.99-2.48-3.26-4.56-3.26-.3,0-.6,.02-.91,.07-1.26,.22-2.35,.84-3.11,1.75-.94,.99-4.05,2.35-8.29,3.08-4.22,.73-9.1,1.06-14.25,1.42h-.08c-1.9,.13-3.82,.26-5.76,.42-4.41,.34-8.93,.8-13.57,1.61-4.29,.73-8.41,1.74-12.24,3C5.87,78.14,.22,87.07,0,94.15c-.08,3.58,1.27,7.07,3.73,9.58,2.1,2.15,4.73,3.34,7.43,3.34,.51,0,1.01-.04,1.5-.12,.18-.04,.35-.07,.52-.11-.54,1.46-.83,3.05-.9,4.57-.1,1.67,.43,3.21,1.47,4.31,.96,1.02,2.25,1.57,3.62,1.57,.29,0,.57-.02,.85-.07,.3-.05,.57-.12,.82-.21-3.54,13.28-3.07,16.01-2.85,17.27,.83,4.8,5.47,7.64,9.92,8.48,.49,.1,.99,.17,1.47,.21,.12,.01,.25,.02,.37,.02,.23,0,.46-.02,.69-.06,2.74-.47,4.35-2.35,4.42-5.17v-.18c0-.58,.27-3.35,.72-6.77,.47-3.53,2.01-10.17,3.72-17.2,1-.16,1.99-.32,2.92-.46,.16-.02,.33-.05,.49-.08,.47-.08,.93-.15,1.37-.21,.44-.07,.86-.14,1.27-.2,.81-.13,1.56-.26,2.24-.36,1.24-.2,2.24-.36,2.88-.47,.12-.02,.23-.04,.33-.05,.66-.11,1.26-.32,1.82-.59h0c3.37-1.61,4.81-5.79,5.01-9.53,.01-.19,.02-.37,0-.56h0c-.02-.7-.15-1.36-.39-1.97-.26-.64-.62-1.23-1.1-1.74-.67-.71-1.52-1.2-2.44-1.44-.4-.11-.83-.16-1.25-.16-.07,0-.14,0-.21,0-.21,.01-.44,.04-.65,.07-.57,.1-1.02,.3-1.34,.48-.04,.01-.09,.02-.14,.04-.66,.18-1.91,.43-3.47,.72-.96,.18-2.04,.37-3.16,.58,1.33-4.98,2.56-9.41,3.39-12.38,.25,0,.5,0,.74,0,1.21-.01,2.42-.02,3.61-.03,7.13-.04,13.86-.08,18.97-.95,2.72-.47,4.85-1.17,6.51-2.14,.11-.07,.21-.12,.32-.19,.02-.01,.05-.03,.07-.04,.03-.02,.05-.04,.09-.07,1.03-.7,1.94-1.64,2.72-2.75,2.5-3.51,3.64-8.6,2.95-12.1ZM15.9,98.14c0-2.45,.72-4.41,1.85-5.96h0c1.29-1.78,3.1-3.04,4.97-3.93h0c2.02-.97,4.09-1.5,5.58-1.79-.1,.3-.2,.61-.3,.92-1.23,3.71-2.72,8.32-4.21,13.18-1.09,.18-2.05,.33-2.85,.45-.71,.11-1.29,.19-1.69,.26-.05,.01-.1,.02-.14,.02-.75,.13-1.42,.36-2.03,.68,.02-1-.28-1.97-.87-2.79-.27-.35-.32-.52-.31-.97v-.07Z"/><path class="e" d="M92.72,106.33l-.04-.07s0,0,0,0c-.98-1.59-2.74-2.59-4.63-2.59-.32,0-.63,.03-.94,.08-.82,.14-1.58,.45-2.29,.95h0c-.29,.2-.55,.42-.82,.67,.61-2.18,1.17-4.01,1.55-4.96,.56-1.33,.64-2.72,.29-4-.17-.58-.42-1.13-.76-1.65-.7-1.04-1.68-1.8-2.76-2.33-.36-.18-.73-.33-1.09-.46-1.24-.44-2.53-.62-3.62-.62-.49,0-.96,.04-1.38,.11-.96,.16-1.84,.54-2.6,1.09-.15,.11-.31,.23-.45,.36-.29,.25-.56,.53-.81,.83-1.21-.46-2.55-.7-4-.7-.85,0-1.76,.08-2.7,.24-1.35,.23-2.66,.62-3.91,1.2-.14,.05-.27,.12-.41,.18-.39,.18-.77,.39-1.14,.61-.34,.2-.68,.41-1.01,.64-.07,.04-.12,.08-.19,.12-.12,.09-.25,.17-.37,.26-1.11,.8-2.16,1.73-3.15,2.81-1.89,2.05-3.54,4.58-4.89,7.55-.76,1.65-1.39,3.38-1.89,5.16-.41,1.42-.73,2.86-.97,4.28-.02,.15-.05,.32-.07,.47-.01,.08-.02,.16-.04,.24-.06,.41-.11,.82-.15,1.23-.05,.45-.08,.89-.11,1.33,0,.15-.02,.3-.02,.46-.01,.14-.02,.27-.02,.41h0c-.07,1.68,.02,3.25,.27,4.68,.36,2.06,1.3,3.87,2.68,5.3h0c2.09,2.2,5.19,3.53,8.7,3.53,.71,0,1.41-.06,2.09-.18,2.6-.45,5.21-2.25,7.81-5.39,2.54,1.71,5.7,2.52,8.16,2.52,.48,0,.92-.04,1.32-.1,.59-.1,1.3-.23,2.33-.98,.04-.02,.07-.04,.11-.07,.08-.05,.16-.12,.24-.18,.19-.15,.39-.32,.61-.52,.84-.77,1.86-1.92,3.11-3.62,.81-1.1,1.72-2.44,2.74-4.05,1.09-1.73,2.31-3.78,3.69-6.22,0,0,0,0,0-.01,.49-.88,1.01-1.82,1.55-2.8,1.04-1.89,1.05-4.04,.02-5.78Zm-26.55,3.12c-.31,1.03-.72,2.19-1.25,3.41-.13,.29-.26,.57-.38,.84,.42-1.43,.96-2.9,1.63-4.25Z"/><path class="e" d="M124.44,98.86c-.19,.74-.42,1.49-.69,2.27-.46,1.32-1.03,2.69-1.71,4.1-1.09,2.27-2.48,4.64-4.14,7.12-.4,.61-.82,1.21-1.24,1.81-.34,.48-.69,.96-1.04,1.42-.46,.61-.93,1.23-1.41,1.84-1.05-1.32-1.86-2.9-2.4-4.7-1.05,1.41-2.04,2.65-2.88,3.66-.17,.2-.34,.42-.55,.65-.26,.3-.54,.63-.84,.98h0c-.18,.21-.37,.42-.56,.64-.52,.58-1.09,1.2-1.69,1.83-3.03,3.17-6.91,6.63-9.79,7.13-.62,.11-1.3,.16-2.03,.16-.19,0-.39,0-.58-.01-.12,0-.23,0-.34-.02-.13,0-.27-.01-.4-.02-.11,0-.21-.02-.32-.03-.29-.02-.57-.06-.86-.11-.2-.03-.4-.07-.6-.1-.21-.04-.42-.08-.63-.13-.21-.05-.42-.1-.62-.15-1.6-.43-3.12-1.09-4.42-1.99-1.25,1.7-2.27,2.85-3.11,3.62-.53-.38-1.02-.79-1.49-1.23-.24-.22-.47-.45-.68-.68-.87-.93-1.59-1.94-2.16-3.03-.54-1.03-.93-2.13-1.18-3.29-.05-.2-.09-.4-.13-.61-.05-.32-.1-.64-.13-.98-.07-.55-.1-1.12-.11-1.72-.02-.43-.01-.88,0-1.34,.04-1.19,.17-2.47,.39-3.84,.74-4.68,2.47-10.39,5.28-17.46,.27-.69,.57-1.43,.9-2.22,1.08,.53,2.06,1.29,2.76,2.33,.34,.52,.59,1.07,.76,1.65,.46-1.17,.96-2.37,1.49-3.62,.06-.14,.12-.27,.18-.4,.12-.27,.27-.52,.42-.76,.08-.12,.16-.24,.24-.35,.04-.05,.07-.1,.11-.14,.11-.15,.24-.3,.37-.45,.05-.05,.1-.11,.15-.16,.07-.07,.14-.14,.21-.21,.02-.02,.05-.05,.07-.07,.06-.05,.11-.1,.17-.15,.07-.06,.14-.11,.21-.17,.04-.03,.07-.06,.11-.08,.04-.02,.07-.05,.11-.08,.08-.05,.15-.1,.23-.15,.07-.04,.14-.1,.22-.13,0,0,0,0,0,0,.06-.04,.12-.08,.19-.11,0-.01,.01-.01,.02-.01,.08-.05,.15-.08,.23-.12,0,0,.01,0,.02,0,.06-.03,.12-.05,.18-.08,.02-.01,.04-.02,.05-.02,.08-.04,.17-.08,.26-.11,.11-.05,.23-.09,.36-.12,0,0,.02-.01,.03-.01,.13-.04,.27-.08,.4-.11,.14-.03,.27-.06,.41-.08,.42-.07,.89-.11,1.38-.11,2.4,0,5.79,.9,7.47,3.42,1.1,1.65,1.28,3.69,.5,5.61-.03,.07-.06,.15-.1,.24-.02,.04-.03,.08-.04,.12-.17,.47-.37,1.09-.6,1.81-.05,.17-.1,.33-.15,.51-.01,.02-.02,.05-.02,.07-.03,.08-.06,.17-.08,.27-.48,1.62-1.03,3.62-1.56,5.65h0c-.09,.33-.18,.67-.26,.99,.12-.2,.23-.4,.34-.61,.15-.27,.3-.54,.44-.81,.15-.27,.29-.56,.43-.84,.08-.17,.17-.33,.25-.5,.65-1.31,1.24-2.71,1.75-4.14,.07-.21,.15-.42,.21-.64,.1-.26,.17-.52,.25-.78,.1-.31,.18-.62,.27-.94,.05-.17,.09-.34,.13-.51,.05-.19,.1-.37,.14-.56,.04-.18,.08-.37,.12-.56,0-.02,.01-.04,.01-.05,1.03-4.71,.7-6.59,.4-7.3-.04-.11-.08-.21-.11-.32-.43-1.33-.25-2.78,.48-3.98,.82-1.36,2.24-2.3,3.91-2.59,.55-.1,1.11-.14,1.67-.14,.15,0,.32,0,.47,.01,.18,0,.35,.02,.53,.04,.1,.01,.2,.02,.29,.04,.08,.01,.17,.02,.26,.04,.39,.06,.77,.15,1.15,.26,.08,.02,.16,.04,.24,.07,.3,.1,.59,.2,.88,.32,.23,.1,.45,.2,.66,.3,.24,.12,.49,.26,.72,.4,.11,.07,.23,.14,.33,.21,.11,.07,.22,.14,.33,.22,.11,.08,.23,.16,.34,.24,.08,.06,.16,.12,.24,.18,.12,.11,.25,.21,.37,.32,.25,.21,.49,.44,.72,.68,.89,.91,1.64,1.97,2.19,3.14,1.15-1.21,2.4-2.26,3.71-3.16,.21,.36,.4,.74,.59,1.12,.05,.11,.1,.21,.14,.32,.3,.67,.55,1.34,.74,2,.17,.54,.3,1.11,.41,1.74,.49,2.89,.37,5.62-.38,8.38Z"/><path class="e" d="M119.84,97.64c-1.05,4.1-3.43,8.4-5.88,12.06-.71,1.07-1.44,2.09-2.14,3.03-1.05,1.41-2.04,2.65-2.88,3.66-.17,.2-.34,.42-.55,.65-.26,.3-.54,.63-.84,.98h0c-.18,.21-.37,.42-.56,.64-.52,.58-1.09,1.2-1.69,1.83-3.03,3.17-6.91,6.63-9.79,7.13-.62,.11-1.3,.16-2.03,.16-.19,0-.39,0-.58-.01-.12,0-.23,0-.34-.02-.13,0-.27-.01-.4-.02-.11,0-.21-.02-.32-.03-.29-.02-.57-.06-.86-.11-.2-.03-.4-.07-.6-.1-.21-.04-.42-.08-.63-.13-.21-.05-.42-.1-.62-.15-1.6-.43-3.12-1.09-4.42-1.99-1.99-1.36-3.48-3.26-3.98-5.67-.03-.11-.05-.22-.07-.33-.29-1.69-.23-3.81,.17-6.35,.68-4.29,2.35-9.79,5-16.44,.46-1.17,.96-2.37,1.49-3.62,.06-.14,.12-.27,.18-.4,.12-.27,.27-.52,.42-.76,.08-.12,.16-.24,.24-.35,.04-.05,.07-.1,.11-.14,.11-.15,.24-.3,.37-.45,.05-.05,.1-.11,.15-.16,.07-.07,.14-.14,.21-.21,.02-.02,.05-.05,.07-.07,.06-.05,.11-.1,.17-.15,.07-.06,.14-.11,.21-.17,.04-.03,.07-.06,.11-.08,.04-.02,.07-.05,.11-.08,.08-.05,.15-.1,.23-.15,.07-.04,.14-.1,.22-.13,0,0,0,0,0,0,.06-.04,.12-.08,.19-.11,0-.01,.01-.01,.02-.01,.08-.05,.15-.08,.23-.12,0,0,.01,0,.02,0,.06-.03,.12-.05,.18-.08,.02-.01,.04-.02,.05-.02,.08-.04,.17-.08,.26-.11,.11-.05,.23-.09,.36-.12,0,0,.02-.01,.03-.01,.13-.04,.27-.08,.4-.11,.14-.03,.27-.06,.41-.08,.42-.07,.89-.11,1.38-.11,2.4,0,5.79,.9,7.47,3.42,1.1,1.65,1.28,3.69,.5,5.61-.03,.07-.06,.15-.1,.24-.02,.04-.03,.08-.04,.12-.17,.47-.37,1.09-.6,1.81-.05,.17-.1,.33-.15,.51-.01,.02-.02,.05-.02,.07-.03,.08-.06,.17-.08,.27-.48,1.62-1.03,3.62-1.56,5.65h0c-.09,.33-.18,.67-.26,.99,.12-.2,.23-.4,.34-.61,.15-.27,.3-.54,.44-.81,.15-.27,.29-.56,.43-.84,.08-.17,.17-.33,.25-.5,.65-1.31,1.24-2.71,1.75-4.14,.07-.21,.15-.42,.21-.64,.1-.26,.17-.52,.25-.78,.1-.31,.19-.62,.27-.94,.05-.17,.09-.34,.13-.51,.05-.19,.1-.37,.14-.56,.04-.18,.08-.37,.12-.56,0-.02,.01-.04,.01-.05,1.03-4.71,.7-6.59,.4-7.3-.04-.11-.08-.21-.11-.32-.43-1.33-.25-2.78,.48-3.98,.82-1.36,2.24-2.3,3.91-2.59,.55-.1,1.11-.14,1.67-.14,.15,0,.32,0,.47,.01,.18,0,.35,.02,.53,.04,.1,.01,.2,.02,.29,.04,.08,.01,.17,.02,.26,.04,.39,.06,.77,.15,1.15,.26,.08,.02,.16,.04,.24,.07,.3,.1,.59,.2,.88,.32,.23,.1,.45,.2,.66,.3,.24,.12,.49,.26,.72,.4,.11,.07,.23,.14,.33,.21,.11,.07,.22,.14,.33,.22,.11,.08,.23,.16,.34,.24,.08,.06,.16,.12,.24,.18,.12,.11,.25,.21,.37,.32,.25,.21,.49,.44,.72,.68,.89,.91,1.64,1.97,2.19,3.14,.25,.53,.46,1.08,.62,1.65h0c.12,.4,.21,.8,.29,1.21,.37,2.17,.27,4.24-.3,6.33Z"/><path class="d" d="M82.93,116.71c-1.07-6.23,4.77-20.31,6.39-24.13,.42-1,1.09-1.54,1.9-1.68,1.72-.3,6.02,.65,4.88,3.38-1.29,3.26-5.34,18.47-5,20.43,.18,1.07,.61,1.58,1.92,1.36,2.79-.48,10.32-10.63,12.38-20.69,.61-2.8,1.33-6.98,.18-9.73-.18-.56,.39-1.16,1.21-1.31,3.69-.63,7,2.42,7.59,5.86,.24,1.39,.25,2.91-.22,4.59-2.66,10.5-17.23,26.33-21.08,27-2.95,.51-9.42-.82-10.16-5.09Z"/><path class="e" d="M154.9,95.63c-.71-1.21-1.87-2.08-3.2-2.46h0c-.47-.14-.96-.21-1.47-.21-.31,0-.62,.03-.94,.08-.34,.06-.68,.15-1.01,.27h-.01s-.04,.02-.07,.03c-.37-2.24-1.15-4.28-2.33-6.02-.41-.61-.86-1.17-1.36-1.68-.26-.28-.54-.54-.82-.78-1.34-1.15-2.93-2-4.7-2.53-.2-.06-.4-.11-.6-.16-.15-.04-.31-.08-.46-.11l-.09-.02c-.23-.05-.47-.1-.71-.13-.84-.14-1.71-.2-2.62-.2-1.16,0-2.38,.11-3.65,.33-1.56,.27-3.09,.73-4.55,1.38-.21,.09-.41,.18-.61,.29-.15,.07-.29,.14-.43,.21-.45,.22-.88,.46-1.31,.73-.34,.2-.67,.42-1.01,.64-1.31,.9-2.56,1.95-3.71,3.16-1.55,1.61-2.94,3.48-4.15,5.61-3.13,5.49-4.57,11.85-3.76,16.57,.12,.73,.29,1.43,.49,2.1,.54,1.8,1.35,3.38,2.4,4.7,.17,.22,.34,.43,.53,.63,.08,.1,.17,.19,.27,.28,.14,.14,.27,.28,.41,.41s.27,.26,.42,.37c.17,.15,.35,.3,.54,.43,.06,.05,.13,.1,.19,.14,.07,.06,.14,.11,.21,.15,.12,.09,.24,.18,.37,.26,.07,.05,.14,.1,.22,.14,.13,.08,.26,.16,.39,.23,.17,.1,.34,.19,.52,.28,.17,.09,.35,.17,.54,.26,.18,.08,.36,.16,.55,.23,.17,.07,.35,.14,.54,.2,.36,.12,.72,.23,1.09,.33,.01,0,.03,0,.04,.01,.21,.05,.42,.1,.62,.14,.21,.05,.43,.08,.65,.12,.44,.07,.89,.12,1.36,.15,.4,.03,.82,.04,1.24,.04,1.19,0,2.46-.11,3.77-.34,1.4-.24,2.78-.63,4.1-1.17,3.78-1.52,7.2-4.19,9.94-7.79,.38-.11,.74-.23,1.1-.36,.17-.07,.35-.13,.52-.2,.17-.07,.34-.14,.51-.21,.16-.07,.33-.14,.48-.21,.37-.17,.73-.36,1.08-.55,.15-.08,.31-.17,.46-.27,.15-.09,.3-.18,.44-.27,.18-.11,.35-.23,.52-.35,.49-.34,.95-.71,1.39-1.09,2.53-2.24,4.17-5.1,5.7-8.08,.28-.54,.49-1.09,.6-1.65,.31-1.4,.1-2.84-.62-4.06Zm-22.12,2.96c-.45-2.63,1.29-3.97,1.74-4.19,.07,0,.13-.01,.18-.02,.34,.92,.25,3.32-.68,6.12-.63-.47-1.11-1.1-1.25-1.91Z"/><path class="e" d="M183.9,96.39c-.3,.56-.59,1.11-.88,1.64h0c-.2,.36-.38,.69-.56,1.02,0,0,0,0,0,0,0,0,0,.02,0,.02-.2,.37-.4,.73-.59,1.07-1.18,2.09-2.24,3.86-3.22,5.39-1.02,1.61-1.93,2.94-2.74,4.03-1.02,1.37-1.9,2.37-2.64,3.11-.18,.17-.35,.33-.51,.48-.35,.31-.67,.56-.96,.77-.12,.09-.24,.16-.34,.23-.09,.06-.18,.11-.26,.15-.23,.12-.43,.22-.61,.29-.08,.04-.16,.06-.24,.08-.01,0-.02,.01-.04,.01-.08,.03-.17,.05-.24,.07-.21,.05-.38,.08-.55,.11-.4,.07-.82,.1-1.29,.1-.39,0-.84-.02-1.33-.08-.12-.01-.24-.03-.37-.05-.08-.01-.16-.02-.24-.04-.14-.02-.27-.04-.41-.07-.6-.11-1.24-.26-1.89-.46-.14-.04-.29-.08-.42-.13-.11-.04-.22-.07-.33-.11l-.43-.16c-1.72-.67-3.45-1.67-4.77-3.1-.21-.24-.42-.48-.62-.74-.1-.14-.2-.27-.29-.42-.03-.04-.05-.08-.08-.13-.06-.1-.12-.19-.18-.29-.08-.14-.17-.29-.24-.44-.07-.14-.14-.27-.2-.41-.01-.02-.02-.03-.02-.05-.01-.02-.02-.04-.03-.07-.05-.12-.1-.25-.15-.37-.02-.05-.04-.09-.05-.14-.05-.12-.1-.26-.13-.39-.05-.15-.09-.31-.13-.47-.05-.2-.09-.4-.12-.61-.35-2.03-.21-4.63,.45-7.89-.24,.44-.47,.87-.71,1.32-.32,.59-.65,1.19-.98,1.78-.02,.04-.04,.07-.06,.11-1.26,2.11-2.94,2.79-4.14,3-.33,.05-.65,.08-.99,.08-1.28,0-2.5-.42-3.47-1.17h0c-.59-.45-1.07-1-1.45-1.64-.21-.38-.38-.76-.49-1.17h0c-.42-1.43-.23-2.99,.56-4.34,.02-.02,.04-.06,.05-.08,1.05-1.68,2.08-3.43,3.04-5.08-1.5-1.27-2.65-3.01-3.38-4.67-.04-.11-.09-.21-.13-.32-.19-.43-.32-.88-.4-1.33-.2-1.14-.02-2.3,.52-3.33,.06-.11,.12-.23,.2-.34,.01-.02,.03-.06,.05-.08,.06-.1,.12-.2,.2-.29,.08-.1,.15-.2,.23-.29,.05-.06,.1-.11,.15-.16,.09-.09,.18-.18,.27-.26,.07-.06,.13-.12,.2-.17,.05-.04,.1-.08,.16-.12,.07-.06,.15-.12,.24-.17t.02-.01c.1-.07,.2-.12,.3-.18,.03-.02,.07-.04,.1-.05,0,0,0,0,.01,0,.11-.07,.21-.11,.32-.17,.1-.04,.2-.08,.29-.12,.07-.03,.14-.05,.21-.07,.23-.07,.47-.14,.71-.18,.23-.04,.48-.06,.71-.06,.2,0,.39,.02,.55,.04,.74-.07,3.18-.4,7.31-1.11,3.53-.61,7.31-1.3,9.34-1.68,.83-.15,1.42-.26,1.62-.3,.43-.07,.89-.11,1.39-.11,.59,0,1.24,.05,1.91,.17,.27,.05,.54,.11,.81,.18,.11,.03,.21,.05,.32,.08,.04,.02,.08,.03,.13,.04,.15,.04,.29,.09,.44,.14,.26,.09,.51,.19,.76,.3,.11,.05,.23,.1,.34,.16,.07,.03,.14,.07,.2,.1,.14,.07,.27,.15,.4,.23,.84,.51,1.59,1.17,2.16,2,.34,.52,.6,1.07,.76,1.65,.36,1.28,.28,2.67-.28,4-.39,.95-.95,2.77-1.55,4.95,.26-.25,.54-.46,.81-.66h.01c.71-.49,1.47-.81,2.28-.95,.32-.06,.65-.08,.98-.08,1.47,0,2.84,.57,3.84,1.58,.31,.31,.58,.66,.81,1.05,0,0,0,0,0,.01,.05,.08,.09,.15,.13,.23,.89,1.68,.83,3.73-.15,5.55Z"/><path class="f" d="M187.25,117.83c1.61-.89,3.29-1.75,5.01-2.59-.58,.48-1.15,.9-1.74,1.25-.04,.02-.07,.04-.1,.06-.18,.11-.37,.21-.54,.3-.04,.02-.08,.04-.12,.06-.14,.08-.28,.14-.42,.2-.13,.07-.28,.13-.42,.18-.63,.26-1.2,.42-1.68,.52Z"/><path class="e" d="M199.95,93.62c-.17,.33-.34,.64-.51,.95t0,.01s0,0,0,0,0,0,0,.01c-.5,.92-.98,1.79-1.45,2.62-1.17,2.08-2.24,3.86-3.2,5.39h0c-1.03,1.64-1.96,2.99-2.78,4.1-.28,.37-.54,.71-.79,1.03-.91,1.14-1.68,1.97-2.35,2.58-.17,.16-.34,.3-.49,.43-.08,.07-.15,.12-.23,.18-.08,.06-.15,.12-.22,.17-.17,.12-.33,.23-.49,.33-.11,.07-.23,.13-.33,.18-.07,.04-.14,.07-.2,.1-.07,.03-.13,.06-.19,.08-.47,.19-.84,.26-1.15,.31-.4,.07-.83,.11-1.3,.11s-.99-.04-1.58-.12l-.52-.08c-.1-.02-.21-.04-.31-.05-.1-.02-.21-.04-.32-.07-.2-.04-.4-.08-.61-.14-.2-.05-.42-.11-.62-.17,0,0,0,0-.01,0l-.08-.02-.88-.28c-1.17-.42-2.36-.98-3.44-1.73-1.88-1.3-3.43-3.15-3.97-5.69h0c-.02-.12-.05-.25-.07-.37-.29-1.69-.24-3.8,.17-6.34h0c.68-4.3,2.35-9.8,5-16.45,.46-1.17,.96-2.38,1.49-3.62,.07-.16,.13-.31,.21-.46,.01-.02,.02-.05,.04-.07,.07-.13,.13-.26,.2-.38,.01-.01,.02-.02,.02-.04,.09-.15,.18-.29,.28-.43,.07-.1,.14-.19,.21-.28,.04-.06,.09-.12,.14-.17,.08-.1,.15-.19,.24-.27,.03-.04,.07-.07,.1-.11,.1-.11,.21-.21,.32-.3,0,0,.02-.01,.02-.02,.11-.1,.23-.21,.36-.3,.09-.07,.18-.14,.28-.21,.01-.01,.02-.02,.04-.03,.03-.02,.05-.04,.08-.05-.71-1.12-.98-2.42-.76-3.72,.06-.36,.36-2.21,.77-4.34,.26-1.31,.55-2.73,.85-3.97,.15-.58,.29-1.12,.43-1.59h0c.02-.07,.04-.14,.06-.2,0-.02,.02-.04,.02-.06,.83-2.49,2.88-4.19,5.62-4.66,.11-.02,.23-.04,.34-.05,.04,0,.07-.01,.1-.01h0c.18-.02,.37-.04,.55-.05s.37-.02,.55-.02h.05c.27,0,.55,.02,.83,.05,.2,.01,.4,.04,.61,.07,2.11,.3,4.41,1.22,6.03,2.72,.37,.34,.71,.73,1,1.14,.05,.07,.1,.14,.14,.2,.04,.05,.07,.11,.1,.17,.97,1.59,1.12,3.41,.41,5.05-.2,.48-.46,1.03-.76,1.64-.09,.19-.18,.39-.29,.58-.05,.09-.1,.18-.14,.27-.54,1.08-1.16,2.26-1.77,3.42-.78,1.5-1.67,3.19-1.93,3.83-.01,.02-.02,.06-.04,.08-.23,.51-.53,.97-.9,1.36h0c-.17,.19-.36,.36-.56,.51,.1,.15,.18,.3,.27,.46,.82,1.55,.88,3.38,.16,5.1-.38,.95-.95,2.78-1.55,4.96,.24-.23,.51-.45,.77-.62,.72-.51,1.5-.84,2.34-.99,.32-.05,.64-.08,.96-.08,1.24,0,2.38,.4,3.31,1.11,.54,.41,.99,.92,1.35,1.53,.21,.36,.37,.73,.49,1.11t0,.01h0c.48,1.49,.29,3.16-.52,4.65Z"/><path class="f" d="M212.15,107.18c-.77,1.01-1.51,1.89-2.22,2.65h0c-1,1.07-1.96,1.89-2.91,2.52-1.04,.7-1.97,1.07-2.7,1.28-.53,.16-.96,.23-1.25,.28-.7,.12-1.4,.17-2.15,.17-.59,0-1.19-.03-1.77-.09h-.04c-.99-.09-2.04-.26-3.08-.51,.12-.06,.24-.11,.36-.17,2.51-1.12,5.1-2.19,7.71-3.21,.33-.13,.67-.26,1.01-.39,2.19-.84,4.42-1.65,6.63-2.41,.14-.05,.27-.1,.4-.14Z"/><path class="e" d="M225.18,65.9c-.09,.92-.38,1.65-.79,2.24-.79,1.14-1.99,1.68-2.9,1.84-.26,.04-.51,.07-.77,.07-.86,0-1.55-.24-2.03-.45h0c-.11-.04-.2-.08-.29-.12-.21-.1-.32-.14-.43-.17-.34-.07-.86-.13-1.57-.18-.52-.04-1.15-.05-1.91-.05s-1.55,.02-2.4,.07c-.72,2.53-1.37,4.84-1.96,6.96-.82,2.99-1.52,5.58-2.09,7.84,.25-.23,.51-.43,.77-.61,.7-.48,1.45-.78,2.25-.92,.32-.05,.65-.08,.97-.08,1.78,0,3.38,.82,4.39,2.22,.1,.14,.18,.27,.27,.41,1.02,1.72,1,3.89-.02,5.78-.39,.72-.77,1.42-1.14,2.08h0c-1.55,2.83-2.93,5.16-4.14,7.08-.96,1.52-1.83,2.78-2.61,3.84-1.34,1.81-2.43,3.01-3.32,3.79h0c-.39,.35-.74,.62-1.06,.84-.96,.64-1.62,.76-2.13,.84-.4,.07-.85,.1-1.35,.1-.41,0-.84-.02-1.3-.07-.25-.02-.5-.05-.76-.08-.26-.04-.52-.08-.79-.12-.12-.02-.25-.05-.38-.07-.41-.08-.83-.18-1.24-.3-.15-.04-.3-.08-.45-.13-.08-.03-.17-.05-.25-.08-1.07-.34-2.14-.8-3.13-1.39-.21-.12-.42-.25-.61-.39-1.94-1.3-3.5-3.13-4.04-5.6-.02-.12-.05-.24-.07-.37-.05-.31-.13-.75-.14-1.47-.02-1.02,.07-2.59,.52-5.17,0,0,0,0,0,0h0c.18-1.06,.42-2.26,.73-3.66,.74-3.32,1.88-7.72,3.63-13.59,.1-.32,.19-.64,.29-.97h0c.22-.73,.45-1.48,.68-2.25-.05,.04-.1,.07-.13,.11-.73,.56-1.61,.86-2.51,.86-.42,0-.84-.07-1.25-.2-1.43-.46-2.57-1.43-3.28-2.72-.3-.54-.52-1.14-.65-1.78-.33-1.6-.05-3.37,.69-4.89,.45-.94,1.08-1.79,1.85-2.46,.02-.02,.04-.04,.06-.05,.97-.8,2.19-1.53,3.5-2.19,.36-.19,.73-.36,1.11-.54h0s.03-.02,.05-.02c.21-.1,.42-.19,.63-.28,1.14-.49,2.31-.93,3.43-1.33,.57-.2,1.14-.38,1.66-.55,.32-.96,.62-1.84,.89-2.62,.08-.24,.17-.48,.24-.7,.48-1.39,.84-2.4,1.03-2.91,.08-.24,.14-.37,.14-.4,.03-.07,.05-.13,.08-.2,1.33-3.08,3.23-4.63,6.37-5.17,.51-.08,1.05-.13,1.61-.13,1.39,0,4.84,.29,6.77,2.93,1.09,1.47,1.38,3.38,.79,5.2,0,0-.24,.79-.34,1.12,1.03,.16,2.03,.54,2.95,1.08,1.34,.77,2.54,1.87,3.5,3.13,.61,.8,1.12,1.66,1.52,2.55,.38,.83,.65,1.69,.79,2.53l.05,.34h0c.08,.59,.08,1.12,.04,1.59Z"/><path class="e" d="M294.8,110.68c-1.06-6.21-6.58-13.59-26.59-13.89-.42,0-.85,0-1.28,0-6.62,0-14.21,.73-22.56,2.16-1.66,.29-3.34,.58-5.05,.9-.45-2.21-.62-4.51-.54-6.88,.14-4.64,3.44-16.97,4.57-19.73,.8-1.93,.63-3.98-.48-5.65-1.68-2.52-5.08-3.41-7.47-3.41-.49,0-.95,.04-1.38,.11-.55,.1-1.08,.26-1.58,.49-.37,.17-.73,.37-1.06,.62-.07,.05-.14,.11-.21,.17-.37,.29-.7,.62-1.01,1-.08-.03-.16-.06-.24-.09-.07-.02-.14-.05-.22-.08-1.08-.36-2.27-.54-3.54-.54-.12,0-.26,0-.39,0-.18,0-.37,.01-.57,.03-.56,.04-1.14,.11-1.74,.21-2.52,.43-4.89,1.46-7.04,3.01-2.37,1.7-4.49,4.06-6.26,6.98-.64,1.05-1.23,2.18-1.78,3.37-1.03,2.27-1.84,4.71-2.4,7.15-.19,.82-.34,1.64-.48,2.46h0c-.02,.11-.04,.21-.05,.32,0,0,0,.01,0,.02-.08,.47-.14,.93-.18,1.4h0c-.11,.96-.17,1.9-.18,2.82-.02,.98,.02,1.92,.11,2.82h0c.03,.3,.07,.6,.11,.89,.02,.14,.04,.27,.07,.4,.14,.84,.39,1.65,.73,2.4h0c.62,1.4,1.54,2.62,2.7,3.62,1.13,.97,2.49,1.72,4,2.19,.08,.02,.15,.05,.24,.07,.4,.12,.82,.23,1.25,.3,.1,.02,.19,.04,.29,.05-.14,.05-.28,.1-.42,.14-.66,.22-1.32,.44-1.97,.67-.14,.04-.27,.09-.4,.14-2.21,.76-4.44,1.56-6.63,2.41-.34,.12-.68,.26-1.01,.39-2.62,1.02-5.2,2.09-7.71,3.21-.12,.05-.24,.11-.36,.17-.57,.26-1.14,.51-1.7,.77-.56,.26-1.12,.52-1.68,.79-.13,.07-.26,.12-.39,.18h0c-1.72,.84-3.4,1.71-5.01,2.59-2.9,1.59-5.59,3.24-7.97,4.95-3.53,2.53-6.39,5.17-8.29,7.89-3.88,5.49-3.19,12.64-.77,17.29,1.87,3.61,4.13,4.36,5.69,4.36,.26,0,.53-.02,.79-.07,1.43-.25,2.64-1.06,3.6-2.42,3.26-4.63,7.61-9.09,12.84-13.26h0c.58-.47,1.17-.93,1.78-1.39,0,0,0-.01,.01-.01,9.11-6.92,20.66-12.99,33.72-17.62,.3,.47,.62,.93,.96,1.39,1.31,1.84,2.77,3.54,4.35,5.12,7.84,7.84,18.71,12.41,30.38,12.41,2.68,0,5.42-.24,8.14-.7,6.62-1.14,12.63-4.41,16.92-9.21,4.34-4.85,6.31-10.64,5.41-15.89Zm-71.75-25.79c-.11,.27-.23,.54-.34,.82-.12,.29-.24,.56-.37,.83,.19-.64,.4-1.3,.64-1.93,.22-.61,.46-1.2,.73-1.78,.08-.18,.17-.36,.26-.54-.07,.21-.14,.43-.21,.66-.2,.61-.43,1.25-.71,1.93Zm46.82,34.3c-1.53,.27-3.12,.4-4.72,.4-7.25,0-14.05-2.62-18.87-7.09,1.91-.42,3.86-.8,5.87-1.14,5.54-.96,10.59-1.44,14.98-1.44,8.76,0,12.37,2.01,12.59,3.28,.19,1.11-1.78,4.61-9.85,6Z"/><path class="d" d="M172.57,131.23c6.77-9.69,29.7-20.05,53.51-26.34-1.24-3.75-1.85-7.78-1.72-11.94-2.52,3.98-5.43,7.18-7.97,7.61-3.61,.62-8.06-1.23-8.76-5.32-1.44-8.36,3.71-25.02,14.77-26.92,4.1-.71,6.28,.69,7.41,2.86,.54-1.27,.96-2.27,1.26-3,.42-1,1.08-1.54,1.9-1.68,1.72-.3,6.02,.65,4.88,3.38-1.19,2.9-4.71,15.74-4.88,21.17-.17,4.42,.51,8.35,1.69,11.77,2.92-.67,5.79-1.17,8.66-1.66,23.43-4.03,43.8-2.82,45.74,8.41,1.41,8.19-6.89,18.31-19.01,20.4-18.6,3.2-34.16-5.85-41.34-19.12-20.67,6.85-42.08,18.72-53.47,34.85-.34,.48-.64,.7-.97,.76-1.88,.32-6.24-8.8-1.69-15.23Zm44.42-36.5c6.72-1.16,14.06-23.17,7.67-22.07-7.7,1.33-11.61,22.75-7.67,22.07Zm32.74,10.81c-4.01,.69-8.16,1.57-12.44,2.73,6.74,10.73,20.14,15.09,31.53,13.13,10.4-1.79,13.79-7.1,13.17-10.7-1.16-6.72-14.74-8.18-32.27-5.16Z"/><path class="d" d="M64.6,95.49c4.1-.71,6.28,.69,7.41,2.86,.54-1.27,.96-2.27,1.26-3,.42-1,1.09-1.54,1.9-1.68,1.72-.3,6.02,.65,4.88,3.38-1.48,3.63-6.36,22.35-4.39,22.02,1.39-.24,5.05-5.93,8.77-11.8,.54-.77,1.06-1.19,1.63-1.29,1.15-.2,2.11,.99,1.34,2.39-4.36,8-9.39,16.04-11.52,16.41-1.8,.31-8.18-.95-8.99-5.2-2.56,4.24-5.59,7.71-8.29,8.18-3.61,.62-8.06-1.23-8.76-5.32-1.44-8.36,3.71-25.02,14.77-26.92Zm-5.41,26.41c6.72-1.16,14.06-23.17,7.67-22.07-7.7,1.33-11.61,22.75-7.67,22.07Z"/><path class="d" d="M190.17,98.25c-.76-4.42,4.09-20.86,8.12-33.2-3.81,.91-7.14,2.16-9.07,3.67-1.88-.61-1.47-3.63,0-4.89,2.07-1.71,6.41-3.47,10.99-4.76,1.65-5.09,2.92-8.52,2.92-8.52,.78-1.82,1.52-2.45,3.32-2.77,1.8-.31,5.37,.34,4.61,2.75-.05,.18-.87,2.77-1.99,6.58,1.65-.2,3.24-.3,4.43-.26,2.71,.04,5.4,3.46,5.84,6,.11,.66,.13,1.24-.28,1.31-.41,.07-.92-.43-2.05-.66-2.35-.44-5.97-.41-9.79,0-3.65,12.61-8.53,30.32-7.9,34.01,.03,.16,.12,.23,.29,.2,1.39-.24,5.05-5.93,8.77-11.8,.54-.77,1.06-1.19,1.63-1.29,1.23-.21,2.11,.99,1.34,2.39-4.28,7.99-9.39,16.04-11.52,16.41-1.8,.31-8.93-.91-9.66-5.17Z"/><path class="d" d="M191.67,88.8c.54-.77,1.06-1.2,1.63-1.29,1.23-.21,2.11,.99,1.34,2.39-4.28,7.99-9.39,16.04-11.52,16.41-1.8,.31-8.27-1.02-9.01-5.28-1.07-6.23,4.77-20.31,6.39-24.13,.42-1,1.08-1.54,1.9-1.68,1.72-.3,6.02,.65,4.88,3.38-1.48,3.63-6.36,22.35-4.39,22.02,1.39-.24,5.05-5.93,8.77-11.8Zm-4.22-17.16c-1.72,.3-5.2-.79-4.91-2.53,.12-.78,1.17-6.95,1.99-9.54,.39-1.16,1.3-1.74,2.45-1.94,2.87-.49,7.13,1.72,6.28,3.64-1.08,2.55-4.18,8.06-4.9,9.79-.12,.27-.42,.49-.91,.58Z"/><path class="d" d="M147.92,98.77c-1.23,.21-2.36-.94-1.64-2.16,2.11-3.4,4.12-6.95,5.68-9.67-.41,.07-.74,.13-.98,.17-2.38,.41-4.28-2.81-4.88-4.31-.4-.86,.06-1.61,.71-1.73,.08-.01,.18,.05,.26,.04,.52,.08,4.3-.49,8.32-1.18,4.92-.85,10.23-1.84,10.97-1.97,1.72-.3,6.02,.65,4.88,3.38-1.48,3.63-6.36,22.35-4.39,22.02,1.39-.24,5.05-5.93,8.77-11.8,.54-.77,1.06-1.19,1.63-1.29,1.23-.21,2.11,.99,1.34,2.39-4.28,7.99-9.39,16.04-11.52,16.41-1.8,.31-8.27-1.02-9.01-5.28-.78-4.51,2.06-13.01,4.26-18.87-2.36,.49-4.89,1.01-7.02,1.38-1.46,2.78-3.67,7.13-6.05,11.42-.39,.66-.84,.99-1.33,1.07Z"/><path class="d" d="M129.82,84.26c12.45-2.14,15.04,8.97,11.14,18.67,1.49-.68,2.74-1.74,3.61-3.07,1.19-1.89,1.57-2.63,2.05-3.3,.46-.75,1.06-1.2,1.63-1.29,1.15-.2,2.11,.99,1.34,2.39-2.58,5.08-4.93,8.61-11.03,9.91-2.89,4.29-7.12,7.64-12.28,8.53-9.59,1.65-12.05-4.34-12.67-7.94-1.23-7.13,4.58-21.88,16.22-23.88Zm-2.13,25.84c1.47-.25,2.92-1.18,4.21-2.5-4.13-.98-7.65-3.75-8.92-8.67-.81,2.67-1.19,5.35-.79,7.64,.27,1.56,1.4,4.23,5.5,3.52Zm4.31-21.5c-2.13,.37-5.86,3.71-4.97,8.87,.62,3.61,3.87,5.83,7.5,6.3,3.64-6.79,4.27-16.34-2.53-15.17Z"/><path class="d" d="M2.33,92.46c.16-5.43,4.72-12.79,15.25-16.29,3.83-1.25,7.81-2.19,11.66-2.85,12.21-2.1,24.16-1.8,33.66-3.43,3.36-.58,8.52-1.97,10.71-4.46,.14-.19,.37-.32,.7-.37,.41-.07,.77,.04,.93,.51,.95,3.04-.95,9.19-3.9,11.13-1.29,.81-3.14,1.38-5.35,1.76-6.47,1.11-16.32,.78-25.73,.97-.83,3.01-3.35,11.88-5.83,21.5,6.88-1.18,13.52-2.33,14.12-2.77,.08-.01,.15-.11,.23-.12,.66-.11,1.34,.44,1.28,1.55-.1,1.87-.84,5.88-3.47,6.33-1.72,.3-7.8,1.26-14.12,2.26-2.03,8.28-3.89,16.11-4.44,20.25-.33,2.5-.77,6.29-.75,7.38-.02,.85-.23,1.14-1.05,1.28-2.57-.23-7.14-1.81-7.75-5.33-.51-2.95,1.71-12.11,4.57-21.96-3.77,.65-6.54,1.21-6.92,1.44-.07,.1-.23,.12-.31,.14-.66,.11-1.26-.46-1.2-1.57,.1-1.87,.84-5.88,3.46-6.33,1.07-.18,3.78-.57,7.14-1.15,2.95-9.79,6.09-19.02,7.26-22.51-2.16,.2-4.24,.39-6.12,.72-8.36,1.44-16.29,6.35-16.26,15.79-.02,1.35,.33,2.39,1.1,3.44,.22,.3,.03,1.18-.95,1.34-3.85,.66-8.03-3.51-7.91-8.68Z"/></g><polyline class="h" points="195.52 63.47 195.48 63.48 191.92 64.08 188.55 64.64 186.46 64.99 183.17 65.54 181.05 65.9"/><path class="g" d="M97.78,54.02s-.01,.05-.02,.08c-.2,.88-.38,1.75-.56,2.59-.07,.32-.13,.62-.2,.93-.35,.13-.7,.27-1.03,.4-.59,.24-1.16,.49-1.69,.75-1.17,.56-2.16,1.16-2.94,1.8,.2-.23,1.38-1.6,3.3-3.54,.89-.9,1.94-1.93,3.13-3.03Z"/><path class="g" d="M114.33,52.58c-1.09-.51-2.35-.78-3.68-.78-.69,0-1.34,.08-1.94,.23-.87,.21-1.67,.59-2.36,1.11-.23-.02-.45-.02-.68-.02-.13,0-.26,0-.39,0-.76,.03-1.56,.14-2.37,.34-.5,.12-.99,.28-1.47,.47,.24-1.09,.49-2.21,.76-3.36l.02-.1c.03-.12,.05-.24,.08-.36,5.81-4.68,13.32-9.46,21-10.82,.09-.02,.19-.04,.28-.05,2.32-.43,4.12-.02,5.03,1.62,3.26,5.76-4.71,8.97-14.28,11.71Z"/><path class="g" d="M125.68,159.62c.85,.22,17.68,4.36,28.64-.78,.06-.03,.13-.06,.19-.09,1.6-.74,2.51-1.76,2.37-3.15-.95-9.44-23.08,4.68-31.21,4.03Z"/><g><path class="e" d="M152.68,51.26c-.43,1.64-.42,3.44-1.76,4.76-.26,.25-.47,.71-.45,1.05,.07,1.66-.61,3.07-1.24,4.53-.49,1.14-.72,2.35-.27,3.6,.08,.22-.17,1.22-.5,2.27l-4.78,.79c.44-.34,.77-.79,.75-1.28-.06-1.64,.92-2.82,1.42-4.21,.51-1.42,.94-2.87,1.34-4.33,.29-1.04,.66-1.97,1.61-2.62,1.01-.69,1.63-1.69,1.8-2.93,.13-.92,.26-1.83,.44-3.04,.82,.3,1.2,.32,1.38,.53,.19,.21,.32,.62,.25,.89Z"/><path class="e" d="M138.66,129.5c-.1,.77-.13,1.56-.13,2.35,0,.14,0,.28,0,.42-.04,2.37-.58,4.62-1.24,6.84-.18,.1-.36,.19-.53,.3-.21,.13-.42,.26-.61,.39-.11,.08-.23,.15-.33,.23-.23,.15-.46,.33-.68,.5-.32,.25-.62,.5-.92,.76-2.06,1.85-3.64,4.18-4.6,6.76h0c-1.64,.16-3.36,.47-5.15,.95,.27-.91,.81-1.43,1.56-1.96,.49-.35,.76-1.04,1.07-1.61,.26-.46,.47-.95,.64-1.44,.33-.99,.64-1.99,.94-2.98,.25-.87,.44-1.76,.71-2.63,.25-.8,.56-1.58,.82-2.38,.09-.26,.17-.52,.25-.79,.32-1.11,.55-2.25,.87-3.6-.1-.28-.19-.57-.24-.86l7.6-1.25Z"/><path class="e" d="M166.42,131.12c.56,1.89,.51,3.78-.58,5.44h0c-.08,.03-.15,.05-.23,.07-.16,.05-.32,.09-.47,.14-.24,.07-.46,.15-.68,.23-.51,.17-1,.36-1.47,.57-.18,.07-.36,.15-.53,.23-.17,.08-.35,.16-.52,.24-.17,.08-.34,.17-.5,.25,.45-.79,.8-1.64,1.23-2.45-.55-1.54,1.14-3.15-.14-4.7-.11-.14,.13-.61,.27-.9,.47-1.01,.98-2.01,1.47-3.02,.17-.35,.43-.71,.46-1.08,.02-.33,.05-.66,.09-.98l3.19-.52c-.44,1.68-.97,3.34-1.53,4.99-.18,.54-.19,.93-.02,1.47Z"/><path class="e" d="M115.35,62.2c-.12,.73-.29,1.46-.42,2.19-.14,.74-.24,1.47-.23,2.21,.02,.93-.09,1.84-.23,2.74-.14,.9-.32,1.81-.43,2.72-.05,.38-.13,.76-.21,1.12h0l-1.94,.32-1.53,.26c.01-.11,.02-.23,.03-.34,.05-1.11,.43-2.04,1.13-2.89,.42-.5,.83-1.07,1.01-1.66,.04-.11,.07-.23,.11-.34,.39-1.22,.83-2.47,.83-3.7v-.04c.1-.18,.18-.34,.27-.51,.14-.27,.28-.52,.39-.74l.02-.04,.02-.04c.07-.12,.2-.34,.4-.58,.19-.23,.45-.48,.77-.68Z"/></g><path class="e" d="M104.82,145.95c.23-1.49,.7-2.99,.66-4.48-.05-1.88,.44-3.64,.66-5.46,.05-.38,.13-.76,.21-1.13h0l3.47-.57c-.01,.11-.02,.23-.03,.34-.06,1.1-.43,2.04-1.13,2.88-.41,.5-.82,1.07-1.01,1.66-.41,1.32-.94,2.7-.94,4.04-.02,1.83-1.21,3.04-1.66,4.71-.76-.75-.33-1.38-.23-2Z"/><circle class="d" cx="72.49" cy="144.3" r="3.16"/><circle class="d" cx="211.64" cy="136.34" r="3.16"/><g><path class="e" d="M118.69,62.71c-.33-.4-.76-.67-1.23-.81-.42-.12-.88-.14-1.34-.02-.29,.07-.55,.19-.77,.33-.33,.2-.58,.45-.77,.68-.2,.23-.33,.45-.4,.58l-.02,.04-.02,.04c-.11,.22-.25,.47-.39,.74-.09,.16-.18,.33-.27,.51-.02,.05-.05,.1-.08,.15,.02-.18,.06-.37,.1-.56,.01-.07,.02-.14,.04-.21,.35-2.02,.76-3.92,1.02-4.73,.34-1.04,.13-2.08-.58-2.84-1.15-1.23-3.25-1.39-4.38-1.11-.85,.21-1.53,.75-1.96,1.54-.17-.07-.35-.12-.54-.17-.48-.13-1.03-.19-1.65-.17-.5,.02-1.04,.1-1.63,.24-.82,.21-1.58,.52-2.28,.93-.37,.22-.73,.46-1.06,.73-2.82,2.24-4.46,6.08-5.08,9.69h0c-.17,.98-.26,1.93-.29,2.84h0c-.04,1.32,.07,2.52,.32,3.5v.05h.01c.26,1.01,.77,1.82,1.43,2.44h0c.89,.84,2.04,1.34,3.24,1.52,.45,.07,.91,.08,1.36,.06,.4-.02,.79-.08,1.17-.18,.98-.24,1.94-.89,2.88-1.93,.4-.45,.8-.97,1.2-1.56,.73,.49,1.57,.82,2.38,1.01l.07,.02c.09,.02,.18,.05,.27,.06,.89,.18,1.74,.2,2.35,.11,.11-.02,.21-.04,.3-.06,.84-.21,2.4-.59,6.91-10.55,.45-1,.34-2.11-.32-2.89Zm-14.58,5.89c-.07,.18-.15,.35-.23,.53-.28,.59-.55,1.06-.8,1.43-.01,.02-.03,.04-.04,.07,0-.05,0-.11,.01-.17,.05-1.07,.24-2.44,.62-3.79,.2-.71,.45-1.42,.77-2.06,.24-.49,.49-.91,.76-1.23,.07-.09,.13-.17,.2-.24,0,.34-.04,.76-.1,1.24-.17,1.18-.54,2.7-1.19,4.22Z"/><path class="e" d="M100.28,70.25c-1.02,2.27-1.89,4.05-2.64,5.44h0c-.28,.53-.55,.99-.79,1.41h0c-.9,1.5-1.58,2.37-2.12,2.9-.65,.62-1.08,.73-1.36,.8-.05,.01-.1,.02-.15,.03-1.64,.3-6.49-.21-7.51-3.6l-.05-.2c-.45-1.8,.22-6.32,1.23-11.26,.82-4.01,1.86-8.28,2.7-11.58,.59-2.3,1.08-4.12,1.33-5.05l.02-.06,.02-.05c.56-1.61,1.42-2.42,2.98-2.81,.76-.19,2.31-.29,3.5,.41,.22,.12,.42,.27,.61,.46,.68,.68,.94,1.62,.71,2.6l-.03,.12c-.33,1.43-.64,2.84-.93,4.2,0,.03-.01,.05-.02,.08-.2,.88-.38,1.75-.56,2.59-.07,.32-.13,.62-.2,.93-.99,4.7-1.77,8.76-2.27,11.83,.24-.43,.45-.84,.64-1.18h0s.03-.07,.05-.1l.02-.04,.02-.04c.16-.26,.58-.95,1.35-1.36,.18-.09,.37-.17,.59-.23,.97-.24,1.96,.07,2.57,.82,.65,.78,.76,1.9,.3,2.91Z"/><g><path class="d" d="M115.94,63.31c-.31,.08-.58,.33-.85,.78-1.82,3.41-3.62,6.72-4.38,6.91-1.08,.27,.87-10.32,1.54-12.4,.52-1.56-1.91-1.91-2.85-1.68-.45,.11-.8,.44-.99,1.01-.14,.41-.33,.99-.57,1.71-.72-1.16-1.99-1.84-4.23-1.28-4.2,1.04-6.53,5.9-7.19,10.3-.23,1.53-.26,3-.09,4.25,.04,.35,.11,.68,.18,.99,.56,2.24,3.1,3.09,5.08,2.6,1.48-.37,3.02-2.42,4.27-4.87,.62,2.32,4.21,2.76,5.2,2.52,1.17-.29,3.63-4.95,5.72-9.57,.37-.81-.21-1.42-.84-1.27Zm-14.26,9.93c-2.15,.54-.86-11.51,3.36-12.56,3.5-.87,.32,11.65-3.36,12.56Z"/><path class="d" d="M96.37,68.75c.27-.45,.54-.71,.85-.78,.67-.17,1.21,.46,.84,1.27-2.05,4.61-4.56,9.28-5.72,9.57-.99,.25-4.99-.14-5.57-2.48-1-4.04,5.25-27,5.25-27,.36-1.04,.74-1.42,1.73-1.67s3-.03,2.67,1.34c-.11,.5-5.38,23.41-4.6,26.55,.02,.09,.08,.12,.17,.1,.76-.19,2.56-3.5,4.38-6.91Z"/></g></g></g></g></svg>