<?xml version="1.0" encoding="UTF-8"?><svg xmlns="http://www.w3.org/2000/svg" xmlns:xlink="http://www.w3.org/1999/xlink" viewBox="0 0 292.34 195.98"><defs><style>.f{fill:#fff;}.g{fill:#602515;}.h{fill:#f8ae19;}.i{fill:#fcc054;}.j{fill:url(#d);}.k{fill:url(#e);}.l{fill:none;}.m{fill:#f46425;}</style><linearGradient id="d" x1="84.26" y1="78.61" x2="179.21" y2="150.94" gradientTransform="matrix(1, 0, 0, 1, 0, 0)" gradientUnits="userSpaceOnUse"><stop offset="0" stop-color="#f8ae19"/><stop offset="1" stop-color="#f46425"/></linearGradient><linearGradient id="e" x1="94.13" y1="26.25" x2="157.25" y2="67.66" xlink:href="#d"/></defs><g id="a"/><g id="b"><g id="c"><path class="j" d="M203.26,108.73c-.11,.67-.24,1.33-.38,1.99h0c-.13,.64-.27,1.26-.42,1.89-.1,.44-.21,.87-.32,1.3-.72,2.77-1.61,5.47-2.67,8.08-1.7,4.23-3.82,8.24-6.32,11.98,0,0,0,0-.01,.01-11.84,17.69-32,29.33-54.87,29.33s-43.45-11.89-55.23-29.88c.15-.09,.29-.19,.45-.31,.14-.1,.28-.21,.41-.32,.31-.24,.63-.51,.95-.8,.22-.21,.45-.42,.68-.66,.41,.14,.83,.27,1.26,.38,1.9,.52,3.87,.78,5.85,.78,1.06,0,2.07-.08,3.02-.25,3.71-.64,7.83-3.44,12.95-8.79,.51-.53,1.03-1.09,1.55-1.67,3.13,3.05,7.25,4.83,11.97,5.17,.52,.04,1.07,.06,1.67,.06,1.53,0,3.12-.14,4.72-.42,1.8-.31,3.57-.81,5.27-1.5,4.19-1.68,8.02-4.48,11.16-8.16,2.49-.95,4.68-2.25,6.66-3.95,.19,.23,.39,.47,.61,.71,.02,.02,.04,.04,.05,.06,1.8,1.95,4.14,3.49,6.93,4.57,.02,0,.45,.17,.45,.17,.19,.07,.38,.14,.57,.2,.18,.06,.37,.12,.57,.18,.79,.24,1.6,.44,2.47,.61,.03,0,.06,.01,.09,.01,.19,.04,.39,.07,.58,.09,0,0,.24,.04,.26,.04,.17,.02,.35,.05,.51,.06,.67,.08,1.33,.12,1.97,.12,.84,0,1.6-.06,2.33-.19,.28-.05,.56-.11,.89-.19,.24-.05,.47-.12,.7-.2,.14-.04,.35-.11,.61-.22,1.31-.52,2.59-1.34,3.9-2.5,.02-.02,.05-.05,.08-.07,.19-.17,.39-.36,.6-.56l.03-.03s.08,.03,.12,.04l.87,.28c.05,.02,.19,.06,.19,.06,.09,.03,.19,.05,.28,.08,.79,.22,1.56,.39,2.3,.51,.03,0,.62,.09,.62,.09,.83,.12,1.63,.18,2.4,.18s1.54-.06,2.25-.18c.2-.04,.44-.08,.71-.14,1.6-.88,3.26-1.73,4.97-2.56h0c.2-.17,.4-.35,.6-.53,.24-.21,.47-.44,.71-.68h0c-.42-.14-.82-.29-1.23-.45,.3-.28,.6-.59,.91-.91,.32,.12,.65,.24,.98,.35,.05,.01,.15,.05,.23,.07,.05,.02,.1,.03,.11,.04,.46,.14,.93,.27,1.41,.38,.12-.06,.24-.11,.36-.16,2.49-1.11,5.05-2.17,7.64-3.18,.33-.13,.67-.26,1-.38Z"/><path class="h" d="M77.4,78.37c-.77,1.1-1.68,2.03-2.7,2.72-.04,.02-.06,.05-.09,.06-.02,.01-.05,.03-.07,.04-.1,.06-.21,.12-.31,.19,1.35-5.45,3.38-10.64,5.99-15.46,.04,.15,.07,.3,.1,.45,.68,3.46-.44,8.5-2.92,11.99Z"/><path class="k" d="M183.69,49.49c-4.07,1.21-7.19,4.18-8.53,8.17-.02,.06-.04,.12-.06,.19-.21,.64-.38,1.34-.57,2.05,0,.02,0,.04-.01,.06-.28,1.14-.57,2.48-.91,4.21-.38,1.99-.68,3.75-.79,4.44-.08,.45-.12,.9-.15,1.36-.4-.14-.81-.27-1.23-.38-.42-.11-.85-.2-1.27-.28-.98-.17-1.96-.26-2.92-.26-.81,0-1.6,.06-2.37,.19-.22,.04-.82,.15-1.68,.31-1.69,.31-5.62,1.03-9.19,1.65-3.37,.58-5.45,.87-6.36,.99-.14,0-.28-.01-.43-.01-.6,0-1.18,.05-1.74,.15-.47,.08-.94,.2-1.45,.36l-.07,.02c-.19,.06-.38,.12-.57,.21-.14,.05-.29,.12-.44,.18-.05,.02-.09,.05-.15,.07-.17,.08-.34,.16-.5,.25-.13,.06-.26,.13-.38,.21-.22,.12-.41,.24-.6,.37-.19,.12-.38,.26-.57,.4-.13,.1-.27,.2-.39,.31-.11,.1-.23,.2-.35,.31-.02,.02-.04,.04-.06,.05-.14,.14-.28,.27-.4,.39-.07,.07-.22,.21-.38,.41h0c-.77-.22-1.57-.4-2.35-.52-1.13-.18-2.32-.28-3.54-.28-1.5,0-3.06,.14-4.61,.41-2.03,.35-4.02,.95-5.88,1.78-1.29,.57-2.56,1.26-3.78,2.04-1.18-1-2.46-1.83-3.82-2.46,1.59-1.7,3.38-4.76,5.93-10.39,1.03-2.24,.71-4.76-.8-6.58-.77-.93-1.79-1.6-2.94-1.94-.07-.02-.14-.04-.21-.05-.01-1.54-.59-3.03-1.68-4.21-.61-.66-1.36-1.19-2.22-1.58-1.08-.5-2.33-.77-3.64-.77-.68,0-1.33,.08-1.92,.22-.86,.21-1.65,.59-2.34,1.1-.22-.02-.44-.02-.67-.02-.13,0-.26,0-.38,0-.75,.03-1.54,.14-2.35,.34-.5,.12-.98,.28-1.46,.47,.24-1.08,.49-2.19,.75-3.33l.02-.09c.03-.12,.05-.24,.08-.36,.35-2.02-.28-4.06-1.74-5.51-.06-.06-.12-.12-.19-.17,10.89-7.94,24.31-12.63,38.82-12.63,17.61,0,33.6,6.89,45.43,18.14Z"/><path class="g" d="M194.13,18.18C177.47,6.29,157.8,0,137.26,0s-41.26,6.62-58.21,19.16c-14.64,10.83-25.8,25.2-32.54,41.86-.07,.16-.13,.31-.2,.47,.76-.05,1.51-.11,2.27-.16,0,0,.45-.03,.47-.03,1.1-.08,2.19-.15,3.26-.23,.07-.16,.14-.32,.22-.48C67.17,27.21,100.13,5.38,137.26,5.38c27.54,0,53.13,12.31,70.41,32.48,3.41,.04,6.52,.99,9.01,2.69-6.19-8.56-13.77-16.1-22.55-22.36Zm32.84,109.83c-.52-.52-1.04-1.06-1.54-1.61-12.2,38.11-47.56,64.19-88.18,64.19-35.71,0-67.55-20.77-82.89-51.38-2.77-.6-5.35-1.77-7.53-3.44,5.74,13.72,14.59,26.08,25.99,36.03,17.84,15.58,40.72,24.17,64.44,24.17,22.4,0,43.49-7.36,60.98-21.28,14.43-11.48,25.37-26.92,31.46-44.15-.94-.8-1.85-1.64-2.73-2.53Zm-179.89-8.89c-.06,1.65,.03,3.22,.27,4.63,.35,2.03,1.29,3.83,2.65,5.25-1.15-3.21-2.13-6.51-2.92-9.88Z"/><g><path class="g" d="M85.32,153.08c.25,.82,.27,1.63,.06,2.44-.22,.81-.66,1.55-1.33,2.22-.66,.67-1.4,1.11-2.21,1.34-.81,.23-1.63,.21-2.45-.04-.82-.25-1.59-.73-2.31-1.44l-2.56-2.54,6.78-6.82,2.56,2.54c.72,.71,1.21,1.48,1.46,2.3Zm-4.94,3.92c.69,0,1.35-.31,1.97-.94,.62-.63,.94-1.29,.93-1.99,0-.7-.32-1.36-.95-1.98l-.79-.78-3.94,3.97,.79,.78c.63,.63,1.29,.94,1.98,.94Z"/><path class="g" d="M89.18,158.06l-1.2,1.53,2.47,1.94-1.12,1.42-2.47-1.94-1.3,1.66,2.79,2.19-1.16,1.48-4.63-3.64,5.95-7.56,4.63,3.64-1.16,1.48-2.79-2.2Z"/><path class="g" d="M92.17,167.51l2.58,1.66-.98,1.52-4.55-2.94,5.21-8.08,1.97,1.27-4.24,6.56Z"/><path class="g" d="M102.16,164.33l-4.61,8.44-2.06-1.12,4.61-8.44,2.06,1.12Z"/><path class="g" d="M103,167.4c.67-.52,1.42-.83,2.26-.93,.84-.09,1.69,.04,2.54,.41,1.05,.45,1.83,1.11,2.34,1.98,.51,.87,.69,1.84,.54,2.91l-2.37-1.01c-.02-.45-.15-.83-.39-1.16-.24-.33-.57-.58-.98-.76-.66-.28-1.3-.28-1.91,0s-1.08,.82-1.41,1.59c-.33,.77-.39,1.48-.17,2.12,.22,.64,.65,1.1,1.32,1.38,.41,.18,.82,.23,1.23,.18,.41-.06,.78-.23,1.11-.53l2.37,1.01c-.66,.85-1.48,1.39-2.46,1.63-.98,.23-2,.12-3.05-.32-.86-.36-1.54-.88-2.06-1.55-.51-.67-.81-1.43-.9-2.27-.09-.84,.05-1.7,.43-2.57,.37-.87,.89-1.57,1.56-2.1Z"/><path class="g" d="M115.65,169.82l-2.88,9.18-2.24-.7,2.88-9.18,2.24,.7Z"/><path class="g" d="M117.49,179.74c-.65-.56-1.12-1.26-1.4-2.09-.28-.83-.33-1.7-.13-2.62,.19-.92,.58-1.7,1.16-2.35,.58-.64,1.29-1.1,2.11-1.35,.82-.26,1.68-.3,2.56-.11,.89,.18,1.65,.56,2.31,1.12,.65,.56,1.12,1.26,1.39,2.08,.27,.82,.32,1.69,.12,2.61-.19,.92-.58,1.71-1.16,2.36-.58,.65-1.28,1.1-2.1,1.36-.82,.26-1.67,.3-2.56,.12-.89-.18-1.66-.56-2.31-1.12Zm4.7-1.35c.56-.41,.92-1.02,1.09-1.85,.17-.83,.08-1.54-.26-2.13-.35-.59-.9-.96-1.65-1.12-.76-.16-1.42-.04-1.97,.36-.55,.4-.92,1.02-1.09,1.86-.17,.83-.08,1.54,.27,2.13,.35,.59,.9,.96,1.66,1.12,.75,.16,1.4,.03,1.96-.38Z"/><path class="g" d="M128.71,181.88c-.54-.27-.96-.64-1.25-1.11-.3-.47-.43-1.02-.4-1.65l2.49,.19c0,.36,.11,.64,.31,.84,.2,.2,.46,.32,.8,.34,.34,.03,.62-.03,.84-.18,.21-.14,.33-.36,.35-.64,.02-.24-.05-.44-.19-.61-.15-.17-.33-.31-.56-.43-.22-.12-.55-.26-.96-.42-.6-.24-1.1-.47-1.47-.69-.38-.22-.69-.53-.95-.93-.25-.4-.36-.89-.31-1.49,.07-.89,.45-1.57,1.13-2.02,.69-.46,1.55-.64,2.59-.56,1.05,.08,1.89,.4,2.5,.96,.61,.56,.9,1.29,.88,2.19l-2.53-.2c0-.31-.09-.56-.28-.76-.2-.19-.46-.3-.79-.33-.28-.02-.52,.04-.7,.17-.18,.14-.29,.35-.31,.63-.02,.31,.1,.56,.38,.76,.28,.2,.72,.42,1.32,.67,.6,.26,1.09,.5,1.46,.72,.37,.22,.69,.52,.94,.91,.25,.39,.36,.87,.32,1.44-.04,.55-.22,1.03-.53,1.46-.31,.43-.74,.75-1.29,.97-.55,.22-1.18,.31-1.9,.25-.7-.05-1.32-.22-1.86-.49Z"/><path class="g" d="M142.47,180.67l-3.59,.15-.5,1.72-2.45,.11,3.06-9.76,2.71-.12,3.89,9.46-2.48,.11-.65-1.67Zm-.68-1.78l-1.34-3.47-1.03,3.57,2.37-.1Z"/><path class="g" d="M149.32,181.41c-.59-.13-1.08-.39-1.49-.78-.4-.39-.67-.89-.79-1.51l2.46-.41c.09,.35,.26,.59,.5,.74,.24,.15,.52,.2,.86,.14,.34-.06,.6-.18,.77-.37,.17-.19,.24-.43,.19-.71-.04-.23-.15-.42-.33-.54-.18-.13-.4-.22-.64-.28-.25-.06-.59-.12-1.04-.17-.65-.09-1.18-.19-1.6-.32-.42-.12-.8-.35-1.14-.67-.34-.32-.56-.78-.66-1.38-.15-.88,.05-1.63,.61-2.24,.55-.61,1.35-1,2.37-1.17,1.04-.17,1.93-.07,2.65,.33,.72,.39,1.18,1.03,1.38,1.92l-2.5,.42c-.07-.3-.22-.53-.46-.67-.24-.14-.52-.18-.84-.13-.28,.05-.49,.16-.64,.34-.15,.18-.2,.41-.15,.69,.05,.31,.24,.52,.55,.64,.32,.12,.8,.23,1.45,.33,.65,.1,1.18,.22,1.59,.34,.42,.12,.79,.34,1.13,.66,.34,.31,.56,.75,.65,1.32,.09,.54,.04,1.06-.17,1.54-.2,.49-.54,.91-1.02,1.26-.48,.35-1.07,.58-1.79,.7-.69,.12-1.33,.11-1.92-.02Z"/><path class="g" d="M165.77,175.72l-3.39,1.17v1.79l-2.31,.8,.15-10.23,2.56-.89,6.43,7.95-2.34,.81-1.1-1.42Zm-1.16-1.51l-2.28-2.94,.04,3.71,2.24-.77Z"/><path class="g" d="M175.63,173.22l-3.4-2.37-.5,.25,1.61,3.25-2.1,1.04-4.27-8.62,3.52-1.74c.68-.34,1.32-.5,1.91-.5,.6,0,1.12,.15,1.56,.44,.44,.3,.79,.7,1.04,1.21,.28,.57,.38,1.17,.28,1.78-.1,.61-.42,1.17-.96,1.67l3.68,2.43-2.37,1.17Zm-4.64-3.6l1.3-.64c.39-.19,.63-.43,.73-.71s.06-.6-.11-.94c-.16-.33-.39-.54-.67-.63-.28-.09-.62-.04-1,.15l-1.3,.64,1.06,2.14Z"/><path class="g" d="M177.91,163.01l1.05,1.64,2.64-1.69,.97,1.52-2.64,1.69,1.14,1.78,2.99-1.91,1.01,1.58-4.96,3.17-5.18-8.1,4.96-3.17,1.01,1.58-2.99,1.91Z"/><path class="g" d="M189.49,157.88c.09,.52,.01,1.06-.22,1.61-.24,.55-.66,1.07-1.27,1.56l-1.13,.91,2.16,2.7-1.83,1.46-6.01-7.51,2.96-2.37c.6-.48,1.19-.78,1.77-.91,.58-.12,1.12-.09,1.62,.11,.5,.2,.94,.53,1.31,1,.35,.44,.57,.91,.66,1.43Zm-2.22,.96c.04-.3-.06-.6-.3-.9-.24-.3-.51-.46-.81-.49-.3-.03-.63,.1-.98,.38l-.99,.8,1.51,1.88,.99-.8c.35-.28,.54-.57,.58-.87Z"/><path class="g" d="M197.63,154.49l-2.5,2.57,.81,1.6-1.71,1.76-4.46-9.21,1.9-1.94,9.32,4.22-1.73,1.78-1.62-.77Zm-1.72-.83l-3.35-1.6,1.7,3.3,1.65-1.7Z"/><path class="g" d="M203.12,150.34c-.52,.31-1.06,.46-1.62,.45-.56,0-1.09-.19-1.61-.56l1.51-1.99c.3,.19,.6,.25,.87,.2,.28-.05,.52-.22,.72-.48,.21-.28,.31-.54,.31-.8,0-.26-.12-.47-.35-.64-.19-.14-.39-.2-.61-.17-.22,.03-.44,.11-.66,.24-.22,.12-.51,.32-.88,.58-.53,.38-.99,.67-1.38,.86-.39,.2-.82,.29-1.29,.29-.47,0-.95-.18-1.42-.55-.71-.54-1.08-1.22-1.09-2.05-.01-.82,.3-1.65,.93-2.48,.64-.84,1.36-1.37,2.16-1.58,.8-.21,1.57-.06,2.31,.45l-1.53,2.02c-.26-.17-.52-.23-.79-.17-.27,.06-.5,.22-.7,.48-.17,.23-.25,.45-.23,.68,.01,.23,.14,.43,.36,.6,.25,.19,.53,.22,.84,.09,.32-.13,.74-.38,1.28-.75,.54-.37,1.01-.65,1.4-.84,.39-.19,.81-.29,1.28-.3,.46,0,.92,.17,1.38,.52,.44,.33,.75,.74,.94,1.24,.19,.49,.23,1.03,.12,1.61-.11,.58-.38,1.16-.82,1.73-.42,.56-.9,.99-1.42,1.3Z"/></g><path class="h" d="M77.4,78.37c-.77,1.1-1.68,2.03-2.7,2.72,.19-.8,.41-1.59,.64-2.38,1.25-4.31,2.93-8.44,4.98-12.33,.68,3.46-.44,8.5-2.92,11.99Z"/><g><path class="g" d="M80.33,66.38c-.03-.15-.06-.31-.1-.45-.03-.12-.07-.25-.11-.37-.01-.05-.03-.09-.05-.13-.68-1.97-2.46-3.24-4.51-3.24-.29,0-.6,.02-.9,.07-1.25,.22-2.33,.83-3.08,1.74-.93,.98-4.01,2.33-8.21,3.05-4.18,.72-9.02,1.05-14.12,1.4h-.08c-1.89,.13-3.78,.26-5.7,.41-4.37,.34-8.85,.8-13.45,1.59-4.25,.72-8.33,1.73-12.13,2.97C5.82,77.43,.22,86.28,0,93.3c-.08,3.55,1.26,7.01,3.69,9.49,2.08,2.13,4.69,3.31,7.36,3.31,.5,0,1-.04,1.49-.12,.18-.04,.35-.07,.51-.11-.54,1.44-.82,3.02-.9,4.53-.09,1.66,.42,3.18,1.46,4.27,.95,1.01,2.23,1.56,3.59,1.56,.28,0,.57-.02,.84-.07,.3-.05,.57-.12,.81-.21-3.51,13.16-3.04,15.86-2.83,17.11,.82,4.76,5.42,7.57,9.83,8.4,.49,.09,.98,.17,1.46,.21,.12,.01,.25,.02,.37,.02,.23,0,.46-.02,.68-.06,2.71-.47,4.31-2.33,4.38-5.13v-.18c0-.58,.27-3.32,.71-6.71,.47-3.49,1.99-10.08,3.69-17.04,1-.16,1.97-.31,2.89-.46,.16-.02,.32-.05,.48-.08,.47-.08,.92-.15,1.36-.21,.44-.07,.85-.14,1.26-.2,.81-.13,1.55-.25,2.22-.36,1.23-.2,2.22-.36,2.86-.47,.12-.02,.23-.04,.33-.05,.65-.11,1.25-.31,1.8-.58h0c3.34-1.6,4.77-5.74,4.96-9.44,.01-.19,.02-.37,0-.55h0c-.02-.7-.15-1.34-.38-1.96-.25-.64-.62-1.22-1.09-1.72-.66-.7-1.51-1.19-2.42-1.43-.4-.11-.82-.16-1.24-.16-.07,0-.14,0-.21,0-.21,.01-.44,.04-.65,.07-.57,.09-1.01,.29-1.33,.47-.04,.01-.09,.02-.14,.04-.65,.18-1.9,.42-3.44,.71-.95,.18-2.02,.37-3.13,.57,1.32-4.94,2.54-9.33,3.36-12.27,.25,0,.5,0,.74,0,1.2-.01,2.4-.02,3.58-.03,7.07-.04,13.74-.08,18.8-.94,2.69-.47,4.8-1.16,6.45-2.12,.11-.06,.21-.12,.31-.19,.02-.01,.05-.03,.07-.04,.03-.02,.05-.04,.09-.06,1.02-.69,1.93-1.63,2.7-2.72,2.48-3.48,3.61-8.52,2.92-11.99ZM15.75,97.25c0-2.43,.71-4.37,1.83-5.91h0c1.28-1.76,3.08-3.01,4.92-3.9h0c2-.96,4.05-1.49,5.53-1.77-.09,.29-.19,.6-.3,.91-1.21,3.68-2.69,8.24-4.17,13.06-1.08,.18-2.03,.32-2.82,.45-.71,.11-1.28,.19-1.67,.26-.05,.01-.09,.02-.14,.02-.74,.13-1.41,.36-2.02,.67,.02-.99-.28-1.96-.87-2.76-.27-.35-.32-.52-.31-.96v-.06Z"/><path class="g" d="M91.88,105.37l-.04-.07s0,0,0,0c-.97-1.58-2.72-2.56-4.58-2.56-.31,0-.62,.03-.93,.08-.81,.14-1.57,.45-2.27,.94h0c-.28,.19-.55,.41-.81,.66,.6-2.16,1.16-3.98,1.54-4.91,.55-1.32,.64-2.7,.28-3.96-.17-.57-.41-1.12-.75-1.63-.69-1.03-1.66-1.79-2.73-2.31-.35-.18-.72-.33-1.08-.46-1.23-.44-2.51-.62-3.58-.62-.49,0-.95,.04-1.37,.11-.95,.16-1.82,.53-2.58,1.08-.15,.11-.31,.23-.45,.35-.29,.25-.56,.52-.81,.83-1.2-.46-2.53-.7-3.97-.7-.84,0-1.74,.08-2.68,.24-1.34,.23-2.63,.62-3.88,1.18-.14,.05-.27,.12-.41,.18-.38,.18-.76,.38-1.13,.6-.34,.19-.67,.41-1,.63-.06,.04-.12,.08-.19,.12-.12,.09-.25,.17-.37,.26-1.1,.79-2.14,1.71-3.12,2.78-1.87,2.03-3.51,4.54-4.85,7.48-.75,1.63-1.38,3.35-1.87,5.11-.41,1.41-.72,2.83-.96,4.24-.02,.15-.05,.31-.07,.47-.01,.08-.02,.16-.04,.24-.06,.41-.11,.81-.15,1.21-.05,.45-.08,.88-.11,1.32,0,.15-.02,.3-.02,.45-.01,.14-.02,.27-.02,.41h0c-.06,1.66,.02,3.22,.27,4.64,.35,2.04,1.28,3.83,2.65,5.25h0c2.07,2.18,5.14,3.49,8.62,3.49,.7,0,1.4-.06,2.07-.18,2.58-.44,5.16-2.23,7.74-5.34,2.52,1.7,5.65,2.5,8.08,2.5,.47,0,.91-.04,1.31-.1,.58-.1,1.29-.23,2.31-.97,.04-.02,.07-.04,.11-.07,.08-.05,.16-.12,.24-.18,.19-.15,.39-.32,.6-.51,.84-.77,1.84-1.9,3.08-3.59,.81-1.09,1.7-2.42,2.72-4.01,1.08-1.71,2.29-3.75,3.66-6.16,0,0,0,0,0-.01,.49-.87,1-1.8,1.53-2.78,1.03-1.87,1.04-4,.02-5.73Zm-26.31,3.09c-.31,1.03-.71,2.17-1.24,3.38-.13,.29-.25,.57-.38,.83,.42-1.42,.95-2.88,1.61-4.21Z"/><path class="g" d="M123.32,97.97c-.19,.73-.42,1.48-.68,2.25-.45,1.31-1.02,2.66-1.69,4.06-1.08,2.25-2.46,4.6-4.1,7.05-.4,.6-.81,1.2-1.23,1.8-.34,.48-.68,.95-1.03,1.41-.45,.61-.92,1.22-1.4,1.83-1.04-1.31-1.84-2.87-2.37-4.66-1.04,1.4-2.02,2.63-2.85,3.62-.16,.2-.34,.41-.54,.64-.25,.3-.53,.62-.83,.97h0c-.18,.21-.37,.42-.55,.63-.51,.58-1.08,1.19-1.67,1.81-3.01,3.14-6.85,6.57-9.71,7.07-.61,.11-1.29,.16-2.01,.16-.19,0-.38,0-.57-.01-.12,0-.23,0-.34-.02-.13,0-.27-.01-.39-.02-.11,0-.21-.02-.31-.03-.28-.02-.57-.06-.85-.11-.2-.03-.39-.06-.6-.1-.21-.04-.42-.08-.62-.13-.21-.05-.41-.1-.62-.15-1.59-.42-3.09-1.08-4.38-1.97-1.24,1.69-2.25,2.82-3.08,3.59-.52-.38-1.01-.78-1.47-1.21-.24-.22-.47-.44-.68-.68-.86-.92-1.57-1.92-2.14-3.01-.53-1.03-.93-2.12-1.17-3.26-.05-.19-.09-.39-.12-.6-.05-.31-.1-.64-.13-.97-.06-.55-.1-1.11-.11-1.7-.02-.43-.01-.87,0-1.33,.04-1.18,.17-2.45,.39-3.81,.74-4.64,2.45-10.3,5.23-17.3,.27-.68,.57-1.41,.9-2.2,1.07,.52,2.04,1.28,2.73,2.31,.34,.51,.59,1.06,.75,1.63,.46-1.16,.95-2.35,1.47-3.59,.06-.14,.12-.27,.18-.4,.12-.27,.27-.51,.42-.75,.08-.12,.16-.24,.24-.35,.04-.05,.07-.09,.11-.14,.11-.15,.24-.3,.37-.44,.05-.05,.1-.11,.15-.16,.06-.07,.14-.14,.21-.21,.02-.02,.05-.05,.07-.06,.06-.05,.11-.1,.17-.15,.06-.06,.14-.11,.21-.17,.04-.03,.07-.06,.11-.08,.04-.02,.07-.05,.11-.08,.08-.05,.15-.1,.22-.15,.07-.04,.14-.09,.22-.13,0,0,0,0,0,0,.06-.04,.12-.08,.19-.11,0-.01,.01-.01,.02-.01,.08-.05,.15-.08,.22-.12,0,0,.01,0,.02,0,.06-.03,.12-.05,.18-.08,.02-.01,.04-.02,.05-.02,.08-.04,.16-.08,.25-.11,.11-.05,.23-.09,.35-.12,0,0,.02-.01,.03-.01,.13-.04,.27-.08,.4-.11,.14-.03,.27-.06,.41-.08,.42-.07,.88-.11,1.37-.11,2.37,0,5.73,.89,7.4,3.39,1.09,1.63,1.27,3.65,.5,5.56-.03,.07-.06,.15-.09,.24-.02,.04-.03,.08-.04,.12-.17,.47-.37,1.08-.6,1.8-.05,.17-.09,.33-.15,.5-.01,.02-.02,.05-.02,.07-.03,.08-.06,.17-.08,.27-.48,1.61-1.03,3.59-1.55,5.6h0c-.09,.33-.18,.66-.26,.98,.12-.2,.23-.4,.34-.6,.15-.27,.29-.53,.44-.8,.15-.27,.29-.55,.43-.84,.08-.17,.17-.33,.25-.5,.64-1.3,1.23-2.69,1.74-4.11,.07-.21,.15-.42,.21-.64,.09-.26,.17-.52,.25-.78,.09-.31,.18-.62,.27-.93,.05-.16,.09-.34,.13-.5,.05-.19,.09-.37,.14-.56,.04-.18,.08-.37,.12-.56,0-.02,.01-.04,.01-.05,1.03-4.67,.69-6.54,.39-7.23-.04-.11-.08-.21-.11-.31-.42-1.31-.25-2.75,.48-3.95,.81-1.34,2.22-2.27,3.88-2.56,.55-.09,1.1-.14,1.65-.14,.15,0,.31,0,.47,.01,.18,0,.35,.02,.52,.04,.09,.01,.19,.02,.29,.04,.08,.01,.17,.02,.25,.04,.38,.06,.77,.15,1.14,.26,.08,.02,.16,.04,.24,.07,.29,.09,.59,.2,.87,.32,.22,.09,.44,.19,.65,.3,.24,.12,.48,.25,.71,.39,.11,.06,.22,.14,.33,.21,.11,.07,.22,.14,.32,.22,.11,.08,.22,.16,.34,.24,.08,.06,.16,.12,.24,.18,.12,.11,.25,.21,.37,.31,.25,.21,.48,.44,.71,.67,.88,.9,1.62,1.96,2.17,3.11,1.14-1.2,2.37-2.24,3.68-3.13,.21,.36,.4,.73,.58,1.11,.05,.11,.1,.21,.14,.32,.3,.66,.54,1.33,.73,1.99,.17,.54,.3,1.1,.41,1.73,.49,2.86,.37,5.57-.38,8.3Z"/><path class="g" d="M118.75,96.75c-1.04,4.06-3.39,8.32-5.83,11.95-.71,1.06-1.43,2.07-2.12,3-1.04,1.4-2.02,2.63-2.85,3.62-.16,.2-.34,.41-.54,.64-.25,.3-.53,.62-.83,.97h0c-.18,.21-.37,.42-.55,.63-.51,.58-1.08,1.19-1.67,1.81-3.01,3.14-6.85,6.57-9.71,7.07-.61,.11-1.29,.16-2.01,.16-.19,0-.38,0-.57-.01-.12,0-.23,0-.34-.02-.13,0-.27-.01-.39-.02-.11,0-.21-.02-.31-.03-.28-.02-.57-.06-.85-.11-.2-.03-.39-.06-.6-.1-.21-.04-.42-.08-.62-.13-.21-.05-.41-.1-.62-.15-1.59-.42-3.09-1.08-4.38-1.97-1.97-1.35-3.45-3.23-3.95-5.62-.03-.11-.05-.22-.07-.33-.29-1.67-.23-3.77,.17-6.29,.67-4.25,2.33-9.7,4.96-16.29,.46-1.16,.95-2.35,1.47-3.59,.06-.14,.12-.27,.18-.4,.12-.27,.27-.51,.42-.75,.08-.12,.16-.24,.24-.35,.04-.05,.07-.09,.11-.14,.11-.15,.24-.3,.37-.44,.05-.05,.1-.11,.15-.16,.06-.07,.14-.14,.21-.21,.02-.02,.05-.05,.07-.06,.06-.05,.11-.1,.17-.15,.06-.06,.14-.11,.21-.17,.04-.03,.07-.06,.11-.08,.04-.02,.07-.05,.11-.08,.08-.05,.15-.1,.22-.15,.07-.04,.14-.09,.22-.13,0,0,0,0,0,0,.06-.04,.12-.08,.19-.11,0-.01,.01-.01,.02-.01,.08-.05,.15-.08,.22-.12,0,0,.01,0,.02,0,.06-.03,.12-.05,.18-.08,.02-.01,.04-.02,.05-.02,.08-.04,.16-.08,.25-.11,.11-.05,.23-.09,.35-.12,0,0,.02-.01,.03-.01,.13-.04,.27-.08,.4-.11,.14-.03,.27-.06,.41-.08,.42-.07,.88-.11,1.37-.11,2.37,0,5.73,.89,7.4,3.39,1.09,1.63,1.27,3.65,.5,5.56-.03,.07-.06,.15-.09,.24-.02,.04-.03,.08-.04,.12-.17,.47-.37,1.08-.6,1.8-.05,.17-.09,.33-.15,.5-.01,.02-.02,.05-.02,.07-.03,.08-.06,.17-.08,.27-.48,1.61-1.03,3.59-1.55,5.6h0c-.09,.33-.18,.66-.26,.98,.12-.2,.23-.4,.34-.6,.15-.27,.29-.53,.44-.8,.15-.27,.29-.55,.43-.84,.08-.17,.17-.33,.25-.5,.64-1.3,1.23-2.69,1.74-4.11,.07-.21,.15-.42,.21-.64,.09-.26,.17-.52,.25-.78,.1-.31,.19-.62,.27-.93,.05-.16,.09-.34,.13-.5,.05-.19,.09-.37,.14-.56,.04-.18,.08-.37,.12-.56,0-.02,.01-.04,.01-.05,1.03-4.67,.69-6.54,.39-7.23-.04-.11-.08-.21-.11-.31-.42-1.31-.25-2.75,.48-3.95,.81-1.34,2.22-2.27,3.88-2.56,.55-.09,1.1-.14,1.65-.14,.15,0,.31,0,.47,.01,.18,0,.35,.02,.52,.04,.09,.01,.19,.02,.29,.04,.08,.01,.17,.02,.25,.04,.38,.06,.77,.15,1.14,.26,.08,.02,.16,.04,.24,.07,.29,.09,.59,.2,.87,.32,.22,.09,.44,.19,.65,.3,.24,.12,.48,.25,.71,.39,.11,.06,.22,.14,.33,.21,.11,.07,.22,.14,.32,.22,.11,.08,.22,.16,.34,.24,.08,.06,.16,.12,.24,.18,.12,.11,.25,.21,.37,.31,.25,.21,.48,.44,.71,.67,.88,.9,1.62,1.96,2.17,3.11,.25,.52,.45,1.07,.62,1.63h0c.12,.39,.21,.8,.28,1.2,.37,2.15,.27,4.2-.3,6.27Z"/><path class="m" d="M82.18,115.65c-1.06-6.17,4.73-20.12,6.33-23.91,.41-.99,1.08-1.52,1.89-1.66,1.7-.29,5.96,.65,4.84,3.35-1.28,3.23-5.29,18.3-4.96,20.25,.18,1.06,.6,1.57,1.9,1.34,2.76-.48,10.22-10.54,12.27-20.5,.61-2.78,1.32-6.91,.18-9.64-.18-.55,.39-1.15,1.2-1.29,3.65-.63,6.93,2.4,7.52,5.81,.24,1.38,.25,2.88-.22,4.55-2.64,10.4-17.08,26.1-20.89,26.75-2.92,.5-9.34-.82-10.06-5.04Z"/><path class="g" d="M153.5,94.76c-.71-1.2-1.85-2.06-3.17-2.43h0c-.47-.14-.95-.21-1.46-.21-.31,0-.62,.03-.93,.08-.34,.06-.67,.15-1,.27h-.01s-.04,.02-.06,.03c-.37-2.22-1.14-4.24-2.3-5.96-.41-.6-.85-1.15-1.35-1.66-.26-.28-.53-.53-.81-.77-1.33-1.14-2.9-1.99-4.66-2.5-.19-.06-.39-.11-.6-.16-.15-.04-.31-.08-.46-.11l-.09-.02c-.23-.05-.47-.09-.7-.13-.83-.14-1.7-.2-2.59-.2-1.15,0-2.36,.11-3.62,.32-1.55,.27-3.06,.72-4.51,1.37-.21,.09-.41,.18-.61,.28-.15,.06-.29,.14-.43,.21-.44,.22-.87,.46-1.3,.72-.34,.2-.67,.41-1,.64-1.3,.89-2.53,1.93-3.68,3.13-1.53,1.6-2.92,3.45-4.11,5.56-3.11,5.44-4.53,11.74-3.72,16.42,.12,.72,.28,1.42,.49,2.08,.54,1.79,1.34,3.35,2.37,4.66,.17,.22,.34,.42,.52,.62,.08,.09,.17,.19,.27,.28,.14,.14,.27,.28,.41,.41s.27,.25,.41,.37c.17,.15,.35,.29,.53,.43,.06,.05,.12,.09,.19,.14,.07,.06,.14,.11,.21,.15,.12,.09,.24,.18,.37,.25,.07,.05,.14,.09,.22,.14,.13,.08,.26,.16,.39,.23,.17,.1,.34,.19,.52,.28,.17,.09,.35,.17,.53,.25,.18,.08,.36,.16,.55,.23,.17,.07,.35,.14,.53,.19,.35,.12,.71,.23,1.08,.32,.01,0,.03,0,.04,.01,.21,.05,.41,.09,.62,.14,.21,.05,.43,.08,.65,.12,.44,.07,.88,.12,1.34,.15,.4,.03,.81,.04,1.23,.04,1.18,0,2.44-.11,3.74-.34,1.39-.24,2.75-.62,4.07-1.15,3.75-1.5,7.13-4.15,9.85-7.72,.38-.11,.74-.23,1.09-.36,.17-.06,.35-.13,.52-.19,.17-.06,.34-.14,.5-.21,.16-.07,.32-.14,.48-.21,.37-.17,.72-.35,1.07-.55,.15-.08,.31-.17,.45-.27,.15-.09,.29-.18,.44-.27,.18-.11,.35-.23,.52-.35,.49-.34,.94-.7,1.37-1.08,2.51-2.22,4.14-5.05,5.65-8.01,.28-.53,.48-1.08,.6-1.63,.31-1.39,.09-2.81-.62-4.02Zm-21.92,2.93c-.45-2.6,1.28-3.94,1.73-4.15,.06,0,.12-.01,.18-.02,.34,.91,.25,3.29-.67,6.06-.62-.47-1.1-1.09-1.24-1.9Z"/><path class="g" d="M182.23,95.52c-.3,.56-.59,1.1-.87,1.62h0c-.19,.35-.38,.68-.56,1.01,0,0,0,0,0,0,0,0,0,.02,0,.02-.2,.37-.4,.72-.59,1.06-1.17,2.07-2.22,3.82-3.19,5.34-1.01,1.6-1.91,2.91-2.72,3.99-1.01,1.36-1.88,2.35-2.62,3.08-.18,.17-.35,.33-.51,.48-.35,.31-.66,.56-.95,.76-.12,.09-.24,.16-.34,.22-.09,.06-.18,.11-.26,.15-.22,.12-.42,.22-.61,.29-.08,.04-.16,.06-.24,.08-.01,0-.02,.01-.04,.01-.08,.03-.17,.05-.24,.07-.21,.05-.38,.08-.54,.11-.39,.07-.81,.1-1.28,.1-.39,0-.83-.02-1.31-.08-.12-.01-.24-.03-.37-.05-.08-.01-.16-.02-.24-.04-.14-.02-.27-.04-.41-.06-.6-.11-1.23-.26-1.87-.46-.14-.04-.28-.08-.42-.13-.11-.04-.22-.07-.32-.11l-.42-.16c-1.71-.66-3.42-1.66-4.73-3.07-.21-.24-.42-.48-.61-.73-.1-.14-.2-.27-.29-.41-.03-.04-.05-.08-.08-.13-.06-.09-.12-.19-.18-.28-.08-.14-.17-.29-.24-.44-.07-.14-.14-.27-.19-.41-.01-.02-.02-.03-.02-.05-.01-.02-.02-.04-.03-.06-.05-.12-.1-.25-.15-.37-.02-.05-.04-.09-.05-.14-.05-.12-.09-.25-.13-.38-.05-.15-.09-.31-.13-.47-.05-.19-.09-.39-.12-.6-.35-2.02-.21-4.59,.45-7.82-.24,.44-.47,.87-.71,1.31-.32,.58-.64,1.18-.97,1.77-.02,.04-.04,.07-.06,.11-1.25,2.09-2.92,2.77-4.1,2.98-.32,.05-.65,.08-.98,.08-1.27,0-2.48-.42-3.44-1.16h0c-.58-.44-1.06-.99-1.43-1.63-.21-.38-.38-.75-.49-1.15h0c-.42-1.41-.22-2.96,.56-4.3,.02-.02,.04-.06,.05-.08,1.04-1.67,2.06-3.4,3.01-5.03-1.49-1.26-2.63-2.99-3.35-4.63-.04-.11-.09-.21-.13-.31-.19-.42-.32-.87-.39-1.31-.19-1.13-.02-2.28,.51-3.3,.06-.11,.12-.22,.19-.34,.01-.02,.03-.06,.05-.08,.06-.1,.12-.19,.19-.28,.08-.1,.15-.19,.23-.28,.05-.06,.09-.11,.15-.16,.09-.09,.18-.18,.27-.26,.06-.06,.13-.12,.19-.17,.05-.04,.1-.08,.16-.12,.07-.06,.15-.12,.24-.17t.02-.01c.09-.06,.19-.12,.3-.18,.03-.02,.06-.04,.1-.05,0,0,0,0,.01,0,.11-.06,.21-.11,.32-.17,.09-.04,.19-.08,.28-.12,.07-.03,.14-.05,.21-.07,.22-.07,.47-.14,.71-.18,.22-.04,.48-.06,.71-.06,.19,0,.38,.02,.54,.04,.74-.07,3.15-.39,7.25-1.1,3.49-.6,7.24-1.29,9.26-1.66,.83-.15,1.4-.26,1.61-.29,.42-.07,.88-.11,1.37-.11,.59,0,1.23,.05,1.89,.17,.27,.05,.54,.11,.81,.18,.11,.03,.21,.05,.31,.08,.04,.02,.08,.03,.12,.04,.15,.04,.29,.09,.44,.14,.25,.09,.51,.19,.75,.3,.11,.05,.22,.1,.34,.16,.07,.03,.14,.06,.2,.1,.14,.07,.27,.15,.4,.22,.84,.5,1.58,1.15,2.14,1.99,.34,.51,.6,1.06,.75,1.63,.36,1.27,.28,2.65-.28,3.97-.38,.94-.94,2.75-1.54,4.91,.26-.25,.53-.46,.81-.65h.01c.7-.49,1.46-.8,2.26-.94,.32-.06,.64-.08,.97-.08,1.46,0,2.82,.57,3.81,1.57,.31,.31,.57,.65,.8,1.04,0,0,0,0,0,.01,.05,.08,.09,.15,.13,.23,.88,1.67,.83,3.7-.15,5.5Z"/><path class="h" d="M185.55,116.77c1.6-.88,3.26-1.73,4.97-2.56-.57,.48-1.14,.89-1.72,1.24-.04,.02-.06,.04-.1,.06-.18,.11-.37,.21-.54,.3-.04,.02-.08,.04-.12,.06-.14,.08-.28,.14-.41,.2-.13,.06-.28,.13-.41,.18-.62,.25-1.19,.41-1.67,.52Z"/><path class="g" d="M198.14,92.77c-.17,.32-.34,.64-.5,.94t0,.01s0,0,0,0,0,0,0,.01c-.5,.91-.97,1.77-1.43,2.6-1.16,2.06-2.22,3.82-3.17,5.34h0c-1.03,1.63-1.94,2.96-2.75,4.06-.28,.37-.54,.7-.78,1.02-.9,1.13-1.67,1.96-2.33,2.56-.17,.16-.34,.3-.49,.42-.08,.06-.15,.12-.23,.18-.08,.06-.15,.12-.22,.17-.17,.12-.33,.23-.48,.32-.11,.06-.22,.13-.32,.18-.07,.04-.14,.07-.2,.1-.06,.03-.13,.06-.19,.08-.47,.19-.84,.26-1.14,.31-.39,.07-.82,.11-1.28,.11s-.98-.04-1.56-.12l-.52-.08c-.1-.02-.21-.04-.31-.05-.1-.02-.21-.04-.31-.06-.2-.04-.4-.08-.6-.14-.2-.05-.41-.11-.62-.17,0,0,0,0-.01,0l-.08-.02-.87-.28c-1.16-.41-2.34-.97-3.41-1.71-1.86-1.29-3.4-3.12-3.94-5.63h0c-.02-.12-.05-.25-.07-.37-.29-1.68-.24-3.77,.16-6.28h0c.67-4.26,2.33-9.71,4.96-16.31,.46-1.16,.95-2.36,1.47-3.58,.06-.16,.13-.31,.21-.46,.01-.02,.02-.05,.04-.07,.06-.13,.13-.25,.2-.38,.01-.01,.02-.02,.02-.04,.09-.15,.18-.29,.28-.43,.07-.09,.14-.19,.21-.28,.04-.06,.09-.12,.14-.17,.08-.09,.15-.19,.24-.27,.03-.04,.06-.07,.09-.11,.1-.11,.21-.21,.31-.3,0,0,.02-.01,.02-.02,.11-.1,.23-.21,.35-.29,.09-.07,.18-.14,.28-.21,.01-.01,.02-.02,.04-.03,.03-.02,.05-.04,.08-.05-.7-1.11-.97-2.4-.75-3.69,.06-.36,.36-2.19,.77-4.3,.25-1.3,.54-2.7,.84-3.93,.15-.58,.29-1.11,.43-1.58h0c.02-.07,.04-.14,.06-.2,0-.02,.02-.04,.02-.06,.83-2.47,2.86-4.15,5.57-4.62,.11-.02,.23-.04,.34-.05,.04,0,.06-.01,.09-.01h0c.18-.02,.37-.04,.55-.05s.37-.02,.55-.02h.05c.27,0,.54,.02,.82,.05,.2,.01,.4,.04,.6,.06,2.09,.3,4.37,1.21,5.98,2.7,.37,.34,.71,.72,.99,1.13,.05,.06,.09,.14,.14,.2,.04,.05,.07,.11,.1,.17,.96,1.57,1.11,3.38,.41,5.01-.2,.48-.46,1.03-.75,1.62-.09,.19-.18,.38-.28,.58-.05,.09-.09,.18-.14,.27-.54,1.07-1.15,2.24-1.75,3.39-.77,1.48-1.66,3.16-1.92,3.79-.01,.02-.02,.06-.04,.08-.22,.51-.52,.96-.9,1.35h0c-.17,.19-.36,.35-.55,.51,.1,.15,.18,.3,.27,.46,.81,1.54,.87,3.35,.16,5.06-.38,.94-.94,2.75-1.54,4.91,.24-.23,.5-.44,.77-.62,.71-.51,1.49-.84,2.32-.98,.32-.05,.64-.08,.95-.08,1.23,0,2.36,.39,3.28,1.1,.53,.41,.98,.91,1.34,1.51,.21,.35,.37,.72,.49,1.1t0,.01h0c.47,1.48,.29,3.13-.52,4.61Z"/><path class="h" d="M210.23,106.21c-.77,1-1.5,1.87-2.2,2.62h0c-.99,1.06-1.94,1.87-2.88,2.5-1.03,.69-1.95,1.06-2.68,1.27-.52,.16-.95,.23-1.24,.28-.7,.12-1.38,.17-2.13,.17-.59,0-1.18-.03-1.75-.09h-.04c-.98-.09-2.02-.26-3.05-.5,.12-.06,.24-.11,.36-.16,2.49-1.11,5.05-2.17,7.64-3.18,.33-.13,.67-.26,1-.38,2.17-.84,4.38-1.64,6.57-2.39,.14-.05,.27-.09,.4-.14Z"/><path class="g" d="M223.14,65.3c-.09,.91-.38,1.64-.78,2.22-.78,1.13-1.97,1.67-2.88,1.83-.25,.04-.51,.06-.77,.06-.85,0-1.53-.24-2.02-.45h0c-.11-.04-.2-.08-.28-.12-.21-.1-.31-.14-.42-.17-.34-.06-.85-.13-1.56-.18-.51-.04-1.14-.05-1.89-.05s-1.54,.02-2.37,.07c-.71,2.5-1.36,4.8-1.94,6.9-.81,2.96-1.5,5.53-2.07,7.77,.25-.22,.5-.43,.77-.6,.69-.47,1.43-.78,2.23-.91,.32-.05,.64-.08,.96-.08,1.76,0,3.35,.81,4.35,2.2,.09,.14,.18,.27,.27,.41,1.01,1.71,1,3.85-.02,5.73-.38,.71-.76,1.4-1.13,2.06h0c-1.54,2.8-2.9,5.11-4.11,7.02-.95,1.51-1.81,2.76-2.59,3.81-1.33,1.8-2.41,2.98-3.29,3.76h0c-.38,.35-.74,.62-1.05,.83-.95,.63-1.61,.75-2.11,.84-.4,.06-.84,.1-1.34,.1-.41,0-.84-.02-1.28-.06-.25-.02-.5-.05-.75-.08-.25-.04-.51-.08-.78-.12-.12-.02-.25-.05-.38-.07-.41-.08-.82-.18-1.23-.29-.15-.04-.29-.08-.44-.13-.08-.03-.17-.05-.25-.08-1.06-.34-2.12-.8-3.1-1.37-.21-.12-.41-.25-.61-.38-1.93-1.28-3.47-3.1-4-5.55-.02-.12-.05-.24-.07-.37-.05-.31-.13-.74-.14-1.46-.02-1.01,.07-2.57,.51-5.13,0,0,0,0,0,0h0c.18-1.05,.41-2.24,.72-3.62,.73-3.29,1.86-7.65,3.59-13.46,.09-.32,.19-.63,.29-.96h0c.22-.72,.44-1.47,.68-2.23-.05,.04-.09,.07-.13,.11-.72,.56-1.6,.85-2.49,.85-.42,0-.83-.06-1.24-.19-1.41-.45-2.55-1.41-3.25-2.69-.3-.54-.52-1.13-.65-1.77-.32-1.59-.05-3.34,.68-4.85,.45-.93,1.07-1.77,1.83-2.43,.02-.02,.04-.04,.06-.05,.96-.79,2.17-1.52,3.47-2.17,.36-.19,.72-.36,1.1-.53h0s.03-.02,.05-.02c.21-.09,.41-.19,.62-.28,1.13-.49,2.29-.93,3.39-1.31,.57-.19,1.13-.38,1.64-.55,.32-.95,.62-1.83,.88-2.6,.08-.24,.17-.48,.24-.7,.48-1.38,.84-2.37,1.03-2.89,.08-.24,.14-.37,.14-.39,.03-.06,.05-.13,.08-.19,1.31-3.05,3.2-4.58,6.31-5.13,.5-.08,1.04-.13,1.6-.13,1.38,0,4.8,.28,6.71,2.9,1.08,1.46,1.37,3.35,.78,5.16,0,0-.24,.78-.34,1.11,1.03,.16,2.01,.53,2.92,1.07,1.33,.76,2.52,1.86,3.47,3.11,.61,.79,1.11,1.64,1.5,2.52,.38,.83,.64,1.68,.78,2.51l.05,.34h0c.08,.58,.08,1.11,.04,1.58Z"/><path class="g" d="M292.13,109.68c-1.05-6.15-6.52-13.46-26.35-13.77-.42,0-.84,0-1.27,0-6.56,0-14.08,.72-22.35,2.14-1.64,.28-3.31,.57-5.01,.9-.44-2.19-.62-4.47-.53-6.82,.14-4.6,3.41-16.82,4.53-19.55,.79-1.92,.62-3.95-.48-5.6-1.67-2.49-5.03-3.38-7.4-3.38-.48,0-.94,.04-1.37,.11-.55,.09-1.07,.26-1.57,.49-.37,.16-.72,.37-1.05,.61-.07,.05-.14,.11-.21,.17-.37,.28-.7,.62-1,.99-.08-.03-.16-.06-.24-.09-.07-.02-.14-.05-.22-.08-1.07-.35-2.25-.53-3.51-.53-.12,0-.25,0-.38,0-.18,0-.37,.01-.57,.03-.55,.04-1.13,.11-1.73,.21-2.49,.43-4.84,1.44-6.98,2.98-2.35,1.69-4.45,4.02-6.21,6.92-.63,1.04-1.22,2.16-1.76,3.34-1.03,2.25-1.83,4.67-2.38,7.09-.19,.81-.34,1.63-.47,2.43h0c-.02,.11-.04,.21-.05,.31,0,0,0,.01,0,.02-.08,.47-.14,.93-.18,1.38h0c-.11,.95-.17,1.89-.18,2.79-.02,.97,.02,1.9,.11,2.79h0c.03,.3,.06,.6,.11,.88,.02,.14,.04,.27,.06,.4,.14,.84,.38,1.63,.72,2.37h0c.61,1.39,1.53,2.6,2.68,3.59,1.12,.96,2.46,1.7,3.96,2.17,.08,.02,.15,.05,.24,.07,.4,.12,.81,.23,1.24,.3,.09,.02,.19,.04,.28,.05-.14,.05-.28,.09-.42,.14-.65,.22-1.31,.44-1.96,.66-.14,.04-.27,.09-.4,.14-2.19,.75-4.4,1.55-6.57,2.39-.34,.12-.67,.25-1,.38-2.59,1.01-5.16,2.07-7.64,3.18-.12,.05-.24,.11-.36,.16-.57,.25-1.13,.51-1.69,.77-.56,.26-1.11,.52-1.66,.78-.13,.06-.25,.12-.38,.18h0c-1.71,.84-3.37,1.69-4.97,2.57-2.88,1.57-5.54,3.21-7.9,4.91-3.5,2.51-6.33,5.13-8.21,7.82-3.85,5.44-3.16,12.52-.77,17.13,1.85,3.58,4.09,4.33,5.64,4.33,.26,0,.52-.02,.78-.06,1.41-.25,2.62-1.05,3.57-2.4,3.24-4.58,7.54-9,12.72-13.14h0c.58-.47,1.16-.93,1.76-1.37,0,0,0-.01,.01-.01,9.03-6.85,20.47-12.87,33.42-17.46,.3,.47,.62,.93,.95,1.37,1.3,1.82,2.74,3.51,4.31,5.07,7.77,7.77,18.54,12.3,30.11,12.3,2.66,0,5.37-.24,8.07-.7,6.56-1.13,12.52-4.37,16.77-9.13,4.3-4.8,6.25-10.55,5.36-15.75Zm-71.1-25.56c-.11,.27-.22,.54-.34,.81-.12,.28-.24,.56-.37,.82,.19-.64,.4-1.28,.64-1.92,.22-.6,.46-1.19,.72-1.76,.08-.18,.17-.36,.26-.53-.06,.21-.14,.43-.21,.65-.2,.6-.43,1.24-.7,1.92Zm46.39,33.99c-1.51,.27-3.09,.39-4.67,.39-7.18,0-13.92-2.6-18.7-7.03,1.9-.41,3.82-.79,5.82-1.13,5.49-.95,10.49-1.43,14.84-1.43,8.68,0,12.26,1.99,12.47,3.25,.19,1.1-1.77,4.57-9.76,5.95Z"/><path class="m" d="M171,130.04c6.71-9.6,29.43-19.86,53.02-26.1-1.23-3.72-1.83-7.71-1.7-11.83-2.5,3.94-5.38,7.11-7.9,7.55-3.57,.62-7.98-1.22-8.68-5.28-1.43-8.28,3.67-24.79,14.63-26.68,4.06-.7,6.22,.68,7.34,2.83,.54-1.26,.95-2.25,1.24-2.97,.41-.99,1.08-1.52,1.89-1.66,1.7-.29,5.96,.65,4.84,3.35-1.18,2.88-4.67,15.6-4.83,20.98-.17,4.38,.5,8.27,1.67,11.67,2.89-.67,5.74-1.15,8.58-1.64,23.22-4,43.41-2.79,45.32,8.33,1.4,8.12-6.82,18.14-18.84,20.21-18.43,3.17-33.85-5.79-40.96-18.95-20.48,6.79-41.7,18.55-52.99,34.53-.34,.48-.63,.69-.96,.75-1.87,.32-6.18-8.72-1.68-15.09Zm44.01-36.17c6.66-1.15,13.94-22.96,7.6-21.87-7.63,1.31-11.5,22.54-7.6,21.87Zm32.44,10.72c-3.98,.68-8.09,1.56-12.32,2.71,6.68,10.64,19.96,14.95,31.25,13.01,10.31-1.78,13.67-7.03,13.05-10.61-1.15-6.66-14.6-8.1-31.98-5.11Z"/><path class="m" d="M64.02,94.62c4.06-.7,6.22,.68,7.34,2.83,.54-1.26,.95-2.25,1.24-2.97,.41-.99,1.08-1.52,1.89-1.66,1.7-.29,5.96,.65,4.84,3.35-1.47,3.6-6.3,22.15-4.35,21.82,1.38-.24,5.01-5.88,8.69-11.69,.54-.76,1.05-1.18,1.62-1.28,1.14-.2,2.09,.98,1.33,2.36-4.32,7.93-9.3,15.9-11.41,16.26-1.79,.31-8.1-.95-8.91-5.15-2.54,4.2-5.54,7.64-8.22,8.1-3.57,.62-7.98-1.22-8.68-5.28-1.43-8.28,3.67-24.79,14.63-26.68Zm-5.36,26.17c6.66-1.15,13.94-22.96,7.6-21.87-7.63,1.31-11.5,22.54-7.6,21.87Z"/><path class="m" d="M188.45,97.36c-.75-4.38,4.05-20.68,8.05-32.9-3.77,.9-7.07,2.14-8.99,3.64-1.86-.6-1.45-3.6,0-4.85,2.05-1.69,6.35-3.43,10.89-4.72,1.64-5.05,2.89-8.44,2.89-8.44,.78-1.81,1.5-2.43,3.29-2.74,1.79-.31,5.33,.34,4.57,2.73-.05,.18-.87,2.74-1.97,6.52,1.64-.2,3.21-.3,4.39-.25,2.68,.04,5.35,3.43,5.79,5.94,.11,.65,.13,1.23-.28,1.3-.41,.07-.91-.43-2.03-.65-2.33-.43-5.92-.4-9.7,0-3.62,12.49-8.45,30.04-7.82,33.7,.03,.16,.12,.23,.29,.2,1.38-.24,5.01-5.88,8.69-11.69,.54-.76,1.05-1.18,1.62-1.28,1.22-.21,2.09,.98,1.33,2.36-4.24,7.92-9.3,15.9-11.41,16.26-1.79,.31-8.85-.9-9.58-5.12Z"/><path class="m" d="M189.93,87.99c.54-.76,1.05-1.18,1.62-1.28,1.22-.21,2.09,.98,1.33,2.36-4.24,7.92-9.3,15.9-11.41,16.26-1.79,.31-8.2-1.01-8.93-5.23-1.06-6.17,4.73-20.12,6.33-23.91,.41-.99,1.08-1.52,1.89-1.66,1.71-.29,5.96,.65,4.84,3.35-1.47,3.6-6.3,22.15-4.35,21.82,1.38-.24,5.01-5.88,8.69-11.69Zm-4.18-17c-1.7,.29-5.15-.78-4.86-2.51,.12-.77,1.15-6.89,1.97-9.45,.39-1.15,1.29-1.73,2.43-1.92,2.84-.49,7.07,1.71,6.22,3.61-1.07,2.52-4.14,7.99-4.85,9.7-.12,.27-.42,.49-.9,.57Z"/><path class="m" d="M146.58,97.88c-1.22,.21-2.33-.94-1.62-2.14,2.09-3.37,4.08-6.89,5.62-9.58-.41,.07-.73,.13-.97,.17-2.36,.41-4.24-2.78-4.83-4.27-.4-.85,.06-1.6,.71-1.71,.08-.01,.18,.05,.26,.04,.52,.08,4.26-.48,8.24-1.17,4.87-.84,10.13-1.83,10.87-1.95,1.71-.29,5.96,.65,4.84,3.35-1.47,3.6-6.3,22.15-4.35,21.82,1.38-.24,5.01-5.88,8.69-11.69,.54-.76,1.05-1.18,1.62-1.28,1.22-.21,2.09,.98,1.33,2.36-4.24,7.92-9.3,15.9-11.41,16.26-1.79,.31-8.2-1.01-8.93-5.23-.77-4.47,2.04-12.89,4.22-18.7-2.34,.49-4.84,1-6.95,1.36-1.45,2.76-3.63,7.06-5.99,11.31-.39,.65-.83,.98-1.32,1.06Z"/><path class="m" d="M128.64,83.5c12.34-2.12,14.91,8.89,11.04,18.5,1.47-.67,2.71-1.72,3.57-3.04,1.18-1.88,1.56-2.61,2.03-3.27,.46-.75,1.05-1.18,1.62-1.28,1.14-.2,2.09,.98,1.33,2.36-2.56,5.04-4.88,8.53-10.93,9.82-2.86,4.25-7.06,7.57-12.17,8.45-9.5,1.64-11.94-4.3-12.56-7.87-1.22-7.06,4.54-21.68,16.07-23.66Zm-2.11,25.61c1.46-.25,2.89-1.17,4.17-2.47-4.1-.97-7.58-3.71-8.84-8.59-.8,2.65-1.18,5.3-.79,7.58,.27,1.54,1.39,4.19,5.45,3.49Zm4.27-21.3c-2.11,.36-5.8,3.67-4.92,8.79,.61,3.57,3.84,5.78,7.43,6.24,3.61-6.72,4.23-16.19-2.5-15.03Z"/><path class="m" d="M2.31,91.62c.16-5.38,4.67-12.67,15.11-16.14,3.8-1.24,7.74-2.17,11.55-2.82,12.1-2.08,23.94-1.78,33.35-3.4,3.33-.57,8.44-1.95,10.61-4.42,.13-.19,.36-.31,.69-.37,.41-.07,.76,.04,.92,.51,.94,3.02-.94,9.11-3.87,11.03-1.28,.81-3.11,1.37-5.3,1.75-6.41,1.1-16.17,.78-25.5,.96-.82,2.98-3.32,11.77-5.78,21.31,6.82-1.17,13.4-2.31,13.99-2.74,.08-.01,.15-.11,.23-.12,.65-.11,1.33,.44,1.27,1.54-.1,1.86-.84,5.83-3.43,6.28-1.71,.29-7.73,1.25-13.99,2.24-2.02,8.2-3.86,15.96-4.4,20.07-.33,2.48-.77,6.23-.75,7.32-.02,.84-.22,1.12-1.04,1.26-2.55-.23-7.08-1.79-7.68-5.28-.5-2.92,1.7-12,4.53-21.76-3.73,.64-6.48,1.2-6.86,1.43-.07,.09-.23,.12-.31,.14-.65,.11-1.25-.45-1.19-1.55,.1-1.86,.84-5.83,3.43-6.28,1.06-.18,3.75-.56,7.08-1.14,2.93-9.7,6.03-18.84,7.19-22.3-2.14,.2-4.2,.39-6.06,.71-8.28,1.43-16.14,6.29-16.11,15.65-.02,1.34,.32,2.37,1.09,3.41,.22,.3,.03,1.16-.94,1.33-3.82,.66-7.96-3.48-7.83-8.6Z"/></g><polyline class="l" points="193.74 62.89 193.7 62.9 190.18 63.49 186.84 64.05 184.77 64.4 181.51 64.95 179.41 65.3"/><path class="i" d="M96.9,53.53s-.01,.05-.02,.08c-.19,.87-.38,1.73-.56,2.57-.06,.31-.13,.62-.19,.93-.35,.13-.69,.27-1.02,.4-.59,.24-1.15,.48-1.67,.74-1.16,.55-2.14,1.15-2.91,1.79,.19-.23,1.37-1.59,3.27-3.51,.88-.9,1.93-1.92,3.11-3Z"/><path class="i" d="M113.3,52.1c-1.08-.5-2.33-.77-3.64-.77-.68,0-1.33,.08-1.92,.22-.86,.21-1.65,.59-2.34,1.1-.22-.02-.44-.02-.67-.02-.13,0-.26,0-.38,0-.75,.03-1.54,.14-2.35,.34-.5,.12-.98,.28-1.46,.47,.24-1.08,.49-2.19,.75-3.33l.02-.09c.03-.12,.05-.24,.08-.36,5.76-4.64,13.2-9.37,20.81-10.72,.09-.02,.19-.04,.28-.05,2.3-.42,4.08-.02,4.99,1.6,3.24,5.71-4.67,8.89-14.15,11.61Z"/><path class="i" d="M124.54,158.17c.84,.22,17.52,4.33,28.38-.78,.06-.03,.13-.06,.19-.09,1.58-.73,2.49-1.74,2.35-3.12-.94-9.35-22.87,4.64-30.92,3.99Z"/><g><path class="g" d="M151.3,50.79c-.42,1.63-.42,3.41-1.74,4.71-.26,.25-.46,.7-.44,1.04,.07,1.64-.6,3.04-1.23,4.49-.48,1.13-.71,2.33-.26,3.57,.08,.22-.17,1.21-.49,2.24l-4.74,.78c.44-.34,.76-.78,.74-1.27-.06-1.62,.91-2.79,1.41-4.17,.5-1.41,.93-2.85,1.33-4.29,.29-1.03,.65-1.95,1.6-2.59,1-.68,1.62-1.67,1.78-2.91,.13-.91,.26-1.81,.43-3.01,.81,.3,1.19,.32,1.37,.52,.19,.21,.31,.62,.25,.88Z"/><path class="g" d="M137.41,128.33c-.1,.76-.13,1.54-.13,2.33,0,.14,0,.28,0,.42-.04,2.35-.57,4.57-1.23,6.78-.18,.1-.35,.19-.53,.3-.21,.13-.41,.26-.61,.39-.11,.08-.22,.15-.33,.23-.23,.15-.45,.32-.67,.49-.31,.25-.62,.49-.91,.76-2.04,1.83-3.6,4.14-4.56,6.69h0c-1.63,.16-3.33,.46-5.1,.95,.26-.91,.81-1.42,1.55-1.94,.49-.35,.75-1.04,1.06-1.6,.26-.45,.47-.94,.64-1.42,.33-.98,.64-1.97,.93-2.95,.25-.86,.43-1.74,.7-2.6,.25-.79,.55-1.57,.82-2.36,.09-.26,.17-.52,.25-.78,.32-1.1,.54-2.23,.86-3.57-.1-.28-.18-.57-.24-.86l7.53-1.24Z"/><path class="g" d="M164.91,129.93c.55,1.88,.5,3.75-.57,5.39h0c-.08,.03-.15,.04-.23,.07-.16,.05-.32,.09-.47,.14-.23,.07-.46,.15-.68,.23-.5,.17-.99,.36-1.46,.56-.18,.07-.35,.15-.53,.23-.17,.08-.35,.16-.52,.24-.17,.08-.34,.17-.5,.25,.44-.78,.8-1.62,1.21-2.42-.55-1.53,1.12-3.12-.13-4.66-.11-.14,.13-.6,.26-.89,.47-1,.97-1.99,1.45-2.99,.17-.35,.43-.7,.45-1.07,.02-.33,.05-.65,.09-.97l3.16-.52c-.44,1.66-.96,3.31-1.52,4.95-.18,.53-.18,.92-.02,1.46Z"/><path class="g" d="M114.31,61.64c-.12,.72-.28,1.45-.42,2.17-.14,.73-.24,1.46-.22,2.19,.02,.93-.09,1.82-.23,2.71-.14,.9-.32,1.79-.42,2.7-.05,.38-.13,.75-.21,1.11h0l-1.92,.32-1.51,.25c.01-.11,.02-.22,.03-.34,.05-1.1,.42-2.02,1.12-2.86,.41-.49,.82-1.06,1-1.64,.04-.11,.07-.22,.11-.34,.38-1.21,.82-2.45,.82-3.67v-.04c.09-.18,.18-.34,.27-.5,.14-.27,.28-.52,.39-.74l.02-.04,.02-.04c.07-.12,.2-.34,.39-.57,.19-.23,.44-.48,.77-.68Z"/></g><path class="g" d="M103.87,144.62c.23-1.48,.69-2.96,.65-4.44-.04-1.86,.43-3.6,.65-5.41,.04-.38,.13-.75,.21-1.12h0l3.44-.57c-.01,.11-.02,.22-.03,.34-.06,1.09-.43,2.02-1.12,2.86-.41,.5-.82,1.06-1,1.65-.4,1.31-.93,2.67-.93,4.01-.02,1.81-1.2,3.02-1.65,4.66-.76-.74-.33-1.37-.23-1.99Z"/><circle class="g" cx="71.83" cy="142.99" r="3.14"/><circle class="g" cx="209.72" cy="135.1" r="3.14"/><g><path class="f" d="M117.61,62.14c-.32-.39-.75-.67-1.21-.8-.42-.12-.87-.14-1.33-.02-.29,.07-.54,.19-.77,.32-.32,.2-.58,.45-.77,.68-.19,.23-.32,.45-.39,.57l-.02,.04-.02,.04c-.11,.22-.25,.47-.39,.74-.09,.16-.18,.32-.27,.5-.02,.05-.05,.09-.08,.15,.02-.18,.06-.37,.09-.55,.01-.07,.02-.14,.04-.21,.35-2,.75-3.89,1.01-4.68,.34-1.03,.13-2.06-.57-2.82-1.14-1.22-3.22-1.38-4.34-1.1-.84,.21-1.52,.74-1.94,1.53-.16-.07-.35-.12-.54-.17-.48-.13-1.03-.19-1.64-.16-.49,.02-1.03,.09-1.61,.24-.81,.21-1.57,.52-2.26,.92-.37,.22-.72,.46-1.05,.72-2.8,2.22-4.42,6.03-5.03,9.61h0c-.17,.97-.26,1.92-.28,2.81h0c-.04,1.31,.07,2.49,.31,3.46v.05h.01c.26,1,.77,1.8,1.42,2.42h0c.88,.83,2.02,1.33,3.21,1.5,.45,.06,.9,.08,1.35,.06,.39-.02,.78-.08,1.16-.18,.97-.24,1.93-.88,2.86-1.91,.4-.44,.8-.96,1.19-1.55,.72,.49,1.56,.81,2.36,1l.07,.02c.09,.02,.18,.05,.27,.06,.88,.18,1.72,.2,2.33,.11,.11-.02,.21-.04,.3-.06,.83-.21,2.37-.59,6.85-10.45,.45-.99,.34-2.09-.31-2.86Zm-14.44,5.83c-.07,.18-.15,.35-.23,.52-.28,.59-.55,1.05-.8,1.42-.01,.02-.03,.04-.04,.06,0-.05,0-.11,.01-.17,.05-1.06,.24-2.42,.62-3.76,.19-.7,.45-1.4,.76-2.04,.24-.49,.49-.9,.75-1.21,.06-.09,.13-.17,.2-.24,0,.34-.04,.75-.09,1.23-.17,1.17-.53,2.68-1.18,4.18Z"/><path class="f" d="M99.37,69.62c-1.01,2.25-1.87,4.01-2.62,5.39h0c-.28,.52-.54,.98-.78,1.4h0c-.89,1.49-1.57,2.35-2.1,2.87-.65,.62-1.07,.72-1.34,.8-.05,.01-.1,.02-.15,.03-1.63,.3-6.43-.21-7.44-3.57l-.05-.19c-.44-1.78,.22-6.26,1.21-11.15,.81-3.97,1.84-8.21,2.68-11.48,.58-2.27,1.07-4.08,1.32-5l.02-.06,.02-.05c.55-1.59,1.41-2.4,2.95-2.78,.75-.19,2.29-.29,3.47,.41,.22,.12,.42,.27,.6,.45,.68,.67,.93,1.61,.7,2.58l-.03,.12c-.32,1.42-.63,2.82-.93,4.17,0,.03-.01,.05-.02,.08-.19,.87-.38,1.73-.56,2.57-.06,.31-.13,.62-.19,.93-.98,4.66-1.76,8.68-2.25,11.73,.24-.43,.45-.83,.63-1.17h0s.03-.06,.05-.09l.02-.04,.02-.04c.16-.26,.57-.94,1.34-1.35,.18-.09,.37-.17,.59-.22,.96-.24,1.94,.07,2.55,.81,.64,.78,.75,1.88,.3,2.88Z"/><g><path class="g" d="M114.89,62.74c-.31,.08-.58,.33-.85,.78-1.8,3.38-3.59,6.66-4.34,6.84-1.07,.27,.86-10.23,1.53-12.28,.51-1.55-1.89-1.89-2.82-1.66-.44,.11-.79,.43-.98,1-.14,.41-.32,.98-.57,1.7-.71-1.15-1.97-1.83-4.19-1.27-4.16,1.03-6.47,5.84-7.12,10.21-.23,1.51-.26,2.98-.09,4.21,.04,.35,.11,.67,.18,.98,.55,2.22,3.08,3.06,5.03,2.57,1.47-.36,2.99-2.4,4.23-4.83,.62,2.3,4.17,2.74,5.15,2.5,1.16-.29,3.6-4.91,5.67-9.49,.37-.8-.21-1.41-.83-1.26Zm-14.13,9.84c-2.14,.53-.85-11.41,3.33-12.45,3.47-.86,.32,11.54-3.33,12.45Z"/><path class="g" d="M95.49,68.13c.27-.44,.53-.7,.85-.78,.67-.17,1.2,.46,.83,1.26-2.03,4.57-4.51,9.2-5.67,9.49-.98,.24-4.95-.14-5.52-2.45-1-4,5.2-26.75,5.2-26.75,.36-1.03,.74-1.41,1.71-1.65s2.97-.03,2.64,1.33c-.11,.5-5.33,23.19-4.56,26.31,.02,.09,.08,.12,.17,.1,.76-.19,2.54-3.47,4.34-6.84Z"/></g></g></g></g></svg>